<svg 
xmlns="http://www.w3.org/2000/svg"
xmlns:xlink="http://www.w3.org/1999/xlink"
width="19px" height="19px">
<path fill-rule="evenodd"  opacity="0.87"
d="M13.237,11.544 L12.421,11.544 L12.133,11.264 C13.189,10.082 13.717,8.681 13.717,7.063 C13.717,6.160 13.544,5.313 13.199,4.519 C12.854,3.726 12.391,3.041 11.811,2.465 C11.231,1.889 10.541,1.431 9.741,1.088 C8.941,0.746 8.103,0.575 7.225,0.575 C6.315,0.575 5.460,0.747 4.660,1.090 C3.860,1.435 3.171,1.895 2.590,2.473 C2.010,3.052 1.548,3.739 1.203,4.536 C0.858,5.333 0.685,6.184 0.685,7.090 C0.685,7.997 0.857,8.841 1.201,9.622 C1.545,10.403 2.005,11.083 2.584,11.661 C3.162,12.239 3.850,12.700 4.646,13.044 C5.443,13.388 6.294,13.559 7.201,13.559 C8.826,13.559 10.232,13.044 11.420,12.012 L11.701,12.294 L11.701,13.090 L16.717,18.059 L18.217,16.548 L13.237,11.544 ZM4.014,10.238 C3.138,9.368 2.701,8.311 2.701,7.067 C2.701,5.823 3.138,4.766 4.014,3.896 C4.888,3.026 5.951,2.590 7.201,2.590 C8.451,2.590 9.513,3.026 10.389,3.896 C11.263,4.766 11.701,5.823 11.701,7.067 C11.701,8.311 11.263,9.368 10.389,10.238 C9.513,11.108 8.451,11.544 7.201,11.544 C5.951,11.544 4.888,11.108 4.014,10.238 Z"/>
</svg>