<svg 
 xmlns="http://www.w3.org/2000/svg"
 xmlns:xlink="http://www.w3.org/1999/xlink"
 width="21px" height="21px">
<path fill-rule="evenodd"
 d="M14.702,13.241 L13.750,13.241 L13.415,12.915 C14.646,11.536 15.262,9.902 15.262,8.013 C15.262,6.961 15.060,5.972 14.658,5.046 C14.255,4.120 13.715,3.321 13.039,2.650 C12.362,1.978 11.557,1.443 10.624,1.043 C9.691,0.644 8.712,0.444 7.688,0.444 C6.627,0.444 5.629,0.645 4.696,1.046 C3.763,1.448 2.958,1.985 2.281,2.659 C1.605,3.334 1.065,4.136 0.662,5.065 C0.260,5.995 0.059,6.989 0.059,8.046 C0.059,9.104 0.259,10.088 0.660,10.999 C1.061,11.911 1.599,12.704 2.274,13.378 C2.948,14.053 3.750,14.591 4.680,14.991 C5.610,15.393 6.603,15.593 7.660,15.593 C9.556,15.593 11.196,14.991 12.582,13.788 L12.910,14.116 L12.910,15.046 L18.762,20.843 L20.512,19.080 L14.702,13.241 ZM3.942,11.719 C2.921,10.703 2.410,9.470 2.410,8.019 C2.410,6.568 2.921,5.335 3.942,4.320 C4.962,3.304 6.202,2.796 7.660,2.796 C9.118,2.796 10.358,3.304 11.379,4.320 C12.399,5.335 12.910,6.568 12.910,8.019 C12.910,9.470 12.399,10.703 11.379,11.719 C10.358,12.734 9.118,13.241 7.660,13.241 C6.202,13.241 4.962,12.734 3.942,11.719 Z"/>
</svg>