<?xml version="1.0" encoding="UTF-8"?>
<!DOCTYPE svg PUBLIC "-//W3C//DTD SVG 1.1//EN" "http://www.w3.org/Graphics/SVG/1.1/DTD/svg11.dtd">
<!-- Creator: CorelDRAW 2021.5 -->
<svg xmlns="http://www.w3.org/2000/svg" xml:space="preserve" width="99.4235mm" height="38.0289mm" version="1.1" style="shape-rendering:geometricPrecision; text-rendering:geometricPrecision; image-rendering:optimizeQuality; fill-rule:evenodd; clip-rule:evenodd"
viewBox="0 0 5479.39 2095.83"
 xmlns:xlink="http://www.w3.org/1999/xlink"
 xmlns:xodm="http://www.corel.com/coreldraw/odm/2003">
 <defs>
  <style type="text/css">
   <![CDATA[
    .str0 {stroke:#FEFEFE;stroke-width:19.44;stroke-miterlimit:22.9256}
    .fil1 {fill:none;fill-rule:nonzero}
    .fil0 {fill:#FEFEFE;fill-rule:nonzero}
   ]]>
  </style>
 </defs>
 <g id="Слой_x0020_1">
  <metadata id="CorelCorpID_0Corel-Layer"/>
  <path class="fil0" d="M1047.91 2032.07c271.77,0 517.82,-110.16 695.91,-288.25 178.09,-178.09 288.24,-424.14 288.24,-695.92 0,-271.77 -110.16,-517.82 -288.24,-695.91 -178.09,-178.09 -424.14,-288.24 -695.91,-288.24 -271.78,0 -517.82,110.16 -695.91,288.24 -178.09,178.09 -288.24,424.14 -288.24,695.91 0,271.78 110.16,517.82 288.24,695.92 178.09,178.09 424.14,288.25 695.91,288.25zm740.98 -243.18c-189.63,189.63 -451.62,306.93 -740.98,306.93 -289.36,0 -551.34,-117.3 -740.98,-306.93 -189.64,-189.64 -306.93,-451.63 -306.93,-740.99 0,-289.36 117.29,-551.34 306.93,-740.98 189.63,-189.64 451.62,-306.93 740.98,-306.93 289.36,0 551.34,117.29 740.98,306.93 189.64,189.63 306.93,451.62 306.93,740.98 0,289.36 -117.29,551.35 -306.93,740.99z"/>
  <g id="_2516123956976" filter="url(#filter0_dd_1_34)">
   <path class="fil0" d="M956.47 997.11l0 904.27c-125.2,-18.78 -179.5,-23.7 -308.19,-84.67l0 -948.31 64.35 -30.48 243.85 159.18z"/>
   <path class="fil0" d="M956.47 997.11l0 904.27c-125.2,-18.78 -179.5,-23.7 -308.19,-84.67l0 -948.31 64.35 -30.48 243.85 159.18z"/>
  </g>
  <g id="_2516123959856" filter="url(#filter1_dd_1_34)">
   <polygon class="fil0" points="1518.67,583.92 1518.67,1017.43 1410.3,946.31 1122.42,1078.4 1115.65,394.26 1180.4,363.78 "/>
   <polygon class="fil0" points="1518.67,583.92 1518.67,1017.43 1410.3,946.31 1122.42,1078.4 1115.65,394.26 1180.4,363.78 "/>
  </g>
  <g id="_2516123970512" filter="url(#filter2_dd_1_34)">
   <path class="fil0" d="M1654.15 1132.58l0 514.79c-113.51,106.82 -170.12,132.89 -302.39,193.77l-5.81 2.66 0 -839.92 64.36 -30.48 243.85 159.18z"/>
   <path class="fil0" d="M1654.15 1132.58l0 514.79c-113.51,106.82 -170.12,132.89 -302.39,193.77l-5.81 2.66 0 -839.92 64.36 -30.48 243.85 159.18z"/>
  </g>
  <g id="_2516123977712" filter="url(#filter3_dd_1_34)">
   <path class="fil0" d="M1115.65 1105.49l291.26 -132.09 -44.02 71.12 -206.59 98.21 0 755.26c-14.05,2.63 -22.73,2.95 -40.64,0l0 -792.51z"/>
   <path class="fil0" d="M1115.65 1105.49l291.26 -132.09 -44.02 71.12 -206.59 98.21 0 755.26c-14.05,2.63 -22.73,2.95 -40.64,0l0 -792.51z"/>
  </g>
  <g id="_2516123983904" filter="url(#filter4_dd_1_34)">
   <path class="fil0" d="M424.74 970.02l291.26 -132.09 -47.42 74.52 -209.98 98.21 0 677.35c-15.22,-8.09 -22.84,-13.76 -33.87,-27.1l0 -690.9z"/>
   <path class="fil0" d="M424.74 970.02l291.26 -132.09 -47.42 74.52 -209.98 98.21 0 677.35c-15.22,-8.09 -22.84,-13.76 -33.87,-27.1l0 -690.9z"/>
  </g>
  <g id="_2516123993888" filter="url(#filter5_dd_1_34)">
   <polygon class="fil0" points="804.07,533.12 1179.99,363.78 1135.97,434.91 871.8,563.6 871.8,902.28 804.07,854.87 "/>
   <polygon class="fil0" points="804.07,533.12 1179.99,363.78 1135.97,434.91 871.8,563.6 871.8,902.28 804.07,854.87 "/>
  </g>
  <g id="_2516123993984">
   <line class="fil1 str0" x1="2183.48" y1="1543" x2="5479.39" y2= "1543" />
   <line class="fil1 str0" x1="2183.48" y1="543.91" x2="5479.39" y2= "543.91" />
  </g>
  <path class="fil0" d="M2584.31 1305.44c-7.93,0 -15.1,1.39 -21.49,4.17 -6.4,2.65 -11.82,6.61 -16.28,11.9 -4.45,5.14 -7.85,11.47 -10.21,18.98 -2.37,7.37 -3.55,15.72 -3.55,25.04 0,12.23 1.88,22.87 5.63,31.92 3.9,9.05 9.6,15.99 17.12,20.86 7.64,4.87 17.17,7.3 28.58,7.3 6.54,0 12.73,-0.55 18.57,-1.66 5.84,-1.11 11.53,-2.51 17.11,-4.18l0 16.28c-5.57,2.08 -11.34,3.62 -17.32,4.59 -5.84,0.97 -12.87,1.47 -21.07,1.47 -15.16,0 -27.81,-3.14 -37.97,-9.39 -10.15,-6.26 -17.8,-15.16 -22.94,-26.7 -5.01,-11.55 -7.51,-25.11 -7.51,-40.68 0,-11.26 1.53,-21.56 4.59,-30.88 3.2,-9.31 7.79,-17.39 13.77,-24.19 6.12,-6.81 13.63,-12.04 22.54,-15.66 8.89,-3.75 19.12,-5.63 30.66,-5.63 7.65,0 15.02,0.76 22.11,2.3 7.09,1.53 13.41,3.68 18.99,6.46l-7.51 15.86c-4.59,-2.09 -9.74,-3.97 -15.44,-5.64 -5.57,-1.67 -11.68,-2.51 -18.36,-2.51zm104.69 134.57l-18.78 0 0 -132.47 -46.52 0 0 -16.48 111.61 0 0 16.48 -46.31 0 0 132.47zm97.78 -148.95c19.47,0 33.65,3.82 42.55,11.47 8.91,7.65 13.35,18.43 13.35,32.34 0,6.12 -1.05,12.02 -3.13,17.73 -1.94,5.56 -5.21,10.56 -9.8,15.01 -4.6,4.45 -10.71,8 -18.36,10.65 -7.64,2.5 -17.03,3.75 -28.16,3.75l-17.1 0 0 58 -18.78 0 0 -148.95 39.44 0zm-1.67 16.05l-18.99 0 0 58.83 15.01 0c9.46,0 17.32,-0.96 23.58,-2.92 6.26,-2.09 10.91,-5.36 13.98,-9.8 3.06,-4.46 4.6,-10.3 4.6,-17.53 0,-9.6 -3.06,-16.76 -9.18,-21.49 -6.13,-4.72 -15.79,-7.1 -28.99,-7.1zm208.08 58.21c0,11.55 -1.45,22.04 -4.38,31.5 -2.92,9.31 -7.3,17.39 -13.14,24.2 -5.71,6.82 -12.87,12.02 -21.49,15.65 -8.48,3.62 -18.36,5.43 -29.62,5.43 -11.68,0 -21.84,-1.81 -30.47,-5.43 -8.62,-3.75 -15.78,-8.97 -21.49,-15.65 -5.69,-6.81 -9.94,-14.95 -12.72,-24.41 -2.79,-9.46 -4.17,-19.95 -4.17,-31.5 0,-15.3 2.5,-28.65 7.51,-40.05 5.01,-11.4 12.58,-20.31 22.73,-26.71 10.3,-6.39 23.23,-9.59 38.8,-9.59 14.89,0 27.41,3.2 37.55,9.59 10.16,6.26 17.81,15.16 22.95,26.71 5.3,11.4 7.93,24.82 7.93,40.26zm-117.66 0c0,12.52 1.74,23.29 5.22,32.33 3.47,9.04 8.83,15.99 16.06,20.87 7.37,4.87 16.63,7.3 27.75,7.3 11.26,0 20.44,-2.42 27.53,-7.3 7.24,-4.87 12.59,-11.82 16.07,-20.87 3.47,-9.04 5.22,-19.82 5.22,-32.33 0,-18.77 -3.9,-33.45 -11.69,-44.02 -7.78,-10.71 -20.09,-16.06 -36.93,-16.06 -11.26,0 -20.58,2.43 -27.95,7.3 -7.23,4.72 -12.59,11.61 -16.06,20.66 -3.48,8.9 -5.22,19.6 -5.22,32.12zm140.45 -74.26l17.53 0 0 81.77c0,3.47 -0.06,7.3 -0.2,11.47 0,4.04 -0.07,8.07 -0.21,12.11 -0.14,4.03 -0.35,7.64 -0.62,10.85 -0.15,3.05 -0.29,5.42 -0.42,7.09l0.83 0 81.98 -123.29 20.87 0 0 148.95 -17.53 0 0 -80.94c0,-3.76 0.07,-7.79 0.21,-12.11 0.14,-4.45 0.28,-8.68 0.41,-12.71 0.29,-4.17 0.48,-7.86 0.63,-11.06 0.14,-3.2 0.28,-5.56 0.41,-7.09l-0.84 0 -82.19 123.92 -20.87 0 0 -148.95zm196.64 148.95l-18.78 0 0 -132.47 -46.51 0 0 -16.48 111.61 0 0 16.48 -46.32 0 0 132.47zm141.58 0l-83.24 0 0 -148.95 83.24 0 0 16.48 -64.46 0 0 46.52 60.71 0 0 16.27 -60.71 0 0 53.2 64.46 0 0 16.48zm129.48 0l-18.78 0 0 -132.47 -47.14 0c-0.96,7.65 -2.02,15.72 -3.14,24.21 -1.12,8.34 -2.28,16.62 -3.54,24.82 -1.11,8.21 -2.22,15.93 -3.33,23.15 -1.11,7.23 -2.22,13.56 -3.34,18.99 -1.8,9.31 -4.03,17.24 -6.67,23.78 -2.64,6.54 -6.2,11.47 -10.66,14.81 -4.3,3.34 -10.01,5.01 -17.1,5.01 -2.36,0 -4.79,-0.28 -7.29,-0.84 -2.36,-0.41 -4.46,-0.97 -6.27,-1.67l0 -15.65c1.54,0.7 3.26,1.33 5.22,1.88 1.95,0.42 4.05,0.63 6.27,0.63 4.17,0 7.43,-1.67 9.8,-5.01 2.5,-3.47 4.46,-7.71 5.85,-12.71 1.38,-5.15 2.57,-10.23 3.53,-15.23 0.83,-4.04 1.81,-9.4 2.93,-16.07 1.11,-6.81 2.3,-14.74 3.56,-23.78 1.39,-9.04 2.78,-18.85 4.17,-29.41 1.53,-10.72 2.99,-21.84 4.38,-33.38l81.57 0 0 148.95zm30.04 0l0 -148.95 18.78 0 0 63 27.95 0c13.9,0 24.96,1.87 33.17,5.64 8.21,3.75 14.1,8.82 17.72,15.23 3.61,6.39 5.43,13.55 5.43,21.49 0,8.76 -2.01,16.4 -6.04,22.94 -3.9,6.54 -9.82,11.61 -17.73,15.24 -7.94,3.61 -18.02,5.42 -30.26,5.42l-49.03 0zm47.16 -16.07c12.09,0 21.18,-2.22 27.31,-6.67 6.12,-4.6 9.19,-11.56 9.19,-20.87 0,-6.4 -1.55,-11.47 -4.61,-15.23 -2.92,-3.89 -7.3,-6.67 -13.14,-8.34 -5.7,-1.67 -12.86,-2.51 -21.49,-2.51l-25.65 0 0 53.62 28.38 0zm190.16 16.07l-18.77 0 0 -69.47 -76.35 0 0 69.47 -18.78 0 0 -148.95 18.78 0 0 63 76.35 0 0 -63 18.77 0 0 148.95zm123.76 0l-17.94 -46.11 -59.04 0 -17.75 46.11 -18.97 0 58.2 -149.58 16.88 0 58.02 149.58 -19.4 0zm-40.27 -107.86c-0.42,-1.11 -1.11,-3.12 -2.09,-6.05 -0.97,-2.92 -1.95,-5.91 -2.92,-8.97 -0.84,-3.2 -1.52,-5.63 -2.08,-7.3 -0.68,2.79 -1.46,5.63 -2.29,8.55 -0.69,2.78 -1.47,5.35 -2.3,7.72 -0.69,2.38 -1.31,4.38 -1.87,6.05l-16.91 45.06 47.15 0 -16.69 -45.06zm114.47 46.11l-38.58 61.75 -21.91 0 41.73 -65.09c-5.3,-1.81 -10.3,-4.31 -15.02,-7.51 -4.59,-3.2 -8.34,-7.59 -11.26,-13.14 -2.93,-5.57 -4.39,-12.73 -4.39,-21.5 0,-13.48 4.65,-23.78 13.98,-30.87 9.32,-7.24 23.22,-10.85 41.72,-10.85l41.72 0 0 148.95 -18.77 0 0 -61.75 -29.21 0zm6.67 -71.15c-7.91,0 -14.59,0.91 -20.01,2.72 -5.42,1.81 -9.6,4.66 -12.52,8.55 -2.79,3.89 -4.17,8.97 -4.17,15.23 0,9.18 3.05,16.27 9.18,21.28 6.11,5 15.57,7.51 28.36,7.51l21.7 0 0 -55.29 -22.55 0zm215.39 132.9l-22.52 0 -67.4 -75.52 0 75.52 -18.76 0 0 -148.95 18.76 0 0 72.19 65.73 -72.19 21.27 0 -64.68 72.38 67.6 76.57zm135.73 -74.69c0,11.55 -1.47,22.04 -4.39,31.5 -2.92,9.31 -7.3,17.39 -13.14,24.2 -5.69,6.82 -12.86,12.02 -21.48,15.65 -8.48,3.62 -18.36,5.43 -29.62,5.43 -11.68,0 -21.84,-1.81 -30.47,-5.43 -8.61,-3.75 -15.78,-8.97 -21.48,-15.65 -5.69,-6.81 -9.94,-14.95 -12.72,-24.41 -2.78,-9.46 -4.18,-19.95 -4.18,-31.5 0,-15.3 2.51,-28.65 7.51,-40.05 5,-11.4 12.58,-20.31 22.73,-26.71 10.3,-6.39 23.23,-9.59 38.8,-9.59 14.88,0 27.4,3.2 37.55,9.59 10.16,6.26 17.8,15.16 22.94,26.71 5.29,11.4 7.94,24.82 7.94,40.26zm-117.66 0c0,12.52 1.74,23.29 5.2,32.33 3.49,9.04 8.85,15.99 16.07,20.87 7.37,4.87 16.63,7.3 27.75,7.3 11.26,0 20.45,-2.42 27.53,-7.3 7.25,-4.87 12.59,-11.82 16.07,-20.87 3.48,-9.04 5.22,-19.82 5.22,-32.33 0,-18.77 -3.91,-33.45 -11.69,-44.02 -7.79,-10.71 -20.08,-16.06 -36.92,-16.06 -11.26,0 -20.58,2.43 -27.95,7.3 -7.23,4.72 -12.58,11.61 -16.07,20.66 -3.46,8.9 -5.2,19.6 -5.2,32.12zm205.95 74.69l-49.03 -130.59 -0.83 0c0.29,2.78 0.48,6.33 0.62,10.64 0.28,4.31 0.5,9.04 0.63,14.19 0.15,5 0.21,10.14 0.21,15.43l0 90.33 -17.32 0 0 -148.95 27.75 0 45.9 122.04 0.83 0 46.72 -122.04 27.54 0 0 148.95 -18.57 0 0 -91.58c0,-4.88 0.07,-9.68 0.21,-14.4 0.15,-4.87 0.36,-9.39 0.62,-13.56 0.29,-4.31 0.5,-7.93 0.63,-10.85l-0.84 0 -49.64 130.39 -15.44 0zm113.12 0l0 -148.95 111.82 0 0 148.95 -18.57 0 0 -132.47 -74.47 0 0 132.47 -18.78 0zm235.62 0l-17.94 -46.11 -59.04 0 -17.72 46.11 -18.99 0 58.2 -149.58 16.9 0 58 149.58 -19.4 0zm-40.26 -107.86c-0.42,-1.11 -1.11,-3.12 -2.08,-6.05 -0.97,-2.92 -1.95,-5.91 -2.93,-8.97 -0.83,-3.2 -1.53,-5.63 -2.08,-7.3 -0.71,2.79 -1.47,5.63 -2.3,8.55 -0.7,2.78 -1.46,5.35 -2.29,7.72 -0.7,2.38 -1.32,4.38 -1.88,6.05l-16.89 45.06 47.15 0 -16.69 -45.06zm183.52 107.86l-18.78 0 0 -69.47 -76.36 0 0 69.47 -18.77 0 0 -148.95 18.77 0 0 63 76.36 0 0 -63 18.78 0 0 148.95zm30.5 -148.95l17.53 0 0 81.77c0,3.47 -0.07,7.3 -0.21,11.47 0,4.04 -0.09,8.07 -0.22,12.11 -0.15,4.03 -0.35,7.64 -0.62,10.85 -0.15,3.05 -0.28,5.42 -0.41,7.09l0.83 0 81.98 -123.29 20.87 0 0 148.95 -17.54 0 0 -80.94c0,-3.76 0.08,-7.79 0.22,-12.11 0.14,-4.45 0.26,-8.68 0.41,-12.71 0.26,-4.17 0.47,-7.86 0.62,-11.06 0.14,-3.2 0.29,-5.56 0.42,-7.09l-0.84 0 -82.18 123.92 -20.87 0 0 -148.95zm194.32 87.2l-38.58 61.75 -21.91 0 41.72 -65.09c-5.29,-1.81 -10.3,-4.31 -15.02,-7.51 -4.59,-3.2 -8.34,-7.59 -11.26,-13.14 -2.93,-5.57 -4.38,-12.73 -4.38,-21.5 0,-13.48 4.65,-23.78 13.97,-30.87 9.32,-7.24 23.23,-10.85 41.72,-10.85l41.71 0 0 148.95 -18.76 0 0 -61.75 -29.21 0zm6.69 -71.15c-7.92,0 -14.61,0.91 -20.04,2.72 -5.42,1.81 -9.58,4.66 -12.5,8.55 -2.79,3.89 -4.17,8.97 -4.17,15.23 0,9.18 3.04,16.27 9.16,21.28 6.13,5 15.58,7.51 28.37,7.51l21.71 0 0 -55.29 -22.53 0z"/>
  <path class="fil0" d="M2730.78 1163.34l-28.91 0c-47.97,0 -87.37,-6.43 -118.21,-19.27 -47.54,-19.7 -82.45,-55.89 -104.72,-108.58 -6,-14.13 -10.6,-29.66 -13.81,-46.57 -3.21,-16.92 -4.82,-33.73 -4.82,-50.43 0,-18.42 1.28,-35.12 3.85,-50.11 2.57,-14.99 7.5,-30.63 14.78,-46.9 22.27,-52.68 57.18,-88.87 104.72,-108.58 30.41,-12.85 69.82,-19.27 118.21,-19.27l28.91 0 0 89.94 -14.14 0c-31.69,0 -53.11,0.86 -64.24,2.57 -22.27,3.42 -41.33,11.56 -57.18,24.41 -8.99,7.28 -16.27,15.42 -21.84,24.41 -7.71,11.99 -12.85,25.91 -15.42,41.76l172.82 0 0 83.52 -172.82 0c1.71,16.27 6.86,31.26 15.42,44.97 7.28,11.57 16.27,20.99 26.98,28.27 15.84,10.28 37.48,16.49 64.89,18.63 11.13,0.85 24.41,1.28 39.83,1.28l25.7 0 0 89.94z"/>
  <polygon id="_1" class="fil0" points="3036.58,803.58 2938.93,803.58 2938.93,1163.34 2843.85,1163.34 2843.85,803.58 2746.2,803.58 2746.2,713.63 3036.58,713.63 "/>
  <path id="_2" class="fil0" d="M3382.21 1163.34l-95.08 0 0 -160.61 -97.65 0 0 -89.94 97.65 0 0 -43.69c0,-23.12 -5.35,-41.11 -16.06,-53.96 -10.71,-12.85 -25.91,-19.28 -45.62,-19.28 -19.7,0 -34.91,6.43 -45.61,19.28 -10.71,12.85 -16.07,30.83 -16.07,53.96l0 294.24 -95.08 0 0 -288.45c0,-53.11 15.42,-95.08 46.26,-125.92 28.7,-28.7 65.53,-43.05 110.5,-43.05 44.12,0 80.73,14.35 109.86,43.05 31.26,30.83 46.89,72.81 46.89,125.92l0 288.45z"/>
  <path id="_3" class="fil0" d="M3666.82 1163.34l-86.08 0c-53.54,0 -90.16,-15.84 -109.86,-47.54 -12.85,-20.99 -19.27,-52.04 -19.27,-93.16l0 -309.02 95.08 0 0 304.52c0,23.98 6.43,39.61 19.27,46.9 6.86,3.85 20.35,5.78 40.47,5.78l60.39 0 0 92.51z"/>
  <path id="_4" class="fil0" d="M4151.86 938.17c0,64.56 -22.59,119.39 -67.78,164.57 -45.19,45.08 -100.12,67.67 -164.79,67.67 -64.67,0 -119.6,-22.59 -164.78,-67.67 -45.19,-45.18 -67.78,-100.01 -67.78,-164.57 0,-64.57 22.59,-119.39 67.78,-164.57 45.19,-45.08 100.11,-67.67 164.78,-67.67 64.67,0 119.6,22.6 164.79,67.67 45.19,45.19 67.78,100.01 67.78,164.57zm-95.08 0c0,-38.44 -13.28,-71.31 -39.83,-98.72 -26.55,-27.3 -59.1,-41.01 -97.65,-41.01 -38.55,0 -71.09,13.49 -97.65,40.36 -26.55,26.98 -39.83,60.07 -39.83,99.37 0,38.44 13.28,71.31 39.83,98.72 26.56,27.3 59.11,41.01 97.65,41.01 38.55,0 71.1,-13.49 97.65,-40.36 26.55,-26.98 39.83,-60.07 39.83,-99.37z"/>
  <path id="_5" class="fil0" d="M4564.31 1085.08c0,26.55 -1.93,44.86 -5.78,55.14 -7.71,20.13 -23.55,30.2 -47.54,30.2 -23.98,0 -43.69,-11.35 -59.11,-33.94 -6,-8.99 -13.49,-22.69 -22.49,-41.11l-124.63 -253.23 0 321.22 -95.08 0 0 -377.76c0,-20.99 2.78,-37.26 8.35,-48.82 9.85,-20.56 28.27,-30.84 55.25,-30.84 22.27,0 40.47,7.07 54.61,21.2 8.56,8.57 19.06,25.27 31.48,50.11l109.86 224.86 0 -288.46 95.08 0 0 371.44z"/>
  <path id="_6" class="fil0" d="M4892.6 1163.34l-28.91 0c-47.97,0 -87.37,-6.43 -118.21,-19.27 -47.54,-19.7 -82.45,-55.89 -104.72,-108.58 -6,-14.13 -10.6,-29.66 -13.81,-46.57 -3.21,-16.92 -4.82,-33.73 -4.82,-50.43 0,-18.42 1.28,-35.12 3.85,-50.11 2.57,-14.99 7.5,-30.63 14.78,-46.9 22.27,-52.68 57.18,-88.87 104.72,-108.58 30.41,-12.85 69.82,-19.27 118.21,-19.27l28.91 0 0 89.94 -14.14 0c-31.69,0 -53.11,0.86 -64.24,2.57 -22.27,3.42 -41.33,11.56 -57.18,24.41 -8.99,7.28 -16.27,15.42 -21.84,24.41 -7.71,11.99 -12.85,25.91 -15.42,41.76l172.82 0 0 83.52 -172.82 0c1.71,16.27 6.86,31.26 15.42,44.97 7.28,11.57 16.27,20.99 26.98,28.27 15.84,10.28 37.48,16.49 64.89,18.63 11.13,0.85 24.41,1.28 39.83,1.28l25.7 0 0 89.94z"/>
  <path id="_7" class="fil0" d="M5212.53 1040.64c0,24.84 -5.35,46.26 -16.06,64.24 -14.67,24.84 -35.44,41.54 -62.53,50.11 -17.13,5.57 -41.22,8.35 -72.06,8.35l-129.45 0 0 -89.94 122.5 0c18.09,0 30.94,-1.28 38.65,-3.85 14.24,-4.71 21.31,-14.14 21.31,-28.27 0,-9.42 -3.64,-18.2 -10.92,-26.34 -4.71,-5.14 -21.2,-16.92 -49.47,-35.33 -29.98,-19.7 -51.82,-34.91 -65.53,-45.62 -18.85,-14.99 -32.34,-29.34 -40.47,-43.04 -10.71,-17.56 -16.07,-38.12 -16.07,-61.68 0,-24.84 6.21,-46.69 18.63,-65.53 14.14,-21.85 32.98,-36.19 56.53,-43.04 15.85,-4.71 39.19,-7.07 70.02,-7.07l116.29 0 0 89.94 -123.35 0c-12.85,0 -21.84,1.07 -26.98,3.21 -8.99,3.86 -13.49,11.14 -13.49,21.85 0,8.13 3,15.84 8.99,23.12 4.71,6 10.49,11.78 17.35,17.34 5.14,3.86 17.56,11.99 37.26,24.41 31.69,19.27 54.93,34.8 69.71,46.58 14.78,11.78 25.8,23.66 33.08,35.65 5.57,8.57 9.64,18.63 12.21,30.2 2.57,11.56 3.85,23.13 3.85,34.69z"/>
 </g>
</svg>
