<svg xmlns="http://www.w3.org/2000/svg" width="170" height="170" viewBox="0 0 170 170">
  <defs>
    <style>
      .cls-1 {
        fill: #fff;
        fill-rule: evenodd;
      }
    </style>
  </defs>
  <path class="cls-1" d="M104.518,116.406a2.289,2.289,0,0,0,1.107-1.991,2.188,2.188,0,0,0-2.079-2.258h-2.033a0.213,0.213,0,0,0-.209.208v8.751a0.254,0.254,0,0,0,.224.238h2.093a2.605,2.605,0,0,0,2.631-2.556A2.56,2.56,0,0,0,104.518,116.406Zm-2.8-3.833h1.824a1.844,1.844,0,0,1-.015,3.67h-1.809v-3.67Zm1.9,8.364h-1.9v-4.279h1.9A2.141,2.141,0,1,1,103.621,120.937Zm8.953-4.561a0.213,0.213,0,0,0-.209.208v0.995a2.421,2.421,0,0,0-2.094-1.292,2.592,2.592,0,0,0,0,5.171,2.421,2.421,0,0,0,2.094-1.292v0.95a0.209,0.209,0,0,0,.418,0v-4.532A0.213,0.213,0,0,0,112.574,116.376Zm-2.3,4.666a2.177,2.177,0,1,1,1.989-2.169A2.092,2.092,0,0,1,110.271,121.042Zm5.888-2.794,1.884-1.544a0.193,0.193,0,0,0,.075-0.164,0.225,0.225,0,0,0-.209-0.208,0.221,0.221,0,0,0-.135.06l-2.811,2.287v-6.225a0.21,0.21,0,0,0-.419,0v8.707a0.21,0.21,0,0,0,.419,0v-1.932l0.867-.713,1.989,2.763a0.187,0.187,0,0,0,.164.09,0.2,0.2,0,0,0,.209-0.208,0.261,0.261,0,0,0-.03-0.119Zm5.859-1.961a2.592,2.592,0,0,0,0,5.171,2.357,2.357,0,0,0,2.078-1.085,0.21,0.21,0,0,0,.03-0.1,0.2,0.2,0,0,0-.209-0.208,0.225,0.225,0,0,0-.179.1,1.962,1.962,0,0,1-1.72.876,2.08,2.08,0,0,1-1.973-1.961h4.171a0.217,0.217,0,0,0,.224-0.208A2.52,2.52,0,0,0,122.018,116.287Zm-1.973,2.377a1.973,1.973,0,0,1,3.946,0h-3.946Zm8.25-2.272a2.226,2.226,0,0,0-1.75,1.129V116.6a0.209,0.209,0,0,0-.418,0v4.531a0.209,0.209,0,0,0,.418,0V119.14a2.123,2.123,0,0,1,1.779-2.333,0.2,0.2,0,0,0,.195-0.223A0.213,0.213,0,0,0,128.295,116.392Zm5.814-.016a0.206,0.206,0,0,0-.194.134l-1.644,4.19-1.735-4.2a0.2,0.2,0,0,0-.194-0.12,0.2,0.2,0,0,0-.209.208c0,0.09,1.868,4.591,1.928,4.651-0.105.3-1.076,2.659-1.076,2.793a0.224,0.224,0,0,0,.209.208,0.212,0.212,0,0,0,.194-0.133c0.24-.579,2.93-7.415,2.93-7.519A0.2,0.2,0,0,0,134.109,116.376Zm-89.764-4.219a0.2,0.2,0,0,0-.21.208v3.893H40.2v-3.893a0.209,0.209,0,0,0-.418,0v8.766a0.209,0.209,0,0,0,.418,0v-4.457h3.932v4.457a0.21,0.21,0,0,0,.419,0v-8.766A0.2,0.2,0,0,0,44.345,112.157Zm4.3,4.115a2.591,2.591,0,1,0,2.422,2.586A2.508,2.508,0,0,0,48.648,116.272Zm0,4.755a2.169,2.169,0,1,1,1.989-2.169A2.092,2.092,0,0,1,48.648,121.027Zm9.94-4.725a2.067,2.067,0,0,0-1.884,1.323,1.855,1.855,0,0,0-1.779-1.323,2,2,0,0,0-1.75,1.055V116.6a0.209,0.209,0,0,0-.418,0v4.546a0.209,0.209,0,0,0,.418,0V119.14a0.235,0.235,0,0,0,0-.1c-0.045-1.323.478-2.318,1.75-2.318a1.6,1.6,0,0,1,1.51,1.768v2.66a0.2,0.2,0,0,0,.209.208,0.213,0.213,0,0,0,.209-0.208V119.1c0-1.04.478-2.377,1.734-2.377a1.6,1.6,0,0,1,1.51,1.768v2.66a0.2,0.2,0,0,0,.209.208,0.213,0.213,0,0,0,.209-0.208v-2.66A2.01,2.01,0,0,0,58.587,116.3Zm5.947-.015a2.592,2.592,0,0,0,0,5.171,2.357,2.357,0,0,0,2.078-1.085,0.206,0.206,0,0,0,.03-0.1,0.2,0.2,0,0,0-.209-0.208,0.227,0.227,0,0,0-.179.1,1.96,1.96,0,0,1-1.72.876,2.08,2.08,0,0,1-1.973-1.961h4.171a0.217,0.217,0,0,0,.224-0.208A2.52,2.52,0,0,0,64.534,116.287Zm-1.973,2.377a1.973,1.973,0,0,1,3.946,0H62.561ZM74.474,116.3a2.066,2.066,0,0,0-1.883,1.323,1.855,1.855,0,0,0-1.779-1.323,2,2,0,0,0-1.75,1.055V116.6a0.209,0.209,0,0,0-.418,0v4.546a0.209,0.209,0,0,0,.418,0V119.14a0.235,0.235,0,0,0,0-.1c-0.045-1.323.478-2.318,1.75-2.318a1.6,1.6,0,0,1,1.51,1.768v2.66a0.2,0.2,0,0,0,.209.208,0.213,0.213,0,0,0,.209-0.208V119.1c0-1.04.478-2.377,1.734-2.377a1.6,1.6,0,0,1,1.51,1.768v2.66a0.2,0.2,0,0,0,.209.208,0.213,0.213,0,0,0,.209-0.208v-2.66A2.01,2.01,0,0,0,74.474,116.3Zm8.249,0.074a0.213,0.213,0,0,0-.209.208v0.995a2.421,2.421,0,0,0-2.094-1.292,2.592,2.592,0,0,0,0,5.171,2.421,2.421,0,0,0,2.094-1.292v0.95a0.209,0.209,0,0,0,.418,0v-4.532A0.213,0.213,0,0,0,82.723,116.376Zm-2.3,4.666a2.177,2.177,0,1,1,1.989-2.169A2.092,2.092,0,0,1,80.42,121.042Zm8.909-8.811a0.213,0.213,0,0,0-.209.208v5.17a2.406,2.406,0,0,0-2.093-1.307,2.592,2.592,0,0,0,0,5.171,2.391,2.391,0,0,0,2.093-1.293v0.951a0.209,0.209,0,0,0,.418,0v-8.692A0.213,0.213,0,0,0,89.329,112.231Zm-2.3,8.826a2.178,2.178,0,1,1,1.989-2.17A2.092,2.092,0,0,1,87.026,121.057Zm6.606-4.77a2.592,2.592,0,0,0,0,5.171,2.356,2.356,0,0,0,2.078-1.085,0.205,0.205,0,0,0-.179-0.312,0.227,0.227,0,0,0-.179.1,1.959,1.959,0,0,1-1.72.876,2.08,2.08,0,0,1-1.973-1.961H95.83a0.217,0.217,0,0,0,.224-0.208A2.52,2.52,0,0,0,93.632,116.287Zm-1.973,2.377a1.973,1.973,0,0,1,3.946,0H91.659ZM42.793,80.277a15.878,15.878,0,0,0,2.041-2.51,9.516,9.516,0,0,0,1.186-2.511,5.176,5.176,0,0,0,.17-2.312,3.4,3.4,0,0,0-1.026-1.908,2.622,2.622,0,0,0-1.918-.832,5.028,5.028,0,0,0-2.422.853,18.462,18.462,0,0,0-1.792,1.277q-0.973.772-2.163,1.786l-1.591,1.361q-0.829.705-1.681,1.366t-1.708,1.209a12.681,12.681,0,0,1-1.686.918,6.261,6.261,0,0,1-1.6.487,3.607,3.607,0,0,1-1.475-.068,2.9,2.9,0,0,1-1.294-.76,3.89,3.89,0,0,1-1.048-1.742,5.873,5.873,0,0,1-.179-2.15,9.7,9.7,0,0,1,.558-2.415,16.045,16.045,0,0,1,1.172-2.516,22.71,22.71,0,0,1,1.648-2.478,23.708,23.708,0,0,1,1.985-2.29,20.385,20.385,0,0,1,2.705-2.334,10.674,10.674,0,0,1,2.493-1.36,4.746,4.746,0,0,1,2.157-.306,2.839,2.839,0,0,1,1.7.8,1.868,1.868,0,0,1,.247.3,2,2,0,0,0,.258.308,0.507,0.507,0,0,0,.361.144,0.522,0.522,0,0,0,.387-0.171,0.462,0.462,0,0,0,.132-0.288,0.5,0.5,0,0,0-.09-0.333,4.172,4.172,0,0,0-.583-0.7A3.848,3.848,0,0,0,37.224,60a6.354,6.354,0,0,0-1.42.109,7.009,7.009,0,0,0-1.8.618,14.2,14.2,0,0,0-2.186,1.346,21.51,21.51,0,0,0-2.571,2.267,24.93,24.93,0,0,0-2.1,2.42A22.569,22.569,0,0,0,25.4,69.435a17.546,17.546,0,0,0-1.251,2.76,10.234,10.234,0,0,0-.575,2.692,6.7,6.7,0,0,0,.268,2.455,4.807,4.807,0,0,0,1.268,2.04,3.92,3.92,0,0,0,1.989,1.089,5.035,5.035,0,0,0,2.432-.18,12.085,12.085,0,0,0,2.929-1.406,30.234,30.234,0,0,0,3.471-2.619l1.591-1.361,0.948-.806q0.482-.41.967-0.806t0.968-.749q0.482-.352.94-0.624a6,6,0,0,1,.846-0.433,2.817,2.817,0,0,1,.8-0.208,1.834,1.834,0,0,1,.755.083,1.857,1.857,0,0,1,.706.452,2.569,2.569,0,0,1,.733,1.367A3.913,3.913,0,0,1,45.066,75a8.061,8.061,0,0,1-1.016,2.157,14.927,14.927,0,0,1-1.966,2.395,18.267,18.267,0,0,1-2.333,2.036,17.547,17.547,0,0,1-1.933,1.225,8.94,8.94,0,0,1-1.324.6l-0.388.127a7.114,7.114,0,0,1-2.18.155,0.714,0.714,0,0,0-.838.181,66.953,66.953,0,0,0-15.745,37.547A0.717,0.717,0,0,0,18,122.2l0.065,0a0.719,0.719,0,0,0,.717-0.652A65.532,65.532,0,0,1,34.189,84.8a0.643,0.643,0,0,0,.035-0.064c0.092,0,.191.005,0.3,0.005a8.017,8.017,0,0,0,1.555-.155,0.492,0.492,0,0,0,.155-0.019c0.026-.005.161-0.048,0.4-0.125,0.1-.03.193-0.052,0.287-0.087a0.507,0.507,0,0,0,.045-0.028,11.04,11.04,0,0,0,1.28-.59,18.655,18.655,0,0,0,2.062-1.3A19.16,19.16,0,0,0,42.793,80.277Zm40.8-20.411a8.235,8.235,0,0,0,1.513,1.379,10.009,10.009,0,0,0,1.923,1.063,10.584,10.584,0,0,0,2.233.66,9.015,9.015,0,0,0,3.884-.029,6.993,6.993,0,0,0,2.861-1.484,9.088,9.088,0,0,0,2.036-2.587,20.609,20.609,0,0,0,1.421-3.337l2.388,0.345q1.3,0.189,2.713.4t2.918,0.461q1.5,0.246,2.984.515l-0.159.863a25.65,25.65,0,0,0-.461,3.97,20.1,20.1,0,0,0,.095,2.747,8.126,8.126,0,0,0,.318,1.615c0.123,0.352.192,0.542,0.2,0.572a0.468,0.468,0,0,0,.362.285,0.494,0.494,0,0,0,.389-0.087,0.507,0.507,0,0,0,.171-0.635,7.041,7.041,0,0,1-.255-0.862q-0.1-.437-0.184-1.1a13.444,13.444,0,0,1-.088-1.587q0-.919.1-2.095t0.368-2.636c0.027-.15.054-0.3,0.08-0.438s0.056-.282.091-0.422q0.735,0.133,1.267.243t0.924,0.2l0.678,0.144q0.285,0.059.552,0.107a0.509,0.509,0,0,0,.372-0.069,0.456,0.456,0,0,0,.211-0.318,0.562,0.562,0,0,0-.06-0.389,0.445,0.445,0,0,0-.326-0.217q-0.824-.177-1.676-0.346l-1.732-.342a22.333,22.333,0,0,1,.9-3.048,13.694,13.694,0,0,1,.971-2.053,5.788,5.788,0,0,1,.962-1.252,3.791,3.791,0,0,1,.884-0.642,1.927,1.927,0,0,1,.737-0.215,2.461,2.461,0,0,1,.528.02,1.7,1.7,0,0,1,.368.1,1.973,1.973,0,0,1,.208.107,1.176,1.176,0,0,1,.135.093,0.356,0.356,0,0,0,.161.063A0.458,0.458,0,0,0,118,49.46a0.436,0.436,0,0,0,.077-0.116,0.606,0.606,0,0,0,.036-0.124,0.484,0.484,0,0,0-.09-0.408,1.122,1.122,0,0,0-.348-0.283,2.47,2.47,0,0,0-.443-0.183,3.642,3.642,0,0,0-.389-0.1,2.924,2.924,0,0,0-1.858.267,4.93,4.93,0,0,0-1.684,1.464,11.625,11.625,0,0,0-1.452,2.6,23.641,23.641,0,0,0-1.161,3.685q-1.47-.268-2.95-0.509T104.85,55.3q-1.41-.215-2.7-0.4l-2.381-.343q0.293-.99.534-2t0.459-2.044q0.18-.831.386-1.5a10.944,10.944,0,0,1,.443-1.2,6.534,6.534,0,0,0,1.089-.331,5.544,5.544,0,0,0,1.029-.533,3.673,3.673,0,0,0,.809-0.718,1.9,1.9,0,0,0,.423-0.87,0.891,0.891,0,0,0-.175-0.745,1.089,1.089,0,0,0-.691-0.4,1.54,1.54,0,0,0-.73.059,2.642,2.642,0,0,0-.82.447,4.874,4.874,0,0,0-.852.875,8.015,8.015,0,0,0-.819,1.34,3.559,3.559,0,0,1-.76.006Q99.7,46.9,99.218,46.816A14.555,14.555,0,0,1,96.9,46.2q-1.12-.4-2.227-0.837t-2.214-.835a14.069,14.069,0,0,0-2.269-.611,8.672,8.672,0,0,0-2.1-.12,6.134,6.134,0,0,0-2,.454,4.366,4.366,0,0,0-1.6,1.136,3.858,3.858,0,0,0-.883,1.918,3.319,3.319,0,0,0-.023,1.135,3.911,3.911,0,0,0,.294.993,3.807,3.807,0,0,0,.486.809,4.572,4.572,0,0,0,.554.594,0.9,0.9,0,0,0,.14.1,0.5,0.5,0,0,0,.174.066A0.453,0.453,0,0,0,85.6,50.92a0.5,0.5,0,0,0,.2-0.327,0.529,0.529,0,0,0-.16-0.482q-0.06-.052-0.263-0.26a2.905,2.905,0,0,1-.4-0.547,3.159,3.159,0,0,1-.322-0.8,2.318,2.318,0,0,1-.02-1.019,3.076,3.076,0,0,1,.647-1.454,3.205,3.205,0,0,1,1.206-.886,4.753,4.753,0,0,1,1.618-.358,8.107,8.107,0,0,1,1.888.13,15.026,15.026,0,0,1,2.323.614q1.121,0.395,2.223.822t2.2,0.818a14.479,14.479,0,0,0,2.277.606,6.3,6.3,0,0,0,.763.091c0.259,0.015.5,0.019,0.709,0.012q-0.2.5-.392,1.116t-0.34,1.289q-0.249,1.053-.5,2.084t-0.546,2.034l-2.183-.287c-0.54-.07-0.818-0.108-0.836-0.111a0.529,0.529,0,0,0-.372.111,0.537,0.537,0,0,0-.193.335,0.418,0.418,0,0,0,.1.382,0.605,0.605,0,0,0,.344.194l0.782,0.1,2.05,0.263a18.629,18.629,0,0,1-1.258,2.975,8.06,8.06,0,0,1-1.772,2.278,5.964,5.964,0,0,1-2.5,1.3,7.976,7.976,0,0,1-3.413.018,9.783,9.783,0,0,1-2-.582,9.041,9.041,0,0,1-1.713-.929,7.191,7.191,0,0,1-1.334-1.189,4.918,4.918,0,0,1-.858-1.377,0.464,0.464,0,0,0-.157-0.2,0.549,0.549,0,0,0-.23-0.1,0.486,0.486,0,0,0-.4.086,0.512,0.512,0,0,0-.2.326,0.475,0.475,0,0,0,.031.28A6.03,6.03,0,0,0,83.594,59.865Zm18.937-13.874a3.713,3.713,0,0,1,.537-0.514,2.046,2.046,0,0,1,.457-0.273,0.607,0.607,0,0,1,.308-0.061c0.089,0.016.1,0.094,0.04,0.234a1.883,1.883,0,0,1-.352.485,3.549,3.549,0,0,1-.65.533,2.783,2.783,0,0,1-.87.377A4.3,4.3,0,0,1,102.531,45.992ZM87.03,91.4a3.32,3.32,0,0,0-3.33,3.31v9.16h6.66V94.71A3.32,3.32,0,0,0,87.03,91.4ZM74.689,87.928H71.718l15.1-10.463,6.169,4.347a0.623,0.623,0,0,0,.983-0.505V79.578h4.412v5.715a0.617,0.617,0,0,0,.263.5l3.022,2.131H99.254a0.621,0.621,0,0,0-.623.619V103.87a0.621,0.621,0,0,0,.623.619h35.525a0.619,0.619,0,1,0,0-1.238h-34.9V89.166h3.74a0.624,0.624,0,0,0,.594-0.431,0.616,0.616,0,0,0-.234-0.692l-4.354-3.07V78.959A0.621,0.621,0,0,0,99,78.34H93.343a0.621,0.621,0,0,0-.623.619v1.15L87.178,76.2a0.628,0.628,0,0,0-.716,0L69.38,88.039a0.618,0.618,0,0,0,.356,1.127h4.33v14.085H39.85a0.619,0.619,0,1,0,0,1.238H74.689a0.621,0.621,0,0,0,.623-0.619V88.547A0.621,0.621,0,0,0,74.689,87.928Zm64.443-2.6a3.786,3.786,0,0,0-.258-0.342c-0.006-.007-0.014-0.012-0.02-0.018s-0.022-.03-0.034-0.044a0.647,0.647,0,0,0-.095-0.079,0.815,0.815,0,0,0-.092-0.088,0.96,0.96,0,0,0-.744-0.113c-0.267.047-.537,0.147-0.774,0.2a6.807,6.807,0,0,1-1.4.14,4.016,4.016,0,0,1-1.279-.21,2.338,2.338,0,0,1-1.028-.707,2.309,2.309,0,0,1-.534-0.984,2.083,2.083,0,0,1,0-.962,5.841,5.841,0,0,0,1.108.354,4.477,4.477,0,0,0,1.1.1,3.538,3.538,0,0,0,1.032-.193,2.856,2.856,0,0,0,.918-0.532,1.89,1.89,0,0,0,.491-0.612,1.765,1.765,0,0,0,.105-1.323,1.566,1.566,0,0,0-.3-0.549,1.964,1.964,0,0,0-.816-0.576,2.368,2.368,0,0,0-1.011-.136,3.241,3.241,0,0,0-1.092.289,4.561,4.561,0,0,0-1.08.7c-0.066.056-.122,0.123-0.185,0.182-0.218.072-.436,0.144-0.669,0.2a5.112,5.112,0,0,1-.886.153,3.076,3.076,0,0,1-.81-0.038,1.444,1.444,0,0,1-.653-0.294,0.877,0.877,0,0,1-.315-0.428,0.791,0.791,0,0,1,.008-0.447,1.783,1.783,0,0,1,.228-0.46q0.159-.237.34-0.457a8.868,8.868,0,0,1,.807-0.878,7.209,7.209,0,0,0,.661-0.7,3.108,3.108,0,0,0,.343-0.524,1.708,1.708,0,0,0,.188-0.6,1.3,1.3,0,0,0-.088-0.629,1.517,1.517,0,0,0-.483-0.608,1.961,1.961,0,0,0-.871-0.358,3.6,3.6,0,0,0-1.525.14,6.933,6.933,0,0,0-.789.257q-0.46.177-.974,0.387t-1.027.43q-0.515.22-.929,0.406,0.251-.285.541-0.607t0.564-.623q0.273-.3.511-0.56c0.16-.172.285-0.315,0.376-0.427a2.928,2.928,0,0,0,.388-0.6,1.871,1.871,0,0,0,.179-0.6,1.232,1.232,0,0,0-.068-0.569,1.149,1.149,0,0,0-.374-0.494,1.8,1.8,0,0,0-.728-0.329,2.54,2.54,0,0,0-1.061.011,8.39,8.39,0,0,0-.96.284q-0.6.21-1.255,0.464t-1.284.518q-0.63.265-1.045,0.451,0.7-.742,1.379-1.478t1.445-1.667a2.987,2.987,0,0,0,.31-0.463,1.744,1.744,0,0,0,.185-0.5,1.023,1.023,0,0,0-.027-0.492,0.9,0.9,0,0,0-.315-0.438,1.508,1.508,0,0,0-1.276-.153,7.609,7.609,0,0,0-2.6,1.155,7.264,7.264,0,0,1-1.215.746,1.2,1.2,0,0,1-1.33-.183,4.086,4.086,0,0,0,.525-0.746,5.9,5.9,0,0,0,.54-1.32,3.131,3.131,0,0,0,.108-1.044,1.625,1.625,0,0,0-.246-0.759,1.425,1.425,0,0,0-.528-0.48,1.187,1.187,0,0,0-1.1-.032,2.011,2.011,0,0,0-.924.931,3.022,3.022,0,0,0-.364,1.765,3.506,3.506,0,0,0,.6,1.665,2.387,2.387,0,0,1-1.12.438,2.176,2.176,0,0,1-1.3-.286,1.92,1.92,0,0,1-.622-0.506,1.8,1.8,0,0,1-.333-0.667A1.843,1.843,0,0,1,113.242,67a2.48,2.48,0,0,1,.274-0.8,2.852,2.852,0,0,1,.549-0.734,2.684,2.684,0,0,1,.638-0.457,2.461,2.461,0,0,1,.634-0.221,2.689,2.689,0,0,1,.552-0.051,2,2,0,0,0,.423-0.027,0.419,0.419,0,0,0,.289-0.237,0.446,0.446,0,0,0,.051-0.34,0.452,0.452,0,0,0-.247-0.27,1.553,1.553,0,0,0-.638-0.1,3.163,3.163,0,0,0-1.019.178,4.164,4.164,0,0,0-1.141.6,3.726,3.726,0,0,0-1.384,2.372,2.752,2.752,0,0,0,.085,1.131,2.792,2.792,0,0,0,.519.98,2.974,2.974,0,0,0,.924.743,3.29,3.29,0,0,0,.957.34,3.2,3.2,0,0,0,.929.034,3.235,3.235,0,0,0,.866-0.221,3.979,3.979,0,0,0,.786-0.431,2.563,2.563,0,0,0,.3.208,1.982,1.982,0,0,0,1.182.406,4.734,4.734,0,0,0,2.294-1q0.5-.3,1.03-0.553c0.268-.129.567-0.254,0.853-0.367a1,1,0,0,1,.769-0.149,0.359,0.359,0,0,1-.112.315,3.436,3.436,0,0,1-.373.5q-0.424.474-.914,1.018T121.4,70.9q-0.427.48-.727,0.813c-0.2.221-.308,0.343-0.325,0.364a0.964,0.964,0,0,0-.251.606,0.693,0.693,0,0,0,.3.55,0.949,0.949,0,0,0,.565.188,2.2,2.2,0,0,0,.935-0.244c0.32-.147.687-0.308,1.1-0.481s0.83-.338,1.238-0.5,0.787-.293,1.135-0.412,0.623-.2.824-0.246a1.733,1.733,0,0,1,.6-0.056,0.668,0.668,0,0,1,.326.125,0.352,0.352,0,0,1,.122.3,0.824,0.824,0,0,1-.226.469c-0.069.084-.172,0.2-0.311,0.358s-0.3.332-.471,0.532-0.363.407-.56,0.618-0.384.42-.563,0.623-0.343.39-.493,0.558-0.268.306-.354,0.41a1.033,1.033,0,0,0-.261.607,0.625,0.625,0,0,0,.262.525,0.659,0.659,0,0,0,.274.135,0.969,0.969,0,0,0,.362,0,2.6,2.6,0,0,0,.514-0.158q0.3-.121.756-0.312,0.813-.351,1.6-0.685t1.462-.556a5.734,5.734,0,0,1,1.179-.273,1.02,1.02,0,0,1,.759.154c0.021,0.017.051,0.044,0.091,0.081a0.3,0.3,0,0,1,.079.17,0.566,0.566,0,0,1-.042.287,1.658,1.658,0,0,1-.279.436,7.8,7.8,0,0,1-.6.632,10.219,10.219,0,0,0-.83.9,5.426,5.426,0,0,0-.546.794,2.21,2.21,0,0,0-.278.819,1.635,1.635,0,0,0,.108.81,1.964,1.964,0,0,0,.619.772,2.245,2.245,0,0,0,.989.461,4.165,4.165,0,0,0,1.155.065c0.185-.014.368-0.038,0.551-0.067a3.642,3.642,0,0,0-.316.884,3.2,3.2,0,0,0,.016,1.389,3.232,3.232,0,0,0,.742,1.393,3.674,3.674,0,0,0,2.444,1.2,8.086,8.086,0,0,0,2.213-.127l-0.011.012a0.577,0.577,0,0,1,.542.16,67.568,67.568,0,0,1,14.333,35.7,0.719,0.719,0,0,0,.717.654l0.064,0a0.718,0.718,0,0,0,.654-0.777A69,69,0,0,0,139.132,85.33ZM133.6,80.821a3.011,3.011,0,0,1,.361-0.37A4.366,4.366,0,0,1,134.616,80a2.744,2.744,0,0,1,.707-0.29A1.538,1.538,0,0,1,136,79.681a0.977,0.977,0,0,1,.561.34,0.639,0.639,0,0,1,.149.495,0.85,0.85,0,0,1-.338.553,2.042,2.042,0,0,1-.64.367,2.78,2.78,0,0,1-.768.156,3.2,3.2,0,0,1-.838-0.06,3.348,3.348,0,0,1-.84-0.29Q133.428,81.032,133.6,80.821ZM117.675,67.606a3.842,3.842,0,0,1-.3.469,2.044,2.044,0,0,1-.236-0.607,2.83,2.83,0,0,1-.061-0.63,2.43,2.43,0,0,1,.08-0.593,2.359,2.359,0,0,1,.2-0.508,0.73,0.73,0,0,1,.369-0.4,0.388,0.388,0,0,1,.249-0.006,0.435,0.435,0,0,1,.22.339,1.727,1.727,0,0,1-.022.57,4.4,4.4,0,0,1-.192.686A5.333,5.333,0,0,1,117.675,67.606ZM78.484,49.26a0.432,0.432,0,0,0-.213-0.31,0.545,0.545,0,0,0-.385-0.055l-6.811,1.322a6.712,6.712,0,0,0-.325-0.845,2.615,2.615,0,0,0-.409-0.636,1.43,1.43,0,0,0-.51-0.375,1.032,1.032,0,0,0-.612-0.053,1.268,1.268,0,0,0-.6.288,1.891,1.891,0,0,0-.43.558,3.243,3.243,0,0,0-.278.768,6.175,6.175,0,0,0-.142.936l-5.012.973a0.543,0.543,0,0,0-.334.195,0.471,0.471,0,0,0,.132.676,0.547,0.547,0,0,0,.385.056l4.785-.929q0,0.689.054,1.4T67.926,54.6q0.089,0.664.191,1.255c0.068,0.4.132,0.738,0.189,1.03a18.492,18.492,0,0,0,.9,3.167,11.884,11.884,0,0,0,.665,1.423c-0.015.073-.028,0.145-0.044,0.219a6.619,6.619,0,0,1-.441,1.326,3.95,3.95,0,0,1-.713,1.076,2.556,2.556,0,0,1-2.19.729,2.112,2.112,0,0,1-.882-0.394,5.874,5.874,0,0,0,.776-0.862,4.433,4.433,0,0,0,.542-0.962,3.52,3.52,0,0,0,.243-1.014,2.827,2.827,0,0,0-.115-1.05,1.9,1.9,0,0,0-.363-0.7,1.832,1.832,0,0,0-.542-0.439,1.789,1.789,0,0,0-.631-0.194,1.59,1.59,0,0,0-.629.052,1.974,1.974,0,0,0-.862.508,2.335,2.335,0,0,0-.536.861,3.2,3.2,0,0,0-.179,1.108,4.536,4.536,0,0,0,.2,1.265,4.682,4.682,0,0,0,.2.516,6.616,6.616,0,0,1-.295,1.309,3.945,3.945,0,0,1-.6,1.141,2.548,2.548,0,0,1-2.106.944,2.121,2.121,0,0,1-.918-0.3,5.781,5.781,0,0,0,.686-0.935,4.436,4.436,0,0,0,.442-1.011,3.479,3.479,0,0,0,.14-1.033,2.834,2.834,0,0,0-.22-1.034,1.892,1.892,0,0,0-.432-0.656,1.832,1.832,0,0,0-.583-0.383,1.781,1.781,0,0,0-.648-0.13,1.6,1.6,0,0,0-.621.113,1.976,1.976,0,0,0-.806.59,2.334,2.334,0,0,0-.446.911,3.186,3.186,0,0,0-.068,1.121,4.378,4.378,0,0,0,.239.98,0.938,0.938,0,0,1-.262.228,1.523,1.523,0,0,1-.822.222,2.62,2.62,0,0,1-.836-0.16,3.835,3.835,0,0,1-.785-0.394,6.422,6.422,0,0,1-.661-0.491q-0.288-.246-0.477-0.433l-0.229-.227a0.537,0.537,0,0,0-.307-0.173,0.515,0.515,0,0,0-.576.384,0.5,0.5,0,0,0,.054.384,5.75,5.75,0,0,0,.468.6,8.938,8.938,0,0,1,.806,1.173,10.14,10.14,0,0,1,.617,1.213,4.508,4.508,0,0,1,.323,1.118,1.957,1.957,0,0,1-.075.937,1.243,1.243,0,0,1-.569.663,1.428,1.428,0,0,1-.652.2,1.307,1.307,0,0,1-.681-0.165,2.376,2.376,0,0,1-.682-0.579,5.541,5.541,0,0,1-.669-1.035L50.44,66.625a0.6,0.6,0,0,0-.313-0.263,0.45,0.45,0,0,0-.4.039,0.533,0.533,0,0,0-.241.3,0.467,0.467,0,0,0,.026.376l1.033,2.09a3.68,3.68,0,0,1,.366,1.148,2.933,2.933,0,0,1-.024.97,2,2,0,0,1-.3.734,1.5,1.5,0,0,1-.459.449,1.1,1.1,0,0,1-.994.1,1.932,1.932,0,0,1-.9-0.876,5.912,5.912,0,0,1-.809-2.189,3.582,3.582,0,0,1-.042-0.7c0.012-.184.019-0.309,0.023-0.374a0.629,0.629,0,0,0-.071-0.334,0.522,0.522,0,0,0-.305-0.236,0.471,0.471,0,0,0-.39.048,0.568,0.568,0,0,0-.161.141,0.42,0.42,0,0,0-.084.19,4.787,4.787,0,0,0-.038,1.119,6.558,6.558,0,0,0,.266,1.246,7.324,7.324,0,0,0,.734,1.6,3.488,3.488,0,0,0,.7.86,2.527,2.527,0,0,0,.816.485,2.023,2.023,0,0,0,.88.1,2.208,2.208,0,0,0,.9-0.307,2.305,2.305,0,0,0,.888-1.013,3.711,3.711,0,0,0,.349-1.606,3.982,3.982,0,0,0,.585.4,2.193,2.193,0,0,0,.656.242,2.065,2.065,0,0,0,.731.011,2.265,2.265,0,0,0,.792-0.3,2.17,2.17,0,0,0,.917-0.952,2.718,2.718,0,0,0,.247-1.218,4.431,4.431,0,0,0-.247-1.335,9.588,9.588,0,0,0-.556-1.311,4.747,4.747,0,0,0,.648.215,3.266,3.266,0,0,0,.683.1,2.8,2.8,0,0,0,.7-0.056,2.272,2.272,0,0,0,.691-0.271,1.973,1.973,0,0,0,.2-0.146,5.065,5.065,0,0,0,.341.49,3.774,3.774,0,0,0,1.049.908,3.183,3.183,0,0,0,2.9.157,3.653,3.653,0,0,0,1.912-1.93,6.622,6.622,0,0,0,.343-0.993,3.674,3.674,0,0,0,.58.534,3.185,3.185,0,0,0,2.866.444,3.655,3.655,0,0,0,2.1-1.729,7.112,7.112,0,0,0,.6-1.4,4.733,4.733,0,0,0,1.451,1.276,2.607,2.607,0,0,0,1.77.276,2.014,2.014,0,0,0,.934-0.457A4.3,4.3,0,0,0,75.5,62.86a5.69,5.69,0,0,0,.56-1.023q0.232-.546.392-1.032t0.249-.846c0.059-.24.1-0.395,0.111-0.462a0.489,0.489,0,0,0,0-.193,0.521,0.521,0,0,0-.208-0.317,0.511,0.511,0,0,0-.8.321,9.035,9.035,0,0,1-.26.964,9.824,9.824,0,0,1-.48,1.221,5.463,5.463,0,0,1-.67,1.093,1.453,1.453,0,0,1-.85.571,1.366,1.366,0,0,1-.79-0.08,2.686,2.686,0,0,1-.767-0.491,4.819,4.819,0,0,1-.719-0.809q-0.172-.24-0.332-0.5l-0.251-.4L70.91,60c0.016-.055.033-0.109,0.049-0.168a13.908,13.908,0,0,0,.291-1.37q0.13-.782.221-1.693t0.119-1.859q0.028-.947-0.031-1.885a13.554,13.554,0,0,0-.219-1.745l-0.029-.145,6.757-1.312a0.541,0.541,0,0,0,.334-0.2A0.429,0.429,0,0,0,78.484,49.26Zm-19.415,16.7a2.31,2.31,0,0,1-.764-1.4,2.534,2.534,0,0,1,.124-1.646,0.977,0.977,0,0,1,.5-0.423,0.647,0.647,0,0,1,.519.015,0.85,0.85,0,0,1,.423.492,2.021,2.021,0,0,1,.15.719,2.757,2.757,0,0,1-.092.774,3.166,3.166,0,0,1-.321.772A3.294,3.294,0,0,1,59.069,65.956Zm5.889-2.249a3.507,3.507,0,0,1-.616-2.18l0,0a2.4,2.4,0,0,1,.03-0.293,1.529,1.529,0,0,1,.253-0.624,0.981,0.981,0,0,1,.541-0.37,0.651,0.651,0,0,1,.516.066,0.852,0.852,0,0,1,.371.532,2.031,2.031,0,0,1,.076.731,2.775,2.775,0,0,1-.17.76,3.2,3.2,0,0,1-.4.737A3.309,3.309,0,0,1,64.958,63.707Zm4.109-14.07a0.632,0.632,0,0,1,.3-0.325,0.4,0.4,0,0,1,.349.263,3.72,3.72,0,0,1,.365.836l-1.279.249A2.912,2.912,0,0,1,69.067,49.637Zm1.516,5.639q-0.03,1.08-.158,2.155a17.572,17.572,0,0,1-.355,2.029,10.532,10.532,0,0,1-.393-1.154Q69.5,57.66,69.3,56.694q-0.341-1.736-.465-2.97a16.367,16.367,0,0,1-.1-2.091l1.573-.306a14.856,14.856,0,0,1,.232,1.852Q70.614,54.2,70.583,55.276Z"/>
</svg>
