<svg id="LOGOS" xmlns="http://www.w3.org/2000/svg" width="170" height="170" viewBox="0 0 170 170">
  <title>6Mesa de trabajo 1</title>
  <g>
    <text transform="matrix(0.2539, 0.9672, -0.9672, 0.2539, 132.949, 69.3199)" style="font-size: 6.464198589324951px;fill: #4c4c4c;font-family: JosefinSans-Regular, Josefin Sans">W</text>
    <text transform="translate(134.9461 78.024) rotate(84.1663)" style="font-size: 6.464198589324951px;fill: #4c4c4c;font-family: JosefinSans-Regular, Josefin Sans">E</text>
    <text transform="translate(135.4793 84.6265) rotate(91.9501)" style="font-size: 6.464198589324951px;fill: #4c4c4c;font-family: JosefinSans-Regular, Josefin Sans">D</text>
    <text transform="matrix(-0.177, 0.9842, -0.9842, -0.177, 135.0584, 91.9004)" style="font-size: 6.464198589324951px;fill: #4c4c4c;font-family: JosefinSans-Regular, Josefin Sans">D</text>
    <text transform="translate(133.5428 99.0479) rotate(106.9004)" style="font-size: 6.464198589324951px;fill: #4c4c4c;font-family: JosefinSans-Regular, Josefin Sans">I</text>
    <text transform="translate(132.2166 103.2579) rotate(113.913)" style="font-size: 6.464198589324951px;fill: #4c4c4c;font-family: JosefinSans-Regular, Josefin Sans">N</text>
    <text transform="translate(128.867 110.315) rotate(122.493)" style="font-size: 6.464198589324951px;fill: #4c4c4c;font-family: JosefinSans-Regular, Josefin Sans">G</text>
    <text transform="matrix(-0.6319, 0.775, -0.775, -0.6319, 124.7488, 116.3614)" style="font-size: 6.464198589324951px;fill: #4c4c4c;font-family: JosefinSans-Regular, Josefin Sans"> </text>
    <text transform="matrix(-0.7108, 0.7034, -0.7034, -0.7108, 121.8348, 119.8018)" style="font-size: 6.464198589324951px;fill: #4c4c4c;font-family: JosefinSans-Regular, Josefin Sans">P</text>
    <text transform="translate(117.2781 124.106) rotate(142.4799)" style="font-size: 6.464198589324951px;fill: #4c4c4c;font-family: JosefinSans-Regular, Josefin Sans">L</text>
    <text transform="translate(112.0789 127.917) rotate(150.0799)" style="font-size: 6.464198589324951px;fill: #4c4c4c;font-family: JosefinSans-Regular, Josefin Sans">A</text>
    <text transform="matrix(-0.9304, 0.3665, -0.3665, -0.9304, 105.9881, 131.2554)" style="font-size: 6.464198589324951px;fill: #4c4c4c;font-family: JosefinSans-Regular, Josefin Sans">N</text>
    <text transform="translate(98.6463 133.9449) rotate(167.4495)" style="font-size: 6.464198589324951px;fill: #4c4c4c;font-family: JosefinSans-Regular, Josefin Sans">N</text>
    <text transform="translate(90.9803 135.4297) rotate(175.6495)" style="font-size: 6.464198589324951px;fill: #4c4c4c;font-family: JosefinSans-Regular, Josefin Sans">E</text>
    <text transform="translate(84.3406 135.7774) rotate(-176.8808)" style="font-size: 6.464198589324951px;fill: #4c4c4c;font-family: JosefinSans-Regular, Josefin Sans">R</text>
    <text transform="translate(36.7923 100.3975) rotate(-104.2694)" style="font-size: 6.464198589324951px;fill: #4c4c4c;font-family: JosefinSans-Regular, Josefin Sans">N</text>
    <text transform="matrix(-0.102, -0.9948, 0.9948, -0.102, 35.0701, 92.7706)" style="font-size: 6.464198589324951px;fill: #4c4c4c;font-family: JosefinSans-Regular, Josefin Sans">A</text>
    <text transform="translate(34.5467 86.1714) rotate(-88.8667)" style="font-size: 6.464198589324951px;fill: #4c4c4c;font-family: JosefinSans-Regular, Josefin Sans">T</text>
    <text transform="matrix(0.1503, -0.9886, 0.9886, 0.1503, 34.7938, 80.0074)" style="font-size: 6.464198589324951px;fill: #4c4c4c;font-family: JosefinSans-Regular, Josefin Sans">U</text>
    <text transform="translate(36.0482 72.9703) rotate(-73.4552)" style="font-size: 6.464198589324951px;fill: #4c4c4c;font-family: JosefinSans-Regular, Josefin Sans">R</text>
    <text transform="translate(38.1107 66.6041) rotate(-65.8241)" style="font-size: 6.464198589324951px;fill: #4c4c4c;font-family: JosefinSans-Regular, Josefin Sans">E</text>
    <text transform="translate(41.0228 60.5972) rotate(-59.4508)" style="font-size: 6.464198589324951px;fill: #4c4c4c;font-family: JosefinSans-Regular, Josefin Sans"> </text>
    <text transform="translate(43.366 56.7818) rotate(-53.2523)" style="font-size: 6.464198589324951px;fill: #4c4c4c;font-family: JosefinSans-Regular, Josefin Sans">L</text>
    <text transform="matrix(0.7045, -0.7097, 0.7097, 0.7045, 47.2586, 51.7545)" style="font-size: 6.464198589324951px;fill: #4c4c4c;font-family: JosefinSans-Regular, Josefin Sans">O</text>
    <text transform="translate(53.0023 46.2603) rotate(-36.6204)" style="font-size: 6.464198589324951px;fill: #4c4c4c;font-family: JosefinSans-Regular, Josefin Sans">G</text>
    <text transform="translate(58.9207 42.0547) rotate(-27.9916)" style="font-size: 6.464198589324951px;fill: #4c4c4c;font-family: JosefinSans-Regular, Josefin Sans">O</text>
    <text transform="translate(65.8812 38.5982) rotate(-20.1324)" style="font-size: 6.464198589324951px;fill: #4c4c4c;font-family: JosefinSans-Regular, Josefin Sans">T</text>
    <text transform="matrix(0.9758, -0.2188, 0.2188, 0.9758, 71.7376, 36.5953)" style="font-size: 6.464198589324951px;fill: #4c4c4c;font-family: JosefinSans-Regular, Josefin Sans">Y</text>
    <text transform="translate(78.4862 35.2647) rotate(-5.1661)" style="font-size: 6.464198589324951px;fill: #4c4c4c;font-family: JosefinSans-Regular, Josefin Sans">P</text>
    <text transform="matrix(0.9993, 0.0365, -0.0365, 0.9993, 84.7606, 34.8414)" style="font-size: 6.464198589324951px;fill: #4c4c4c;font-family: JosefinSans-Regular, Josefin Sans">E</text>
    <path d="M98.6717,36.0285a21.9218,21.9218,0,0,1,5.8851,1.5157c-1.8737,1-1.347,5.039-1.1132,6.6864a16.5921,16.5921,0,0,0,3.6681,8.23c.181.22.4971-.0892.3172-.3075-.0379-.046-.0721-.0943-.1095-.1407a.2033.2033,0,0,0,.0364-.18c-1.0492-4.3445,1.3863-10.0371-1.6561-13.7789.583.279,1.1538.5782,1.7085.9029a.1873.1873,0,0,0,.2519.1539,25.4842,25.4842,0,0,1,2.5907,1.7886c-1.9232,1.31-2.1325,3.8776-1.8518,6.0155.4248,3.2372,2.1439,6.1268,3.9448,8.78.1585.2335.5451.019.3849-.217l-.0418-.0625a.1819.1819,0,0,0,.04-.1356q-.3451-4.0628-.69-8.1255a19.5247,19.5247,0,0,0-1.1522-5.7452c.7267.6055,1.4234,1.2522,2.0959,1.9291a.2561.2561,0,0,0-.0027.2794.1752.1752,0,0,0-.1139.1911,40.1494,40.1494,0,0,0,.8037,7.1178c.6155,2.2643,2.14,4.2905,3.3283,6.2782a.2109.2109,0,0,0,.0848.0792,1.615,1.615,0,0,0,.3228.2767.2219.2219,0,0,0,.3353-.1855c-.3586-3.564-.3491-7.7777-2.0905-11.0326.7078.89,1.3822,1.8138,2.0255,2.7624a.1956.1956,0,0,0,.1012.1631l.0112.0068c.6591.9806,1.285,1.9866,1.8811,3.0081-.9333,1.0244-.807,2.4892-.6373,3.7938a21.2347,21.2347,0,0,0,2.0074,6.2241.1822.1822,0,0,0,.2137.1095.2169.2169,0,0,0,.2472-.2067,24.4564,24.4564,0,0,0-.5909-7.6963c.9921,1.8595,1.8957,3.7437,2.7215,5.5945.1157.26.5.0413.3849-.2169-.6281-1.4078-1.3005-2.8321-2.0217-4.249a21.1594,21.1594,0,0,0,2.6158,2.4354c1.1668.8985,3.4477,2.4811,3.6722,4.0687a.1738.1738,0,0,0,.1621.1616l.0064.0272c.0631.2771.491.1668.4278-.1108-.8484-3.7237-2.96-8.1239-7.4552-7.8459a.2251.2251,0,0,0-.0774.0205c-.8263-1.552-1.714-3.0858-2.6737-4.5686,2.9566,1.8964,6.0947,4.3467,9.7458,3.03.2649-.0955.1573-.5244-.1109-.4277-.0351.0126-.07.0223-.1047.0342a.2046.2046,0,0,0-.1189-.0939c-1.9248-.5977-3.39-1.95-5.1539-2.86a10.6508,10.6508,0,0,0-5.1745-1.1347.2127.2127,0,0,0-.0526.0118,42.0353,42.0353,0,0,0-3.1652-4.025,43.4071,43.4071,0,0,0,6.8571,2.8008c2.4693.6523,5.0133.0758,7.4148-.5805a.22.22,0,0,0-.0795-.43.1942.1942,0,0,0-.036-.0438,9.5066,9.5066,0,0,0-3.7793-1.5128,26.5365,26.5365,0,0,1-4.67-2.1811,5.8285,5.8285,0,0,0-6.8409.7412,28.4453,28.4453,0,0,0-5.1984-4.214c2.6224-.7452,5.295-.1862,7.9734.06a18.0618,18.0618,0,0,0,7.84-1.1669l.0112-.0066c.2158-.0343.29-.3748.0413-.4238-3.3562-.66-6.8673-1.7181-10.3023-1.77a6.8194,6.8194,0,0,0-6.1524,2.901.2018.2018,0,0,0-.0152.0409,22.9828,22.9828,0,0,0-4.3423-1.9763,15.4813,15.4813,0,0,0,5.286-2.486,8.0212,8.0212,0,0,0,1.8629-2.0647c.6444-1.0584.8457-2.3011,1.4991-3.3534a.22.22,0,0,0-.2205-.3286.1983.1983,0,0,0-.129-.0057,15.1659,15.1659,0,0,0-5.44,2.7562c-1.7577,1.4463-2.2571,3.61-3.7811,5.1994a22.6172,22.6172,0,0,0-3.6561-.7264C98.3963,35.5545,98.3913,35.9965,98.6717,36.0285Z"/>
    <path d="M69.6806,133.1157A21.9259,21.9259,0,0,1,63.7066,132c1.8021-1.1245,1.0042-5.1182.66-6.7462a16.5938,16.5938,0,0,0-4.215-7.9634c-.1955-.2071-.49.1225-.2957.3282.0409.0433.0783.0892.1187.133a.2038.2038,0,0,0-.0242.1818c1.34,4.2638-.7061,10.1077,2.5819,13.6356-.6006-.2389-1.19-.4989-1.7655-.7855a.1873.1873,0,0,0-.2618-.1365,25.4985,25.4985,0,0,1-2.7054-1.61c1.83-1.437,1.866-4.0127,1.4418-6.1268-.6423-3.2012-2.5524-5.9682-4.5282-8.4943-.1738-.2223-.5451.0178-.3693.2425l.0458.0595a.1824.1824,0,0,0-.031.1381q.6185,4.03,1.2369,8.06a19.5238,19.5238,0,0,0,1.5371,5.6543c-.7659-.5551-1.5046-1.1533-2.2213-1.7833a.2556.2556,0,0,0-.0161-.2789.1752.1752,0,0,0,.1007-.1984,40.1458,40.1458,0,0,0-1.282-7.0474c-.7667-2.2176-2.4246-4.1363-3.7443-6.0394a.2119.2119,0,0,0-.09-.0733,1.6225,1.6225,0,0,0-.3408-.2543.2219.2219,0,0,0-.322.2077c.5982,3.5318.8729,7.7365,2.83,10.8665-.7662-.84-1.5015-1.7164-2.2072-2.62a.1959.1959,0,0,0-.112-.1559l-.0117-.006c-.7237-.9339-1.4161-1.8954-2.08-2.8744.8621-1.085.6373-2.5378.38-3.828a21.2356,21.2356,0,0,0-2.4226-6.0746.1823.1823,0,0,0-.2207-.0948.2168.2168,0,0,0-.2327.2228,24.4578,24.4578,0,0,0,1.1088,7.639c-1.1153-1.7883-2.144-3.6073-3.0927-5.3983-.133-.2509-.5017-.0073-.3694.2425.7216,1.3621,1.4885,2.738,2.3036,4.1029a21.1589,21.1589,0,0,0-2.7741-2.2534c-1.2247-.8177-3.6071-2.2428-3.9382-3.8117a.1738.1738,0,0,0-.1726-.15l-.0083-.0267c-.0817-.2721-.5011-.1332-.4193.1395,1.0976,3.6579,3.501,7.9056,7.9674,7.3251a.2276.2276,0,0,0,.0759-.0258c.9291,1.4927,1.9183,2.9632,2.9758,4.378-3.0778-1.6927-6.3741-3.9257-9.928-2.3657-.2578.1132-.1216.5339.1395.4193.0341-.015.0681-.0269.1022-.0412a.204.204,0,0,0,.1249.0856c1.9608.4666,3.5133,1.7172,5.3351,2.5062a10.65,10.65,0,0,0,5.2393.7832.2155.2155,0,0,0,.0516-.0154,42.0539,42.0539,0,0,0,3.43,3.8023,43.4222,43.4222,0,0,0-7.03-2.3319c-2.5077-.4842-5.007.2626-7.3587,1.0795a.22.22,0,0,0,.1082.4235.1967.1967,0,0,0,.0389.0412,9.5068,9.5068,0,0,0,3.8728,1.2544,26.5514,26.5514,0,0,1,4.8065,1.8611,5.828,5.828,0,0,0,6.7752-1.2009,28.45,28.45,0,0,0,5.4709,3.8537c-2.5662.92-5.27.543-7.9592.4778a18.0629,18.0629,0,0,0-7.7436,1.6932l-.0107.0073c-.2129.0487-.2643.3935-.0125.4256,3.393.4322,6.9675,1.2509,10.3982,1.0714a6.8191,6.8191,0,0,0,5.9427-3.31.2093.2093,0,0,0,.0124-.0417,22.9792,22.9792,0,0,0,4.4657,1.6788,15.4825,15.4825,0,0,0-5.1063,2.8369,8.0229,8.0229,0,0,0-1.7193,2.1857c-.5716,1.0995-.6886,2.3529-1.27,3.4469a.22.22,0,0,0,.2422.313.1987.1987,0,0,0,.1291-.0031,15.1666,15.1666,0,0,0,5.2412-3.1168c1.6561-1.5616,2.0083-3.7545,3.4216-5.4426a22.6338,22.6338,0,0,0,3.6969.4781C69.9874,133.57,69.9625,133.1287,69.6806,133.1157Z"/>
    <g>
      <text transform="translate(63.285 103.4483)" style="font-size: 70.62701416015625px;fill: #4c4c4c;font-family: RozhaOne-Regular, Rozha One;letter-spacing: 0.1999942963462913em">N</text>
      <rect x="111.1429" y="85.896" width="12.3309" height="0.3946" style="fill: #231f20"/>
      <rect x="44.4784" y="85.896" width="12.331" height="0.3946" style="fill: #231f20"/>
    </g>
  </g>
</svg>
