<svg id="LOGOS" xmlns="http://www.w3.org/2000/svg" width="170" height="170" viewBox="0 0 170 170">
  <title>3Mesa de trabajo 1</title>
  <g>
    <g>
      <path d="M80.786,146.7261a61.76,61.76,0,1,1,15.4053-.8693l-.0562-.3079a61.5453,61.5453,0,1,0-15.3283.865Z" style="fill: #231f20"/>
      <g>
        <path d="M128.0249,57.6689l-.2637.1685a50.7131,50.7131,0,0,1-24.2347,74.432l.1142.2915a51.0311,51.0311,0,0,0,24.3842-74.892Z" style="fill: #231f20"/>
        <path d="M45.3569,116.6648a50.715,50.715,0,0,1-3.0825-58.8839l-.2633-.1687a51.025,51.025,0,0,0,31.0083,77.047l.0734-.3043A50.9265,50.9265,0,0,1,45.3569,116.6648Z" style="fill: #231f20"/>
      </g>
    </g>
    <g>
      <path d="M88.4866,51.4117c3.31-.0213,7.2044-2.1314,6.359-5.9626,1.6717-1.3978,1.0818-5.3114-.8844-7.12,1.8624-1.2729-.1988-3.46-1.5276-4.274a4.24,4.24,0,0,0-1.4537-.551.2867.2867,0,0,0-.0212-.2042c-1.4516-2.9753-7.1182-5.1478-9.0068-2.0356-2.5368-.8845-5.1943.6352-6.7233,2.7141a3.7036,3.7036,0,0,0-.8,2.9057,2.2052,2.2052,0,0,0,.2487.6683,2.4887,2.4887,0,0,0-1.2459,2.8295,3.07,3.07,0,0,0,1.1573,1.7c-2.1924,4.0379,2.2945,8.76,6.456,8.4617a4.41,4.41,0,0,0,2.7573,1.5412,6.7,6.7,0,0,0,4.4533-.76A.3383.3383,0,0,0,88.4866,51.4117Z" style="fill: #fff"/>
      <g>
        <path d="M88.4866,51.4117c3.31-.0213,7.2044-2.1314,6.359-5.9626,1.6717-1.3978,1.0818-5.3114-.8844-7.12,1.8624-1.2729-.1988-3.46-1.5276-4.274a4.24,4.24,0,0,0-1.4537-.551.2867.2867,0,0,0-.0212-.2042c-1.4516-2.9753-7.1182-5.1478-9.0068-2.0356-2.5368-.8845-5.1943.6352-6.7233,2.7141a3.7036,3.7036,0,0,0-.8,2.9057,2.2052,2.2052,0,0,0,.2487.6683,2.4887,2.4887,0,0,0-1.2459,2.8295,3.07,3.07,0,0,0,1.1573,1.7c-2.1924,4.0379,2.2945,8.76,6.456,8.4617a4.41,4.41,0,0,0,2.7573,1.5412,6.7,6.7,0,0,0,4.4533-.76A.3383.3383,0,0,0,88.4866,51.4117Zm.8918-3.5565a13.9865,13.9865,0,0,0,.727,1.2752q-.18.0987-.37.187l-.08-.4833c-.0354-.2141-.3717-.1787-.3361.036l.0973.5879c-.219.0891-.4445.1672-.6744.2355a6.5167,6.5167,0,0,0-.1475-1.1732c-.0467-.21-.3832-.176-.3361.0361a6.4491,6.4491,0,0,1,.1523,1.2273c-2.2188.552-4.7246.1168-5.5759-1.82a2.1042,2.1042,0,0,0,.9486-1.0772,10.985,10.985,0,0,0,1.1827-.0247,5.1179,5.1179,0,0,0-.3255,1.4168c-.0174.2159.3166.2684.334.0514a4.8241,4.8241,0,0,1,.3171-1.3835.1591.1591,0,0,0,.0023-.1119c.1586-.0151.3208-.0341.4844-.0553l.1557,1.222a.1692.1692,0,0,0,.3362-.0361q-.0786-.6168-.1572-1.2335c.1987-.0308.398-.0661.5965-.1067a.1686.1686,0,0,0,.0128.068q.1663.4068.3327.8136a.1691.1691,0,0,0,.3143-.1241l-.3327-.8136-.009-.0136a5.7949,5.7949,0,0,0,2.2352-.9461,12.6241,12.6241,0,0,0,1.1881,1.5476c.1442.16.4161-.0411.27-.2032a12.6179,12.6179,0,0,1-1.2082-1.5763c.03-.033.0595-.0665.0868-.1009l1.2923.7943c.1832.1126.3944-.1518.2088-.2658q-.6606-.4062-1.3213-.8121a1.3258,1.3258,0,0,0,.0629-.1554.3564.3564,0,0,0,.384.0172,11.6172,11.6172,0,0,0,1.3159-.8392.3257.3257,0,0,0,.0555.1891c1.3658,2.0061.4674,3.7227-1.2005,4.7578a13.1589,13.1589,0,0,1-.7049-1.2315C89.5969,47.5376,89.2817,47.66,89.3784,47.8552Zm-12.45-1.7329a3.7558,3.7558,0,0,1-.3882-2.2059,6.304,6.304,0,0,0,1.2789,1.776c.1956.1961.4334.42.6993.6508a.7362.7362,0,0,0-.4378.5282c-.0495.2123.285.2621.3341.0514a.392.392,0,0,1,.3022-.3006.1717.1717,0,0,0,.0807-.0431,9.3844,9.3844,0,0,0,1.67,1.1182.3239.3239,0,0,0-.0634.1054C79.0511,48.4173,77.5512,47.3352,76.9287,46.1223Zm1.2628-5.1363-1.3-.25a10.0833,10.0833,0,0,1,1.7391-3.2186,4.5343,4.5343,0,0,0,2.3913,1.9445,3.2142,3.2142,0,0,0-.1423.4517,2.7747,2.7747,0,0,0,.02,1.28l-1.5187.2437c-.2143.0344-.1788.3707.0361.3362l1.58-.2537c.03.083.0642.1646.1011.2452-.9441.5124-2.4456,1.4169-2.168,2.6045.3228,1.3807,2.8476,2.2,4.1346,2.4384-1.5038,2.62-5.7658-2.768-6.0727-3.6021-.0392-.1064-.0689-.2117-.0984-.3169.0061-.008.0107-.0167.0162-.0251l1.6615-.4257c.21-.0538.0841-.3677-.1241-.3144l-1.5236.39a.2767.2767,0,0,0-.1349-.1,4.0239,4.0239,0,0,1,.03-1.3485q.66.1268,1.32.2539C78.3542,41.3613,78.4047,41.0271,78.1915,40.986Zm1.136-5.2633a4.968,4.968,0,0,1,1.8143-1.9647,4.8127,4.8127,0,0,1,.5764-.3328,7.7413,7.7413,0,0,0,.733,1.6619c.11.1868.3795-.0174.27-.2034a7.33,7.33,0,0,1-.6943-1.5985,3.8472,3.8472,0,0,1,.7418-.2165A2.43,2.43,0,0,0,83.56,34.294c.1612.1461.37-.12.2088-.2659a2.4455,2.4455,0,0,1-.434-.5116,2.2131,2.2131,0,0,1-.1661-.3239l-.0373-.0954c0-.0185-.0069-.02-.0089-.0337a.1827.1827,0,0,0,.0879-.0482,5.0142,5.0142,0,0,1,1.2645.0849,8.8084,8.8084,0,0,1,1.8435.5831,4.5522,4.5522,0,0,1-.9825.9991.1691.1691,0,0,0,.2032.27,4.8488,4.8488,0,0,0,1.0789-1.1072c.4668.2857.728.648.4024,1.0785q-.5275.4-1.0548.8a.1692.1692,0,0,0,.2033.27l.7987-.6058a.3684.3684,0,0,0,.0693.0667,4.0218,4.0218,0,0,0-.75,1.6163,3.0882,3.0882,0,0,0-2.181-.542,3.87,3.87,0,0,0-2.0824,1.3387l-.9634-.6831c-.1768-.1253-.3869.14-.2088.2658q.4774.3386.9549.677a5.8746,5.8746,0,0,0-.4928.725h0C80.0391,38.2643,78.6357,37.3551,79.3275,35.7227Zm12.8114,3.4956c1.0432,2.3712-.3105,3.9327-2.2343,5.0462a2.2336,2.2336,0,0,0-.41-.9771,1.5982,1.5982,0,0,0,.4528-.7481,2.9106,2.9106,0,0,0-.57-2.36l.8154-.2213c.21-.0569.0839-.3708-.124-.3143l-.8536.2316a.1551.1551,0,0,0-.0447.0228,1.055,1.055,0,0,0-.4981-.2959c.4917-.3787.9936-.7429,1.5122-1.0849a.17.17,0,0,0-.0344-.29l-.2231-.0726a.177.177,0,0,0-.2006.2686q-.6735.4561-1.3168.9538a.3343.3343,0,0,0-.03-.08c-.0537-.0861-.1105-.1736-.17-.2616a.1408.1408,0,0,0,.1361-.0995,3.5711,3.5711,0,0,1,.5976-1.0493c.1379-.1682-.1277-.3773-.2659-.2088a3.8483,3.8483,0,0,0-.638,1.1157A7.5375,7.5375,0,0,0,86.8242,37.47a.3372.3372,0,0,0,.0951-.16C87.7887,33.8642,91.48,37.7207,92.1389,39.2183Zm-8.7972,6.953a6.0154,6.0154,0,0,1-2.8007-1.0948c-1.4336-1.2254-.3386-2.0586.8939-2.7287a4.2175,4.2175,0,0,0,1.3916,1.2459,4.5694,4.5694,0,0,0,.5073.2349l-.77.5772a.1691.1691,0,0,0,.2033.27l.7948-.5962a.15.15,0,0,0,.0617-.15c.0776.0252.1553.0493.2335.07a.1726.1726,0,0,0-.0388.05l-.3722.7389c-.0981.1946.2124.3283.31.1345q.1861-.3695.3722-.7389a.1452.1452,0,0,0,.01-.1158,4.6046,4.6046,0,0,0,.8181.0841,1.8636,1.8636,0,0,0,.1646.9674c.0915.1962.4064.0735.3143-.1241a1.5561,1.5561,0,0,1-.1389-.84,5.17,5.17,0,0,0,2.2722-.6834,2.6642,2.6642,0,0,0,1.3185.1253,1.027,1.027,0,0,1,.077,1.322,1.91,1.91,0,0,1-.4941-.5913c-.1006-.19-.4161-.0682-.3143.1241a2.3364,2.3364,0,0,0,.5776.7139,6.5124,6.5124,0,0,1-2.76,1.0114A8.5255,8.5255,0,0,1,83.3417,46.1713ZM81.95,39.1655c.6459-.9823,1.6441-2.1515,2.933-1.9408A4.8439,4.8439,0,0,1,87.77,39.5975c-.4122.0718-.8331.2047-1.1968.2715a.3334.3334,0,0,0-.2221.1424c-.0572-.0356-.114-.0716-.1713-.1072-.1672-.1037-.3374-.2146-.5156-.307a3.6834,3.6834,0,0,1,.0872-.4688c.022-.0954.0455-.1906.0708-.285l.0161-.0511a.1685.1685,0,0,0,.0343-.073.5394.5394,0,0,0,.0138-.1222.1671.1671,0,0,0-.1007-.137l-.0013,0a.17.17,0,0,0-.2.0506,1.8336,1.8336,0,0,0-.1565.5225c-.0337.1423-.0634.2878-.0852.4341-.0416-.0125-.0818-.0292-.1247-.0377a1.004,1.004,0,0,0-1.1951.7655l-1.3252-.6422c-.1962-.095-.33.2153-.1345.31l1.3834.67-.0035.02c-.0015.0147-.0018.0314-.0032.0464l-1.4406-.1986a.1691.1691,0,0,0-.0514.3341l1.4786.2038c0,.0149,0,.03,0,.0445L82.621,41.52a.1691.1691,0,0,0,.1241.3144l1.2075-.4968a1.1617,1.1617,0,0,0,.7,1.0179,1.5115,1.5115,0,0,0,.8451-.0105.3215.3215,0,0,0,.0532.06,7.85,7.85,0,0,0,1.2013.7326,4.0282,4.0282,0,0,1-2.9711.126C82.1086,42.6862,80.815,40.8913,81.95,39.1655Zm6.5726,1.1764a2.0162,2.0162,0,0,1,.8123,1.8608c-.25,1.4428-2.0612.5367-2.998-.0736.3771-.1026.7522-.212,1.1237-.3346a.2875.2875,0,0,0,.1951-.1853l.8941.0347c.2153.0083.2686-.3257.0514-.3341l-.7868-.0305a.2726.2726,0,0,0-.0848-.4053q-.34-.2126-.68-.4252A2.6142,2.6142,0,0,1,88.5226,40.3419ZM84.61,40.69c.0245-.3692.0737-.6569.58-.568l.0157.0052-.0022.0041-.1862.597c-.0642.2057.2452.3422.31.1345l.1862-.597v-.0013c.074.0463.1456.0953.2145.1434l-.5343.6568c-.1372.1687.1284.3779.2659.2088l.5535-.6806,1.01.6316c-.4811.155-.9658.2991-1.4582.4134-.3768.0875-.8313.1616-.9275-.3358A2.4273,2.4273,0,0,1,84.61,40.69Zm8.2251,4.5489c-.0071-.0011-.0125.0015-.0194.0008a4.73,4.73,0,0,0-.6773-1.4417.2931.2931,0,0,0-.1839-.1264c.0758-.07.144-.1474.2146-.2224a11.9375,11.9375,0,0,0,1.3973,1.1461c.1776.1237.3879-.141.2087-.2658A11.9383,11.9383,0,0,1,92.39,43.1949a3.5084,3.5084,0,0,0,.5831-1.077.1665.1665,0,0,0,.1716.1273l.6171-.027c.2177-.01.18-.3456-.0361-.3361l-.6172.027a.163.163,0,0,0-.0676.017l.0049-.014a4.7065,4.7065,0,0,0-.76-3.7888C95.368,38.8218,96.542,45.85,92.8351,45.2392ZM91.5776,34.3605a4.9728,4.9728,0,0,1,1.3155.8853l0,0a4.821,4.821,0,0,0-1.0529.5065c-.1831.117.02.3869.2032.27a4.4591,4.4591,0,0,1,1.1369-.5151,2.4182,2.4182,0,0,1,.4761.5583.885.885,0,0,1,.0427.1088c-.1568.05-.381.0962-.426.11l-.6619.2105c-.2074.0659-.0824.38.1241.3144l.8147-.259c.0669-.0213.1471-.0394.2272-.06.068.5075-.026,1.1973-.3587,1.3949-.0076.0046-.01.0108-.017.0156a3.1548,3.1548,0,0,0-1.6321-.51c-.0087,0-.014.0038-.0223.0041-.7356-.8557-2.09-2.2881-3.3323-2.454A2.6872,2.6872,0,0,1,91.5776,34.3605Zm-1.3067-.921a3.1234,3.1234,0,0,0-1.9226.61q-.0115-.7019-.0231-1.4037c-.0035-.2178-.34-.18-.3361.0361q.0138.8387.0275,1.6772c-.0509.055-.1014.1107-.1485.1709a1.9062,1.9062,0,0,0-1.19-1.46,6.4375,6.4375,0,0,0-4.5167-.5525C83.1565,28.5875,88.8505,30.7827,90.2709,33.44ZM75.6432,34.6c1.2382-1.9294,3.7244-3.4668,6.012-2.7235a4.7651,4.7651,0,0,0-.2421.931v.0015c-.0437.0218-.0884.0411-.1314.0644a5.8267,5.8267,0,0,0-2.6767,2.8006l-.715-.8552c-.1388-.1661-.41.0357-.27.2033l.8519,1.0188a.15.15,0,0,0,.0221.0177,2.6172,2.6172,0,0,0-.0479.3127c-.0045.0532-.003.1032-.0044.1548l-1.3691-.6633c-.1962-.095-.33.2153-.1346.31l1.358.6578-.0006.0006A16.5912,16.5912,0,0,0,76.99,38.8767a5.7781,5.7781,0,0,0-.7194-.6517C75.0531,37.1858,74.7011,36.0677,75.6432,34.6Zm-.5193,3.5011a7.324,7.324,0,0,1,1.5084,1.43c.0077.0122.0181.017.0265.0276a5.9265,5.9265,0,0,0-.5486,2.6188,3.5675,3.5675,0,0,1-1.6988-1.251A1.8631,1.8631,0,0,1,75.1239,38.1009Zm.03,4.3557a6.1077,6.1077,0,0,0,.9037.4192.1947.1947,0,0,0,.0258.0637,4.5026,4.5026,0,0,0,.7951,4.3247,3.4552,3.4552,0,0,0,3.4381,1.2783,3.1028,3.1028,0,0,0,.31,1.3387C77.0736,49.855,73.4172,45.9021,75.1536,42.4566Zm8.95,8.9809a3.7889,3.7889,0,0,1-2.5661-1.3506.3215.3215,0,0,0-.1261-.1784,2.5063,2.5063,0,0,1-.4021-1.6687c.041-.025.0829-.0467.1234-.0741a.2984.2984,0,0,0,.1162-.151,2.6711,2.6711,0,0,0,.9245.1224c.01.0254.0215.05.032.0746q-.2468.8088-.4937,1.6178c-.0628.206.2466.3426.31.1345l.4008-1.3137a3.6645,3.6645,0,0,0,1.0154,1.1249.1677.1677,0,0,0-.0106.0212l-.129.471c-.0574.21.2773.2591.3341.0515l.0948-.3462a6.2877,6.2877,0,0,0,4.4091.5593C87.3754,51.4694,85.0564,51.539,84.1036,51.4375Zm4.6983-.7143a1.8523,1.8523,0,0,0,.1838-.4081,7.766,7.766,0,0,0,1.527-.66.1832.1832,0,0,0,.1607-.0944,4.4351,4.4351,0,0,0,2.2057-2.8q.2858.5268.5714,1.0537c.1024.1887.418.0669.3143-.1241q-.3052-.5631-.6106-1.1263a1.3793,1.3793,0,0,0,.4535.2734.2127.2127,0,0,0,.19-.3753.167.167,0,0,0-.1665-.0242l-.0207.0105a.1623.1623,0,0,0-.0244.0191,2.3271,2.3271,0,0,1-.2919-.22c-.1251-.0941-.2432-.1962-.3582-.3022,0-.0053,0-.01,0-.0157a2.7937,2.7937,0,0,0,1.2867-.1245C94.7156,48.967,91.5877,50.5706,88.8019,50.7232Z" style="fill: #231f20"/>
        <path d="M81.4084,36.5589l.5222.7333c.1261.177.3965-.0258.27-.2033q-.2612-.3666-.5221-.7333C81.5524,36.1786,81.282,36.3814,81.4084,36.5589Z" style="fill: #231f20"/>
        <path d="M92.7469,43.286l1.388.6178a.1691.1691,0,0,0,.1345-.31l-1.3881-.6178A.169.169,0,0,0,92.7469,43.286Z" style="fill: #231f20"/>
        <path d="M86.4935,32.7278c-.1322.1724.133.382.2658.2088l.4769-.6217c.1322-.1724-.133-.3819-.2658-.2088Z" style="fill: #231f20"/>
      </g>
    </g>
    <g>
      <path d="M91.3348,142.3758c2.295-.0148,4.9952-1.4778,4.4091-4.1341,1.1592-.9692.75-3.6827-.6132-4.9367,1.2913-.8825-.1378-2.399-1.0592-2.9634a2.9411,2.9411,0,0,0-1.008-.3821.1979.1979,0,0,0-.0146-.1415c-1.0065-2.063-4.9354-3.5692-6.2449-1.4115-1.7589-.6132-3.6015.4405-4.6617,1.882a2.5679,2.5679,0,0,0-.5544,2.0146,1.5293,1.5293,0,0,0,.1725.4634,1.7253,1.7253,0,0,0-.8639,1.9618,2.128,2.128,0,0,0,.8024,1.1785c-1.52,2.8,1.5909,6.0738,4.4763,5.867a3.058,3.058,0,0,0,1.9118,1.0686,4.6452,4.6452,0,0,0,3.0877-.5271A.2346.2346,0,0,0,91.3348,142.3758Z" style="fill: #fff"/>
      <g>
        <path d="M91.3348,142.3758c2.295-.0148,4.9952-1.4778,4.4091-4.1341,1.1592-.9692.75-3.6827-.6132-4.9367,1.2913-.8825-.1378-2.399-1.0592-2.9634a2.9411,2.9411,0,0,0-1.008-.3821.1979.1979,0,0,0-.0146-.1415c-1.0065-2.063-4.9354-3.5692-6.2449-1.4115-1.7589-.6132-3.6015.4405-4.6617,1.882a2.5679,2.5679,0,0,0-.5544,2.0146,1.5293,1.5293,0,0,0,.1725.4634,1.7253,1.7253,0,0,0-.8639,1.9618,2.128,2.128,0,0,0,.8024,1.1785c-1.52,2.8,1.5909,6.0738,4.4763,5.867a3.058,3.058,0,0,0,1.9118,1.0686,4.6452,4.6452,0,0,0,3.0877-.5271A.2346.2346,0,0,0,91.3348,142.3758Zm.6184-2.4659a9.6567,9.6567,0,0,0,.5041.8842q-.1252.0684-.2566.13l-.0554-.3351c-.0246-.1483-.2577-.1239-.233.0251l.0674.4075c-.1518.0618-.3081.1159-.4676.1633a4.5114,4.5114,0,0,0-.1023-.8135c-.0323-.1458-.2656-.122-.233.0251a4.4721,4.4721,0,0,1,.1056.8509c-1.5384.3828-3.2758.081-3.866-1.2617a1.4593,1.4593,0,0,0,.6577-.7468,7.6063,7.6063,0,0,0,.82-.0172,3.5475,3.5475,0,0,0-.2257.9823c-.0121.15.2195.1862.2316.0357a3.3473,3.3473,0,0,1,.22-.9592.11.11,0,0,0,.0017-.0777c.11-.01.2224-.0235.3358-.0382l.108.8472a.1173.1173,0,0,0,.2331-.025q-.0546-.4276-.109-.8553c.1377-.0213.2759-.0458.4135-.0739a.12.12,0,0,0,.0089.0471q.1153.282.2306.5642a.1173.1173,0,0,0,.218-.0861l-.2306-.5641-.0063-.0094a4.0176,4.0176,0,0,0,1.55-.6561,8.7578,8.7578,0,0,0,.8238,1.0731c.1.111.2885-.0285.1873-.1409a8.7609,8.7609,0,0,1-.8378-1.0929c.0211-.0229.0413-.0462.06-.07l.8961.5507c.127.0781.2734-.1052.1447-.1843l-.9161-.563a.9281.9281,0,0,0,.0437-.1078.2471.2471,0,0,0,.2662.012,8.08,8.08,0,0,0,.9124-.5819.2258.2258,0,0,0,.0384.1311,2.1628,2.1628,0,0,1-.8324,3.2989,9.16,9.16,0,0,1-.4887-.8539C92.1047,139.69,91.8862,139.7745,91.9532,139.91Zm-8.6321-1.2015a2.6046,2.6046,0,0,1-.2692-1.53,4.37,4.37,0,0,0,.8868,1.2314c.1356.136.3.2913.4848.4513a.51.51,0,0,0-.3035.3662c-.0343.1472.1976.1817.2316.0356a.2717.2717,0,0,1,.21-.2084.1183.1183,0,0,0,.056-.03,6.4975,6.4975,0,0,0,1.158.7753.2233.2233,0,0,0-.0439.0731A2.009,2.009,0,0,1,83.3211,138.7084Zm.8756-3.5612-.9013-.1733a6.9912,6.9912,0,0,1,1.2059-2.2316,3.1444,3.1444,0,0,0,1.658,1.3482,2.23,2.23,0,0,0-.0987.3132,1.922,1.922,0,0,0,.0138.8877l-1.053.169c-.1486.0239-.1241.2571.025.2331q.5479-.0879,1.0958-.1758c.021.0575.0445.1141.07.17-.6546.3552-1.6957.9824-1.5032,1.8059.2237.9572,1.9744,1.5251,2.8667,1.6906-1.0426,1.8164-3.9977-1.9192-4.2106-2.4975-.0271-.0738-.0477-.1468-.0681-.22l.0112-.0174,1.152-.2952c.1457-.0373.0583-.2549-.086-.2179l-1.0565.2707a.19.19,0,0,0-.0935-.0693,2.79,2.79,0,0,1,.021-.935l.9156.176C84.31,135.4074,84.3445,135.1756,84.1967,135.1472Zm.7876-3.6495a3.4462,3.4462,0,0,1,1.2579-1.3622,3.35,3.35,0,0,1,.4-.2308,5.37,5.37,0,0,0,.5082,1.1523c.0763.13.2632-.012.1873-.1409a5.0888,5.0888,0,0,1-.4814-1.1084,2.6825,2.6825,0,0,1,.5144-.15,1.6846,1.6846,0,0,0,.5483.85c.1117.1013.2563-.0833.1448-.1844a1.6938,1.6938,0,0,1-.3009-.3547,1.52,1.52,0,0,1-.1152-.2246l-.0259-.0662c0-.0127-.0048-.0142-.0062-.0233a.1263.1263,0,0,0,.061-.0335,3.4816,3.4816,0,0,1,.8767.059,6.1007,6.1007,0,0,1,1.2782.4042,3.1563,3.1563,0,0,1-.6812.6928.1173.1173,0,0,0,.1409.1873,3.36,3.36,0,0,0,.7481-.7676c.3237.198.5047.4492.2789.7477l-.7313.5546a.1173.1173,0,0,0,.1409.1873l.5539-.42a.2534.2534,0,0,0,.048.0462,2.7888,2.7888,0,0,0-.52,1.1207,2.1415,2.1415,0,0,0-1.5122-.3758,2.6833,2.6833,0,0,0-1.4439.9282q-.3339-.2368-.668-.4736c-.1225-.0869-.2682.0967-.1447.1843l.6621.4694a4.0756,4.0756,0,0,0-.3417.5026h0C85.4777,133.26,84.5046,132.63,84.9843,131.4977Zm8.8829,2.4237c.7234,1.6441-.2153,2.7269-1.5492,3.4989a1.5486,1.5486,0,0,0-.2842-.6775,1.108,1.108,0,0,0,.314-.5187,2.0182,2.0182,0,0,0-.3955-1.6365l.5654-.1535c.1453-.0394.0581-.2571-.086-.2179l-.5919.1606a.1075.1075,0,0,0-.031.0158.7322.7322,0,0,0-.3453-.2052c.3409-.2625.6889-.5151,1.0485-.7522a.1178.1178,0,0,0-.0238-.2011l-.1548-.05a.1226.1226,0,0,0-.139.1862q-.4671.3162-.9131.6613a.2362.2362,0,0,0-.0209-.0556q-.0559-.09-.118-.1814a.0975.0975,0,0,0,.0945-.0689,2.4737,2.4737,0,0,1,.4143-.7275c.0956-.1167-.0885-.2617-.1843-.1449a2.668,2.668,0,0,0-.4424.7736,5.2259,5.2259,0,0,0-.8423-.9171.235.235,0,0,0,.066-.1114C90.851,130.2092,93.41,132.883,93.8672,133.9214Zm-6.1,4.821a4.1721,4.1721,0,0,1-1.9419-.7591c-.994-.85-.2348-1.4273.62-1.892a2.9241,2.9241,0,0,0,.9649.8639,3.19,3.19,0,0,0,.3517.1629l-.5336.4a.1173.1173,0,0,0,.1409.1874l.5512-.4134a.1043.1043,0,0,0,.0427-.1041c.0538.0175.1077.0342.162.0487a.1182.1182,0,0,0-.027.0344q-.129.2562-.2581.5123c-.068.135.1473.2277.215.0933l.2581-.5124a.1011.1011,0,0,0,.0067-.08,3.18,3.18,0,0,0,.5672.0584,1.2922,1.2922,0,0,0,.1141.6708c.0634.136.2818.0509.2179-.0861a1.08,1.08,0,0,1-.0963-.5824,3.5871,3.5871,0,0,0,1.5755-.4738,1.8477,1.8477,0,0,0,.9141.0868.712.712,0,0,1,.0534.9166,1.3226,1.3226,0,0,1-.3425-.41c-.07-.1318-.2886-.0472-.2179.0861a1.6189,1.6189,0,0,0,.4.4949,4.5166,4.5166,0,0,1-1.9137.7014A5.9132,5.9132,0,0,1,87.7676,138.7424Zm-.9649-4.8576c.4478-.681,1.14-1.4917,2.0336-1.3456a3.3582,3.3582,0,0,1,2.0014,1.6452c-.2858.05-.5777.142-.83.1882a.2311.2311,0,0,0-.154.0988c-.04-.0247-.0791-.05-.1188-.0743-.1159-.0719-.2339-.1489-.3575-.213a2.5748,2.5748,0,0,1,.0605-.325q.0228-.0992.0491-.1976l.0112-.0354a.1172.1172,0,0,0,.0237-.0506.37.37,0,0,0,.01-.0847.1156.1156,0,0,0-.07-.095l-.0006,0a.1182.1182,0,0,0-.1391.035,1.2749,1.2749,0,0,0-.1085.3622c-.0233.0988-.0439.2-.059.3011a.8973.8973,0,0,0-.0865-.0262.6962.6962,0,0,0-.8286.5308l-.9189-.4453c-.136-.0659-.2288.1493-.0932.215l.9592.4648-.0024.0139-.0023.0321-.9988-.1377a.1173.1173,0,0,0-.0357.2317l1.0253.1413c0,.01,0,.02,0,.0308l-.9049.3723a.1172.1172,0,0,0,.086.218l.8373-.3445a.8054.8054,0,0,0,.4852.7058,1.0477,1.0477,0,0,0,.5859-.0073.2223.2223,0,0,0,.0369.0417,5.4544,5.4544,0,0,0,.8329.5079,2.7927,2.7927,0,0,1-2.06.0874C86.9126,136.326,86.0157,135.0815,86.8027,133.8848Zm4.5571.8157a1.3981,1.3981,0,0,1,.5632,1.29c-.1733,1-1.4291.3721-2.0787-.051.2615-.0712.5215-.147.7791-.232a.2.2,0,0,0,.1354-.1285l.62.0241c.1493.0057.1862-.2258.0357-.2316l-.5456-.0213a.1888.1888,0,0,0-.0588-.2809q-.2355-.1474-.4713-.2949A1.8133,1.8133,0,0,1,91.36,134.7005Zm-2.7128.2416c.0169-.2559.0511-.4555.4021-.3938l.0109.0036-.0015.0028q-.0646.207-.1291.4139c-.0445.1427.17.2373.2149.0933l.1292-.4139v-.0009c.0513.0321.101.066.1487.0994l-.37.4554c-.0951.117.089.262.1843.1448l.3838-.4719.7.4379c-.3336.1075-.67.2074-1.0111.2866-.2612.0606-.5764.1121-.6431-.2328A1.6805,1.6805,0,0,1,88.647,134.9421Zm5.703,3.154c-.005-.0008-.0087.001-.0136.0006a3.2737,3.2737,0,0,0-.47-1,.2031.2031,0,0,0-.1275-.0876c.0526-.0487.1-.1022.1488-.1541a8.311,8.311,0,0,0,.9688.7946c.1232.0857.269-.0978.1448-.1844a8.2675,8.2675,0,0,1-.96-.7868,2.4352,2.4352,0,0,0,.4043-.7468.1154.1154,0,0,0,.1189.0883l.4279-.0188c.151-.0065.125-.24-.025-.233l-.4279.0187a.1145.1145,0,0,0-.0469.0118l.0034-.01a3.2637,3.2637,0,0,0-.5269-2.627C96.1061,133.6466,96.92,138.5194,94.35,138.0961Zm-.872-7.5429a3.4462,3.4462,0,0,1,.9121.6139h0a3.3534,3.3534,0,0,0-.73.3512c-.1269.0812.0142.2683.1409.1873a3.0894,3.0894,0,0,1,.7883-.3572,1.6741,1.6741,0,0,1,.33.387.6277.6277,0,0,1,.03.0756c-.1087.0348-.2641.0667-.2953.0766q-.23.0729-.459.1458c-.1437.0458-.0571.2636.0861.218l.5648-.1795c.0464-.0148.1021-.0273.1575-.0418.0472.3519-.018.83-.2486.9672l-.0118.0107a2.1887,2.1887,0,0,0-1.1317-.3536c-.006,0-.01.0026-.0154.0029a4.7346,4.7346,0,0,0-2.31-1.7016A1.8632,1.8632,0,0,1,93.478,130.5532Zm-.906-.6385a2.1665,2.1665,0,0,0-1.333.4232q-.0081-.4866-.0161-.9732c-.0024-.151-.2354-.1246-.233.025l.0191,1.1629c-.0353.0382-.07.0767-.103.1185a1.3217,1.3217,0,0,0-.8248-1.0124,4.4635,4.4635,0,0,0-3.1317-.3831C87.6392,126.5506,91.5872,128.0726,92.572,129.9147Zm-10.1422.8044c.8585-1.3377,2.5823-2.4036,4.1685-1.8883a3.3056,3.3056,0,0,0-.1679.6456v.001c-.03.0151-.0612.0285-.091.0446a4.04,4.04,0,0,0-1.8559,1.9418l-.4958-.5929c-.0962-.1151-.2844.0247-.1873.1409l.5907.7065a.1023.1023,0,0,0,.0153.0122,1.8276,1.8276,0,0,0-.0332.2168c-.0031.0369-.0021.0716-.0031.1074l-.9493-.46c-.136-.0659-.2288.1493-.0932.215l.9415.4561,0,0a11.51,11.51,0,0,0-.9052,1.4185,4.0039,4.0039,0,0,0-.4988-.4518A1.7074,1.7074,0,0,1,82.43,130.7191Zm-.36,2.4277a5.0705,5.0705,0,0,1,1.0459.9917c.0053.0085.0125.0117.0183.0191a4.1108,4.1108,0,0,0-.38,1.8158,2.4742,2.4742,0,0,1-1.1778-.8674A1.2917,1.2917,0,0,1,82.07,133.1468Zm.0206,3.02a4.2523,4.2523,0,0,0,.6266.2907.1353.1353,0,0,0,.0179.0441,3.1217,3.1217,0,0,0,.5513,2.9985,2.3954,2.3954,0,0,0,2.3838.8863,2.1537,2.1537,0,0,0,.215.9283C83.4215,141.2965,80.8864,138.5557,82.09,136.1668Zm6.2055,6.2269a2.6266,2.6266,0,0,1-1.7791-.9364.2226.2226,0,0,0-.0875-.1237,1.7382,1.7382,0,0,1-.2788-1.1571c.0285-.0172.0574-.0323.0856-.0513a.2062.2062,0,0,0,.0805-.1047,1.8486,1.8486,0,0,0,.6411.0848c.0069.0177.0148.0344.0222.0518q-.1711.5608-.3424,1.1217c-.0435.1428.171.2376.2151.0933l.2778-.9109a2.5409,2.5409,0,0,0,.7041.78l-.0074.0148-.0894.3265c-.04.1455.1923.18.2316.0357l.0658-.24a4.3591,4.3591,0,0,0,3.057.3878C90.5644,142.4159,88.9565,142.4642,88.2958,142.3937Zm3.2577-.4953a1.28,1.28,0,0,0,.1274-.2829,5.3863,5.3863,0,0,0,1.0588-.458.127.127,0,0,0,.1114-.0655,3.0748,3.0748,0,0,0,1.5293-1.9413l.3962.7306c.0709.1309.29.0464.2179-.086q-.2117-.39-.4234-.7809a.9567.9567,0,0,0,.3145.19.1474.1474,0,0,0,.1319-.26.1159.1159,0,0,0-.1154-.0168l-.0144.0073a.118.118,0,0,0-.0169.0133,1.6159,1.6159,0,0,1-.2024-.1525,3.2422,3.2422,0,0,1-.2483-.2095v-.011a1.9372,1.9372,0,0,0,.8921-.0862C95.6538,140.6808,93.485,141.7927,91.5535,141.8984Z" style="fill: #231f20"/>
        <path d="M86.4271,132.0775l.3621.5085c.0874.1227.2749-.0179.1873-.1409l-.3621-.5085C86.527,131.8139,86.34,131.9545,86.4271,132.0775Z" style="fill: #231f20"/>
        <path d="M94.2887,136.7419l.9624.4283a.1173.1173,0,0,0,.0933-.215l-.9624-.4283A.1173.1173,0,0,0,94.2887,136.7419Z" style="fill: #231f20"/>
        <path d="M89.9529,129.4213c-.0917.1195.0922.2648.1843.1447l.3306-.431a.1173.1173,0,0,0-.1843-.1448Z" style="fill: #231f20"/>
      </g>
    </g>
    <g>
      <path d="M113.9657,88.1219a.5768.5768,0,1,1-.5767-.5767A.5768.5768,0,0,1,113.9657,88.1219Z" style="fill: #262930"/>
      <path d="M57.9145,88.1219a.5768.5768,0,1,1-.5767-.5767A.5769.5769,0,0,1,57.9145,88.1219Z" style="fill: #262930"/>
    </g>
    <g>
      <g>
        <path d="M56.0482,101.539q.0331-.3159.05-.6232t.0331-.64q.033-.4162.0335-.8233v-.8233q.0159-.6654.0165-1.3305t.033-1.3135q.05-1.0639.15-2.1119a4.6429,4.6429,0,0,1,.1411-.84,5.02,5.02,0,0,1,.291-.8068,2.98,2.98,0,0,1,.2992-.4822,2.28,2.28,0,0,1,.3991-.3992.62.62,0,0,1,.5657-.083.598.598,0,0,1,.3822.3826,1.4832,1.4832,0,0,1,.1166.8314q-.0338.2332-.0747.4656a4.69,4.69,0,0,1-.1084.4657q-.1164.4322-.2327.8478t-.25.8318a.8174.8174,0,0,0,.0085.4157,1.45,1.45,0,0,0,.158.3991.6873.6873,0,0,0,.2411.2492.46.46,0,0,0,.3407.0665.6094.6094,0,0,0,.233-.0746,1.4774,1.4774,0,0,0,.2-.1415,2.6549,2.6549,0,0,0,.54-.6153,7.2584,7.2584,0,0,0,.3911-.7152q.2657-.5816.5072-1.1555t.49-1.1559a.2708.2708,0,0,1,.0835-.0995c.033-.0556.0716-.0611.1161-.017a.2109.2109,0,0,1,0,.1666q-.1329.333-.2742.6817t-.2746.6818l-.2991.6987c-.0115.022-.0335.0661-.0665.1326s-.0666.139-.1.2165-.0665.1471-.0995.2077-.0555.0915-.0666.0915a4.9647,4.9647,0,0,1-.366.5656,3.8434,3.8434,0,0,1-.4488.4988.9076.9076,0,0,1-1.0978.15,1.2168,1.2168,0,0,1-.5568-.4906,1.8587,1.8587,0,0,1-.2246-.6818,3.2014,3.2014,0,0,1-.0084-.7648,5.7525,5.7525,0,0,1,.125-.74q.0825-.3819.1746-.7813a3.0231,3.0231,0,0,0,.0745-.7983,1.0824,1.0824,0,0,0-.008-.133.1988.1988,0,0,0-.0585-.1166q-.1-.1156-.2-.025a.5117.5117,0,0,0-.133.175,5.1416,5.1416,0,0,0-.3157.69,5.3356,5.3356,0,0,0-.2161.74,7.8184,7.8184,0,0,0-.15.8729q-.05.441-.083.89-.0337.5656-.05,1.1224t-.0331,1.139q-.0173.4659-.0085.9313t.025.9479a14.1461,14.1461,0,0,1-.15,2.0622c-.0225.1216-.0446.2412-.0666.3576s-.0445.2352-.0665.3572a.27.27,0,0,1-.183.2166.2771.2771,0,0,1-.2661-.1.95.95,0,0,1-.2077-.3161,1.8076,1.8076,0,0,1-.108-.3657,5.105,5.105,0,0,1-.1165-.6983q-.0331-.35-.0335-.6987V98.3463q0-.8815.0335-1.7792.0336-.7653.0665-1.5216t.0665-1.5386q.0338-.3819.0665-.7483a4.6666,4.6666,0,0,1,.1331-.7482,1.4305,1.4305,0,0,0,.058-.1831.47.47,0,0,1,.0916-.1826q.1-.183.2326-.1746c.0889.0055.1606.0691.2165.1912a.7884.7884,0,0,1,.1.3826,4.5107,4.5107,0,0,1,.0085.4737c-.006.161-.014.3186-.025.4741q0,.2-.0085.3988t-.025.3991q-.0363.7983-.0822,1.605t-.1005,1.6047q-.0171.3324-.0169.6733t-.0165.6737q-.0165.5154-.0331,1.0144t-.0169.9979q-.0165.2822-.0081.5572t.0081.5567v.0665Z" style="fill: #ffbc7b"/>
        <path d="M61.5689,95.1036q.0833-.1164.1581-.2331c.05-.0771.1021-.1551.158-.2326q.2-.3656.3988-.7233t.4161-.7068a2.0082,2.0082,0,0,1,.3241-.4492,4.0584,4.0584,0,0,1,.4241-.3826.5115.5115,0,0,1,.3742-.108.4734.4734,0,0,1,.3242.2081.864.864,0,0,1,.1745.4736q.0083.2416.025.5242.0165.8313.025,1.6381t.058,1.6377a1.0686,1.0686,0,0,0,.075.2746.162.162,0,0,0,.2246.0915.3805.3805,0,0,0,.2-.1165,3.145,3.145,0,0,0,.6733-.9979q.2409-.565.4741-1.1309.2658-.6483.5323-1.297t.5487-1.28a.3567.3567,0,0,1,.0665-.1331c.055-.055.1051-.072.15-.0495q.0833.033.05.1326a.52.52,0,0,1-.0665.2165q-.25.6153-.4991,1.214t-.4988,1.197q-.1333.3165-.2745.6157t-.2742.6152q-.1333.2822-.258.5818a2.266,2.266,0,0,1-.3077.5322,1.4559,1.4559,0,0,1-.2741.2411.8825.8825,0,0,1-.3411.1415.7569.7569,0,0,1-.4987-.108,1.2485,1.2485,0,0,1-.3826-.3577,2.2141,2.2141,0,0,1-.3157-.8813,9.2849,9.2849,0,0,1-.0835-.9314q0-.3489.017-.6983c.0106-.233.0276-.4656.05-.6986q.0165-.1826.025-.3407a2.7318,2.7318,0,0,1,.0415-.3411.6715.6715,0,0,1,.0165-.0915.69.69,0,0,0,.0169-.15.3984.3984,0,0,0-.0169-.1246c-.011-.0335-.0385-.0441-.083-.0335a.2747.2747,0,0,0-.2077.1416c-.05.083-.0974.158-.1415.2245q-.1164.1665-.208.3242t-.1911.3241a3.142,3.142,0,0,1-.2246.4076q-.1247.1914-.2411.3907a4.2847,4.2847,0,0,0-.2161.3827,1.6285,1.6285,0,0,1-.25.3656.3864.3864,0,0,1-.3491.1665.5371.5371,0,0,1-.2992-.1831,1.2044,1.2044,0,0,1-.2161-.3575,1.4079,1.4079,0,0,1-.1-.3577,3.518,3.518,0,0,1,.0165-1.13q.1-.5823.2165-1.1144.1157-.5988.2161-1.2055t.2491-1.189q.1832-.6985.3576-1.372t.3577-1.3555q.1-.3489.2245-.6817t.2577-.6653a3.608,3.608,0,0,1,.2661-.5238q.15-.2407.3326-.4906c.044-.0551.0885-.1081.1331-.158a1.2165,1.2165,0,0,1,.1495-.1412.5031.5031,0,0,1,.3661-.1165.4661.4661,0,0,1,.3822.3326,2.5539,2.5539,0,0,1,.15.5157,3.0182,3.0182,0,0,1,.0246,1.114q-.0915.5656-.2077,1.0974a10.4646,10.4646,0,0,1-.3491,1.2559,9.3407,9.3407,0,0,1-.5156,1.2055,5.0639,5.0639,0,0,1-.3077.5572c-.1165.1826-.2356.3632-.3576.54a3.5331,3.5331,0,0,1-.4322.5072,1.0357,1.0357,0,0,0-.3.5571q-.1163.6985-.2161,1.38t-.2326,1.364a.4205.4205,0,0,0-.0169.133C61.5355,95.098,61.5465,95.1036,61.5689,95.1036Zm.6153-3.825a.0707.0707,0,0,1,.05.0166l.058-.0581a.2215.2215,0,0,0,.0416-.0581q.183-.2828.3741-.5656a4.4939,4.4939,0,0,0,.3411-.5987q.2821-.5816.5153-1.1971a8.2665,8.2665,0,0,0,.366-1.2639q.1164-.4824.1831-.9563a4.6153,4.6153,0,0,0,.0331-.956,2.33,2.33,0,0,0-.0581-.35,1.2406,1.2406,0,0,0-.1415-.3327,1.0618,1.0618,0,0,0-.0666.1165q-.0832.2333-.1661.4572c-.0559.15-.111.3026-.1665.4576q-.1.3662-.2.7318t-.1826.7314q-.2333.8319-.4407,1.655T62.3007,90.78c-.0224.089-.0416.172-.0585.2491S62.2062,91.19,62.1842,91.2786Z" style="fill: #ffbc7b"/>
        <path d="M69.0853,94.1887q-.0336.25-.0665.4992t-.0831.4822a3.2508,3.2508,0,0,1-.3495.9478q-.1164.2-.2161.3742a.8613.8613,0,0,1-.3327.3076,1.0542,1.0542,0,0,1-.4406.1081,1.1582,1.1582,0,0,1-.4572-.0746,1.2679,1.2679,0,0,1-.6153-.6322,1.7584,1.7584,0,0,1-.1911-.5072,3.71,3.71,0,0,1-.0749-.5572,5.041,5.041,0,0,1,.1246-1.3885,5.1149,5.1149,0,0,1,.5071-1.3055c.078-.1216.161-.2467.25-.3742a1.3507,1.3507,0,0,1,.3161-.3241,1.06,1.06,0,0,1,.7648-.2.3415.3415,0,0,1,.2.058,1.2653,1.2653,0,0,1,.1661.1416l.0585.058a.232.232,0,0,1,.0415.0585.3772.3772,0,0,0,.2495.1831.2593.2593,0,0,1,.1661.1245,1.01,1.01,0,0,1,.0831.2076q.0667.25.125.5072t.1081.5242q.033.1493.0665.3076a1.5108,1.5108,0,0,0,.1.3076.3952.3952,0,0,0,.291.2662.4762.4762,0,0,0,.3907-.1331,2.0746,2.0746,0,0,0,.3246-.3326q.1742-.2161.3491-.4657t.3327-.4907q.1575-.2409.2576-.3906c.022-.0441.0525-.1.0915-.1666a.2159.2159,0,0,1,.1415-.1161c.0772-.011.1106.011.1.0666a.59.59,0,0,1-.05.15,3.2376,3.2376,0,0,1-.2411.4241q-.1582.2409-.3326.49t-.3576.4826a4.2662,4.2662,0,0,1-.3157.3657,3.4861,3.4861,0,0,1-.2661.2411.683.683,0,0,1-.3161.1415.7973.7973,0,0,1-.7148-.2.4231.4231,0,0,1-.0916-.0831A.4418.4418,0,0,0,69.0853,94.1887Zm-1.3635,2.3949a.3131.3131,0,0,0,.1661-.0334.4766.4766,0,0,0,.2826-.2q.1-.1494.1831-.2992a3.0473,3.0473,0,0,0,.2245-.4907,5.2307,5.2307,0,0,0,.1581-.54,2.1536,2.1536,0,0,0,.05-.283c.0111-.1.0225-.2.0336-.2992q.0165-.0832.033-.2576a.3567.3567,0,0,0-.05-.258,1.9453,1.9453,0,0,1-.35-1.031,2.2094,2.2094,0,0,1,.0334-.5322c.022-.0885.0415-.1581.0581-.2076s-.014-.108-.0915-.1746a.2964.2964,0,0,0-.3988-.05.3306.3306,0,0,0-.125.1246,1.4084,1.4084,0,0,0-.0746.158,6.95,6.95,0,0,0-.5657,1.8708,7.581,7.581,0,0,0-.05,1.9372,1.0507,1.0507,0,0,0,.1415.4077A.34.34,0,0,0,67.7218,96.5836Z" style="fill: #ffbc7b"/>
        <path d="M71.1637,96.201a9.1725,9.1725,0,0,1,.05-.9563q.05-.4735.1165-.9559.1335-1.1308.3576-2.2369t.5072-2.22v-.0835a.0471.0471,0,0,1-.0334.017.0473.0473,0,0,0-.0331.0166,3.5965,3.5965,0,0,0-.5572.3075,1.59,1.59,0,0,0-.4407.4573c-.0555.0559-.1051.0724-.15.05a.106.106,0,0,1-.0334-.1662,1.1783,1.1783,0,0,1,.1915-.258q.108-.1082.2245-.2077a3.0136,3.0136,0,0,1,.8479-.4821.1981.1981,0,0,0,.1331-.1331,7.5546,7.5546,0,0,1,.6817-1.7961q.1659-.2994.3492-.5988a5.1963,5.1963,0,0,1,.3991-.5652,1.2823,1.2823,0,0,1,.3-.3q.2326-.1824.3742-.058a.5659.5659,0,0,1,.1745.3576,3.6338,3.6338,0,0,1-.058,1.3636,12.3362,12.3362,0,0,1-.3911,1.3135c-.0331.0559-.0166.0835.05.0835q.2492,0,.5322-.0085a2.9667,2.9667,0,0,0,.64-.1,5.77,5.77,0,0,0,.8233-.2911,9.1793,9.1793,0,0,0,1.0974-.5822l.0666-.033q.033-.0165.0665.033c.022.0225.0055.061-.05.1165a1.3009,1.3009,0,0,1-.133.1166c-.0445.033-.0891.0665-.1331.1a4.3008,4.3008,0,0,1-1.5716.7317,6.9922,6.9922,0,0,1-1.4716.1661c-.0444,0-.0775.028-.1.0835q-.1663.3984-.3661.79t-.4321.7563q-.1.1667-.2.3161t-.2.3a.6535.6535,0,0,0-.1.2492q-.183.898-.3241,1.8046t-.2577,1.8207a10.3051,10.3051,0,0,0-.0665,1.1724,6.9323,6.9323,0,0,0,.1,1.1725,1.0171,1.0171,0,0,0,.0585.2246c.0275.0716.058.1466.0911.2241q.1328.2664.3991.0835a2.5574,2.5574,0,0,0,.3491-.3161,9.8057,9.8057,0,0,0,.9483-1.4466q.3986-.7488.7314-1.5466.2994-.6985.5907-1.397t.5737-1.397a.0492.0492,0,0,0,.0165-.033.05.05,0,0,1,.0166-.0335.4126.4126,0,0,1,.05-.0746.0555.0555,0,0,1,.0831-.0085.123.123,0,0,1,.075.0831.09.09,0,0,1-.025.083q-.0667.1666-.1331.3246c-.0444.1055-.0889.2076-.133.3076q-.2829.6985-.5657,1.3721t-.5652,1.355q-.2492.565-.5322,1.1144a9.1257,9.1257,0,0,1-.6318,1.0475q-.1334.2-.2826.3991a1.7417,1.7417,0,0,1-.35.3491,1.2537,1.2537,0,0,1-.2741.158.522.522,0,0,1-.3077.025.5749.5749,0,0,1-.15-.05c-.0445-.0221-.089-.0441-.1331-.0666a1.1563,1.1563,0,0,1-.3576-.3991,4.7744,4.7744,0,0,1-.2246-.4822,3.36,3.36,0,0,1-.2326-.7648A4.64,4.64,0,0,1,71.1637,96.201ZM72.86,91.079a.0459.0459,0,0,0,.0331.0166,6.21,6.21,0,0,0,.4741-.8064q.2079-.4239.4072-.8729a1.5307,1.5307,0,0,1-.2161.0166,1.2205,1.2205,0,0,0-.2.0165.3053.3053,0,0,0-.0831.083,1.1426,1.1426,0,0,0-.05.15c-.011.044-.0225.094-.033.1495q-.084.3159-.1666.6233T72.86,91.079Zm1.4966-4.6062h-.0335a.3873.3873,0,0,0-.05.083q-.1.2332-.2081.4742a5.1757,5.1757,0,0,0-.191.49q-.1337.3991-.2412.7983t-.2245.7983c-.0225.0555,0,.083.0665.083.0551-.0106.1106-.0191.1661-.025s.111-.008.1665-.008a.089.089,0,0,0,.1-.0665q.0832-.2162.15-.4157c.0441-.1331.0936-.2661.15-.3992a2.9116,2.9116,0,0,0,.1581-.7652q.0247-.3821.0246-.7648a1.0826,1.0826,0,0,0-.0081-.133C74.3755,86.5782,74.3674,86.5283,74.3564,86.4728Z" style="fill: #ffbc7b"/>
        <path d="M77.9148,94.1887q-.0336.25-.0665.4992t-.083.4822a3.2539,3.2539,0,0,1-.35.9478q-.1164.2-.2161.3742a.861.861,0,0,1-.3326.3076,1.0551,1.0551,0,0,1-.4407.1081,1.1585,1.1585,0,0,1-.4572-.0746,1.2677,1.2677,0,0,1-.6152-.6322,1.7555,1.7555,0,0,1-.1911-.5072,3.6976,3.6976,0,0,1-.075-.5572,5.0409,5.0409,0,0,1,.1245-1.3885,5.1192,5.1192,0,0,1,.5073-1.3055c.0779-.1216.161-.2467.2495-.3742a1.3507,1.3507,0,0,1,.3161-.3241,1.06,1.06,0,0,1,.7648-.2.3415.3415,0,0,1,.2.058,1.2653,1.2653,0,0,1,.1661.1416l.0585.058a.232.232,0,0,1,.0415.0585.3774.3774,0,0,0,.25.1831.26.26,0,0,1,.1661.1245,1.0045,1.0045,0,0,1,.083.2076q.0667.25.125.5072t.1081.5242q.033.1493.0665.3076a1.5108,1.5108,0,0,0,.1.3076.3952.3952,0,0,0,.2911.2662.4764.4764,0,0,0,.3907-.1331,2.0745,2.0745,0,0,0,.3245-.3326q.1742-.2161.3491-.4657t.3327-.4907q.1577-.2409.2576-.3906c.0221-.0441.0526-.1.0915-.1666a.2158.2158,0,0,1,.1416-.1161c.077-.011.1105.011.1.0666a.5937.5937,0,0,1-.05.15,3.2376,3.2376,0,0,1-.2411.4241q-.1583.2409-.3326.49t-.3576.4826a4.2485,4.2485,0,0,1-.3157.3657,3.5052,3.5052,0,0,1-.2661.2411.6825.6825,0,0,1-.3161.1415.7973.7973,0,0,1-.7148-.2.42.42,0,0,1-.0915-.0831A.4448.4448,0,0,0,77.9148,94.1887Zm-1.3635,2.3949a.3128.3128,0,0,0,.1661-.0334.4768.4768,0,0,0,.2827-.2q.1-.1494.183-.2992a3.0564,3.0564,0,0,0,.2246-.4907,5.2557,5.2557,0,0,0,.158-.54,2.1369,2.1369,0,0,0,.05-.283c.011-.1.0224-.2.0335-.2992q.0165-.0832.033-.2576a.3567.3567,0,0,0-.05-.258,1.9462,1.9462,0,0,1-.35-1.031,2.21,2.21,0,0,1,.0335-.5322c.022-.0885.0415-.1581.0581-.2076s-.014-.108-.0916-.1746a.2963.2963,0,0,0-.3987-.05.33.33,0,0,0-.125.1246,1.3907,1.3907,0,0,0-.0745.158,6.9425,6.9425,0,0,0-.5657,1.8708,7.572,7.572,0,0,0-.05,1.9372,1.0523,1.0523,0,0,0,.1415.4077A.34.34,0,0,0,76.5513,96.5836Z" style="fill: #ffbc7b"/>
        <path d="M82.5707,92.01q-.0667.15-.125.3076a2.9467,2.9467,0,0,1-.1246.2911q-.1665.4487-.3491.8728a6.68,6.68,0,0,1-.4492.8568,1.9649,1.9649,0,0,0-.15.1661,2.0457,2.0457,0,0,1-.15.1661.535.535,0,0,1-.4242.1831.574.574,0,0,1-.4071-.25.2487.2487,0,0,1-.0916-.1326c-.0169-.0555-.036-.111-.0585-.1665a2.2678,2.2678,0,0,1-.133-.8564,2.8322,2.8322,0,0,1,.1665-.8564,2.9729,2.9729,0,0,1,.4157-.7732,2.773,2.773,0,0,1,.6153-.6072.9734.9734,0,0,1,.233-.1411.9469.9469,0,0,1,.2656-.075.5148.5148,0,0,1,.3577.1,2.1772,2.1772,0,0,0,.3246.2,5.4154,5.4154,0,0,0,.241-.6069c.05-.16.0916-.313.1246-.4571s.0691-.3.1081-.4657a6.4684,6.4684,0,0,1,.1911-.6322c.0225-.033.0419-.0635.0585-.0911a.466.466,0,0,0,.0415-.0915.3073.3073,0,0,1,.266-.15.22.22,0,0,1,.2327.2165.4183.4183,0,0,1,.0665.3326q0,.3826-.025.74t-.058.74q-.0338.4653-.0581.7728c-.017.2055-.0309.3992-.0415.5822s-.0225.3742-.0335.5737-.033.4547-.0665.7649q-.0832.6654-.133,1.339T83.269,96.201q-.0165.2162-.05.4157t-.0665.4326c.0335-.0225.064-.0415.0915-.0585a.4058.4058,0,0,0,.075-.058q.6483-.8148,1.247-1.6631a15.9718,15.9718,0,0,0,1.0809-1.7628,7.2178,7.2178,0,0,1,.3911-.7147q.2079-.3325.3907-.6653a.2267.2267,0,0,0,.05-.075.219.219,0,0,1,.05-.0746.1143.1143,0,0,1,.0584-.025.0645.0645,0,0,1,.0581.0081.1026.1026,0,0,1,.0831.1165.228.228,0,0,1-.0831.15q-.2327.4492-.4487.8813t-.4827.8648A15.078,15.078,0,0,1,84.558,95.86a20.4823,20.4823,0,0,1-1.3886,1.7212.6375.6375,0,0,0-.133.3822q-.0838.5821-.2081,1.1724a6.61,6.61,0,0,1-.3491,1.1394,5.4121,5.4121,0,0,1-.5653,1.039,4.1079,4.1079,0,0,1-.8232.8733.9516.9516,0,0,1-.2081.133,1.406,1.406,0,0,1-.2411.0831.3986.3986,0,0,1-.5818-.2827.6791.6791,0,0,1-.0749-.341,1.4188,1.4188,0,0,1,.058-.3407,3.0191,3.0191,0,0,1,.2995-.7733,7.8769,7.8769,0,0,1,.4323-.69q.1828-.2492.3741-.4822t.3741-.4656q.15-.2.3412-.4242a.8423.8423,0,0,0,.2076-.5072q.1665-1.4631.291-2.9351t.2581-2.9517v-.2Zm-.6152,6.8181a.1357.1357,0,0,1-.0835.05q-.1831.2492-.3492.4822t-.3326.4822q-.1493.25-.2907.4991t-.2745.4988a2.016,2.016,0,0,0-.1081.4491,2.4269,2.4269,0,0,0-.0085.4487.2226.2226,0,0,0,.0251.1l.058.1161a.2834.2834,0,0,1,.1-.0581.28.28,0,0,0,.1-.058,1.836,1.836,0,0,0,.3326-.4657,4.47,4.47,0,0,0,.5657-1.2139A8.4344,8.4344,0,0,0,81.9555,98.8285Zm-1.1809-4.54h.0165v.05a.1024.1024,0,0,1,.0334.0746c0,.028.0055.0415.0166.0415a.0458.0458,0,0,0,.0665.0085.1655.1655,0,0,0,.05-.0581,1.2533,1.2533,0,0,0,.3161-.3326,6.8806,6.8806,0,0,0,.3822-.7487q.183-.3985.3411-.8063t.3241-.79c.0335-.0555.0386-.0971.0165-.1251a.8979.8979,0,0,0-.0665-.0745.2847.2847,0,0,0-.1411-.025.1567.1567,0,0,0-.0915.0415,1.8542,1.8542,0,0,1-.133.15.4487.4487,0,0,0-.1.15,5.058,5.058,0,0,0-.54,1.0059q-.2077.5238-.3907,1.0559a.8675.8675,0,0,0-.05.1911A.8772.8772,0,0,1,80.7746,94.2888Z" style="fill: #ffbc7b"/>
        <path d="M91.2676,92.0769c.0555.0225.075.0555.0585.1a.285.285,0,0,1-.0585.1.553.553,0,0,0-.033.0915.5808.5808,0,0,1-.0335.0915q-.1329.2326-.2411.4657t-.2246.4653q-.2.366-.4237.79t-.4657.8564q-.2415.4327-.4657.8647t-.4241.7983a2.0053,2.0053,0,0,1-.208.4238q-.1247.1912-.2577.3911a2.0313,2.0313,0,0,1-.2741.3406c-.1055.1055-.208.2022-.3081.2911a1.3906,1.3906,0,0,1-.2241.075.26.26,0,0,1-.1746-.0084.3851.3851,0,0,1-.2165-.0916.9085.9085,0,0,1-.15-.1746c-.033-.0555-.061-.1025-.0831-.1415s-.05-.086-.083-.141a2.5015,2.5015,0,0,1-.183-.9564v-.9894q.0165-.5321.083-1.0394t.133-1.0059q.0331-.2327.05-.4407a.5363.5363,0,0,0-.1664-.4076q-.1329-.183-.2907-.3741a4.7435,4.7435,0,0,1-.2912-.3907.954.954,0,0,1-.158-.4327,1.7939,1.7939,0,0,1,.0085-.4571,1.4736,1.4736,0,0,1,.3322-.74.8661.8661,0,0,1,.1665-.133,1.1736,1.1736,0,0,1,.1661-.0835.4139.4139,0,0,1,.3826.017.4383.4383,0,0,1,.1831.3157v.1664a.1833.1833,0,0,0,.008.0581.1283.1283,0,0,1-.008.075c0,.0555-.003.1136-.0085.1746a1.6666,1.6666,0,0,1-.025.1746,1.2954,1.2954,0,0,1-.1161.3491c-.0559.111-.111.222-.1665.3326-.0224.111-.0055.1776.05.2a.4115.4115,0,0,0,.0915.1415q.0579.0585.1411.1411a.9979.9979,0,0,1,.3161.4822,1.714,1.714,0,0,1,.0665.5822q0,.2664-.0085.54t-.008.5241q-.0338.2829-.0415.5987t-.025.6153a14.6768,14.6768,0,0,0-.1,1.9623c.011.033.0195.0605.025.083s.0305.0385.075.05a.0861.0861,0,0,0,.0745,0,.3094.3094,0,0,1,.0916-.0335c.0665-.0775.1275-.1526.1831-.2246s.1105-.1411.166-.2076q.0832-.1164.1581-.2161a.937.937,0,0,0,.125-.2331q.1493-.2662.3241-.5321a4.454,4.454,0,0,0,.3076-.5487q.1494-.2994.2992-.5988a6.1,6.1,0,0,1,.3326-.5818q.05-.1162.1415-.291c.0606-.1166.1246-.2331.1911-.3492s.1331-.2271.2-.3326.1165-.1915.15-.258c.0555-.0886.1085-.1717.158-.2492a2.6257,2.6257,0,0,0,.1416-.25,3.6668,3.6668,0,0,0,.1745-.3657,3.6727,3.6727,0,0,1,.1746-.3661.663.663,0,0,1,.083-.0995C91.168,92.0269,91.2121,92.0328,91.2676,92.0769Z" style="fill: #ffbc7b"/>
        <path d="M92.8476,93.0748a.0146.0146,0,0,0-.0165.0165.0746.0746,0,0,1-.0085.0335.0728.0728,0,0,0-.008.033q-.0838.2333-.1746.4742t-.175.49a3.61,3.61,0,0,1-.2161.5572q-.1328.2746-.2826.5237A.2432.2432,0,0,1,91.9,95.32q-.5326.7818-1.18.0665a2.0729,2.0729,0,0,1-.3-.4656,1.3223,1.3223,0,0,1-.1165-.5652,3.5129,3.5129,0,0,1,.8983-2.378,1.4428,1.4428,0,0,1,.6983-.4491.87.87,0,0,1,.8813.3161.475.475,0,0,0,.0915.1245.503.503,0,0,1,.0916.1246,3.9883,3.9883,0,0,0,.158-.3741,1.6117,1.6117,0,0,0,.0581-.2161,1.7048,1.7048,0,0,1,.05-.2,1.6339,1.6339,0,0,1,.15-.3076.48.48,0,0,1,.3492-.1166.3411.3411,0,0,1,.3326.2827,1.1607,1.1607,0,0,1,.0415.2415,1.1945,1.1945,0,0,1-.008.2411q-.15.8974-.2911,1.7792a7.8017,7.8017,0,0,0-.0915,1.7127,1.4022,1.4022,0,0,0,.3326.7652.6149.6149,0,0,0,.3492.2411.5492.5492,0,0,0,.3826-.125,1.4115,1.4115,0,0,0,.2491-.2c.0775-.0776.1555-.1551.233-.2327a6.7641,6.7641,0,0,0,.7733-.9228q.3408-.4906.6733-1.0229.2-.3159.3992-.6152t.4156-.6318a.0151.0151,0,0,0,.017-.017.0483.0483,0,0,1,.0165-.033.26.26,0,0,1,.0916-.083.1066.1066,0,0,1,.1246.0165c.0665.033.0855.07.058.108a.9706.9706,0,0,0-.0746.1246q-.3826.5656-.74,1.1394t-.74,1.1389a6.2135,6.2135,0,0,1-.4407.5822q-.2417.2829-.5072.5653a1.7349,1.7349,0,0,1-.5157.3991.8369.8369,0,0,1-1.0974-.166,1.734,1.734,0,0,1-.4157-.5322,2.4847,2.4847,0,0,1-.2161-.6323,3.9724,3.9724,0,0,1-.0915-.5567c-.017-.1831-.025-.3687-.025-.5572a1.7064,1.7064,0,0,1-.0165-.25v-.2661a.5357.5357,0,0,0-.0085-.0665c-.0059-.0331-.011-.0691-.0165-.108a.4646.4646,0,0,0-.025-.1C92.8866,93.0722,92.87,93.0638,92.8476,93.0748Zm-.5987-1.0309A.31.31,0,0,0,92,92.243a2.0319,2.0319,0,0,0-.35.6072,5.9558,5.9558,0,0,0-.2.69,4.7214,4.7214,0,0,0-.1826.6817,5.0793,5.0793,0,0,0-.0835.7318c0,.144.0391.2271.1166.2491a.1679.1679,0,0,0,.0915-.05c.0386-.0334.0691-.061.0915-.0834q.1-.1824.2-.3492c.0665-.1106.1271-.2216.183-.3326l.8479-1.6962a.3189.3189,0,0,0,.025-.216.6228.6228,0,0,0-.0915-.2161.5975.5975,0,0,0-.1661-.1666.3027.3027,0,0,0-.2161-.05Z" style="fill: #ffbc7b"/>
        <path d="M97.8531,101.539q.033-.3159.05-.6232t.0331-.64q.033-.4162.0334-.8233v-.8233q.0159-.6654.0165-1.3305t.0331-1.3135q.05-1.0639.15-2.1119a4.6429,4.6429,0,0,1,.1411-.84,5.01,5.01,0,0,1,.2911-.8068,2.9792,2.9792,0,0,1,.2991-.4822,2.2774,2.2774,0,0,1,.3992-.3992.62.62,0,0,1,.5657-.083.5979.5979,0,0,1,.3821.3826,1.4823,1.4823,0,0,1,.1165.8314q-.0336.2332-.0745.4656a4.7191,4.7191,0,0,1-.1085.4657q-.1162.4322-.2326.8478t-.25.8318a.8185.8185,0,0,0,.0085.4157,1.4473,1.4473,0,0,0,.1581.3991.687.687,0,0,0,.241.2492.46.46,0,0,0,.3407.0665.61.61,0,0,0,.233-.0746,1.4837,1.4837,0,0,0,.2-.1415,2.6578,2.6578,0,0,0,.54-.6153,7.3,7.3,0,0,0,.3911-.7152q.2657-.5816.5072-1.1555t.49-1.1559a.2708.2708,0,0,1,.0835-.0995c.033-.0556.0716-.0611.1161-.017a.2109.2109,0,0,1,0,.1666q-.1329.333-.2742.6817t-.2745.6818l-.2992.6987q-.0171.033-.0665.1326c-.0335.0665-.0666.139-.1.2165s-.0665.1471-.1.2077-.0555.0915-.0665.0915a4.979,4.979,0,0,1-.3661.5656,3.8426,3.8426,0,0,1-.4487.4988.9078.9078,0,0,1-1.0979.15,1.2173,1.2173,0,0,1-.5568-.4906,1.8567,1.8567,0,0,1-.2245-.6818,3.2014,3.2014,0,0,1-.0085-.7648,5.7525,5.7525,0,0,1,.125-.74q.0827-.3819.1745-.7813a3.0107,3.0107,0,0,0,.0746-.7983,1.0824,1.0824,0,0,0-.008-.133.1983.1983,0,0,0-.0585-.1166q-.1-.1156-.2-.025a.513.513,0,0,0-.133.175,5.1541,5.1541,0,0,0-.3157.69,5.3494,5.3494,0,0,0-.2161.74,7.8184,7.8184,0,0,0-.15.8729q-.05.441-.083.89-.0338.5656-.05,1.1224t-.0331,1.139q-.0171.4659-.0085.9313t.025.9479a14.1322,14.1322,0,0,1-.15,2.0622c-.0224.1216-.0444.2412-.0665.3576s-.0444.2352-.0665.3572a.2694.2694,0,0,1-.183.2166.2771.2771,0,0,1-.2661-.1.9512.9512,0,0,1-.2077-.3161,1.8205,1.8205,0,0,1-.108-.3657,5.12,5.12,0,0,1-.1165-.6983q-.033-.35-.0335-.6987V98.3463q0-.8815.0335-1.7792.0336-.7653.0665-1.5216t.0666-1.5386q.0336-.3819.0665-.7483a4.6551,4.6551,0,0,1,.133-.7482,1.4305,1.4305,0,0,0,.058-.1831.4713.4713,0,0,1,.0916-.1826q.1-.183.2326-.1746c.089.0055.1606.0691.2165.1912a.7884.7884,0,0,1,.1.3826,4.5107,4.5107,0,0,1,.0085.4737c-.0059.161-.014.3186-.0251.4741q0,.2-.0084.3988t-.025.3991q-.0362.7983-.0822,1.605t-.1,1.6047q-.0172.3324-.017.6733t-.0165.6737q-.0165.5154-.033,1.0144t-.017.9979c-.011.1881-.014.3741-.008.5572s.008.3682.008.5567v.0665Z" style="fill: #ffbc7b"/>
        <path d="M103.3738,95.1036q.0832-.1164.158-.2331c.05-.0771.1021-.1551.158-.2326q.2-.3656.3988-.7233t.4161-.7068a2.0082,2.0082,0,0,1,.3241-.4492,4.06,4.06,0,0,1,.4242-.3826.5111.5111,0,0,1,.3741-.108.4728.4728,0,0,1,.3241.2081.8634.8634,0,0,1,.1746.4736q.0083.2416.025.5242.0166.8313.0251,1.6381t.058,1.6377a1.0646,1.0646,0,0,0,.075.2746.1619.1619,0,0,0,.2245.0915.38.38,0,0,0,.2-.1165,3.1464,3.1464,0,0,0,.6732-.9979q.2409-.565.4742-1.1309.2656-.6483.5321-1.297t.5487-1.28a.36.36,0,0,1,.0666-.1331c.0551-.055.1051-.072.15-.0495.0555.022.072.0661.05.1326a.5214.5214,0,0,1-.0665.2165q-.25.6153-.4992,1.214t-.4987,1.197q-.1335.3165-.2746.6157t-.2742.6152q-.1333.2822-.258.5818a2.2692,2.2692,0,0,1-.3076.5322,1.4591,1.4591,0,0,1-.2741.2411.8836.8836,0,0,1-.3412.1415.7569.7569,0,0,1-.4987-.108,1.2485,1.2485,0,0,1-.3826-.3577,2.2124,2.2124,0,0,1-.3156-.8813,9.2858,9.2858,0,0,1-.0836-.9314q0-.3489.017-.6983t.05-.6986q.0165-.1826.025-.3407a2.7318,2.7318,0,0,1,.0415-.3411.6715.6715,0,0,1,.0165-.0915.6906.6906,0,0,0,.017-.15.3982.3982,0,0,0-.017-.1246c-.011-.0335-.0385-.0441-.083-.0335a.2749.2749,0,0,0-.2077.1416c-.05.083-.0974.158-.1414.2245q-.1164.1665-.2081.3242t-.1911.3241a3.13,3.13,0,0,1-.2246.4076q-.1245.1914-.2411.3907a4.2847,4.2847,0,0,0-.2161.3827,1.6314,1.6314,0,0,1-.2495.3656.3866.3866,0,0,1-.3492.1665.5368.5368,0,0,1-.2991-.1831,1.2023,1.2023,0,0,1-.2161-.3575,1.4094,1.4094,0,0,1-.1-.3577,3.5238,3.5238,0,0,1,.0166-1.13q.1-.5823.2165-1.1144.1157-.5988.2161-1.2055t.2491-1.189q.1831-.6985.3577-1.372t.3576-1.3555q.1-.3489.2246-.6817t.2576-.6653a3.608,3.608,0,0,1,.2661-.5238q.15-.2407.3326-.4906c.0441-.0551.0886-.1081.133-.158a1.2248,1.2248,0,0,1,.15-.1412.5031.5031,0,0,1,.3661-.1165.4661.4661,0,0,1,.3822.3326,2.5473,2.5473,0,0,1,.15.5157,3.016,3.016,0,0,1,.0246,1.114q-.0915.5656-.2076,1.0974a10.4652,10.4652,0,0,1-.3492,1.2559,9.3273,9.3273,0,0,1-.5157,1.2055,5.0454,5.0454,0,0,1-.3075.5572c-.1166.1826-.2356.3632-.3577.54a3.5326,3.5326,0,0,1-.4321.5072,1.0352,1.0352,0,0,0-.3.5571q-.1162.6985-.216,1.38t-.2326,1.364a.4173.4173,0,0,0-.017.133C103.34,95.098,103.3513,95.1036,103.3738,95.1036Zm.6152-3.825a.0707.0707,0,0,1,.05.0166l.0581-.0581a.2212.2212,0,0,0,.0415-.0581q.183-.2828.3741-.5656a4.505,4.505,0,0,0,.3411-.5987q.2823-.5816.5152-1.1971a8.233,8.233,0,0,0,.3661-1.2639q.1164-.4824.1831-.9563a4.6084,4.6084,0,0,0,.033-.956,2.317,2.317,0,0,0-.058-.35,1.2406,1.2406,0,0,0-.1415-.3327,1.062,1.062,0,0,0-.0665.1165q-.0832.2333-.1661.4572c-.056.15-.111.3026-.1666.4576q-.1.3662-.2.7318t-.1826.7314q-.2332.8319-.4406,1.655t-.4241,1.6712c-.0225.089-.0416.172-.0586.2491S104.011,91.19,103.989,91.2786Z" style="fill: #ffbc7b"/>
        <path d="M112.4033,95.07a.8831.8831,0,0,1,.133-.2161q.3324-.6318.7233-1.247t.7237-1.2475q.033-.066.0666-.1245c.022-.0391.044-.0806.0665-.1246.0665-.0665.1271-.089.1826-.0665.0445.022.064.05.0585.083a.2644.2644,0,0,1-.0416.1q-.2167.4327-.4656.8483t-.4822.8479q-.2332.4327-.4741.8482t-.4907.8483a1.0994,1.0994,0,0,0-.1339.4322q-.0679.4323-.1271.84t-.1437.84q-.0852.399-.2034.79t-.2364.7732a6.3708,6.3708,0,0,1-.2936.79,3.7651,3.7651,0,0,1-.425.7232c-.0666.0891-.1441.1941-.2327.3162a1.8717,1.8717,0,0,1-.2995.3241,1.305,1.305,0,0,1-.3492.2165.408.408,0,0,1-.3656-.0249.5384.5384,0,0,1-.3162-.5822,1.861,1.861,0,0,1,.1166-.6818q.1328-.3331.2661-.6487t.2991-.6318q.2829-.4824.5653-.9644t.5822-.9648a1.5439,1.5439,0,0,0,.2495-.8314q.0159-.4327.0165-.8478v-.8483q.0166-.4653.0166-.9148t.0165-.9144a.5339.5339,0,0,0-.022-.1665.3672.3672,0,0,1-.067.133q-.251.5492-.5021,1.0978t-.5021,1.081q-.0839.1494-.1758.2826a.9808.9808,0,0,1-.2259.2326.4041.4041,0,0,1-.5.05,1.0041,1.0041,0,0,1-.5487-.6487,4.9252,4.9252,0,0,1-.1831-.8314q-.033-.4155-.025-.8313a4.454,4.454,0,0,1,.0915-.8148,3.161,3.161,0,0,1,.1-.3246,2.4538,2.4538,0,0,1,.1991-.4407.7952.7952,0,0,1,.25-.2826c.0885-.0551.1771,0,.2661.1666a.6281.6281,0,0,1,.05.1411c.011.05.022.0974.033.1415v.5987q-.033.5154-.05,1.0224t-.05,1.0394a3.6114,3.6114,0,0,0,.05.5988q.05.2827.2343.0665a1.42,1.42,0,0,0,.15-.1746,1.3029,1.3029,0,0,0,.1173-.1911,9.6887,9.6887,0,0,0,.51-.9894q.2257-.5071.4436-1.0394a2.6468,2.6468,0,0,1,.117-.2911,2.595,2.595,0,0,0,.1174-.2911c.022-.0555.0529-.1551.0919-.2991a2.2068,2.2068,0,0,1,.1585-.4161,1.1024,1.1024,0,0,1,.2263-.3157.2033.2033,0,0,1,.2762-.0169.43.43,0,0,1,.1754.3326c.0166.1555.0365.2886.0585.3991a9.385,9.385,0,0,1,.075,1.314q-.0089.6654-.0084,1.3305v.5818A.0948.0948,0,0,0,112.4033,95.07Zm-1.13,2.3948-.0335-.0165a.628.628,0,0,0-.1165.1661q-.2994.5491-.6068,1.1059t-.59,1.1225a2.13,2.13,0,0,0-.1665.3991q-.0667.2161-.1331.4322a.7484.7484,0,0,0,.0165.5157q.0667.216.2661.1a1.1376,1.1376,0,0,0,.2331-.1831c.055-.0889.1135-.1775.1746-.266a2.3581,2.3581,0,0,0,.158-.2662,8.2943,8.2943,0,0,0,.4822-1.33,9.7824,9.7824,0,0,0,.2661-1.3967,1.7491,1.7491,0,0,0,.025-.1829C111.2533,97.598,111.2613,97.5315,111.2728,97.4649Z" style="fill: #ffbc7b"/>
      </g>
      <g>
        <text transform="translate(81.8752 64.981)" style="font-size: 5.274521350860596px;fill: #262930;font-family: Cormorant-Regular, Cormorant">ES<tspan x="5.4219" y="0" style="letter-spacing: -0.06989304227384545em">T</tspan><tspan x="8.397" y="0">.</tspan></text>
        <text transform="translate(80.3181 113.4996)" style="font-size: 6.713022708892822px;fill: #262930;font-family: Cormorant-Regular, Cormorant">1985</text>
      </g>
      <text transform="translate(44.3992 83.5025)" style="font-size: 12.763884544372559px;fill: #262930;font-family: Cormorant-Bold, Cormorant;font-weight: 700;letter-spacing: 0.24999583454841237em">WEDDING</text>
    </g>
    <path d="M101.3018,42.303c2.5253-.376,5.7787-.13,6.6974,2.7378a.1537.1537,0,0,1,.006.0532c1.1673.1378,2.3382.3182,3.4949.5558-1.8993-1.3809-4.1876-2.74-4.2541-5.3342-.0049-.1882.2884-.2254.2932-.0349.0007.025.0031.0489.0042.0736a.1364.1364,0,0,1,.0873.0512,22.1036,22.1036,0,0,0,3.0334,2.5154,7.12,7.12,0,0,1,1.9634,2.9472.1475.1475,0,0,1,.0055.0357,28.1141,28.1141,0,0,1,3.2757.9939,29.0085,29.0085,0,0,1-3.41-3.5907,9.5751,9.5751,0,0,1-1.4392-4.7592.147.147,0,0,1,.2871-.0549.134.134,0,0,1,.036.0118,6.3559,6.3559,0,0,1,1.86,1.9865,17.7377,17.7377,0,0,0,2.4927,2.3789,3.8963,3.8963,0,0,1,1.2,4.4408,19.0166,19.0166,0,0,1,3.8872,2.2144c-.1728-1.8144-1.17-3.3432-1.974-4.9516a12.0735,12.0735,0,0,1-1.1773-5.1665l.0014-.0085c-.0311-.1428.1629-.2719.2539-.1287a39.8389,39.8389,0,0,1,3.6048,5.9867,4.5588,4.5588,0,0,1-.3127,4.5366.1349.1349,0,0,1-.0217.0194,15.36,15.36,0,0,1,2.2855,2.2245,10.3518,10.3518,0,0,1,.2646-3.8961,5.3586,5.3586,0,0,1,.8336-1.6617c.5026-.6585,1.2278-1.0857,1.7245-1.7482a.1472.1472,0,0,1,.2582.0576.1328.1328,0,0,1,.0349.0789,10.141,10.141,0,0,1-.3956,4.0574c-.4739,1.446-1.7005,2.2826-2.32,3.6178a15.1281,15.1281,0,0,1,1.34,2.1007c.0886.168-.1854.2784-.2734.1116a14.6554,14.6554,0,0,0-2.3734-3.2974c-.168,1.41-2.8113,2.0628-3.8941,2.3173a11.0927,11.0927,0,0,1-6.0167-.286c-.1808-.0593-.0652-.3312.1145-.2722.0379.0125.0762.022.1142.0341a.1361.1361,0,0,1,.1031-.0664c2.9608-.4016,5.9148-3.3011,8.9842-2.3149-.3153-.2954-.64-.5783-.9772-.8449a.1252.1252,0,0,1-.157-.12,17.0479,17.0479,0,0,0-1.7432-1.1791c-.349,1.516-1.8973,2.27-3.297,2.6144a14.0058,14.0058,0,0,1-6.4269-.3245c-.1839-.042-.1442-.3349.0417-.2924l.0491.0108a.1212.1212,0,0,1,.0746-.058q2.6144-.7719,5.2286-1.5435a13.054,13.054,0,0,1,3.8581-.6778c-.5536-.3055-1.1256-.5824-1.7105-.8369a.1709.1709,0,0,1-.1734.07.1172.1172,0,0,1-.0913.1174,26.8427,26.8427,0,0,1-4.6285,1.2281,17.784,17.784,0,0,1-4.7187-.5482.1415.1415,0,0,1-.07-.0336,1.0787,1.0787,0,0,1-.2507-.1338.1484.1484,0,0,1,.0341-.2539c2.307-.6423,4.9291-1.6716,7.3793-1.3775-.7262-.2247-1.4654-.42-2.2125-.5906a.1308.1308,0,0,1-.1261-.0234l-.007-.0053c-.7708-.1725-1.5494-.318-2.3305-.4411a3.0488,3.0488,0,0,1-2.208,1.3183,14.1986,14.1986,0,0,1-4.3643.2614.1218.1218,0,0,1-.12-.1065.145.145,0,0,1,.0686-.2042,16.3539,16.3539,0,0,1,4.9372-1.5012c-1.3992-.1663-2.7922-.2714-4.1456-.3363-.19-.009-.1471-.3014.0417-.2924,1.0294.0493,2.08.1222,3.1375.2272a14.1493,14.1493,0,0,1-2.1523-1.0377c-.8429-.5085-2.3826-1.5447-3.4259-1.299a.1162.1162,0,0,1-.14-.0617l-.0185.0026C101.1488,42.6244,101.1136,42.3311,101.3018,42.303Z" style="fill: #262930"/>
    <path d="M68.2474,42.303c-2.5253-.376-5.7787-.13-6.6974,2.7378a.1537.1537,0,0,0-.006.0532c-1.1673.1378-2.3382.3182-3.4949.5558,1.8992-1.3809,4.1875-2.74,4.2542-5.3342.0048-.1882-.2885-.2254-.2934-.0349-.0006.025-.003.0489-.0041.0736a.1369.1369,0,0,0-.0874.0512,22.1027,22.1027,0,0,1-3.0333,2.5154,7.1208,7.1208,0,0,0-1.9635,2.9472.1473.1473,0,0,0-.0054.0357,28.1083,28.1083,0,0,0-3.2757.9939,29.0151,29.0151,0,0,0,3.41-3.5907A9.5731,9.5731,0,0,0,58.49,38.5478a.1469.1469,0,0,0-.287-.0549.134.134,0,0,0-.036.0118,6.3559,6.3559,0,0,0-1.86,1.9865A17.7377,17.7377,0,0,1,53.8138,42.87a3.8963,3.8963,0,0,0-1.2,4.4408,19.0166,19.0166,0,0,0-3.8872,2.2144c.1728-1.8144,1.17-3.3432,1.974-4.9516a12.0735,12.0735,0,0,0,1.1773-5.1665l-.0014-.0085c.0311-.1428-.1629-.2719-.2539-.1287a39.8389,39.8389,0,0,0-3.6048,5.9867,4.559,4.559,0,0,0,.3126,4.5366.14.14,0,0,0,.0218.0194,15.36,15.36,0,0,0-2.2855,2.2245,10.3518,10.3518,0,0,0-.2646-3.8961,5.3586,5.3586,0,0,0-.8336-1.6617c-.5027-.6585-1.2277-1.0857-1.7245-1.7482a.1472.1472,0,0,0-.2582.0576.1322.1322,0,0,0-.0349.0789,10.141,10.141,0,0,0,.3955,4.0574c.474,1.446,1.7006,2.2826,2.32,3.6178a15.11,15.11,0,0,0-1.34,2.1007c-.0886.168.1854.2784.2734.1116a14.6554,14.6554,0,0,1,2.3734-3.2974c.168,1.41,2.8113,2.0628,3.8941,2.3173a11.0923,11.0923,0,0,0,6.0166-.286c.1809-.0593.0653-.3312-.1144-.2722-.0379.0125-.0763.022-.1142.0341a.1361.1361,0,0,0-.1032-.0664c-2.9607-.4016-5.9147-3.3011-8.9842-2.3149.3154-.2954.64-.5783.9773-.8449a.1252.1252,0,0,0,.157-.12,17.0479,17.0479,0,0,1,1.7432-1.1791c.349,1.516,1.8973,2.27,3.297,2.6144a14.0058,14.0058,0,0,0,6.4269-.3245c.1839-.042.1441-.3349-.0417-.2924l-.0491.0108a.1214.1214,0,0,0-.0747-.058q-2.6142-.7719-5.2285-1.5435a13.0546,13.0546,0,0,0-3.8582-.6778c.5537-.3055,1.1257-.5824,1.7106-.8369a.1708.1708,0,0,0,.1733.07.1172.1172,0,0,0,.0914.1174,26.8379,26.8379,0,0,0,4.6285,1.2281,17.7828,17.7828,0,0,0,4.7186-.5482.1411.1411,0,0,0,.07-.0336,1.0768,1.0768,0,0,0,.2508-.1338.1484.1484,0,0,0-.0341-.2539c-2.3069-.6423-4.9291-1.6716-7.3793-1.3775.7261-.2247,1.4654-.42,2.2124-.5906a.1309.1309,0,0,0,.1262-.0234l.007-.0053c.7708-.1725,1.5494-.318,2.33-.4411a3.0491,3.0491,0,0,0,2.2081,1.3183,14.198,14.198,0,0,0,4.3642.2614.1219.1219,0,0,0,.12-.1065.145.145,0,0,0-.0686-.2042,16.3547,16.3547,0,0,0-4.9372-1.5012c1.3992-.1663,2.7922-.2714,4.1455-.3363.19-.009.1472-.3014-.0417-.2924-1.0293.0493-2.08.1222-3.1374.2272a14.1483,14.1483,0,0,0,2.1522-1.0377c.843-.5085,2.3826-1.5447,3.426-1.299a.1162.1162,0,0,0,.14-.0617l.0185.0026A.1478.1478,0,0,0,68.2474,42.303Z" style="fill: #262930"/>
  </g>
</svg>
