<svg id="LOGOS" xmlns="http://www.w3.org/2000/svg" xmlns:xlink="http://www.w3.org/1999/xlink" width="170" height="170" viewBox="0 0 170 170">
  <defs>
    <clipPath id="clip-path">
      <circle cx="85.2267" cy="58.343" r="20.9221" transform="translate(-1.777 114.0013) rotate(-67.002)" style="fill: none"/>
    </clipPath>
  </defs>
  <title>9Mesa de trabajo 1</title>
  <g>
    <g>
      <path d="M48.8084,107.8056l.2683-.2984.1492-.2689a2.8083,2.8083,0,0,0,.3885-.4477l.03-.0894.03.03.0894-.1493.209-.1788v-.06l.0592-.03.2393-.2683.1492-.1794v-.0894l.0894-.06.03-.0894.2984-.3281.06-.12.1493-.1492.12-.1492.328-.4181.18-.2386.0894-.2091.12-.2386.1788-.06.03-.06.1794-.1788h.03l.06-.12h.06a.029.029,0,0,1,.03-.03v-.06l.2688-.3583.0894-.06.1794-.2682.5075-.7165.2084-.3286.1795-.3879.4476-.4477.5371-.6863.0894-.2688.3287-.4477.1492-.2386.418-.5969.1788-.3582.09-.2392.1492-.2085.4778-.7165v-.06l.03-.2386.06-.1493.2089-.3286.2689-.209a6.0849,6.0849,0,0,1,.4773-1.2233v-.03l.2386-.328.0894-.2985.2991-.5968.4174-.4181v-.03l-.03-.209.119.0894.03-.3281.2387-.3582-.06-.06.12-.06.1788-.5371.2688-.4476v-.2091l.12-.1492.0894-.5969.328-.6567.03-.209s0-.03.1788-.2689c.0894-.1189.06-.2682.0894-.3878.12-.2984.1493-.5673.2393-.8355l.0295-.1492-.06-.06V87.45l-.06-.12-.0894-.06-.03-.1191.03-.1794.06-.1492.09-.03.06.06v-.209l.12-.2393h.03l.3878-.5667a.89.89,0,0,1,.5075-.3582h.06l.0894.1492h.06l.12.06.0894.1492.06.4773a2.4772,2.4772,0,0,1-.2392.5673l-.2387.5074-.328.9552c-.209.3878-.2985.8355-.5075,1.224h.06l.06.119-.09.3582-.1492.418-.1789.1789-.1492.06-.0894.06.0894.03.1492.06.03.0894-.03.09.03.03.03.06-.06-.03-.03.06-.0592.09-.03.1492-.2091.2984-.1492.4477-.1493.1794-.0893.06-.1788.1788-.09.1493-.119.1492h.0894v.0894l-.0894.12h-.06l-.03-.03-.12.0894-.06.0894-.03.03-.06.0295-.06.0894.03.09-.09.1492.09.03v.06l-.03-.03-.06.06-.06.1492-.119.1788-.2984.3885L58.42,95.06l-.2689.2688-.0894.03.119.09-.2682.3577h.0592l.03.09v.0894l.0894-.03.03.03-.0894.03-.06.0894-.0592.06-.06.1794-.2387.3583-.1492.5371-.1794.209-.1492.06-.209.2683-.1492.2386-.4181.4482-.03.0592-.0893.12.03.0295-.06.03c-.3879.5968-.6863,1.0741-.9848,1.4626l-.03.1492-.09.1788-.1788.2689-.209.2688-.1191.1788-.12.209-.5075.5673-.0295.0592-.1795.1794-.1492.2985.03.0894-.06.03-.2393.03-.4772.6264-.0894.09-.1794.2386-.03.1492-.03.03-.1788.2392c-.12.1788-.3583.328-.4773.5068l-.03.03c-.8953,1.134-1.7907,2.2383-2.7458,3.3131l-.2386.4181-.09.119-.3583.3582-.2386.2688-.4477.3879-1.761,1.8806-.03.0592-1.642,1.8511-.2386.2682-.2985.2393-.06.0894-.5371.418-.1794.119-.1492.1492-.8355.6568-.1492.0894-.1493.12h-.03l-1.433,1.224c-.4772.3878-.9249.7159-1.4028,1.0445l-.328.2682-.1794.299-.1492.03h-.1493l-.03-.06a5.2644,5.2644,0,0,0-.6868.418l-1.0446.6863-.2984.2688a.6432.6432,0,0,1-.3281.03l-.4779.3286-.12.0894a8.1148,8.1148,0,0,0-.8953.6265c-.2682.1492-.5371.2984-.8059.4778l-.5666.4181-.6568.2682a8.7647,8.7647,0,0,1-.9255.4181v.06l-.5969.2386-.0894.0894-.6869.2985h-.0894l-.1492.06-.12.03-.1191.0894-.1794.0894-.0592-.03-.1794.1191-.2386.1492-.0894.0894-.2689.12-.2984.06-1.552.1493-.1794.1787h-.09l-.0894-.1492a24.6041,24.6041,0,0,1-3.2834.3885,4.892,4.892,0,0,1-1.1339-.2985h-.03l-.0894.03-.2386-.09-.1492-.0894-.12-.06-.0592-.1492-.03-.03-.2091.03-.06-.03-.03-.03-.06-.1492-.2682-.0894-.1492-.1493-.09-.12.06.1492h-.0894l-.0894-.1492-.03-.1492.0894.03-.1788-.2682v-.03a5.99,5.99,0,0,1-.6567-.8657l-.06-.0592v-.03a2.22,2.22,0,0,1-.209-.3582l-.3879-.5969-.0894-.0894-.0894-.06-.06-.119v-.1795l.06-.1492.06-.0295-.09-.03v-.0894l.06.06v-.2985l.03-.03a4.5775,4.5775,0,0,1,.03-1.91,6.3905,6.3905,0,0,1,.5075-1.0143v-.12h-.03v-.06l.06.03.03-.09.0894-.09.1788-.1492a7.75,7.75,0,0,0,1.224-1.91,13.2441,13.2441,0,0,1,1.7012-2.2087l.18-.2688.1492-.0894.5666-.537.1492-.1493c.8362-.7165,1.7315-1.4027,2.6268-2.0595l.1492-.12.1492-.209.2689-.1788.3582-.2091,1.3726-.8657.209-.2386.06-.06.806-.3583c1.1937-.7158,2.4473-1.4028,3.7009-2.0594l.06-.0894.2984-.2091.03-.0894,1.2536-.537.6567-.2393.119-.0592.09-.06.1492-.06c.03,0,.0592-.03.0894-.03v-.03l.209-.06c.7462-.3279,1.7013-.6862,2.7754-1.0444l.09-.09.6862-.209.2689-.06a.7484.7484,0,0,0,.2084-.06l.1794-.0592.2386-.09.3879-.1492.209-.03.1493-.0295.8959-.2393h.0592c.3884-.119.7763-.2386,1.1641-.328l.03-.03.1492-.03c.0592,0,.119-.03.1787-.03l.1789-.09.299-.0592.1789-.03.8657-.2386.7461-.209.2688-.1492h.0894l.209.03.925-.2689.3286-.1492.3583-.1492.2682-.12.8059-.119v.03l.5075-.12.2386-.0592h.1492l.2985-.03a1.0623,1.0623,0,0,0,.3286-.06l.0894-.0592,1.0446-.15h.1492a.3827.3827,0,0,1,.1794-.03l.5673-.1492h.119l.0894-.03h.2984l.5377-.09.4477.12-.5969.12.03.03-.4773.0894-.9853.1794-1.0742.209-1.2837.2387-.7165.1492-.1492.03-.7159.1794h-.03c-.6863.2091-1.552.4175-2.4775.6863l-.03.03-.5673.1492-.1492.03-1.2831.328-.5075.1492-.4181.1794-.4174.06-1.4626.4174-.1794.06-.2091.06-.7158.2387h-.03l-.1789.06c-.9255.3281-1.7912.6271-2.4177.9255l-.209.1191-.3583.12c-1.7906.8657-3.522,1.7308-5.2529,2.686l-.6566.4778-.1493.12-.1794.0894-.03.06-.2984.1788-.12.03-.06.09-.5074.2682-.0894.03-.09.0592-.0894.03-.0894.0894-.1492.06h-.03l-.1493.12-.1492.0894-.2688.1788-.2084.0894-.12.06c-.7763.5376-1.552,1.1345-2.2981,1.761l-.3583.5377-.8059.537-.1492.119-.2689.2392v.1191l-.1492.09-.4772.4174-.12.09-.5371.5975-.5075.5666-.3582.4779-.5371.7461-.09.2386-.3878.5673-.2985.5969-.1492.209-.06.2386-.06.09-.0592.06a3.8969,3.8969,0,0,0-.2091.5371l-.06.2689v.209l-.12.3878-.06.3287-.0593.0894-.06.209.03.2985v.8058l.03.2091v.209a.1792.1792,0,0,1,.03.119l.03.12a5.0877,5.0877,0,0,0,.6271,1.2831,4.2959,4.2959,0,0,0,1.7906,1.5822h.09l.5069.1493h.3286l.8355.2386h.2393l.119.03a12.555,12.555,0,0,0,1.4626-.119l.5968-.2386.09-.03.3884-.3583.4477-.209.209-.03h.4477l.4476.03v-.03h.03l.06.03h.03l.209-.03.12-.06.4477-.2682.2688-.3583.6265-.3286.9255-.5371.328-.1492.2985-.1794,1.0747-.5371,1.0748-.5968.4174-.2091.6567-.418.2985-.0894.5673-.3281.209-.12.8657-.5075.2682-.1788.2985-.2386.3582-.12c1.224-.8658,2.3881-1.7315,3.5523-2.6564l.0894-.06,1.0149-.8657.3281-.3583.2688-.3582.2984-.2084.2683-.1794.8059-.6863.1492-.2091.4779-.4476.209-.2091.5673-.537.328-.3583.9552-.8059.8355-.9255.2688-.209.2688-.3281.2683-.209ZM70.09,83.3a4.7807,4.7807,0,0,0,.6567.03c1.2536.0592,2.5373.1789,3.7613.3583.3577.0592.6863.119,1.0445.2084l.03-.03.2984.06.3286.03.3281.1492a21.3428,21.3428,0,0,1,2.3579.6869l1.7012.6863.6869.2985h.06v.0295l.4772.1794.1492.03.2688.0894.2683.1492,1.0149.3885H83.76l.09.06.0295.09-.0295.1788-.12.03-.12-.03-.1492-.0894-.119-.03-.06-.09-.06.03-.4181-.1492-.0894-.06-.9847-.3878-.3878-.09-.3287-.03-.2689-.1789-.2682-.12-.7461-.2985-.2392-.03-.5371-.2084-.209-.03-.5969-.2387-.3879-.12-.4778-.1492a43.1762,43.1762,0,0,0-5.4619-.8355v.03l-.18.06-.119-.03h-.12l-.03-.03-.06.03h-.3281l-.06-.06-.8361-.03h-.2984l-.2683.0592-.209-.0592-.2386-.03-.5975-.03-.2085.03-.3884-.03H66.8665l-.7165-.03-.18.09-.119.03-.3286.03-.3281-.0894-.03-.03-.0592-.03-.2393.03-.6567-.03h-.4772l-.2985-.03-.2688.03h-.09l-.0893-.03h-.06l-.03.06-.0295-.03-.2387.1492-.2386.12-.12.03-.8954-.119-.2984-.0894c-.209,0-.4181.03-.5969.03l-.12.03-.1794-.03-.9545.0894c-1.8807.1492-3.7909.3582-5.6414.5968l-2.2389.4477-.1788.12-.4477.03-.1794-.03-.6265.09-.3884.12-1.0144.209-.7461.1788-1.3732.1794-.1492-.03-.1794.1492-.6265.0894-.3287.12-.328-.0894-.4778.0894-.1789.12-.2688.1493-.5074.1189-.5371.03-.12-.03a.7744.7744,0,0,0-.2084.06l-.3286.12h-.1789c-.2688.0894-.5672.1492-.836.209L40.69,87.27l-.0894.0893h-.2091l-.0894.03h-.06l-.03.03-.3286.06-.0894-.03-.806.1788-.2984.0894-.2386.09h-.2688l-1.4627.4476-.7757.4175-.1492.18-.4779.4174-.2688.12-.7158.2985h-.9256l-.1492-.119h-.06l-.8953.3576-.2091.1492-.4476.18-.06.1189v.12l-.03.06-.2386.3582L30.9,91.15l-.1788.03c-.9854.3884-.09.3884-1.105.627l-.03.03-.2387.03-.03.09-.2387.03-.3878.09h-.3878l-.2393-.03-.1492-.119v-.03l-.2386-.09.1492-.2688-.1492-.1788.0893-.3286.18-.2085-.12-.12.03-.0894.2084.03.418-.2091.4477-.3582,1.0748-.5068L30.81,89.33l.8355-.209.3286-.09.7757-.1787.6271-.2387.5075-.12.0592-.03.2392-.0592h.03l.12-.12.0894-.06.5074-.06.8657-.537.6265-.1492.209.03.5969-.12.4181-.209.4477-.06-.1493-.0894.209-.209.2985-.03.06.03v.06l-.2091.0894.2091-.03.2985-.03h.1492l.2386-.1493h.0894l.1492.03,1.3134-.2984.2984-.1493.4779-.09.1492-.0894.5969-.119.5371-.2091.418-.12.3281.1493.4778-.1789.119.03q2.3733-.5817,4.8355-.9847l.209-.12h.5075c1.4626-.2386,2.9252-.4773,4.4174-.6567l1.1043-.119.5969-.1492.8059-.12.3583-.06h.4476l.06-.12.6863-.03.2393.06.1492-.06h1.3725l1.7913-.12h.0592c.6869-.03,1.3732-.0592,2.0594-.0592l.4181-.03.2689-.119.119.0592.09.12c.4175,0,.8355.03,1.2536.03l.4175-.1492h.2392l.0894.03.2386.03.209-.03.1788.03-.0592-.06.0894-.0592h.1191l.03.03v.03l-.0893.03h.0893l.1191.03h.1794l.06.03.5371.03.12-.03.328.03.2091-.03.5969.03h.12l.1492.06ZM55.7928,98.6717l.06-.0894-.06.06Z" style="fill: #231f20"/>
      <path d="M59.6737,105.5969v.1492l-.1492.1492-.0894.1191c-.03,0-.03.03-.03.06v.09l-.12.1794-.03.7461a.88.88,0,0,0,.0592.5969c.1794.209.09.209.8361.4476l.5075.12h.3878l.4477-.06,2.179-.4773.4175-.1794,1.1642-.3878L65.4945,107l.119-.06h.06l1.7906-.7461h.12l.209-.12.2688-.06.9848-.3583.12-.03c1.0741-.4477,1.4922-.7165,2.5368-1.1938l.6566-.2386.03-.06.1795-.0894.537-.18.5673-.2386v-.06h.0894l.3583-.1788.03-.06,1.6118-.9854.1492-.03a6.5155,6.5155,0,0,0,.6567-.4476.1127.1127,0,0,1,.1794.03v-.03l.119-.0894.12.03.0893.2688-.1492.06-.2688.0894-.1492.06-.6863.4773-.1493.2091H75.523l-.12.06c-.2682.1789-.5666.3281-.8355.4773l-.03.03-.209.119-.12.0894H74.12l-.9552.4779-.0295.06-.12.03-.2386.12-.06.03-.4181.2688-1.1339.4773c-.3583.18-.7165.3885-1.0748.5377l-.0894.0894-1.4922.7165-.12.0894-.06-.0894-.3281.209-.3582.0592-.2386.12h-.03c-.3879.1788-.7757.328-1.1642.4772l-.4477.2393-.9249.4476-.2392.06-.3577.0592-.5074.1493-.2985.03-.12.06-.12.0894-.3879.0894h-.06a6.99,6.99,0,0,1-1.1937.2688l-.09.09-.1492.0295h.03l-.5969.12-.1788-.06-.3287.12-.7165-.12-.6567-.3281-.2984-.4181-.1492-.3878-.09-.4181v-.5074l.03-.06-.03-.0592v-.2091l.2091-.746.209-.3583.2386-.5377.1789-.2984.06-.0592.0894-.2393.1794-.1492.0894-.209.1794-.2682.09-.09.328-.1492.12-.1492.209-.0894.2387-.1788.06-.03.2984-.2682.2682-.209.2091-.2985.12-.12.1492-.1789.12-.0894.1789-.06.06-.09.1492-.1492.2386-.09.1492-.06c.6567-.4773,1.343-.9848,2.0595-1.4028l.06-.0592.2984-.2091.3879-.1492c.03,0,.06,0,.06-.03l.3583-.2386.209-.12.0894-.03.4181-.06c.328-.119.6567-.2386.9847-.328l.2689-.1492H68.24l.1788-.06.09.06a5.1,5.1,0,0,1,.6863.03l.03-.03.09-.03.0592.03.09-.03.03-.03.1789.06v-.03h.03l-.03.06.09.06h.0894l.03.06h.03L70.0907,99l.03.03c.1492.12.2683.209.2984.3582l.0895.03-.03.0592h.03l-.03.03v.1492l.03.119-.06.209-.06.09v.1787l-.1191.4477-.2392.3879-.2984.2984-.3281.209-.2688.1795-1.0445.537-.1492.12-.2091.0592a19.71,19.71,0,0,1-2.1791,1.2837l-.03.06-.8657.4174-.3878.2689-.7764.3286-.5666.2084-.806.1492-.4778.03h-.209l-.1789-.09-.06-.1492.06-.09.209-.4175.4175-.3884.3885-.1492H62.51l.209.06.2386.06h.3879l.3583-.06.3878-.1492h.12l.06-.0894.8657-.2984.8058-.3879.3879-.209.1492-.1794.3879-.1492.06-.119.4477-.1493.12-.12.3878-.2984,1.343-1.1346.12-.1492.06-.2084.06-.09.1493-.4477-.03-.03-.03-.06-.06-.1492-.1492-.1788-.209-.09-.2091-.0592h-.328l-.209.03-.12-.03a11.0094,11.0094,0,0,0-2.1785.8652l-.3583.1794-.0894.0894-.1492.12-.12-.03c-.03.03-.03.03-.06.03v.0592l-.1788.06-.06.06h-.06l-.6567.3583-.328.2688-.2091.2085-.2984.09-.12.0592c-.2688.1794-.5074.3884-.7756.5974l-.1493.1789-.3885.3582-.209.209-.328.2985-.4181.4174-.4174.4779-.09.0894-.1789.2688-.209.2985-.2984.2984Z" style="fill: #231f20"/>
      <path d="M77.7021,100.463l-.06.3582.03.1789-.06.06v.06l-.0592.06-.12.0894-.12.119-.1492.18-.1493.1788v.06h-.0295l-.12.3286-.119.2084-.1794.3885-.0894.1492-.03.06-.03.1492v.03l-.03.0295-.5376,1.433-.03.2387-.03.03-.03.328-.06.12-.1789.5969-.06.4477-.03.328c.1191.2985.5371.12,1.5224-.7757l.1493-.1492.0592-.06.2392-.3582.2386-.2985.1789-.2688.09-.0592.6265-.8059.12-.2393.09-.06h.03v-.119l.1492-.1492.03-.09.2386-.209.2985-.418.209-.2387.0894-.12.03-.09L80,101.9854l.1493-.2392.2386-.209.03-.1191.209-.1794h.0592a8.9921,8.9921,0,0,1,.9552-.9249l.09-.1794.4174-.2683.0894.03a1.3886,1.3886,0,0,1,.2689-.0894c.1492,0,.1794.06.209.1788l.12.09-.12.119v.3286l.03.2084-.0894.18v.209l-.03.3583-.2091.2682v.1492l-.06.09c-.1492.5069-.3281,1.0143-.5075,1.5218l-.0894.2688.06.12v.0894l-.1492.0894-.06.209-.03.0894-.03.0894-.2688.9853-.0592.4477-.12.2091-.03.0295-.03.2689.03.0592.03.3884v.5667l.06.5075.03.2392a1.8249,1.8249,0,0,0,.2984.4175c.2689.2688.4181.3582.806.209l.1492-.119.2688-.209.2386-.09.3583-.1493.1492-.0894c.5371-.328,1.0747-.6567,1.6118-1.0149l.06-.0592.4477-.2985.3879-.3582.1492-.03.06-.06.1493-.2387.2688-.1189.1492-.12.2985-.1794.7757-.6265.12-.2985.4779-.2688.119-.209.12-.03.2984-.1492c.1789-.1492.3583-.3287.5371-.4779h-.03l.2091-.2084.8952-.7467.8356-.8059.3878-.2682.5075-.5371.209-.1493.5371-.4482.209-.1492.6567-.6567.1794-.2682.2683-.2387.1794-.09c.1788-.1788.2984-.3583.5074-.537l.8657-.7764.0593-.0894.3885-.328h.0894v-.09l.1492-.09.0893-.1788.09-.0894h.03l.328-.3583.2688-.418v-.03c0-.03.03-.06.03-.09,0,0,0-.03.06-.0592l.03-.09.1492-.119.09-.03.06.06-.03.12-.06.0894v.03a1.8063,1.8063,0,0,1-.209.4181l-.2683.5074-.0894.1794-.06.2387-.06.06-.209.03-.12.0894-.1789.12-.2386.2091-.2386.2682-.1493.1794-.3884.2984-.2984.2683-.06.03-.3879.328-.12.1492-.0894.03-.119.1492v.0295l-.1492.12-.06.0894-.597.5969-.1492.0894-.12.1492-.3878.3582-.09.03-.2386.2091-.2387.1788-1.4626,1.433-.03.03c-.4778.4477-.9551.8657-1.4626,1.2832-.3885.3286-.8361.7763-1.4028,1.2535l-.2392.2689-.4773.2984-.03.03-.328.4174-.209.1794-.2683.209L86.1491,107l-.2393.1191-.2084.1794-.06.03c-.4779.3287-.9255.6567-1.3134.9255l-.03.1492h-.1788a14.6708,14.6708,0,0,1-1.2832.7165c-.8959.3879-.9853.9552-1.642.6863h-.209l-.0894-.209a1.0159,1.0159,0,0,1-.4181-.6265l-.0592-.12-.1492-.1788v-.09l.119-.1492v-.09a5.5211,5.5211,0,0,1,.06-1.4027l.06-.3281.06-.2392.03-.1492-.0894-.2682.03-.12.06-.2386.06-.12.0295-.0894v-.2091l.06-.1788v-.209l.0894-.1493-.0295-.09.0295-.0592v-.09l.1493-.1492-.0593-.1492.1789-.5969v-.1492l.0894-.2985v-.2984l.209-.7757v-.4482l-.0894-.2387-.2688.2984-.06.12-.1788.328-.3583.3286-.2688.4477L80.03,103l-.2085.2091-.5377.5074-.4476.5075-.06.1788-.0894.2392-.12.0894-.2386.2091-.0894.119-.0894.12-.03.03-.2084.1492-.2689.3583-.2386.2393-.1492.2682-.09.0894-.119.209-.06.09-.03.1788-.06.09-.2091.06-.6567.418-.5672.2682-.1789-.0295-.3879-.0894v.0295l-.03-.0295c-.0893-.03-.12-.06-.0893-.1493l.0295-.3286-.0295-.2091v-.537l.06-.2091-.06-.209.0295-.0894.18-.12.06-.119.0894-.1795.06-.1189.03-.06.03-.12h.03l.03-.0592.5075-1.2838-.03-.03v-.06l.0592-.0894.09-.209-.03-.18V103l.09-.119.0592-.2392.06-.5069.12-.2392v-.0894l-.03-.3879h.06l-.06-.06v-.4773l.09-.209-.09-.03.09-.03.03-.0894.03-.09.2091-.2084h.03l.2682-.03.3287.12.119-.0894.12-.06h.1492l.12.0893Z" style="fill: #231f20"/>
      <path d="M94.2686,105.5969v.1492l-.1493.1492-.0893.1191c-.03,0-.03.03-.03.06v.09l-.12.1794-.03.7461a.88.88,0,0,0,.0592.5969c.1794.209.09.209.8362.4476l.5074.12h.3878l.4477-.06,2.1791-.4773.4174-.1794,1.1642-.3878.2393-.1493.119-.06h.06l1.7907-.7461h.12l.209-.12.2689-.06.9847-.3583.12-.03c1.0742-.4477,1.4923-.7165,2.5367-1.1938l.6568-.2386.03-.06.1794-.0894.5371-.18.5672-.2386v-.06h.0894l.3583-.1788.03-.06,1.6118-.9854.1493-.03a6.5149,6.5149,0,0,0,.6566-.4476.1127.1127,0,0,1,.1794.03v-.03l.1191-.0894.12.03.0894.2688-.1492.06-.2689.0894-.1492.06-.6863.4773-.1492.2091h-.1492l-.12.06c-.2682.1789-.5667.3281-.8355.4773l-.03.03-.209.119-.12.0894h-.0894l-.9551.4779-.03.06-.12.03-.2387.12-.06.03-.418.2688-1.134.4773c-.3582.18-.7165.3885-1.0747.5377l-.0895.0894-1.4922.7165-.12.0894-.06-.0894-.328.209-.3583.0592-.2386.12h-.03c-.3879.1788-.7757.328-1.1642.4772l-.4476.2393-.925.4476-.2392.06-.3576.0592-.5075.1493-.2984.03-.12.06-.12.0894-.3879.0894h-.06a6.9914,6.9914,0,0,1-1.1938.2688l-.0894.09-.1492.0295h.03l-.5969.12-.1788-.06-.3287.12-.7165-.12-.6566-.3281-.2985-.4181-.1492-.3878-.0894-.4181v-.5074l.03-.06-.03-.0592v-.2091l.209-.746.2091-.3583.2386-.5377.1788-.2984.06-.0592.0894-.2393.1794-.1492.09-.209.1794-.2682.0894-.09.328-.1492.12-.1492.209-.0894.2386-.1788.06-.03.2985-.2682.2682-.209.209-.2985.12-.12.1493-.1789.12-.0894.1788-.06.06-.09.1492-.1492.2387-.09.1492-.06c.6566-.4773,1.3429-.9848,2.0594-1.4028l.06-.0592.2984-.2091.3879-.1492c.03,0,.06,0,.06-.03l.3582-.2386.209-.12.09-.03.418-.06c.328-.119.6567-.2386.9848-.328l.2687-.1492h.2985l.1788-.06.09.06a5.0992,5.0992,0,0,1,.6863.03l.03-.03.09-.03.0592.03.09-.03.03-.03.1788.06v-.03h.03l-.03.06.09.06h.0894l.03.06h.03l.1789.0894.03.03c.1492.12.2682.209.2984.3582l.0894.03-.03.0592h.03l-.03.03v.1492l.03.119-.06.209-.06.09v.1787l-.119.4477-.2392.3879-.2985.2984-.328.209-.2689.1795-1.0445.537-.1493.12-.209.0592a19.7082,19.7082,0,0,1-2.179,1.2837l-.03.06-.8657.4174-.3878.2689-.7763.3286-.5667.2084-.8059.1492-.4779.03H96.03l-.1788-.09-.06-.1492.06-.09.209-.4175.4174-.3884.3885-.1492h.2387l.209.06.2386.06H97.94l.3582-.06.3878-.1492h.12l.06-.0894.8657-.2984.8059-.3879.3879-.209.1492-.1794.3878-.1492.06-.119.4477-.1493.12-.12.3878-.2984,1.343-1.1346.12-.1492.06-.2084.06-.09.1492-.4477-.03-.03-.03-.06-.06-.1492-.1493-.1788-.209-.09-.209-.0592h-.328l-.2091.03-.12-.03a11.0094,11.0094,0,0,0-2.1785.8652l-.3582.1794-.0894.0894-.1492.12-.12-.03c-.03.03-.03.03-.06.03v.0592l-.1788.06-.06.06h-.06l-.6567.3583-.3281.2688-.209.2085-.2984.09-.12.0592c-.2688.1794-.5074.3884-.7757.5974l-.1492.1789-.3884.3582-.2091.209-.328.2985-.418.4174-.4175.4779-.09.0894-.1788.2688-.2091.2985-.2984.2984Z" style="fill: #231f20"/>
      <path d="M112.5356,107.9246c.3879-.1788.7757-.3879,1.1641-.5969l.03-.03,1.552-.8657.1492-.1492.2392-.1493.0592-.06.3885-.2682.1492-.03.0894-.0894.6265-.3582h.1492l.12-.0894.0893-.03.12-.119.1788-.12.06.03.1492-.1492.209-.12.12-.12.209-.1493.328-.119.2689-.1492c.2084-.12.4174-.2688.6265-.4181a.1089.1089,0,0,1,.0893-.03l.09-.119h.0894l.0894.03.0894.12-.03.12-.12.0894-.119.0295-.09.06-.0592.06h-.06c-.5673.3879-1.1937.7165-1.7912,1.0741l-.2084.209-.2991.12-.2084.119a1.71,1.71,0,0,0-.3884.2392c-.2084.1191-.3879.4477-.5969.5667l-.7165.3582-.2085.1493-.1794.09-.3878.2386-.06.06-.0893.0592-.2689.1493-.4175.2688-.1492.12-.3884.1492-.209.1492-.0894.06-.5969.4174-.1788.2392-.12.0592-.2386.2393-.03.1788-.0894.06-.2386-.03-.1795.09-.537.119-.5673.12-.03-.03-.3878.2085h-.1493l-.06.06-.6863.3286h-.09l-.119.06h-.1492l-.09.0893-.1191.06h-.03l-.119.0295-.0894-.0295h-.09l-.0894-.06-.12-.06-.4477-.1492-.119-.03-.1492-.2682a1.7792,1.7792,0,0,1-.2985-.6869,1.898,1.898,0,0,1,.1492-.9848h-.0894v-.0295h.03l.06-.09.03-.119.0894-.2386.2688-.4483.1788-.6862.18-.2985.1492-.0894.209-.2689.1492-.2682.2091-.4778h.0592l.12-.0894.03-.09.09-.1794.0894-.03.4477-.6567.0894-.1492.2688-.3885.1492-.2984.5075-.7159.06-.1492,1.1938-1.6421.1492-.2682.1788-.209v-.0894l.2985-.4181.12-.1492.06-.12.4772-.6567.1493-.0894.09-.1788.0592-.03.09-.1191.03-.06.12-.1794.03-.03.0894-.12.06-.119.1794-.1794v-.03l.03-.1794.1788-.2386.2392-.2091.1493-.1787.5074-.7165v-.03l.0894-.12.0894-.2688.0894-.0592h.0894a4.3224,4.3224,0,0,1,.3287-.4477l.12-.1794.1492-.2688.1789-.2085.12-.12.1191-.1788.12-.09c.03-.03.03-.0592.06-.0592v-.09l.119-.1492.12-.1191v-.12l.12-.12v-.0894l.4476-.6265.0894-.09.06-.1493.2683-.3878.06-.03.1794-.2392.1492-.1492,1.0144-1.462.1492-.12.418-.6568.2091-.1787.2386-.3583.12-.12.3583-.5673.06-.0894v-.03l.1191-.09.03-.0592.0592-.1492.06-.09-.119.09-.03-.06v-.03l.0894-.1492.1492-.03v.12l.12-.209.209-.2091.1493-.209.03-.12.209-.2682.5673-.3583.2688-.3878.2085-.12.06-.06.06-.0894v-.03h.03l.06.03.12-.03.119-.12.209-.1493.1493-.0894.06-.12-.03-.06h.0894l.03.06.1492-.0894.09.03.03-.03c.06-.03.06-.0894.12-.06h.06l.03-.0894v-.0893h.0894v.0295l.1492-.0295.1794.0295.119.1789.1492.299-.2386.5371-.3879.328-.4476.2984-.12.1795-.627.209-.1492.0894-.2085.3281-.418.3582-.06.0894-.4773.4779-.6869,1.0149-.2984.2386-.1788.2985-.3885.418v.03l-.3878.5371L119.4,91.21l-.6265.8953-.3878.3878-.4779.6567-.5969.8361-.2386.2084-1.2239,1.7913-.2091.2984-.209.3583-.2984.2984-.3281.3879-.8657,1.1043-.03.1794-.2688.4175-.09.03v.119l-.209.09-.03.2085-.119.12-.12.0894h-.03l-.5673.8361-.2985.4174-.06.2091-.03.2984-.0895.12-.2392.2984-.1492.06-.06.2682-.2387.2393-.2984.2682-.2682.4779-.1492.0894-.2689.3878v.06l-.2386.3583-.3582.5074a.0293.0293,0,0,1-.03.03l-.328.5672c-.03.03-.06.06-.06.0894l-.1492.3287-.2091.3878-.1492.1492-.7461,1.4028-.03.3287-.06.1492-.209.4175-.12.12-.06.12-.03.4175.06.1794.119.119.06.0894.09.03.2682.1492h.2387l.418-.12.12-.0894.2682-.06.09-.06.328-.1493.5673-.2084.0894-.06.2984-.0894.18-.12.4174-.1788.2689-.15.5672-.2985.5075-.1492Z" style="fill: #231f20"/>
      <path d="M119.3411,105.6561l-.06.12.2387-.209.418-.2985.119-.0894.06-.03h.06v-.03l.2386-.0894-.119-.12h.1789l.5371-.5075h.09l.4773-.4772.537-.3287.5074-.3878.06-.06h.03l.5668-.4476.03-.03.8355-.5969v.03l.537-.3582.1492-.1493.12-.0295.2688-.18.06-.0592h.03l.5969-.3583.2386-.2392.1794-.119.4477-.1794.328-.2984.3287-.1789.6265-.209.2688-.12a10.5389,10.5389,0,0,1,.9847-.4773L129.4893,99l.5371-.209.537-.1789.09-.06.2682-.1492.3287-.12.2091-.0894.3878-.03a4.0237,4.0237,0,0,1,1.3731-.209l.1789-.06.12.1191a1.0733,1.0733,0,0,1,.3577.2392.1537.1537,0,0,1,.06.119l.209.2392-.06.7757-.3582.7165-.3577.12h-.3287l-.1788-.2091v-.2984l-.1492.119v-.1492l.0592-.03.03-.1492-.03-.2091-.0592-.3878-.12-.1492-.4477.0592-.418.1794-.1493.03L131.34,99l-.328.1492-.1794.03-1.1938.2393c-.5673.2386-1.0446.4772-1.224.5666l-.1788.09-.1492.1492-1.1944.6265-.4476.2688-.1789.1788-.5672.2984-.1493.09-.2682.209-.4483.2984-.1788.2091-.8657.5673-1.2832,1.0747-.1794.2682-.209.1492-.3878.4181-.3583.328-.119.06-.2392.1492-.2085.2091-.03.06-.2386.209-.2689.2985-.1492.1492-.119.0894-.2984.2985-.12.209-.12.0894-.119.1492-.2984.2688-.5075.5075-.1492.2386-.12.1492-.1492.2689-.06.1788-.03.06-.06.1493-.1789.1787-.4779.3583-.2984.209-.2689-.06-.1492-.209v-.03a.3471.3471,0,0,1-.06-.2984v-.12l.06-.0592.09-.3582-.0592.06-.03-.12.09-.2091.12-.3582.209-.2984.03-.06v-.06l.12-.09.0895-.1492v-.06l.2688-.2084h.06l.0894-.06.3582-.5074.209-.2984.09-.03.1492-.2985.1788-.4477.209-.1787.06-.1795.328-.4175.09-.06.3878-.5968v-.12l.5076-.6265.2984-.5074.12-.1794.1492-.2683.03-.09.06-.0592.2091-.299v-.0894l.1788-.2985.1794-.03.0894.06.1789-.2091.0893-.209.03-.1492v-.09l-.12-.06.0893-.09-.03.0592.09-.119-.03-.03-.12.1492c-.1492.15-.2683,0-.2683-.1492l.0592-.0592v-.06l.03-.0894.0894-.1492.03-.06-.0592-.0894-.03.0295-.1493-.06v-.09l.06-.06.12-.03h-.06l.06-.03h-.06l-.03-.119.12-.1795.1492.09.09-.1492v-.119l.03-.09-.06-.03.1492-.0295V99.06l.06-.03h.0592l.12-.119h.1492l.2091.03.1492.03.12-.06v-.06l.119-.0894.12.03h.0894l.06.06-.03.03-.1492.06a.5545.5545,0,0,1,.3885.3878l.0295.03-.0295.0894a2.1474,2.1474,0,0,1-.6271,1.1641l.03.06-.3287.4175-.1788.03-.2688.2984-.12.1493-.0894.209h-.03a4.9037,4.9037,0,0,1-.4778.6265c0,.03-.03,0-.03,0l-.1794.2688-.0592.1788-.12.209-.2688.4477-.1788.209-.06.12-.1789.2984-.3582.5673-.2091.4476-.1787.2984-.15.1493Z" style="fill: #231f20"/>
      <path d="M142.2944,102.4923l.7165-.3879.119-.119.0894-.06.2689-.06.0893-.06.06-.06.12-.03.7757-.3879.12-.09.2386-.2084.0894.03.1794-.12.09-.0295.2386-.09.06-.06.1492-.09.2091-.06h.0894l.2984-.1492c.03,0,.1493-.0894.2688-.12l.03-.06.3286-.1789.0894-.0295.03-.03.1492-.03.18-.1794h.1492l.03.06a.4871.4871,0,0,0,.1492-.06l.5673-.2985.12.03.2984-.1492.1789-.12.209-.03.1492-.12.2386-.0894.09-.03.3281.06.1492-.06h.2386c.5673-.0894.9854,0,1.0446.3582v.03h.06l.1492.1492v.1492h.09l.0592.0592-.0592.06-.09.03-.0592.1492v.2985l-.3582.5672-.1493.7757-.209.3583-.209.12-.2091.3281-.209.3582-.1492.2386h.1492l.06.1493-.1492.209h-.1492v-.1492l-.06.0894-.1492.12-.1191.209v.0894l-.09.03c-.03.03-.06.06-.06.09v.0894l-.0894.0894-.6567,1.0445-.03.03a1.8488,1.8488,0,0,1-.209.2984l-.03.1191h-.03l-.209.3286v.03l-.03.09-.0894.12v.09l-.12.0894v.12l-.2984.2688-.2984.3879-.1492.3582-.06.03-.119.18-.1492.1788-.7763,1.1043-.12.06-.0593.12-.299.4773-.1492.0894c0,.03-.03.06-.0592.09l-.1492.2985-.12.0894-.12.209v.03l-.03.03-.12.2386v.06l-.0894.0295-.06.06-.0894.1788-.2386.2984-.1493.1794-.1492.2091-.03.0894-.3582.2386-.4773.6567-.06.1789-.209.2984-.2683.299-.9255,1.2234-.0894.2985-.12.12-.2091.03-.0592-.03-.209.3583-.2984.2682-.06.03-.4778.5672-.2682.328v-.0295l-.3287.3878-.03.0894-.2386.3583-.1794.2386-.1492.12-.5371.7461v.03l-.1493.3287-.2386.209a24.3947,24.3947,0,0,0-1.3436,2.06l-.03.2984-.1794.209-.03.1789-.0894.06h-.03l-.6265,1.3732-.3582.6264-.3879.8059-.2984.6567-.1493.2985-.209.5673-.03.0894v.0894l-.03.0893-.03.18-.03.0894-.03.12.03.1191-.0894.09-.0894.537-.03.12-.119.328-.03.12-.119.3577-.12.1794-.03.1788-.09.1492H133.46v.7763l.119.5371.09.3582.06.4181v.2689l-.06.1189v.09l-.03.5074-.2688.4181H133.28l-.0894-.06-.0894-.1789-.06.09-.1492-.03-.09-.0592-.03-.03.0894-.1493.06-.7158v-.1795l-.0295-.1492-.06-.5371V130.34l.0894-.3878v-.1191l.0894-.1794v-.119l.06-.09a4.2926,4.2926,0,0,1,.1492-.6567,3.1925,3.1925,0,0,0,.1493-.5075v-.1492l.06-.1492a.0294.0294,0,0,0,.03-.03l-.03-.2689.03-.119.119-.209.06-.06a17.2929,17.2929,0,0,1,.5673-1.761,3.1617,3.1617,0,0,1,.209-.5673l.2683-.8652.12-.1794.209-.328.2085-.4477.09-.1794c.3582-.6567.7158-1.3134,1.1043-1.94l.1492-.3286.119-.1492.3287-.5075.06-.119.1788-.2688.2689-.3879.1492-.2689.119-.1492c.03,0,.03-.0295.06-.06l.0894-.1493.12-.1788.7461-1.0445.03-.03v-.06l.0592-.03.2689-.3286v-.0592l.1492-.1492.06-.1492.1788-.18.1794-.2682.1493-.2392.0894-.0894.1794-.2091.1492-.2984.2386-.2689.1492-.119,1.5521-1.94.06-.2386.2984-.2683.119-.09.3583-.5371.09-.06.119-.119.0894-.1492.2689-.3583.1794-.209.2084-.2386.6271-.8362.03-.0295.0894-.18.4181-.6265.1492-.2688.5673-.7757.2984-.4482.8355-1.1636.7165-1.1944.209-.2984.2091-.3878.7165-1.015.4174-.6863.3583-.4477.03-.06.1788-.418.03-.119.09-.209-.03-.06h-.0894v-.0894h.0894l-.1492-.4477-.06-.4476.06-.209.03-.12-.1492-.09-.6567-.06-.7165.06c-.6567.2387-1.2838.5371-1.91.806l-1.91.9551-.2689.1492-.1189.03-.06.03-.03.06-.4174.2084h-.09l-.2084.1493-.1794.06-.0894.06-.0894.12-.12.06h-.12l-.0592.03v.06l-.1492.09-.06.0893-.1492-.03-.0894.06-.5377.3281-.1492.03-.6567.3885-.2386.0894-.3583.209-.1492.03-.5371.3286-.0894.0894-.12.03-.06.06-.119.0894-.06.03-.12.03-.2091.12-.2386.0894-.2387.1492-.06.0894-.2688.1492-.5969.09-.4181.209-.1787.06h-.12l-.0592.03v.0592l-.09-.03.03-.03h-.06a4.1545,4.1545,0,0,1-.5672.1788l-.4773.1789-.4181.1492-.2386.06h-.2688l-.1191-.06-.09-.0894-.2984-.4477c0-.03-.03-.06-.03-.0894a2.5866,2.5866,0,0,1,.328-1.7012c.12-.2985.2984-.5969.4477-.8954a4.2446,4.2446,0,0,1,.5074-.7763l.12-.1788.12-.3286.2084-.3879.06-.1794.1794-.3878.5667-.597.3583-.5672.209-.1788.12-.0894.06-.12-.06-.06h.0894v.06l.12-.03v-.03l.0593-.119.2984-.209.3286-.06.03.03.09-.06c.0592-.03.0893-.03.1492.03.0295.03.0592.06.0592.0894a.0927.0927,0,0,1,.03.06h.03l-.03.2984-.0894.2689-.2091.2984-.2688.3878-.2386.3583v.03l-.2387.1794-.1492.119-1.5822,1.4929-.0894.119c-.1795.2688-.3884.5376-.5673.8361l-.2386.4175-.06.2688-.06.209-.06.0894-.1492.209-.0295.09-.06.03h-.03a1.1359,1.1359,0,0,0-.06.6863c.0894.418.5371.5673,1.6415.209l.2688-.09.06-.0593.3879-.1794.1492-.0295h.0894l.0893-.06h.09l.8651-.5074.2392-.09.2985-.06.1492-.09.3879-.2688.2386-.06.209-.09.06-.06h.06l1.8209-.9847.03-.03.1492-.12.2688-.12.0894-.1492h.0894Z" style="fill: #231f20"/>
    </g>
    <g>
      <path d="M54.8365,123.2827H53.2851v-.1038c.3957-.1148.4168-.1771.4168-.7081v-2.3531c0-.8126-.4168-1.343-1.1871-1.343a1.3611,1.3611,0,0,0-1.1454.9159v2.78c0,.5727.0519.6035.4271.6972v.1147H50.2348v-.1147c.3957-.1142.4163-.1662.4163-.6972v-3.1759c0-.3643-.0834-.51-.5208-.5727v-.1039l1.2391-.2392v1.0723a1.7376,1.7376,0,0,1,1.5411-1.0723c.8536,0,1.4994.4476,1.4994,1.6969v2.3948c0,.5727.052.6144.4266.7081Z" style="fill: #231f20"/>
      <path d="M59.6876,122.637l.1039.0416a.858.858,0,0,1-.833.6978s-.77.0314-.8017-.8953a1.447,1.447,0,0,1-1.4681.8953s-1.1762,0-1.1762-1.0826c0-.99.885-1.2807,2.6443-1.7387v-.5836c0-1.0723-.51-1.7073-1.395-1.3115-.4476.2084-.5207.4271-.4585.4374a.4506.4506,0,0,1,.2815.1558.4349.4349,0,0,1-.0731.6144.41.41,0,0,1-.5932-.0731.4431.4431,0,0,1-.0629-.4477,1.7445,1.7445,0,0,1,.8126-.77,2.16,2.16,0,0,1,.937-.1975c1.02,0,1.3013.8433,1.3013,2.0818v1.8746s-.01.6246.4476.6246A.3661.3661,0,0,0,59.6876,122.637Zm-3.4568-.5305a.8418.8418,0,0,0,.8953.8844,1.0966,1.0966,0,0,0,1.0307-.708v-1.6136C56.8555,120.9816,56.2308,121.4293,56.2308,122.1065Z" style="fill: #231f20"/>
      <path d="M62.8931,122.5433a1.1033,1.1033,0,0,1-1.062.8331c-.719,0-1.1769-.3329-1.1769-1.5931v-3.1964h-.5207l-.0206-.1142h.5413v-1.5309l.7183-.0936v1.6245h1.2288l-.02.1142H61.3725v3.1656c0,.9472.3233,1.2282.8017,1.2282a.6992.6992,0,0,0,.6356-.4791Z" style="fill: #231f20"/>
      <path d="M64.9955,123.2827H63.4441v-.1147c.3957-.1142.4169-.1662.4169-.6972v-3.1862c0-.354-.0834-.5-.5208-.5624v-.1039l1.2282-.2392v4.0917c0,.5727.0525.6035.4271.6972Zm-1.3224-6.2261a.4359.4359,0,0,1,.4374-.4477.4426.4426,0,1,1,0,.8851A.4339.4339,0,0,1,63.6731,117.0566Z" style="fill: #231f20"/>
      <path d="M68.1811,123.3764a2.5025,2.5025,0,1,1,2.3633-2.4987A2.28,2.28,0,0,1,68.1811,123.3764Zm0-4.8832c-.8229,0-1.5309.5-1.5309,2.3845s.708,2.3845,1.5309,2.3845,1.52-.5,1.52-2.3845S69.0033,118.4932,68.1811,118.4932Z" style="fill: #231f20"/>
      <path d="M75.7593,123.2827H74.2079v-.1038c.3957-.1148.4168-.1771.4168-.7081v-2.3531c0-.8126-.4168-1.343-1.1871-1.343a1.3611,1.3611,0,0,0-1.1454.9159v2.78c0,.5727.0519.6035.4271.6972v.1147H71.1576v-.1147c.3957-.1142.4162-.1662.4162-.6972v-3.1759c0-.3643-.0833-.51-.5207-.5727v-.1039l1.2391-.2392v1.0723a1.7376,1.7376,0,0,1,1.5411-1.0723c.8536,0,1.4994.4476,1.4994,1.6969v2.3948c0,.5727.052.6144.4266.7081Z" style="fill: #231f20"/>
      <path d="M80.611,122.637l.1039.0416a.8581.8581,0,0,1-.8331.6978s-.77.0314-.8017-.8953a1.4466,1.4466,0,0,1-1.468.8953s-1.1762,0-1.1762-1.0826c0-.99.8851-1.2807,2.6442-1.7387v-.5836c0-1.0723-.51-1.7073-1.3948-1.3115-.4478.2084-.5208.4271-.4586.4374a.4506.4506,0,0,1,.2815.1558.4349.4349,0,0,1-.0731.6144.41.41,0,0,1-.5932-.0731.4429.4429,0,0,1-.0629-.4477,1.7445,1.7445,0,0,1,.8126-.77,2.1592,2.1592,0,0,1,.937-.1975c1.02,0,1.3012.8433,1.3012,2.0818v1.8746s-.01.6246.4477.6246A.3661.3661,0,0,0,80.611,122.637Zm-3.4568-.5305a.8418.8418,0,0,0,.8953.8844,1.0964,1.0964,0,0,0,1.0306-.708v-1.6136C77.7788,120.9816,77.1542,121.4293,77.1542,122.1065Z" style="fill: #231f20"/>
      <path d="M82.7647,123.2827H81.2031v-.1147c.3957-.1142.4162-.1662.4162-.6972v-5.9349c0-.3644-.0833-.51-.5208-.5516V115.87l1.2391-.229v6.83c0,.5727.0519.6035.4271.6972Z" style="fill: #231f20"/>
      <path d="M86.5538,119.6072c0-.354-.0833-.5413-.5207-.7183v-.1559l1.6136-.3539v4.3829c0,1.9683-.8017,2.6346-1.8323,2.8944v-.1559c.7394-.2084.7394-2.3114.7394-2.4987Zm-.1667-2.6962a.6175.6175,0,0,1,.6144-.6246.6194.6194,0,1,1,0,1.2384A.6152.6152,0,0,1,86.3871,116.911Z" style="fill: #231f20"/>
      <path d="M93.1328,122.0334a2.0015,2.0015,0,0,1-2.051,1.343,2.5071,2.5071,0,0,1,.0936-4.9973c1.3642,0,2.1241.77,2.1241,2.405H89.9889c.0622,1.2076.635,1.7592,1.3847,1.874a1.6136,1.6136,0,0,0,1.6136-.6978Zm-.9159-1.4058c0-1.4161-.5521-2.0927-1.0832-2.0927-.6035,0-1.1448.937-1.1448,2.0927Z" style="fill: #231f20"/>
      <path d="M101.503,118.4727v.1456c-.229,0-.6978.0417-1.1974,1.4577l-1.2077,3.3h-.1353l-1.4577-3.2587-1.1762,3.2587h-.1463c-1.77-3.9981-1.9054-4.2585-1.9054-4.2585-.229-.4682-.5-.4893-.6663-.5v-.1456h2.2286v.1456c-.6041,0-.2706.656-.2706.656l1.1447,2.5719.7081-1.9369c-.3226-.708-.3643-.7914-.3643-.7914-.2289-.4682-.4791-.4893-.6452-.5v-.1456H98.65v.1456c-.6663,0-.3021.6663-.3021.6663l1.1352,2.5616.6555-1.8221s.5207-1.4058-.583-1.4058v-.1456Z" style="fill: #231f20"/>
      <path d="M105.895,122.0334a2.0014,2.0014,0,0,1-2.051,1.343,2.5071,2.5071,0,0,1,.0937-4.9973c1.3641,0,2.1241.77,2.1241,2.405h-3.3107c.0623,1.2076.635,1.7592,1.3847,1.874a1.6136,1.6136,0,0,0,1.6136-.6978Zm-.9158-1.4058c0-1.4161-.5522-2.0927-1.0832-2.0927-.6036,0-1.1449.937-1.1449,2.0927Z" style="fill: #231f20"/>
      <path d="M108.7785,123.2827h-1.9471v-.1564c.3957-.1142.4163-.4266.4163-.9576v-5.4873c0-.3642-.0937-.52-.5208-.6349v-.1559l1.6245-.3335v6.6116c0,.5727.0519.8639.4271.9576Z" style="fill: #231f20"/>
      <path d="M112.8588,118.5869a.6726.6726,0,0,1,0,.9478.6857.6857,0,0,1-.9582.01.6255.6255,0,0,1-.177-.4579c.0212-.1462-.5413.0308-.8953.6869v2.3844c0,.583.052.864.4272.9679v.1564h-1.9574v-.1564c.3957-.1245.4162-.4266.4162-.9679v-2.6031c0-.354-.0936-.51-.5207-.6664v-.1559l1.6347-.3539v1.1243a2.1013,2.1013,0,0,1,1.3122-1.0826A.8356.8356,0,0,1,112.8588,118.5869Z" style="fill: #231f20"/>
      <path d="M118.595,118.4727v.1456c-.2918,0-.708.0622-1.343,1.645l-1.6033,4.3a2.2381,2.2381,0,0,1-.719,1.062.7419.7419,0,0,1-.708.0937.6457.6457,0,0,1-.3226-.8434.6364.6364,0,0,1,.8434-.3226.5586.5586,0,0,1,.3123.3746c.0417.1354.2816.0314.4374-.3854l.4374-1.1974c-.9473-2.1133-1.9574-4.2579-1.9574-4.2579a.73.73,0,0,0-.6978-.4688v-.1456h2.3012v.1456c-.6042,0-.2918.6977-.2918.6977l1.1973,2.561.6247-1.6451s.6664-1.6239-.5413-1.6136v-.1456Z" style="fill: #231f20"/>
      <path d="M118.7605,122.585a.75.75,0,1,1,.75.75A.7465.7465,0,0,1,118.7605,122.585Z" style="fill: #231f20"/>
    </g>
    <rect x="76.1013" y="131.989" width="18.251" height="0.3389"/>
    <g>
      <circle cx="85.2267" cy="58.343" r="20.9221" transform="translate(-1.777 114.0013) rotate(-67.002)" style="fill: #ffbc7b"/>
      <g style="clip-path: url(#clip-path)">
        <g>
          <g>
            <path d="M92.7837,42.8815a29.9277,29.9277,0,0,0-6.365,14.038c-1.1913,8.2937-3.16,12.6456-3.16,12.6456s4.7868-6.2689,5.9278-7.987C91.81,57.627,95.5685,50.0152,92.7837,42.8815Z" style="fill: #fff;stroke: #4c4c4c;stroke-linecap: round;stroke-linejoin: round;stroke-width: 1.2000000000000002px"/>
            <path d="M86.4187,56.92a29.9277,29.9277,0,0,1,6.365-14.038s-4.158,19.4817-9.525,26.6836C83.2587,69.5651,85.2274,65.2132,86.4187,56.92Z" style="fill: #fff;stroke: #4c4c4c;stroke-linecap: round;stroke-linejoin: round;stroke-width: 1.2000000000000002px"/>
          </g>
          <g>
            <path d="M95.86,61.73a22.1689,22.1689,0,0,0-7.89,5.0786,38.1917,38.1917,0,0,1-5.9629,5.2206s4.388-1.78,5.5146-2.3108C90.112,68.4977,94.5267,65.8209,95.86,61.73Z" style="fill: #fff;stroke: #4c4c4c;stroke-linecap: round;stroke-linejoin: round;stroke-width: 1.2000000000000002px"/>
            <path d="M94.8188,62.1458,95.86,61.73s-11.4548,8.9923-13.542,10.1727c-.1958.08-.3109.1265-.3109.1265A38.1917,38.1917,0,0,0,87.97,66.8084,22.089,22.089,0,0,1,94.8188,62.1458Z" style="fill: #fff;stroke: #4c4c4c;stroke-linecap: round;stroke-linejoin: round;stroke-width: 1.2000000000000002px"/>
          </g>
          <g>
            <path d="M79.6273,77.19s1.9491-10.0929-.4283-12.958c-1.3532-1.6306-1.5231-1.6731-8.1071-4.7892,0,0,2.2067,1.3886,2.5509,3.0286a7.2384,7.2384,0,0,0,3.0421,4.7733C78.3435,68.3053,80.0863,71.9961,79.6273,77.19Z" style="fill: #fff;stroke: #4c4c4c;stroke-linecap: round;stroke-linejoin: round;stroke-width: 1.2000000000000002px"/>
            <g>
              <polygon points="79.687 76.268 79.686 76.267 79.687 76.259 79.687 76.268" style="fill: #fff;stroke: #4c4c4c;stroke-linecap: round;stroke-linejoin: round;stroke-width: 1.2000000000000002px"/>
              <path d="M71.5576,59.6629a40.5572,40.5572,0,0,1,6.3865,4.9357C79.9713,66.67,79.77,73.3057,79.7,75.74c.0528-4.4267-1.5155-7.5367-3.0153-8.496a7.2384,7.2384,0,0,1-3.0421-4.7733c-.3442-1.64-2.5509-3.0286-2.5509-3.0286Z" style="fill: #fff;stroke: #4c4c4c;stroke-linecap: round;stroke-linejoin: round;stroke-width: 1.2000000000000002px"/>
            </g>
          </g>
          <g>
            <path d="M78.191,79.8419s7.82-12.099,6.2187-17.0839c-.9116-2.8371-1.1108-2.9822-8.0668-10.5188,0,0,2.1513,2.9737,1.7424,5.2893a10.1862,10.1862,0,0,0,1.47,7.8189C81.1637,67.6049,81.506,73.3282,78.191,79.8419Z" style="fill: #fff;stroke: #4c4c4c;stroke-linecap: round;stroke-linejoin: round;stroke-width: 1.2000000000000002px"/>
            <path d="M82.3255,62.0049c1.7561,4.5859-.2036,10.4589-2.1359,14.4606-1.1134,2.0066-1.9986,3.3764-1.9986,3.3764,3.315-6.5137,2.9727-12.237,1.3647-14.4945a10.1862,10.1862,0,0,1-1.47-7.8189c.4089-2.3156-1.7424-5.2893-1.7424-5.2893.8664.9387,1.6278,1.7627,2.299,2.4915A40.3405,40.3405,0,0,1,82.3255,62.0049Z" style="fill: #fff;stroke: #4c4c4c;stroke-linecap: round;stroke-linejoin: round;stroke-width: 1.2000000000000002px"/>
          </g>
        </g>
      </g>
    </g>
  </g>
</svg>
