<svg id="LOGOS" xmlns="http://www.w3.org/2000/svg" width="170" height="170" viewBox="0 0 170 170">
  <title>2Mesa de trabajo 1</title>
  <g>
    <g>
      <path d="M32.0036,89.0181c-1.74.1054-3.5864.2636-5.3265.4216a13.86,13.86,0,0,1-1.4769.1057,1.1674,1.1674,0,0,0-.58.2638,1.49,1.49,0,0,1-.58.2108.3874.3874,0,0,1-.3163-.1054,1.0412,1.0412,0,0,1-.3165-.7386,1.0706,1.0706,0,0,1,.6328-.6328,3.9243,3.9243,0,0,1,1.3185-.158h.1054c5.01-.3166,10.02-.58,14.9779-.8439h.8437c.844,0,1.16-.1054,1.5293-.8966s.7385-1.5822,1.1077-2.3733a77.5476,77.5476,0,0,0,3.85-9.1235,18.0431,18.0431,0,0,0,.7385-3.2173c.0526-.4218,0-.7383-.2111-.8966-.1583-.2108-.4745-.2637-.9491-.2637C42.7622,71.4031,36.4863,76.73,35.59,81.16a1.2975,1.2975,0,0,0,.0529,1.1077,1.6949,1.6949,0,0,0,1.1074.58c.1582.0528.2636.0528.422.1054.2108.0528.3691.0528.58.1057a.7015.7015,0,0,1,.5271.8965.5536.5536,0,0,1-.2637.4746.748.748,0,0,1-.3163.1054c-.1054,0-.1582-.0526-.2636-.0526l-.3692-.1057a14.34,14.34,0,0,1-1.9513-.6854,1.8769,1.8769,0,0,1-.9494-2.0041c0-5.2738,8.5436-11.9718,13.2374-12.288a2.112,2.112,0,0,1,1.8987.6853,2.41,2.41,0,0,1,.5272,2.0571c-.6855,4.0081-2.4785,7.7-4.2718,11.286l-.2109.5274c-.3166.6328-.6328,1.2657-.9494,1.9514l-.58,1.16c-.2112.4217,0,.4746.4219.4746h.4746c1.8459,0,3.6389-.0529,5.4849-.0529,1.16,0,2.373,0,3.5861.0529a.7466.7466,0,0,0,.7383-.4746c1.213-2.5316,2.4787-5.0629,3.6917-7.6471,1.16-2.3207,2.3205-4.6412,3.4279-6.9617a6.2515,6.2515,0,0,1,.2637-.58,3.4931,3.4931,0,0,1,.2637-.7911,4.1285,4.1285,0,0,1,.9494-1.1077.8919.8919,0,0,1,.5274-.158,1.6293,1.6293,0,0,1,.422.1054.9327.9327,0,0,1,.4745.8437,4.0318,4.0318,0,0,1-1.0019,2.4787c-.0529.0529-.2637.2638-.422.2109h-.1055c-.3165,0-.4219.2112-.58.4748,0,.1054-.0526.2109-.1055.2109-2.1095,4.2718-4.1135,7.9108-6.0648,12.2354-.1582.3166-.6328,1.1074-.1054,1.1074,1.2128,0,2.4259-.0525,3.6389-.0525h3.4808c.6328,0,1.3185.0525,1.1074.6327-.3163.7383-1.5294.7911-2.4259.7911H59.6912c-1.3182,0-2.69-.0528-4.0082-.0528a.8616.8616,0,0,0-.949.58C52.4135,94.1338,50.04,98.933,47.72,103.5739l-1.7405,3.4279c-.1582.2639-.2108.5273-.3691.7914-.3166.58-.58,1.16-.8439,1.74a.5687.5687,0,0,0-.1054.3165.9831.9831,0,0,0-.1055.3691v.0526a1.19,1.19,0,0,1-.422.5805c-.0525.1052-.1579.1052-.2636.1052a.3966.3966,0,0,1-.2638-.0526c-.158-.0526-.2108-.0526-.2108-.1583a1.1539,1.1539,0,0,1-.0529-.8439c.6857-1.5291,1.4768-3.1113,2.3208-4.9044,2.2676-4.6409,4.4826-9.2818,6.7505-13.9233a7.3353,7.3353,0,0,1,.58-1.1074,5.7585,5.7585,0,0,0,.422-.7911c.0525-.1579.1583-.2637.1583-.3691h-.3695l-.6854-.0526c-1.8987-.1054-3.7972-.1054-5.6957-.1054-1.1077,0-2.1624,0-3.27-.0529a.6846.6846,0,0,0-.7385.4746c-2.373,4.7466-4.6934,9.5458-7.0668,14.2924l-1.74,3.533c0,.0532,0,.0532-.0525.1058a.8824.8824,0,0,1-.8966.5273c-.2637-.0525-.3165-.58-.3165-.6857a3.6019,3.6019,0,0,1,.1582-.4216c.0526-.0532.1055-.1057.1055-.1057L38.9125,94.45c.8965-1.793,1.8456-3.6386,2.7421-5.4316a2.583,2.583,0,0,1,.1582-.3692h-.369l-1.7931.0526C37.1191,88.8069,34.5349,88.9123,32.0036,89.0181Z" style="fill: #231f20"/>
      <path d="M74.3,88.3324c-.2108.58-5.9594,2.9-6.8031,3.2695a5.6449,5.6449,0,0,1-1.74.3691,1.3886,1.3886,0,0,1-1.5822-1.2656,3.1872,3.1872,0,0,1,.3691-1.5819c.6329-1.2657,2.69-3.4807,4.2718-3.4807a1.1494,1.1494,0,0,1,1.2131.8436,1.0992,1.0992,0,0,1-.2637,1.0549,1.8478,1.8478,0,0,1-.8966.4745,18.8636,18.8636,0,0,1-1.8459.422,5.3955,5.3955,0,0,0-.7382.2111c-.58.2634-1.4239,1.3182-1.1076,2.0039.1057.264.4219.3166.7385.3166.1583,0,.3162-.0526.4219-.0526a4.0892,4.0892,0,0,0,1.424-.4223c.8965-.4217,1.8456-.8437,2.7421-1.2656.9494-.422,1.9514-1.0019,2.9536-1.3711a1.4,1.4,0,0,1,.6329-.1583.35.35,0,0,1,.2108.2637A.4455.4455,0,0,1,74.3,88.3324ZM68.4988,86.75c-.4746,0-1.424.7911-1.1077.7911.2637.0528,1.4767-.4221,1.3713-.6329A.29.29,0,0,0,68.4988,86.75Z" style="fill: #231f20"/>
      <path d="M83.6343,70.0321a.9743.9743,0,0,1,.3691.1054.6065.6065,0,0,1,.1583.8965c-.5274.9494-1.0548,1.8988-1.5294,2.7953-.8439,1.5294-1.74,3.0588-2.5841,4.5881-2.5842,4.6412-5.3795,9.5984-7.7,14.82l-.1054.1577a6.1543,6.1543,0,0,1-.2637.5805v.1052a3.16,3.16,0,0,0-.3691,1.8461,3.1773,3.1773,0,0,1-.3691,2.2148c-.1057.2108-.3165.58-.6857.58a.3888.3888,0,0,1-.3165-.1051,1.1526,1.1526,0,0,1-.3692-.4748c-.1054-.0525-.1054-.1583-.1583-.1583v-.1051c.0529-.1583.0529-.3166.1057-.4223.0526-.2634.1055-.4742.158-.6857.1583-.4217.3166-.7908.422-1.16.3691-1.1074.7911-2.1622,1.2131-3.1644,2.215-4.9575,4.9046-9.7567,7.4888-14.3977,1.3185-2.4258,2.5316-4.7992,3.6918-7.2779.0526-.0526.1054-.0526.1054-.1054q.0793-.1581.1583-.3165A.7283.7283,0,0,1,83.6343,70.0321Z" style="fill: #231f20"/>
      <path d="M89.3826,70.0321a.9743.9743,0,0,1,.3691.1054.6065.6065,0,0,1,.1583.8965c-.5274.9494-1.0548,1.8988-1.5294,2.7953-.8439,1.5294-1.74,3.0588-2.5841,4.5881-2.5842,4.6412-5.3795,9.5984-7.7,14.82l-.1054.1577a6.1543,6.1543,0,0,1-.2637.5805v.1052a3.16,3.16,0,0,0-.3691,1.8461,3.1773,3.1773,0,0,1-.3691,2.2148c-.1057.2108-.3166.58-.6857.58a.389.389,0,0,1-.3166-.1051,1.1533,1.1533,0,0,1-.3691-.4748c-.1054-.0525-.1054-.1583-.1583-.1583v-.1051c.0529-.1583.0529-.3166.1057-.4223.0526-.2634.1055-.4742.158-.6857.1583-.4217.3166-.7908.422-1.16.3691-1.1074.7911-2.1622,1.2131-3.1644,2.215-4.9575,4.9046-9.7567,7.4888-14.3977,1.3185-2.4258,2.5316-4.7992,3.6918-7.2779.0525-.0526.1054-.0526.1054-.1054.0529-.1054.1054-.2108.1583-.3165A.7283.7283,0,0,1,89.3826,70.0321Z" style="fill: #231f20"/>
      <path d="M84.4251,92.815a1.0289,1.0289,0,0,1-.6857-.2634c-.58-.5274-.2637-1.9513.1054-2.5845.6857-1.3711,2.7954-4.7463,4.6409-4.7463a.8735.8735,0,0,1,.6857.2637,1.5963,1.5963,0,0,1,.58,1.6347c-.0529.2112-.0529.3167,0,.3692,0,.0529.158.1057.3163.1057,1.0547.0526,1.9513.0526,2.9533.1054h.2637a.67.67,0,0,1,.3165.0526c.5274.2637.0529.7911-.4745.7911-1.424,0-2.32-.1054-4.2718-.158-.1583,0-.2112,0-.2638.0526-.2636.2111.158,1.2656-1.16,2.3733a17.5741,17.5741,0,0,1-2.2151,1.6873A1.2644,1.2644,0,0,1,84.4251,92.815Zm2.9-6.0648a11.2327,11.2327,0,0,0-2.8479,3.7969,4.253,4.253,0,0,0-.2108.95c0,.1583,0,.2634.1054.3165.0529.0526.1583,0,.3166-.0531a6.3534,6.3534,0,0,0,2.7425-2.4785,1.04,1.04,0,0,0,.0525-1.16c-.1583-.2637-.2108-.4748-.1054-.6331.2108-.4217.8965-.2109,1.0548-.3692.1054,0,.2637-.8436-.0529-1.0019-.1582-.1054-.2108.1583-.3691.2108A1.8686,1.8686,0,0,0,87.3255,86.75Z" style="fill: #231f20"/>
      <path d="M103.4627,87.7a.4107.4107,0,0,1,.2111.7911c-1.16.3163-2.32.6329-3.4806.8965a16.9336,16.9336,0,0,0-4.3775,1.8988,23.2453,23.2453,0,0,1-3.0588,1.4765c-.2111.1051-.422.1583-.6328.2634a1.5643,1.5643,0,0,0-.8965.844,121.8483,121.8483,0,0,0-5.7486,12.2354c-.3166.7382-.6857,1.4765-1.0019,2.32a.23.23,0,0,1-.0529.1584.8984.8984,0,0,1-.3166.5273c-.1054,0-.1054.0526-.2108.0526-.0526,0-.1054-.1051-.1583-.1051a.4856.4856,0,0,1-.3163-.2114.954.954,0,0,1,.1055-.6851c.3691-.844.7382-1.5823,1.0548-2.32,1.4239-3.27,2.8478-6.5928,4.5355-9.7567.3691-.6331.6856-1.2662,1.0019-1.8987a2.1689,2.1689,0,0,1,.1583-.4217l-.422.0525h-.4745a7.3718,7.3718,0,0,1-1.0548.1583c-.422,0-.8966-.0531-.95-.5805a1.2316,1.2316,0,0,1,.5275-.8434c1.16-.5274,2.215-.95,3.1644-1.3189a1.7167,1.7167,0,0,0,1.16-1.0016,8.5064,8.5064,0,0,1,.5274-.9494c.1055-.1582.422-.5274.1055-.6328-1.1074-.3165-.2637-1.4242.58-1.5822a1.605,1.605,0,0,0,1.0545-.8965,25.9349,25.9349,0,0,1,1.266-2.3734c.1054-.2111.2637-.4745.3691-.7382l.0526-.1057c.1057-.158.1582-.3163.3165-.5274a.7685.7685,0,0,1,.6328-.2637.4789.4789,0,0,1,.3692.1582c.3691.3166.1054.7386,0,.95-.6328.9494-1.2657,1.8984-1.7931,2.795a.8587.8587,0,0,0-.1583.3165h.3692l.7911-.1583c.4748-.0525,1.0022-.1054,1.4768-.1582a3.76,3.76,0,0,1,1.0548.1057,1.1688,1.1688,0,0,1,.7911.6854A1.0987,1.0987,0,0,1,99.93,87.91c-.1058.2112-.3166.4221.0525.4221a1.8128,1.8128,0,0,0,.4748-.0529c.6854-.158,1.8457-.3692,2.2677-.4746A4.13,4.13,0,0,1,103.4627,87.7ZM90.911,92.4984l.1055-.1051H90.911c-.422.1583-.8965.3165-1.2656.4742h-.0529l.1054.0532.3166-.1057C90.2782,92.71,90.6473,92.6041,90.911,92.4984ZM93.39,91.4436l-.1054.0532c-.3166.1051-.58.2634-.8966.3691v.0525a.9967.9967,0,0,1,.4217-.1051C93.0206,91.76,93.2844,91.7076,93.39,91.4436Zm-.2109-1.1074h.0526a1.467,1.467,0,0,0,.4748-.0525,4.9879,4.9879,0,0,0,.9491-.2637c.5274-.1583,1.0019-.3166,1.5294-.5274,1.8459-.6857,1.8987-.8437,2.4787-1.5823.1057-.1054.1057-.2636.2111-.4219V87.383a.1632.1632,0,0,1-.1054-.0526,1.2384,1.2384,0,0,0-.4219-.1057c-.7386.1057-1.4768.2112-2.2151.3694-.2111.0526-.4749.0526-.7383.1054a1.6341,1.6341,0,0,0-1.2659,1.002c-.2109.422-.5274.8439-.7382,1.2131A1.58,1.58,0,0,0,93.1789,90.3362Z" style="fill: #231f20"/>
      <path d="M107.1017,90.3362c0-.2634-.0529-.4745-.1583-.527a.869.869,0,0,0-.4745.2636,13.9385,13.9385,0,0,0-2.0043,1.6348c-.7911.7908-1.4765,1.5822-2.215,2.3731a15.873,15.873,0,0,0-1.3182,1.3713,12.7119,12.7119,0,0,1-1.3185,1.2131.7393.7393,0,0,1-.4748.1583.4728.4728,0,0,1-.2638-.0532c-.158-.1051-.1054-.5268-.1054-.6851.2112-.4222.422-.844.6857-1.3188,1.6876-2.9,3.3224-5.8011,5.0629-8.649,2.5313-4.2718,5.01-8.4381,7.4888-12.71a15.0071,15.0071,0,0,0,.844-1.5822c.0525-.1583.3691-.7911.3691-.8965.2108-.2637.3691-.5274.58-.58h.1057a.7607.7607,0,0,1,.3691.1057c.4746.2636.2637.6328.1054,1.0019-2.3733,3.85-12.9211,21.359-12.9211,21.939-.0526.2639.5274-.4743.6331-.58,1.8456-1.7931,2.0568-2.4788,4.3244-3.85a1.4414,1.4414,0,0,1,.7385-.2109c.6328,0,.7383.58.7908,1.1074v.0529a.4741.4741,0,0,1,.0529.2637c-.0529.58,0,.8436.1583.9493.0526,0,.1054.0526.1583.0526.58,0,5.2737-2.637,5.9065-3.0061a4.1578,4.1578,0,0,1,1.2131-.4746h.1583c.4217,0,.5271.5275,0,.7911-1.3185.7383-3.3752,1.9513-4.7992,2.5839l-1.16.5274a3.18,3.18,0,0,1-1.3711.4223.9953.9953,0,0,1-.422-.1058C107.4183,91.76,107.26,91.2327,107.1017,90.3362Z" style="fill: #231f20"/>
      <path d="M114.4316,92.815a1.0289,1.0289,0,0,1-.6857-.2634c-.58-.5274-.2637-1.9513.1054-2.5845.6857-1.3711,2.7953-4.7463,4.6409-4.7463a.8735.8735,0,0,1,.6857.2637,1.5963,1.5963,0,0,1,.58,1.6347c-.0529.2112-.0529.3167,0,.3692,0,.0529.158.1057.3162.1057,1.0548.0526,1.9513.0526,2.9533.1054h.2637a.6706.6706,0,0,1,.3166.0526c.5274.2637.0528.7911-.4745.7911-1.424,0-2.32-.1054-4.2719-.158-.1583,0-.2111,0-.2637.0526-.2636.2111.158,1.2656-1.16,2.3733a17.5731,17.5731,0,0,1-2.215,1.6873A1.2646,1.2646,0,0,1,114.4316,92.815Zm2.9-6.0648a11.2314,11.2314,0,0,0-2.8479,3.7969,4.253,4.253,0,0,0-.2108.95c0,.1583,0,.2634.1054.3165.0529.0526.1583,0,.3165-.0531a6.3523,6.3523,0,0,0,2.7425-2.4785,1.0394,1.0394,0,0,0,.0526-1.16c-.1583-.2637-.2109-.4748-.1054-.6331.2108-.4217.8965-.2109,1.0548-.3692.1054,0,.2636-.8436-.0529-1.0019-.1583-.1054-.2108.1583-.3691.2108A1.8686,1.8686,0,0,0,117.332,86.75Z" style="fill: #231f20"/>
      <path d="M146.6011,79.1031a.5687.5687,0,0,1-.1054.422,1.103,1.103,0,0,1-.7382.1582h-3.85a93.45,93.45,0,0,0-13.5535,1.16c-.4221.0525-.5275.3162-.7386.6853-1.2128,2.11-2.4259,4.3247-3.5333,6.4869-1.0022,1.8988-2.0042,3.7975-2.9535,5.5906-.3692.7382-.7383,1.4765-1.16,2.1622a2.5752,2.5752,0,0,0-.2108.58c-.0529,0-.0529.0526-.0529.1058.0529,0,.1057-.0532.1583-.1058.3691-.2634.7385-.5274,1.1077-.8439.58-.4217,1.2127-.8966,1.74-1.3182,1.4768-1.1074,9.6512-6.4869,11.3389-6.5923h.4219c1.002.4745-1.2659,1.3711-1.6876,1.5819a69.3755,69.3755,0,0,0-12.71,8.28,11.1951,11.1951,0,0,0-2.6371,3.27c-1.16,2.1621-2.4259,4.2186-3.9027,6.5922a7.9278,7.9278,0,0,1-1.3185,1.424,1.42,1.42,0,0,1-.7911.2633c-.5274,0-.7382-.4742-.7382-.949.2108-2.5313,1.8984-4.905,3.6389-6.6449a28.9332,28.9332,0,0,1,3.1641-3.0593,4.3886,4.3886,0,0,0,.6857-.8965c2.6371-5.01,5.2741-10.1255,7.8583-15.03l.3162-.6328a.9963.9963,0,0,0,.2112-.4746c.0525,0,.0525-.0529.0525-.1054h-.1054a1.6334,1.6334,0,0,0-.5274.0525c-1.9514.4221-4.0081.7386-6.0123,1.0548-.6328,0-1.2128-.0525-1.8456-.1054a1.4018,1.4018,0,0,1-1.16-.8965.7788.7788,0,0,1,0-.6857.749.749,0,0,1,.4745-.4219.9.9,0,0,1,.3692-.0526.4762.4762,0,0,1,.2636.0526c.1583.0528.2637.3165.2637.58.0529.3166.1583.3691.422.3691h1.9513c1.1075-.2108,2.2676-.3691,3.3753-.58.8966-.1582,1.8457-.2636,2.795-.4219a.8732.8732,0,0,0,.6857-.5274c.8966-1.8459,1.7931-3.7444,2.69-5.59l.9494-1.793v-.1054c.0525-.1057.1054-.1057.1582-.2111.1581-.2109.3164-.3692.4746-.3692a.9816.9816,0,0,1,.3691.1054.9324.9324,0,0,1,.1583.844,3.96,3.96,0,0,1-.5274,1.0549,1.8644,1.8644,0,0,0-.2108.4744l-.422.7383c-.844,1.5822-1.6351,3.1644-2.4788,4.7467a.4019.4019,0,0,0-.1054.2636.67.67,0,0,0,.3163.0526,142.71,142.71,0,0,1,15.4524-1.1074,10.274,10.274,0,0,0,1.266-.1054,1.3067,1.3067,0,0,1,.4216-.0528C146.4429,78.5757,146.6011,78.7339,146.6011,79.1031Zm-31.1685,22.572a14.8105,14.8105,0,0,0-3.4807,5.1683,4.64,4.64,0,0,0-.1054.844.114.114,0,0,1,.1054-.1057,3.3634,3.3634,0,0,0,.4746-.4217,35.7931,35.7931,0,0,0,3.9027-6.1706l.1056-.1582v-.2634Z" style="fill: #231f20"/>
      <path d="M133.1,92.815a1.0287,1.0287,0,0,1-.6856-.2634c-.58-.5274-.2637-1.9513.1054-2.5845.6857-1.3711,2.7953-4.7463,4.6409-4.7463a.8735.8735,0,0,1,.6857.2637,1.5965,1.5965,0,0,1,.58,1.6347c-.0529.2112-.0529.3167,0,.3692,0,.0529.1579.1057.3162.1057,1.0548.0526,1.9514.0526,2.9533.1054h.2637a.6708.6708,0,0,1,.3166.0526c.5274.2637.0529.7911-.4746.7911-1.4239,0-2.32-.1054-4.2717-.158-.1583,0-.2112,0-.2638.0526-.2637.2111.158,1.2656-1.16,2.3733a17.5669,17.5669,0,0,1-2.2151,1.6873A1.264,1.264,0,0,1,133.1,92.815ZM136,86.75a11.23,11.23,0,0,0-2.8479,3.7969,4.2475,4.2475,0,0,0-.2108.95c0,.1583,0,.2634.1054.3165.0528.0526.1583,0,.3166-.0531a6.3531,6.3531,0,0,0,2.7424-2.4785,1.0394,1.0394,0,0,0,.0526-1.16c-.1583-.2637-.2109-.4748-.1054-.6331.2108-.4217.8965-.2109,1.0547-.3692.1054,0,.2638-.8436-.0528-1.0019-.1583-.1054-.2108.1583-.3691.2108A1.8669,1.8669,0,0,0,136,86.75Z" style="fill: #231f20"/>
    </g>
    <text transform="translate(53.2033 64.9878)" style="font-size: 3.8205225467681885px;fill: #231f20;font-family: Butler-Medium, Butler;font-weight: 500;letter-spacing: 0.20001456525794079em">WEDDING PH<tspan x="32.8828" y="0" style="letter-spacing: 0.1761150612942124em">OT</tspan><tspan x="39.6948" y="0">OGRAPHY</tspan></text>
    <g>
      <g>
        <path d="M87.4761,115.4757A4.22,4.22,0,0,0,85.96,113.164a5.3267,5.3267,0,0,1-.2242,1.308,5.11,5.11,0,0,0,1.1259,4.33A3.3062,3.3062,0,0,0,87.4761,115.4757Z" style="fill: none"/>
        <path d="M81.8308,125.1482c1.0508-.3726,2.2635-.4622,3.0905-1.2093a4.0522,4.0522,0,0,0,1.361-3.8358C84.3979,121.4172,82.5035,122.8982,81.8308,125.1482Z" style="fill: none"/>
        <path d="M80.8191,117.5764a28.6753,28.6753,0,0,0-3.419,1.0179c2.3507,1.574,6.11,2.7667,8.3316.8A5.1385,5.1385,0,0,0,80.8191,117.5764Z" style="fill: none"/>
        <path d="M93.1655,118.4873a15.0741,15.0741,0,0,1-5.7074.7329,3.9,3.9,0,0,0,.8958-2.9886,4.91,4.91,0,0,0-2.6884-4.1131.2045.2045,0,0,0-.0228-.0146l-.0107-.0059-.0042-.0018a.3724.3724,0,0,0-.537.2149.2861.2861,0,0,0,.0371.2952c.3081.7312-.0467,1.3545-.1775,2.0676a4.496,4.496,0,0,0,.1289,2.0627,7.8783,7.8783,0,0,0,.5456,1.4859,5.1744,5.1744,0,0,0-2.8178-1.3339c-2.2943-.2977-3.9874.6907-6.1424,1.1534a.33.33,0,0,0-.25.2125.3676.3676,0,0,0,.0392.5476c1.903,1.4642,4.8834,2.7193,7.3923,2.2733a8.0959,8.0959,0,0,0-2.8833,4.6273.2806.2806,0,0,0,.1273.3089.3.3,0,0,0,.4.0692c1.5319-.8682,3.3856-.7108,4.5386-2.24a4.7872,4.7872,0,0,0,.9514-3.936,15.969,15.969,0,0,0,6.499-.77C93.9173,118.9889,93.5987,118.344,93.1655,118.4873Zm-15.7654.107a28.6753,28.6753,0,0,1,3.419-1.0179,5.1385,5.1385,0,0,1,4.9126,1.8183C83.51,121.361,79.7508,120.1683,77.4,118.5943Zm7.5212,5.3446c-.827.7471-2.04.8367-3.0905,1.2093.6727-2.25,2.5671-3.731,4.4515-5.0451A4.0522,4.0522,0,0,1,84.9213,123.9389Zm1.9408-5.1371a5.11,5.11,0,0,1-1.1259-4.33,5.3267,5.3267,0,0,0,.2242-1.308,4.22,4.22,0,0,1,1.5157,2.3117A3.3062,3.3062,0,0,1,86.8621,118.8018Z" style="fill: #262930"/>
      </g>
      <path d="M84.9084,57.6889a.2865.2865,0,0,0-.0371-.2953c-.3081-.7311.0467-1.3545.1774-2.0675a4.4947,4.4947,0,0,0-.1288-2.0627,7.8757,7.8757,0,0,0-.5456-1.4859,5.1745,5.1745,0,0,0,2.8178,1.3339c2.2942.2977,3.9874-.6908,6.1424-1.1534a.33.33,0,0,0,.25-.2125.3676.3676,0,0,0-.0392-.5476c-1.903-1.4642-4.8834-2.7193-7.3924-2.2732a8.0964,8.0964,0,0,0,2.8834-4.6274.2805.2805,0,0,0-.1273-.3089.3.3,0,0,0-.4-.0692c-1.5319.8683-3.3856.7108-4.5387,2.24a4.7873,4.7873,0,0,0-.9513,3.936,15.9707,15.9707,0,0,0-6.499.77c-.4386.1454-.12.79.3132.647a15.0734,15.0734,0,0,1,5.7074-.7327,3.9,3.9,0,0,0-.8959,2.9884,4.91,4.91,0,0,0,2.6885,4.1132.2129.2129,0,0,0,.0227.0146l.0107.0058.0042.0019A.3726.3726,0,0,0,84.9084,57.6889Zm7.6907-6.2832a28.6808,28.6808,0,0,1-3.419,1.0179,5.1384,5.1384,0,0,1-4.9126-1.8183C86.4889,48.639,90.2484,49.8317,92.5991,51.4057ZM85.0779,46.061c.827-.7471,2.04-.8366,3.0905-1.2093-.6727,2.25-2.5672,3.7311-4.4515,5.0452A4.0525,4.0525,0,0,1,85.0779,46.061ZM82.523,54.5243a3.3062,3.3062,0,0,1,.6141-3.3261,5.11,5.11,0,0,1,1.1259,4.33,5.3275,5.3275,0,0,0-.2242,1.308A4.22,4.22,0,0,1,82.523,54.5243Z" style="fill: #262930"/>
    </g>
  </g>
</svg>
