<svg xmlns="http://www.w3.org/2000/svg" width="170" height="170" viewBox="0 0 170 170">
  <defs>
    <style>
      .cls-1 {
        fill: #fff;
        fill-rule: evenodd;
      }
    </style>
  </defs>
  <path class="cls-1" d="M46.007,63.087a0.59,0.59,0,1,0,0,1.179h3.542a0.59,0.59,0,1,0,0-1.179l-1.087,0V52.8l7.251,11.037a0.824,0.824,0,0,0,.732.43H58.5a0.59,0.59,0,1,0,0-1.179l-1.274,0,0-11.29H58.5a0.59,0.59,0,1,0,0-1.179H54.954a0.59,0.59,0,1,0,0,1.179l1.087,0V62.084L48.79,51.046a0.823,0.823,0,0,0-.732-0.43h-2.05a0.59,0.59,0,1,0,0,1.179l1.274,0,0,11.29H46.007Zm14.878,1.179h3.541a0.59,0.59,0,1,0,0-1.179l-0.959,0L64.73,59.8c0.014-.032.031-0.073,0.162-0.073h5.294c0.124,0,.146.036,0.16,0.068l1.267,3.3H70.652a0.59,0.59,0,1,0,0,1.179h3.542a0.59,0.59,0,1,0,0-1.179H72.982c-0.013,0-.045,0-0.083-0.08L68.25,50.939a0.678,0.678,0,0,0-.71-0.51,0.666,0.666,0,0,0-.7.478L62.2,62.972a0.214,0.214,0,0,1-.1.114H60.885A0.59,0.59,0,1,0,60.885,64.266Zm6.654-11.744,2.322,6.023-4.641,0Zm5.951,1.971a0.553,0.553,0,0,0,.59-0.59l0-2.109,3.85,0,0,11.29H76.658a0.59,0.59,0,1,0,0,1.179h3.728a0.59,0.59,0,1,0,0-1.179l-1.274,0,0-11.29,3.85,0V53.9a0.59,0.59,0,0,0,1.18,0v-2.7a0.553,0.553,0,0,0-.59-0.59H73.49a0.553,0.553,0,0,0-.591.59v2.7A0.553,0.553,0,0,0,73.49,54.494Zm12.988-2.7,1.274,0V59.3a5,5,0,0,0,1.462,3.711,5.463,5.463,0,0,0,7.39,0A5.005,5.005,0,0,0,98.066,59.3l0-7.507h1.272a0.59,0.59,0,1,0,0-1.179H95.8a0.59,0.59,0,1,0,0,1.179l1.087,0V59.3a3.8,3.8,0,0,1-1.117,2.885,4.308,4.308,0,0,1-5.719,0A3.8,3.8,0,0,1,88.932,59.3l0-7.507h1.085a0.59,0.59,0,1,0,0-1.179H86.477A0.59,0.59,0,1,0,86.477,51.795ZM101.65,63.087a0.59,0.59,0,1,0,0,1.179h3.542a0.59,0.59,0,1,0,0-1.179l-1.087,0V58.31h2.418l3.481,4.777h-0.9a0.59,0.59,0,1,0,0,1.179h3.728a0.59,0.59,0,1,0,0-1.179h-1.212a0.393,0.393,0,0,1-.215-0.151l-3.386-4.627a4.061,4.061,0,0,0,2.858-1.017,4.322,4.322,0,0,0,0-5.657,4.128,4.128,0,0,0-2.984-1.019H101.65a0.59,0.59,0,1,0,0,1.179l1.274,0,0,11.29H101.65ZM107.9,57.13l-3.79,0V51.795H107.9a2.994,2.994,0,0,1,2.134.7,3.048,3.048,0,0,1,0,3.944A2.991,2.991,0,0,1,107.9,57.13Zm6.952,5.956a0.59,0.59,0,1,0,0,1.179h9.04a0.552,0.552,0,0,0,.59-0.59V61.07a0.59,0.59,0,0,0-1.18,0l0,2.017-5.994,0,0-5.148,4.13,0v0.9a0.591,0.591,0,0,0,1.181,0V55.859a0.591,0.591,0,0,0-1.181,0l0,0.9-4.13,0,0-4.962,5.807,0v2.015a0.591,0.591,0,0,0,1.181,0V51.205a0.553,0.553,0,0,0-.59-0.59h-8.854a0.59,0.59,0,1,0,0,1.179l1.274,0,0,11.29h-1.272ZM81.955,85.917c-0.021-.031-0.037-0.053-0.047-0.069a1.831,1.831,0,0,0-.316.053c-4.1,1.1-6.186,3.012-6.186,5.677A5,5,0,0,0,76.877,95.3a5.431,5.431,0,0,0,3.845,1.406,9.136,9.136,0,0,0,7.344-3.728,0.856,0.856,0,0,0,.078-0.1l-0.017-.02ZM47.01,107.761a6.148,6.148,0,0,0-4.759,1.992,7.915,7.915,0,0,0,0,10.04,6.684,6.684,0,0,0,9.519,0,7.916,7.916,0,0,0,0-10.04A6.15,6.15,0,0,0,47.01,107.761Zm0,12.844a4.95,4.95,0,0,1-3.889-1.628,6.69,6.69,0,0,1,0-8.408,5.456,5.456,0,0,1,7.778,0,6.69,6.69,0,0,1,0,8.408A4.949,4.949,0,0,1,47.01,120.605Zm19.317-.186H65.116a0.393,0.393,0,0,1-.215-0.152l-3.386-4.627a4.057,4.057,0,0,0,2.858-1.017,4.323,4.323,0,0,0,0-5.657,4.13,4.13,0,0,0-2.985-1.019H55.144a0.59,0.59,0,1,0,0,1.18h1.273l0,11.291H55.144a0.59,0.59,0,1,0,0,1.179h3.542a0.59,0.59,0,1,0,0-1.179l-1.087,0,0-4.775h2.418l3.48,4.777H62.6a0.59,0.59,0,1,0,0,1.179h3.728A0.59,0.59,0,1,0,66.328,120.419ZM57.6,109.127h3.788a3,3,0,0,1,2.134.7,3.047,3.047,0,0,1,0,3.944,2.99,2.99,0,0,1-2.135.7H57.6Zm22.057,4.963H76.115a0.59,0.59,0,1,0,0,1.179l1.087,0v3.384a5.341,5.341,0,0,1-3.958,1.95,4.624,4.624,0,0,1-3.653-1.636,6.115,6.115,0,0,1-1.46-4.187,6.226,6.226,0,0,1,1.435-4.2,4.479,4.479,0,0,1,3.567-1.642,5.19,5.19,0,0,1,3.023,1.021,6.708,6.708,0,0,1,1.046.928v1.185a0.59,0.59,0,0,0,1.18,0v-3.537a0.59,0.59,0,0,0-1.18,0v0.7a6.4,6.4,0,0,0-4.07-1.48,5.657,5.657,0,0,0-4.458,2.016,7.414,7.414,0,0,0-1.724,5,7.3,7.3,0,0,0,1.755,5,5.892,5.892,0,0,0,4.613,2,6.162,6.162,0,0,0,3.883-1.478v0.7a0.59,0.59,0,0,0,1.18,0l0-5.739h1.272A0.59,0.59,0,1,0,79.656,114.09Zm13.751,6.329H92.2c-0.013,0-.045,0-0.083-0.08l-4.65-12.068a0.678,0.678,0,0,0-.71-0.51,0.665,0.665,0,0,0-.7.479L81.408,120.3a0.212,0.212,0,0,1-.1.115H80.1a0.59,0.59,0,1,0,0,1.179h3.541a0.59,0.59,0,1,0,0-1.179l-0.959,0,1.263-3.287c0.014-.033.032-0.073,0.162-0.073H89.4c0.124,0,.145.036,0.159,0.068l1.267,3.3h-0.96a0.59,0.59,0,1,0,0,1.179h3.542A0.59,0.59,0,1,0,93.407,120.419Zm-8.974-4.545,2.319-6.02,2.322,6.023Zm23.117-6.747a0.59,0.59,0,1,0,0-1.18H104.01a0.59,0.59,0,1,0,0,1.18H105.1v10.288l-7.252-11.038a0.823,0.823,0,0,0-.732-0.431h-2.05a0.59,0.59,0,1,0,0,1.18h1.274l0,11.291H95.063a0.59,0.59,0,1,0,0,1.179H98.6a0.59,0.59,0,1,0,0-1.179l-1.087,0V110.131l7.25,11.037a0.826,0.826,0,0,0,.733.43h2.05a0.59,0.59,0,1,0,0-1.179l-1.274,0,0-11.29h1.272Zm7.116,0a0.59,0.59,0,1,0,0-1.18h-3.728a0.59,0.59,0,0,0,0,1.18h1.274l0,11.291h-1.272a0.59,0.59,0,1,0,0,1.179h3.728a0.59,0.59,0,1,0,0-1.179l-1.273,0v-11.29h1.272Zm14.541,9.838a0.494,0.494,0,0,0-.412-0.154,0.615,0.615,0,0,0-.368.2,5.258,5.258,0,0,1-3.988,1.6,5.077,5.077,0,0,1-3.944-1.628,6.018,6.018,0,0,1-1.486-4.176,6.265,6.265,0,0,1,1.435-4.21,4.465,4.465,0,0,1,3.567-1.651,5.192,5.192,0,0,1,3.024,1.021,6.721,6.721,0,0,1,1.046.928v1.185a0.59,0.59,0,0,0,1.18,0v-3.537a0.59,0.59,0,0,0-1.18,0v0.7a6.355,6.355,0,0,0-4.07-1.478,5.654,5.654,0,0,0-4.467,2.007,7.414,7.414,0,0,0-1.715,5,7.222,7.222,0,0,0,1.794,5.01,6.1,6.1,0,0,0,4.733,2,6.771,6.771,0,0,0,4.907-1.952,0.566,0.566,0,0,0,.185-0.406A0.691,0.691,0,0,0,129.208,118.965ZM67.775,132.753a1.815,1.815,0,0,0-.426-0.266,1.862,1.862,0,0,0,1.136-.494,1.341,1.341,0,0,0,.368-0.957,1.51,1.51,0,0,0-.222-0.8,1.189,1.189,0,0,0-.593-0.507,3.145,3.145,0,0,0-1.085-.144H64.586v5.33h0.706v-2.367h0.819a2.11,2.11,0,0,1,.393.026,1.041,1.041,0,0,1,.322.142,1.571,1.571,0,0,1,.359.356q0.2,0.254.51,0.734l0.706,1.109H69.29l-0.928-1.451A3.672,3.672,0,0,0,67.775,132.753Zm-0.965-.819H65.292v-1.763h1.689a1.284,1.284,0,0,1,.868.244,0.792,0.792,0,0,1,.275.621,0.867,0.867,0,0,1-.142.479,0.811,0.811,0,0,1-.415.32A2.3,2.3,0,0,1,66.81,131.934Zm5.1-.97a1.7,1.7,0,0,0-1.3.538,2.132,2.132,0,0,0-.5,1.512,2.038,2.038,0,0,0,.5,1.464,2.014,2.014,0,0,0,2.452.194,1.65,1.65,0,0,0,.593-0.92l-0.677-.083a1.255,1.255,0,0,1-.4.6,1,1,0,0,1-.615.189,1.071,1.071,0,0,1-.808-0.338,1.481,1.481,0,0,1-.36-0.974h2.883c0-.078,0-0.136,0-0.175a2.092,2.092,0,0,0-.491-1.483A1.655,1.655,0,0,0,71.91,130.964Zm-1.092,1.647a1.193,1.193,0,0,1,.34-0.807,1.039,1.039,0,0,1,.759-0.3,1,1,0,0,1,.812.378,1.307,1.307,0,0,1,.248.731H70.818Zm6.46,0.263a8.131,8.131,0,0,0-.97-0.3c-0.32-.088-0.513-0.143-0.579-0.168a0.579,0.579,0,0,1-.251-0.174A0.361,0.361,0,0,1,75.4,132a0.434,0.434,0,0,1,.193-0.349,1.075,1.075,0,0,1,.644-0.149,0.929,0.929,0,0,1,.592.167,0.7,0.7,0,0,1,.253.465l0.641-.087a1.386,1.386,0,0,0-.226-0.6,1.085,1.085,0,0,0-.508-0.354,2.224,2.224,0,0,0-.8-0.131,1.989,1.989,0,0,0-.566.078,1.353,1.353,0,0,0-.417.191,1.065,1.065,0,0,0-.322.365,1,1,0,0,0-.118.478,0.954,0.954,0,0,0,.566.886,6.154,6.154,0,0,0,1,.314,2.864,2.864,0,0,1,.67.222,0.4,0.4,0,0,1,.193.349,0.55,0.55,0,0,1-.218.431,1.027,1.027,0,0,1-.67.183,1.061,1.061,0,0,1-.7-0.207,0.9,0.9,0,0,1-.3-0.6l-0.648.1a1.456,1.456,0,0,0,.5.927,1.821,1.821,0,0,0,1.149.312,2,2,0,0,0,.816-0.158,1.23,1.23,0,0,0,.551-0.447,1.1,1.1,0,0,0,.191-0.616,0.958,0.958,0,0,0-.157-0.56A0.989,0.989,0,0,0,77.278,132.874Zm2.957,1.478a0.443,0.443,0,0,1-.224-0.047,0.276,0.276,0,0,1-.113-0.127,1.144,1.144,0,0,1-.035-0.36V131.56h0.659v-0.509H79.864V129.7l-0.652.393v0.956H78.732v0.509h0.481v2.221a2.344,2.344,0,0,0,.08.773,0.632,0.632,0,0,0,.277.3,1.124,1.124,0,0,0,.553.113,2.418,2.418,0,0,0,.5-0.058l-0.095-.578A2.116,2.116,0,0,1,80.236,134.352Zm4.506-1.058v-0.872a3.682,3.682,0,0,0-.033-0.6,1.024,1.024,0,0,0-.2-0.445,1.061,1.061,0,0,0-.455-0.293,2.341,2.341,0,0,0-.8-0.116,2.582,2.582,0,0,0-.877.136,1.265,1.265,0,0,0-.579.389,1.59,1.59,0,0,0-.288.664l0.641,0.087a0.989,0.989,0,0,1,.326-0.573,1.158,1.158,0,0,1,.682-0.161,1.1,1.1,0,0,1,.746.221,0.722,0.722,0,0,1,.186.564q0,0.036,0,.171a6.019,6.019,0,0,1-1.169.225,4.779,4.779,0,0,0-.582.1,1.6,1.6,0,0,0-.471.215,1.067,1.067,0,0,0-.339.376,1.054,1.054,0,0,0-.129.518,1.025,1.025,0,0,0,.342.794,1.4,1.4,0,0,0,.979.311,2.024,2.024,0,0,0,.723-0.127,2.444,2.444,0,0,0,.7-0.436,1.386,1.386,0,0,0,.131.476H84.95a1.452,1.452,0,0,1-.166-0.464A9.233,9.233,0,0,1,84.742,133.294Zm-0.663-.08a1.579,1.579,0,0,1-.106.655,1.018,1.018,0,0,1-.433.452,1.346,1.346,0,0,1-.674.166,0.856,0.856,0,0,1-.581-0.175,0.577,0.577,0,0,1-.107-0.747,0.574,0.574,0,0,1,.258-0.213,2.471,2.471,0,0,1,.572-0.13,4.81,4.81,0,0,0,1.07-.248v0.24Zm4.59-.094a2.056,2.056,0,0,1-.107.754,0.842,0.842,0,0,1-.366.411,1.085,1.085,0,0,1-.553.151,0.814,0.814,0,0,1-.495-0.147,0.687,0.687,0,0,1-.262-0.406,3.815,3.815,0,0,1-.04-0.691v-2.141H86.19v2.392a3.317,3.317,0,0,0,.04.611,1.227,1.227,0,0,0,.2.485,1.051,1.051,0,0,0,.44.329,1.554,1.554,0,0,0,.639.131,1.416,1.416,0,0,0,1.227-.654v0.567h0.586v-3.861H88.67v2.069ZM91.8,131.1a1.6,1.6,0,0,0-.417.541v-0.585h-0.59v3.861h0.655v-2.021a2.545,2.545,0,0,1,.109-0.764,0.7,0.7,0,0,1,.244-0.358,0.625,0.625,0,0,1,.386-0.129,0.935,0.935,0,0,1,.481.142l0.226-.607a1.276,1.276,0,0,0-.674-0.211A0.723,0.723,0,0,0,91.8,131.1Zm5.062,2.2v-0.872a3.7,3.7,0,0,0-.033-0.6,1.026,1.026,0,0,0-.2-0.445,1.061,1.061,0,0,0-.455-0.293,2.34,2.34,0,0,0-.8-0.116,2.582,2.582,0,0,0-.877.136,1.264,1.264,0,0,0-.579.389,1.588,1.588,0,0,0-.288.664l0.641,0.087a0.989,0.989,0,0,1,.326-0.573,1.158,1.158,0,0,1,.683-0.161,1.1,1.1,0,0,1,.746.221,0.723,0.723,0,0,1,.186.564q0,0.036,0,.171a6.019,6.019,0,0,1-1.169.225,4.776,4.776,0,0,0-.582.1,1.6,1.6,0,0,0-.472.215,1.067,1.067,0,0,0-.339.376,1.055,1.055,0,0,0-.129.518,1.025,1.025,0,0,0,.342.794,1.4,1.4,0,0,0,.979.311,2.023,2.023,0,0,0,.723-0.127,2.443,2.443,0,0,0,.7-0.436,1.381,1.381,0,0,0,.131.476h0.684a1.454,1.454,0,0,1-.166-0.464A9.233,9.233,0,0,1,96.86,133.294Zm-0.663-.08a1.579,1.579,0,0,1-.106.655,1.019,1.019,0,0,1-.433.452,1.346,1.346,0,0,1-.674.166,0.856,0.856,0,0,1-.581-0.175,0.578,0.578,0,0,1-.107-0.747,0.575,0.575,0,0,1,.258-0.213,2.469,2.469,0,0,1,.572-0.13,4.81,4.81,0,0,0,1.07-.248v0.24Zm5.027-1.8a1.016,1.016,0,0,0-.439-0.329,1.623,1.623,0,0,0-.642-0.125,1.391,1.391,0,0,0-1.231.636v-0.549h-0.59v3.861h0.655V132.8a1.309,1.309,0,0,1,.3-1.007,1.062,1.062,0,0,1,.722-0.265,0.862,0.862,0,0,1,.457.118,0.629,0.629,0,0,1,.271.316,1.759,1.759,0,0,1,.077.6v2.349h0.655v-2.374a3.779,3.779,0,0,0-.036-0.636A1.268,1.268,0,0,0,101.225,131.418Zm3.124,2.909a2.12,2.12,0,0,1-.288.025,0.442,0.442,0,0,1-.224-0.047,0.277,0.277,0,0,1-.113-0.127,1.153,1.153,0,0,1-.034-0.36V131.56h0.659v-0.509H103.69V129.7l-0.652.393v0.956h-0.481v0.509h0.481v2.221a2.352,2.352,0,0,0,.08.773,0.631,0.631,0,0,0,.277.3,1.121,1.121,0,0,0,.553.113,2.41,2.41,0,0,0,.5-0.058ZM72.168,39.414l-0.943-4.605-0.692.141,1.07,5.222,3.267-.668-0.126-.616ZM78.4,35.59a1.739,1.739,0,0,0-1.357-.361,1.8,1.8,0,0,0-1.155.572,1.988,1.988,0,0,0-.4,1.649,2.074,2.074,0,0,0,.677,1.427,1.74,1.74,0,0,0,1.366.359,1.9,1.9,0,0,0,.9-0.347,1.583,1.583,0,0,0,.567-0.737,2.553,2.553,0,0,0,.081-1.191A1.986,1.986,0,0,0,78.4,35.59Zm-0.174,2.645a1.081,1.081,0,0,1-1.616.2,2.063,2.063,0,0,1-.267-2.2,1.08,1.08,0,0,1,1.614-.193,1.592,1.592,0,0,1,.454,1.038A1.681,1.681,0,0,1,78.222,38.235Zm5.18-2.516a1.273,1.273,0,0,0-.223-0.475,1.016,1.016,0,0,0-.451-0.311,1.621,1.621,0,0,0-.647-0.1,1.39,1.39,0,0,0-1.2.685l-0.022-.548-0.589.024,0.154,3.858,0.655-.027-0.084-2.107a1.306,1.306,0,0,1,.264-1.018,1.06,1.06,0,0,1,.711-0.294,0.867,0.867,0,0,1,.461.1,0.629,0.629,0,0,1,.284.305,1.763,1.763,0,0,1,.1.594L82.9,38.751l0.655-.026-0.095-2.372A3.726,3.726,0,0,0,83.4,35.719Zm4.116-.311a1.289,1.289,0,0,0-1.045-.573,1.547,1.547,0,0,0-.872.216,1.514,1.514,0,0,0-.607.7,2.732,2.732,0,0,0-.235,1.04,2.461,2.461,0,0,0,.171,1.057,1.675,1.675,0,0,0,.572.734,1.518,1.518,0,0,0,.839.288,1.2,1.2,0,0,0,1.1-.531l-0.019.487,0.607,0.024,0.214-5.325L87.595,33.5Zm-0.351,2.6a0.927,0.927,0,0,1-.743.321,0.946,0.946,0,0,1-.724-0.4,1.676,1.676,0,0,1-.268-1.12,1.757,1.757,0,0,1,.338-1.111,0.91,0.91,0,0,1,.743-0.327,0.942,0.942,0,0,1,.738.4,1.819,1.819,0,0,1,.259,1.175A1.619,1.619,0,0,1,87.167,38.012Zm4.267-2.787a1.8,1.8,0,0,0-1.259.28,1.989,1.989,0,0,0-.784,1.505,2.076,2.076,0,0,0,.317,1.547,1.737,1.737,0,0,0,1.24.674,1.9,1.9,0,0,0,.956-0.122,1.583,1.583,0,0,0,.727-0.581,2.558,2.558,0,0,0,.363-1.137,1.984,1.984,0,0,0-.329-1.492A1.735,1.735,0,0,0,91.435,35.225Zm0.887,2.118a1.682,1.682,0,0,1-.457,1.083,1.08,1.08,0,0,1-1.616-.193,2.063,2.063,0,0,1,.267-2.2,1.081,1.081,0,0,1,1.613.2A1.592,1.592,0,0,1,92.322,37.343Zm5.073-.636a1.007,1.007,0,0,0-.364-0.41,1.615,1.615,0,0,0-.6-0.252,1.391,1.391,0,0,0-1.333.377l0.11-.537-0.578-.118-0.775,3.782,0.642,0.132,0.423-2.066a1.309,1.309,0,0,1,.5-0.926,1.065,1.065,0,0,1,.762-0.116,0.868,0.868,0,0,1,.424.207,0.633,0.633,0,0,1,.2.364,1.761,1.761,0,0,1-.046.6l-0.471,2.3,0.642,0.131,0.477-2.325a3.759,3.759,0,0,0,.092-0.631A1.261,1.261,0,0,0,97.394,36.707ZM84.079,68.681A17.339,17.339,0,0,0,66.742,85.39H46.494v1.241H66.742A17.352,17.352,0,0,0,96.489,98.119H93.471a1.764,1.764,0,0,1-1.32-.713l-2.572-2.911a10.983,10.983,0,0,1-8.858,4.331A7.472,7.472,0,0,1,75.4,96.843a6.714,6.714,0,0,1-2.113-5.087A6.79,6.79,0,0,1,75.25,86.73a10.9,10.9,0,0,1,5.1-2.634,21.708,21.708,0,0,1-2.09-2.951,6.6,6.6,0,0,1-.9-3.359,5.325,5.325,0,0,1,1.888-4.276,8.421,8.421,0,0,1,8.915-.528A7.835,7.835,0,0,1,90.874,75.6a0.954,0.954,0,0,1,.145.739,1.039,1.039,0,0,1-.516.645,1.068,1.068,0,0,1-1.488-.326,8.173,8.173,0,0,0-2.09-1.924,5.787,5.787,0,0,0-3.016-.663,4.763,4.763,0,0,0-3.181,1.094,3.284,3.284,0,0,0-1.249,2.623c0,1.392.86,3.059,2.558,4.953l7.377,8.34,4.042-6.087a1.052,1.052,0,0,1,1.486-.259,0.986,0.986,0,0,1,.477.663,1.067,1.067,0,0,1-.254.845l-4.3,6.43a0.873,0.873,0,0,0,.058.073l2.556,2.907a0.777,0.777,0,0,0,.488.352h4.286A17.32,17.32,0,0,0,84.079,68.681ZM101.465,85.39v1.241H122.5V85.39H101.465ZM68.714,39.1a1.009,1.009,0,1,1-1.009-1.007A1.008,1.008,0,0,1,68.714,39.1Zm32.189,0a1.009,1.009,0,1,1-1.009-1.007A1.008,1.008,0,0,1,100.9,39.1ZM61.3,133.025a1.009,1.009,0,1,1-1.009-1.007A1.009,1.009,0,0,1,61.3,133.025Zm48,0a1.009,1.009,0,1,1-1.009-1.007A1.009,1.009,0,0,1,109.3,133.025Z"/>
</svg>
