<svg id="LOGOS" xmlns="http://www.w3.org/2000/svg" width="170" height="170" viewBox="0 0 170 170">
  <title>7Mesa de trabajo 1</title>
  <g>
    <g>
      <g>
        <g>
          <text transform="translate(79.9015 133.3396) rotate(-174.1101)" style="font-size: 6.130114555358887px;fill: #231f20;font-family: JosefinSans-Regular, Josefin Sans">P</text>
          <text transform="matrix(-0.974, -0.2265, 0.2265, -0.974, 73.3536, 132.4905)" style="font-size: 6.130114555358887px;fill: #231f20;font-family: JosefinSans-Regular, Josefin Sans">R</text>
          <text transform="translate(66.7042 130.7864) rotate(-158.964)" style="font-size: 6.130114555358887px;fill: #231f20;font-family: JosefinSans-Regular, Josefin Sans">O</text>
          <text transform="translate(59.1544 127.6072) rotate(-151.1402)" style="font-size: 6.130114555358887px;fill: #231f20;font-family: JosefinSans-Regular, Josefin Sans">F</text>
          <text transform="translate(53.503 124.2971) rotate(-144.0241)" style="font-size: 6.130114555358887px;fill: #231f20;font-family: JosefinSans-Regular, Josefin Sans">E</text>
          <text transform="translate(48.0094 120.0691) rotate(-136.9636)" style="font-size: 6.130114555358887px;fill: #231f20;font-family: JosefinSans-Regular, Josefin Sans">S</text>
          <text transform="translate(43.3736 115.5007) rotate(-130.13)" style="font-size: 6.130114555358887px;fill: #231f20;font-family: JosefinSans-Regular, Josefin Sans">S</text>
          <text transform="matrix(-0.5617, -0.8274, 0.8274, -0.5617, 39.3297, 110.3977)" style="font-size: 6.130114555358887px;fill: #231f20;font-family: JosefinSans-Regular, Josefin Sans">I</text>
          <text transform="translate(36.6852 106.3694) rotate(-117.2953)" style="font-size: 6.130114555358887px;fill: #231f20;font-family: JosefinSans-Regular, Josefin Sans">O</text>
          <text transform="translate(33.1358 99.0017) rotate(-108.6743)" style="font-size: 6.130114555358887px;fill: #231f20;font-family: JosefinSans-Regular, Josefin Sans">N</text>
          <text transform="translate(30.7794 91.2825) rotate(-100.5325)" style="font-size: 6.130114555358887px;fill: #231f20;font-family: JosefinSans-Regular, Josefin Sans">A</text>
          <text transform="matrix(-0.0554, -0.9985, 0.9985, -0.0554, 29.6607, 84.1477)" style="font-size: 6.130114555358887px;fill: #231f20;font-family: JosefinSans-Regular, Josefin Sans">L</text>
          <text transform="translate(29.4918 77.3894) rotate(-87.1217)" style="font-size: 6.130114555358887px;fill: #231f20;font-family: JosefinSans-Regular, Josefin Sans"> </text>
          <text transform="translate(29.7901 72.5041) rotate(-79.7379)" style="font-size: 6.130114555358887px;fill: #231f20;font-family: JosefinSans-Regular, Josefin Sans">W</text>
          <text transform="translate(31.6978 63.6262) rotate(-71.2378)" style="font-size: 6.130114555358887px;fill: #231f20;font-family: JosefinSans-Regular, Josefin Sans">E</text>
          <text transform="matrix(0.4457, -0.8952, 0.8952, 0.4457, 34.0987, 57.1111)" style="font-size: 6.130114555358887px;fill: #231f20;font-family: JosefinSans-Regular, Josefin Sans">D</text>
          <text transform="translate(37.6378 50.4612) rotate(-55.5707)" style="font-size: 6.130114555358887px;fill: #231f20;font-family: JosefinSans-Regular, Josefin Sans">D</text>
          <text transform="matrix(0.6553, -0.7554, 0.7554, 0.6553, 42.1139, 44.3655)" style="font-size: 6.130114555358887px;fill: #231f20;font-family: JosefinSans-Regular, Josefin Sans">I</text>
          <text transform="matrix(0.7398, -0.6729, 0.6729, 0.7398, 45.3311, 40.7756)" style="font-size: 6.130114555358887px;fill: #231f20;font-family: JosefinSans-Regular, Josefin Sans">N</text>
          <text transform="translate(51.4483 35.5207) rotate(-34.0855)" style="font-size: 6.130114555358887px;fill: #231f20;font-family: JosefinSans-Regular, Josefin Sans">G</text>
          <text transform="translate(57.8355 31.4949) rotate(-27.5125)" style="font-size: 6.130114555358887px;fill: #231f20;font-family: JosefinSans-Regular, Josefin Sans"> </text>
          <text transform="translate(62.2071 29.342) rotate(-21.4318)" style="font-size: 6.130114555358887px;fill: #231f20;font-family: JosefinSans-Regular, Josefin Sans">P</text>
          <text transform="translate(68.4166 27.0959) rotate(-14.3174)" style="font-size: 6.130114555358887px;fill: #231f20;font-family: JosefinSans-Regular, Josefin Sans">L</text>
          <text transform="matrix(0.9927, -0.1202, 0.1202, 0.9927, 74.9962, 25.5979)" style="font-size: 6.130114555358887px;fill: #231f20;font-family: JosefinSans-Regular, Josefin Sans">A</text>
          <text transform="translate(82.1842 24.905) rotate(1.0654)" style="font-size: 6.130114555358887px;fill: #231f20;font-family: JosefinSans-Regular, Josefin Sans">N</text>
          <text transform="translate(90.2286 25.2693) rotate(9.5199)" style="font-size: 6.130114555358887px;fill: #231f20;font-family: JosefinSans-Regular, Josefin Sans">N</text>
          <text transform="translate(98.1451 26.8435) rotate(17.4989)" style="font-size: 6.130114555358887px;fill: #231f20;font-family: JosefinSans-Regular, Josefin Sans">E</text>
          <text transform="translate(104.6808 29.0998) rotate(24.8749)" style="font-size: 6.130114555358887px;fill: #231f20;font-family: JosefinSans-Regular, Josefin Sans">R</text>
          <path d="M118.9649,108.7905a.5029.5029,0,0,0-.0755-.5852l.0183.003a.5929.5929,0,0,0,.027.5784Z" style="fill-rule: evenodd"/>
        </g>
        <g>
          <g>
            <g>
              <g>
                <path d="M137.2953,96.3987a28.0814,28.0814,0,0,0-9.4179,10.9766,48.1049,48.1049,0,0,1-6.1651,10.5634s5.9575-4.3917,7.4362-5.64C132.5491,109.4276,137.9323,103.5561,137.2953,96.3987Z" style="fill: #fff"/>
                <path d="M119.807,119.711l1.68-1.9647a48.4294,48.4294,0,0,0,6.1205-10.4933,28.6475,28.6475,0,0,1,9.529-11.1043l.41-.26.0431.4835c.6863,7.7116-5.5413,13.8647-8.2507,16.1522-1.4692,1.24-7.208,5.4726-7.4516,5.6522Zm17.2286-22.7765a28.0175,28.0175,0,0,0-8.8889,10.5632,58.1653,58.1653,0,0,1-5,9.01c1.8747-1.394,4.8382-3.6139,5.8107-4.4349C131.5358,109.8958,137.3857,104.1329,137.0356,96.9345Z" style="fill: #231f20"/>
              </g>
              <g>
                <path d="M127.8774,107.3753a28.0814,28.0814,0,0,1,9.4179-10.9766s-8.8581,16.46-15.583,21.54A48.1,48.1,0,0,0,127.8774,107.3753Z" style="fill: #fff"/>
                <path d="M119.7154,119.8181l1.772-2.0718a48.4294,48.4294,0,0,0,6.1205-10.4933h0a28.6475,28.6475,0,0,1,9.529-11.1043l.9541-.6042-.5351.9945c-.363.6744-8.9657,16.575-15.6653,21.6359Zm8.4313-12.32a59.9435,59.9435,0,0,1-4.5932,8.4109,68.1925,68.1925,0,0,0,8.2233-10.805c2.0646-3.21,3.7574-6.1532,4.6261-7.7023a27.83,27.83,0,0,0-8.2562,10.0964Z" style="fill: #231f20"/>
              </g>
            </g>
            <g>
              <g>
                <path d="M135.12,114.1864a20.8011,20.8011,0,0,0-8.4407,2.5049,35.8372,35.8372,0,0,1-6.742,3.1386s4.42-.4523,5.5745-.6348C128.1665,118.7754,132.8461,117.5223,135.12,114.1864Z" style="fill: #fff"/>
                <path d="M119.9678,120.1241l-.1146-.5779a36.0311,36.0311,0,0,0,6.68-3.1117,20.883,20.883,0,0,1,8.5752-2.5439l.5892-.0249-.3322.4873c-2.4714,3.6251-7.6813,4.7983-9.8065,5.1343C124.4094,119.6691,120.1486,120.1057,119.9678,120.1241Zm14.5212-5.5864a20.668,20.668,0,0,0-7.6625,2.41,46.1,46.1,0,0,1-4.6593,2.3485c1.27-.1379,2.7153-.3017,3.2987-.3939C127.4085,118.5955,132.02,117.5693,134.489,114.5377Z" style="fill: #231f20"/>
              </g>
              <g>
                <path d="M134.0737,114.2881l1.0467-.1017s-12.6793,5.0953-14.8693,5.6111l-.3134.0324a35.8372,35.8372,0,0,0,6.742-3.1386A20.7231,20.7231,0,0,1,134.0737,114.2881Z" style="fill: #fff"/>
                <path d="M119.9675,120.1241l-.1143-.5779a36.0311,36.0311,0,0,0,6.68-3.1117,21.0331,21.0331,0,0,1,7.5031-2.44l.0093-.0012,3.0977-.3009-1.912.7683c-.5186.2084-12.7253,5.11-14.912,5.6246l-.0371.0063Zm12.8253-5.3283a19.8224,19.8224,0,0,0-5.9663,2.1524q-.5392.3085-1.0431.5815C128.2443,116.5923,130.951,115.5266,132.7928,114.7958Z" style="fill: #231f20"/>
              </g>
            </g>
            <g>
              <g>
                <path d="M116.44,123.8548s4.4044-8.5813,3.0143-11.7863c-.7911-1.8241-.933-1.907-6.0469-6.442,0,0,1.6236,1.83,1.5033,3.3979a6.792,6.792,0,0,0,1.4881,5.0984C117.6148,115.5139,118.2163,119.2962,116.44,123.8548Z" style="fill: #fff"/>
                <path d="M116.7032,123.99l-.5389-.2426c1.6531-4.2425,1.24-8.0248.0117-9.43a7.0508,7.0508,0,0,1-1.56-5.316c.1095-1.4262-1.4142-3.1614-1.43-3.1789l.4177-.4177.5451.4832c4.609,4.0857,4.7889,4.2453,5.5769,6.0625C121.1551,115.2465,116.8857,123.6344,116.7032,123.99Zm-1.88-16.7122a3.7171,3.7171,0,0,1,.3825,1.7693,6.5659,6.5659,0,0,0,1.4159,4.8812c.9913,1.1339,1.5146,3.5016,1.0735,6.4217.1668-.4128.3349-.8472.4972-1.293,1.1854-3.2558,1.5279-5.6317.9906-6.8707C118.5088,110.6319,118.378,110.4358,114.8232,107.2777Z" style="fill: #231f20"/>
              </g>
              <g>
                <g>
                  <polygon points="116.735 123.04 116.735 123.039 116.738 123.032 116.735 123.04" style="fill: #fff"/>
                  <polygon points="116.442 125.104 116.44 122.97 116.471 122.906 116.761 123.039 117.031 123.04 116.763 123.04 117.022 123.115 116.442 125.104" style="fill: #231f20"/>
                </g>
                <g>
                  <path d="M113.7691,105.9472a38.0646,38.0646,0,0,1,4.4585,6.1225c1.2827,2.3985-.64,8.3234-1.3416,10.4985,1.2091-3.9742.6123-7.1875-.4872-8.4454a6.792,6.792,0,0,1-1.4881-5.0984c.12-1.5679-1.5033-3.3979-1.5033-3.3979Z" style="fill: #fff"/>
                  <path d="M117.1678,122.6593l-.5649-.1771c1.1374-3.7383.6461-6.9369-.4269-8.1645a7.0508,7.0508,0,0,1-1.56-5.316c.1095-1.4262-1.4142-3.1614-1.43-3.1789l.4177-.4177.3993.3609c.2888.3728.619.7679.9684,1.1861a28.4112,28.4112,0,0,1,3.5171,4.9781c1.3355,2.4969-.5864,8.4529-1.31,10.6951Zm-2.0721-14.6314a3.0538,3.0538,0,0,1,.11,1.0191,6.5659,6.5659,0,0,0,1.4159,4.8812,6.7075,6.7075,0,0,1,1.2244,4.1244c.9653-4.2645.3556-5.404.1206-5.8434A25.2877,25.2877,0,0,0,115.0957,108.0279Z" style="fill: #231f20"/>
                </g>
              </g>
            </g>
            <g>
              <g>
                <path d="M114.45,125.8674s10.22-8.8481,10.0853-13.7592c-.0767-2.7953-.2182-2.9784-4.5072-11.5933,0,0,1.1579,3.2436.1817,5.2224a9.5583,9.5583,0,0,0-.7269,7.43C120.3392,115.623,119.1458,120.8689,114.45,125.8674Z" style="fill: #fff"/>
                <path d="M114.6438,126.0909l-.4094-.4263c3.2855-3.4972,6.1437-9.0316,4.9691-12.4a9.8044,9.8044,0,0,1,.7411-7.6583c.9085-1.8419-.184-4.9609-.1952-4.9921l.5437-.2314.4559.9157c3.856,7.7415,4.0064,8.0437,4.0823,10.8015C124.9684,117.094,115.0654,125.7261,114.6438,126.0909Zm6.2-23.2736a5.6629,5.6629,0,0,1-.3688,3.0509,9.2281,9.2281,0,0,0-.7129,7.2015c.7482,2.1459.03,5.8808-2.5211,9.7535,2.9717-2.9851,7.0816-7.675,6.9983-10.7069C124.1716,109.6415,124.036,109.2337,120.8441,102.8173Z" style="fill: #231f20"/>
              </g>
              <g>
                <path d="M122.8554,110.8827c.3786,4.5923-2.9279,9.3691-5.7188,12.4672-1.5295,1.5156-2.6865,2.5174-2.6865,2.5174,4.6957-4.9984,5.8891-10.2443,5.0329-12.7a9.5583,9.5583,0,0,1,.7269-7.43c.9762-1.9788-.1817-5.2224-.1817-5.2224.5342,1.0731,1.0041,2.0151,1.4174,2.8478A37.85,37.85,0,0,1,122.8554,110.8827Z" style="fill: #fff"/>
                <path d="M114.6438,126.0909l-.4094-.4263c3.2855-3.4972,6.1437-9.0316,4.9691-12.4a9.8044,9.8044,0,0,1,.7411-7.6583c.9085-1.8419-.184-4.9609-.1952-4.9921l.5437-.2314.4532.91c.3515.7059.672,1.3493.9644,1.9383l.0188.0481a38.0613,38.0613,0,0,1,1.4209,7.5789h0c.4113,4.9885-3.4536,10.0918-5.794,12.69C115.8258,125.0653,114.6554,126.0809,114.6438,126.0909Zm6.2-23.2734a5.6621,5.6621,0,0,1-.3688,3.0507,9.2281,9.2281,0,0,0-.7129,7.2015c.739,2.1192.0475,5.7886-2.4271,9.61,2.2792-2.6268,5.5955-7.2814,5.2252-11.7725h0a37.4544,37.4544,0,0,0-1.3915-7.4357Q121.0121,103.1551,120.8441,102.8175Z" style="fill: #231f20"/>
              </g>
            </g>
          </g>
          <g>
            <g>
              <path d="M99.633,131.3342a8.5934,8.5934,0,0,0-5.0981-1.5392l.572.7785a4.57,4.57,0,0,0-3.283.0953l1.1979.34a6.5273,6.5273,0,0,0-2.9644.9148s1.0134-.0245,1.1292.1846a11.0965,11.0965,0,0,0-3.8038,1.8822,13.0051,13.0051,0,0,0,3.2082.74s-.124.7853-.4913.7537a2.7781,2.7781,0,0,0,2.0263-.3084l-.4079.742s2.1576-.5863,2.5259-1.2563c0,0-.3071,1.5381-.7049,1.7019a13.5247,13.5247,0,0,0,2.6182-1.9641s-.7153,1.7206-.4711,1.4165S98.7352,133.5659,99.633,131.3342Z" style="fill: #fff"/>
              <path d="M93.6519,136.6366l-.2668-.5263.06-.0366a2,2,0,0,0,.2813-.6123,9.7963,9.7963,0,0,1-1.9308.7416l-.6728.1828.3305-.6011a3.6656,3.6656,0,0,1-1.42-.0125l.0919-.5832a.0479.0479,0,0,0-.0279.0052.41.41,0,0,0,.1043-.1687,17.4242,17.4242,0,0,1-2.9138-.7552l-.5387-.1829.459-.3361a12.8869,12.8869,0,0,1,2.7-1.5285l-.7587.0179.7288-.5533a4.8994,4.8994,0,0,1,1.7691-.761l-.8507-.241.9373-.2986a6.124,6.124,0,0,1,2.6432-.3065l-.3838-.5224.5084-.0568a8.7855,8.7855,0,0,1,5.3028,1.5924l.19.1352-.0869.216a12.2712,12.2712,0,0,1-3.5917,4.2109c-.1779.148-.3619.3012-.3994.3456a.3207.3207,0,0,1-.4261.1039c-.1568-.0931-.2232-.1618-.066-.6418-.63.4669-1.3674.929-1.6652,1.112A.51.51,0,0,1,93.6519,136.6366ZM94.91,132.835l-.3763,1.8841c-.0444.2225-.1082.5017-.1928.7786a7.2229,7.2229,0,0,0,1.5567-1.2413l.5326.2562c-.0562.1351-.1141.2777-.17.4177a11.4933,11.4933,0,0,0,3.0022-3.4858,8.5839,8.5839,0,0,0-4.1654-1.3836l.9948,1.3543-1.1212-.5787a3.6307,3.6307,0,0,0-1.97-.1416l1.7763.5034-1.7379.1054a7.8206,7.8206,0,0,0-1.96.4119c.2725.0795.3343.1914.3661.2488l.1929.3484-.3895.0844a10.5667,10.5667,0,0,0-3.21,1.4951,9.2642,9.2642,0,0,0,2.4861.5493l.4259-.0967-.0682.4315a2.1556,2.1556,0,0,1-.1357.48,1.94,1.94,0,0,0,1.1985-.3163l1.1173-.8561-.7318,1.3314a3.8186,3.8186,0,0,0,1.6532-.8972Z" style="fill: #231f20"/>
            </g>
            <g>
              <path d="M87.3827,133.99l.07-.05,12.18-2.6056c-.8978,2.2317-3.7027,4.1771-3.9468,4.4812s.4711-1.4164.4711-1.4164a13.5277,13.5277,0,0,1-2.6182,1.964c.3978-.1638.7049-1.7019.7049-1.7019-.3683.67-2.5259,1.2563-2.5259,1.2563l.4079-.742a2.7781,2.7781,0,0,1-2.0263.3084c.3673.0316.4913-.7537.4913-.7537A13.0061,13.0061,0,0,1,87.3827,133.99Z" style="fill: #fff"/>
              <path d="M93.6519,136.6366l-.2668-.5263.06-.0366a2,2,0,0,0,.2813-.6123,9.7963,9.7963,0,0,1-1.9308.7416l-.6728.1828.3305-.6011a3.6656,3.6656,0,0,1-1.42-.0125l.0919-.5832a.0479.0479,0,0,0-.0279.0052.41.41,0,0,0,.1043-.1687,17.4242,17.4242,0,0,1-2.9138-.7552l-.5386-.1829.5811-.424,12.785-2.7349-.2077.5162a12.2712,12.2712,0,0,1-3.5917,4.2109c-.1779.148-.3619.3012-.3994.3456a.3207.3207,0,0,1-.4261.1039c-.1568-.0931-.2232-.1618-.066-.6418-.63.4669-1.3674.929-1.6652,1.112A.51.51,0,0,1,93.6519,136.6366ZM94.91,132.835l-.3763,1.8841c-.0444.2225-.1082.5017-.1928.7786a7.2229,7.2229,0,0,0,1.5567-1.2413l.5326.2562c-.0562.1351-.1141.2777-.17.4177a12.327,12.327,0,0,0,2.8487-3.1815l-10.636,2.2753a7.3231,7.3231,0,0,0,2.0521.4175l.4259-.0967-.0682.4315a2.1556,2.1556,0,0,1-.1357.48,1.94,1.94,0,0,0,1.1985-.3163l1.1173-.8561-.7318,1.3314a3.8186,3.8186,0,0,0,1.6532-.8972Z" style="fill: #231f20"/>
            </g>
          </g>
          <g>
            <g>
              <path d="M113.3089,130.6582s-.2819,4.8734,2.1963,7.98l.55-1.3967s.17,1.9838,2.8434,4.2392l-.5452-1.8567a10.1456,10.1456,0,0,0,3.6576,3.1417s-.8713-1.3127-.6921-1.6381a17.2464,17.2464,0,0,0,5.6251,3.445s-.99-4.139-1.6828-4.8326c0,0,1.1356-.4869,1.3982.0222a4.3184,4.3184,0,0,0-2.0834-2.41l1.3138-.0778s-2.5576-2.3524-3.7437-2.2823c0,0,2.2774-.8693,2.8222-.4817,0,0-3.77-1.8757-4.7511-1.8177,0,0,2.8553-.4838,2.2532-.5531S116.9876,129.9913,113.3089,130.6582Z" style="fill: #fff"/>
              <path d="M127.3645,145.057l-.5289-.2094a19.247,19.247,0,0,1-4.91-2.7937c.0983.1784.2119.367.332.5481l.506.7629-.8568-.3223a8.2565,8.2565,0,0,1-2.8661-2.1291l.4191,1.4272-.7518-.6341a8.9222,8.9222,0,0,1-2.7039-3.5282l-.4115,1.0442-.319-.4c-2.52-3.1587-2.2721-7.9778-2.26-8.1815l.0134-.2325.2292-.0414c2.99-.5435,6.6652.6559,8.4309,1.2318.3714.121.7223.2354.8174.2464.3137.0362.3437.2512.3454.3161.0058.2167.0087.3281-1.2058.5729a36.1,36.1,0,0,1,3.3508,1.4586.6474.6474,0,0,1,.1452.076l-.3033.506-.1071-.053a4.0959,4.0959,0,0,0-1.56.2395,14.0635,14.0635,0,0,1,2.9208,2.0949l.5132.4722-1.0575.0624a5.3062,5.3062,0,0,1,1.3929,2.0737l-.5424.2329c-.0547-.106-.3555-.0883-.6692-.0054a25.42,25.42,0,0,1,1.5047,4.6115Zm-6.1121-4.4214.2787.2852a16.8073,16.8073,0,0,0,4.9852,3.155,15.6987,15.6987,0,0,0-1.464-4.1268l-.3087-.309.4014-.1722a2.988,2.988,0,0,1,.9483-.23,3.3894,3.3894,0,0,0-1.62-1.6083l-1.32-.49,1.9978-.1181c-.9866-.8243-2.3451-1.7712-2.9876-1.7342l-1.9183.1134,1.7954-.6852a11.5074,11.5074,0,0,1,1.6338-.4942,13.3226,13.3226,0,0,0-3.44-1.2335l-.0669-.587c.44-.0745.9186-.163,1.32-.2443-1.6782-.5473-5.0957-1.657-7.89-1.2458a13.33,13.33,0,0,0,1.8281,7.1222l.8174-2.074.1075,1.2572a6.2685,6.2685,0,0,0,1.9636,3.3225l-.7351-2.5036,1.0154,1.4164a11.6159,11.6159,0,0,0,2.6507,2.59c-.2383-.4924-.3006-.8463-.185-1.0563Z" style="fill: #231f20"/>
            </g>
            <g>
              <path d="M126.9444,144.5724c-.0419-.0166-.0825-.0336-.1239-.05l-13.5116-13.8638c3.6787-.6669,8.56,1.4119,9.1619,1.4812s-2.2532.5531-2.2532.5531c.981-.058,4.7511,1.8177,4.7511,1.8177-.5448-.3876-2.8222.4817-2.8222.4817,1.1861-.07,3.7437,2.2823,3.7437,2.2823l-1.3138.0778a4.3185,4.3185,0,0,1,2.0834,2.41c-.2626-.5093-1.3982-.0223-1.3982-.0223C125.9546,140.4334,126.9444,144.5724,126.9444,144.5724Z" style="fill: #fff"/>
              <path d="M127.3644,145.0562l-.7122-.2826-13.9435-14.3074.5475-.0992c2.9915-.5419,6.6656.6561,8.4316,1.232.3712.1211.7217.2354.8168.2464.3136.0362.3436.2512.3453.3161.0058.2167.0087.3281-1.2058.5729a36.1,36.1,0,0,1,3.3508,1.4586.6474.6474,0,0,1,.1452.076l-.3033.506-.1071-.053a4.0959,4.0959,0,0,0-1.56.2395,14.0635,14.0635,0,0,1,2.9208,2.0949l.5132.4722-1.0575.0624a5.3062,5.3062,0,0,1,1.3929,2.0737l-.5424.2329c-.0547-.106-.3555-.0883-.6692-.0054a25.42,25.42,0,0,1,1.5047,4.6115ZM113.9278,130.869,126.4126,143.68a13.9179,13.9179,0,0,0-1.36-3.7307l-.3087-.309.4014-.1722a2.9888,2.9888,0,0,1,.9483-.23,3.3894,3.3894,0,0,0-1.62-1.6083l-1.32-.49,1.9978-.1181c-.9866-.8243-2.3451-1.7712-2.9876-1.7342l-1.9183.1134,1.7954-.6852a11.5074,11.5074,0,0,1,1.6338-.4942,13.3217,13.3217,0,0,0-3.44-1.2335l-.0668-.587c.44-.0745.9187-.163,1.32-.2443C119.8752,131.63,116.6565,130.5866,113.9278,130.869Z" style="fill: #231f20"/>
            </g>
          </g>
          <g>
            <g>
              <path d="M115.0689,127.813a8.4,8.4,0,0,0,6.3937-8.1961,1.0574,1.0574,0,0,0-.5-1.0492c-.6237-.3918-.3025-1.23-.4328-2.0733s-.89-2.6034-5.5-2.3046-6.77,2.8853-7.315,3.8329S101.0066,129.3838,115.0689,127.813Z" style="fill: #fff"/>
              <path d="M112.422,128.2688c-3.0912,0-5.1531-.7631-6.1454-2.2794-.5589-.8544-1.565-3.3515,1.1606-8.0768l.0216-.0372c.2133-.3713,2.2378-3.6365,7.5522-3.981,4.6667-.301,5.6439,1.471,5.8114,2.5548a4.9278,4.9278,0,0,1,.0352.8577c-.01.5332-.0035.8432.2625,1.01a1.3486,1.3486,0,0,1,.6378,1.3254,8.7553,8.7553,0,0,1-6.6285,8.46l-.0277.0044A24.2859,24.2859,0,0,1,112.422,128.2688Zm3.6155-13.8174c-.3071,0-.6355.0108-.9882.0337-5.0067.3244-6.88,3.3421-7.0775,3.6851l-.0219.0379c-.8532,1.48-2.6762,5.1676-1.1779,7.4573,1.1221,1.7148,3.8976,2.3391,8.2493,1.8552a8.0328,8.0328,0,0,0,6.1455-7.9112l.005-.0472a.75.75,0,0,0-.3666-.7438c-.5624-.3535-.5506-.9482-.5393-1.5233a4.4032,4.4032,0,0,0-.0284-.7556C120.1124,115.73,119.3835,114.4514,116.0375,114.4514Z" style="fill: #231f20"/>
            </g>
            <g>
              <path d="M110.7776,127.0114s6.7576,6.8035,7.86,6.4079,1.263-1.5467,2.1175-2.0916,2.3654-1.792,2.0814-3.1-1.2365-4.3146-2.7093-4.6128S114.6747,124.0441,110.7776,127.0114Z" style="fill: #fff"/>
              <path d="M118.52,133.7407c-.4067,0-1.3751-.4019-4.4243-3.1575-1.8121-1.6378-3.5112-3.3462-3.5281-3.3633l-.2379-.2395.2685-.2044c3.8588-2.9379,7.93-3.7864,9.5883-3.4508,1.92.3888,2.8409,4.3854,2.94,4.84.3542,1.6316-1.6031,3.0242-2.2114,3.4122a2.8831,2.8831,0,0,0-.7656.8534,2.9094,2.9094,0,0,1-1.4111,1.2673A.5882.5882,0,0,1,118.52,133.7407Zm-7.2919-6.6965c3.0156,3.0125,6.541,6.0985,7.2758,6.0985a.216.216,0,0,0,.0391-.0033,2.3716,2.3716,0,0,0,1.1184-1.0439,3.3692,3.3692,0,0,1,.9349-1.0172c.375-.2393,2.2315-1.4977,1.9514-2.7877-.3546-1.6329-1.3073-4.1482-2.4788-4.3855C118.602,123.6094,114.82,124.4108,111.2281,127.0442Z" style="fill: #231f20"/>
            </g>
            <g>
              <path d="M109.6005,120.8479s5.9156-5.4566,2.2981-7.0005-5.8419-1.7636-7.7793-1.4645-2.4536.1161-3.0622,1.5242-.3653,2.4969-2.2318,4.5122-2.4227,6.1937-.95,6.0039S103.2386,125.36,109.6005,120.8479Z" style="fill: #fff"/>
              <path d="M97.7785,124.7254a.8988.8988,0,0,1-.8185-.5369c-.6061-1.1754.0843-4.2816,1.6482-5.97a6.526,6.526,0,0,0,1.7748-3.2076,8.8114,8.8114,0,0,1,.4024-1.2209c.5789-1.3392,1.1734-1.4167,2.4759-1.5863.2395-.0309.5086-.066.8129-.113,2.2955-.3545,4.6709.0892,7.9406,1.4847a2.003,2.003,0,0,1,1.3207,1.5131c.4,2.3174-3.3736,5.8288-3.5343,5.9772l-.0295.0238c-5.2937,3.7541-8.9209,3.6629-10.87,3.6147a7.3235,7.3235,0,0,0-.9889.0126A1.0528,1.0528,0,0,1,97.7785,124.7254Zm7.81-12.1591a9.2772,9.2772,0,0,0-1.4238.1091c-.31.0477-.5831.0834-.8269.1152-1.2633.1643-1.5635.2034-2.0089,1.2339a8.2294,8.2294,0,0,0-.3749,1.1424,7.1083,7.1083,0,0,1-1.9113,3.4537c-1.467,1.5837-2.0077,4.4217-1.5565,5.2969.1094.2123.2336.2271.3513.2123a7.5153,7.5153,0,0,1,1.0793-.0174c1.8782.0472,5.3724.1343,10.4972-3.4946,1.039-.9629,3.624-3.7754,3.3385-5.4289a1.43,1.43,0,0,0-.97-1.0692A15.8617,15.8617,0,0,0,105.5883,112.5663Z" style="fill: #231f20"/>
            </g>
            <g>
              <path d="M102.9986,130.1274s1.2526,4.95-1.3087,5.3834-3.5911.3293-3.727-.5508-.21-2.3329-.87-2.719a3.01,3.01,0,0,1-1.2033-2.4424c.1012-.8041-1.0761-2.3495-.9326-3.1226s1.3972-3.5948,2.7373-3.4263S101.8416,124.3363,102.9986,130.1274Z" style="fill: #fff"/>
              <path d="M99.4335,136.0534a2.23,2.23,0,0,1-1.3267-.3062,1.08,1.08,0,0,1-.4363-.7421c-.0219-.1413-.0421-.2971-.0634-.4609-.0985-.758-.2335-1.796-.6641-2.0479a3.2954,3.2954,0,0,1-1.3474-2.7348,3.5855,3.5855,0,0,0-.4465-1.3881,3.3989,3.3989,0,0,1-.4834-1.7513c.1507-.8123,1.462-3.8682,3.0651-3.666,1.935.2434,4.4693,1.6738,5.5567,7.1061.0536.2152.7994,3.3051-.22,4.8685a1.91,1.91,0,0,1-1.3285.8719A14.5672,14.5672,0,0,1,99.4335,136.0534Zm-1.8561-12.5151c-1.0211,0-2.1808,2.3883-2.33,3.1917a3.368,3.368,0,0,0,.4409,1.4,3.65,3.65,0,0,1,.4944,1.7059,2.7292,2.7292,0,0,0,1.059,2.15c.6812.3984.8314,1.5538.9521,2.4825.0207.1587.04.31.0615.4469a.49.49,0,0,0,.1977.3523c.4888.3522,1.96.1594,3.1875-.0481a1.3228,1.3228,0,0,0,.9311-.6113c.8928-1.3686.1478-4.3778.14-4.408l-.0032-.0145c-1.0176-5.0925-3.3088-6.4228-5.0516-6.642A.6432.6432,0,0,0,97.5774,123.5383Z" style="fill: #231f20"/>
            </g>
            <g>
              <path d="M116.1562,129.7476s2.0871,2.2684,1.6547,4.3626-.7573,1.2058-1.2564,1.6208-2.2979,2.3824-4.1425,3.08-1.6917,1.688-2.4055,1.6855a2.6535,2.6535,0,0,1-2.6271-1.2088c-.7173-1.2409-2.0434-1.5617-3.6146-1.2815a1.9166,1.9166,0,0,1-2.4214-1.5785c-.3-.9675-1.1444-3.2775-.5946-3.85S107.5564,122.9282,116.1562,129.7476Z" style="fill: #fff"/>
              <path d="M110.0094,140.7926h-.0039l-.0628,0a2.9146,2.9146,0,0,1-2.82-1.3562c-.6007-1.0393-1.7125-1.4218-3.3065-1.1386a2.2035,2.2035,0,0,1-2.756-1.7822c-.0348-.1127-.0773-.2441-.1241-.3888-.5316-1.6446-.9624-3.1693-.4012-3.7541.031-.0322.1047-.1233.19-.2287,4.7754-5.8929,10.3206-6.8256,15.6144-2.6281l.0339.0316c.0894.097,2.1846,2.4056,1.7268,4.6228-.2977,1.4416-.5859,1.6953-1.1193,1.719a.3257.3257,0,0,0-.2377.0694c-.0886.0737-.2306.209-.41.38a12.7794,12.7794,0,0,1-3.8166,2.7493,3.3476,3.3476,0,0,0-1.6156,1.1536A1.1016,1.1016,0,0,1,110.0094,140.7926Zm-5.2477-3.1762a3.0939,3.0939,0,0,1,2.8739,1.5235,2.3131,2.3131,0,0,0,2.3082,1.0607l.0638,0h.0018c.1475,0,.2141-.0635.4321-.3321a3.9189,3.9189,0,0,1,1.8658-1.3343,12.3,12.3,0,0,0,3.6178-2.6241c.1879-.179.3362-.32.44-.4069a.898.898,0,0,1,.59-.2055c.146-.0064.3113-.0139.566-1.2476.379-1.8354-1.3886-3.884-1.5682-4.0861-3.271-2.586-6.5653-3.1279-9.7921-1.6123a14.9422,14.9422,0,0,0-4.9754,4.1645c-.1053.13-.1748.2156-.223.2659-.3627.3779.2911,2.4007.5373,3.1623.0477.1474.0908.2809.1264.3959a1.6333,1.6333,0,0,0,2.0867,1.3746A5.9876,5.9876,0,0,1,104.7617,137.6164Z" style="fill: #231f20"/>
            </g>
            <g>
              <g>
                <path d="M108.008,124.7733s4.88-8.19,4.4735-8.877-2.5226-1.2613-2.9319-1.7237-.1666-.35-1.2919.3872-3.22,2.4872-4.5377,2.4654-2.205,1.5252-2.9033,1.6227-.8164.7914-1.2619,1.3108-.9874,3.3313-.0724,3.4215S103.9644,126.2237,108.008,124.7733Z" style="fill: #fff"/>
                <path d="M105.5761,125.4885a11.9937,11.9937,0,0,1-5.1218-1.4052,5.0523,5.0523,0,0,0-1.0008-.4084.7565.7565,0,0,1-.6328-.5263,4.8491,4.8491,0,0,1,.51-3.3826,3.3879,3.3879,0,0,0,.3228-.4783,1.5578,1.5578,0,0,1,1.1228-.9328,2.31,2.31,0,0,0,.7851-.5449,3.3146,3.3146,0,0,1,2.164-1.0807l.02,0c.9463,0,2.436-1.064,3.5258-1.8425.3007-.2148.5848-.4177.8244-.5747.3037-.1988.5022-.3491.6471-.4587.3973-.3.5942-.3816.9479.03l.0806.0928a4.7938,4.7938,0,0,0,1.089.5786,4.4113,4.4113,0,0,1,1.876,1.1905c.1271.2148.34.5743-2.08,4.9891-1.1583,2.1136-2.3822,4.17-2.3944,4.19l-.0543.0913-.1.0359A7.4512,7.4512,0,0,1,105.5761,125.4885Zm-1.8835-8.1676a2.8874,2.8874,0,0,0-1.7428.9354,2.411,2.411,0,0,1-1.0921.6846c-.3218.0449-.467.2649-.6961.65a3.9271,3.9271,0,0,1-.3822.5609,4.4947,4.4947,0,0,0-.4094,2.7768c.06.15.1193.1555.1416.1576a4.5075,4.5075,0,0,1,1.1952.4623c1.5721.7414,4.1911,1.9769,7.1019.9816,2.2085-3.7133,4.4292-7.8576,4.4021-8.5078a4.97,4.97,0,0,0-1.5929-.9268,4.17,4.17,0,0,1-1.29-.7264l-.0865-.1-.0259-.03c-.0348.0254-.0757.0563-.1159.0867-.1431.1083-.3595.2718-.68.4816-.23.15-.5089.35-.8046.5612-1.2191.8708-2.7339,1.9527-3.871,1.9527C103.727,117.3215,103.71,117.3211,103.6926,117.3209Zm8.5166-1.3181Z" style="fill: #231f20"/>
              </g>
              <g>
                <path d="M109.9876,125.5189s7.4171.6192,7.9976-.4841.89-2.9909-.0786-4.1555-1.2913-3.7428-2.0813-3.9963-2.7957.1313-4.0457-.4266-4.5317-.1328-3.8092,2.4655S107.4026,125.19,109.9876,125.5189Z" style="fill: #fff"/>
                <path d="M114.1125,125.9881c-.1125,0-.2276-.0006-.3464-.0016-1.9156-.0168-3.7844-.171-3.8031-.1726l-.0126-.0013c-1.9591-.2492-1.9826-2.1714-2.0053-4.0305a11.2067,11.2067,0,0,0-.26-2.7809,2.0989,2.0989,0,0,1,.5871-2.32,3.923,3.923,0,0,1,3.6278-.4945,6.5194,6.5194,0,0,0,2.5059.3019,5.53,5.53,0,0,1,1.51.1131c.5574.179.8488.9787,1.2176,1.9912a7.5913,7.5913,0,0,0,1.0008,2.0978c1.11,1.3352.6759,3.4122.1129,4.4824C118.0459,125.555,117.3871,125.9881,114.1125,125.9881Zm-4.0936-.7635c4.4571.3718,7.4694.1192,7.7044-.3275a3.7285,3.7285,0,0,0-.0442-3.8286,7.97,7.97,0,0,1-1.1018-2.2734c-.25-.6863-.5609-1.54-.8423-1.63a5.4149,5.4149,0,0,0-1.3272-.085,6.9185,6.9185,0,0,1-2.7488-.3531,3.2974,3.2974,0,0,0-3,.4023,1.5445,1.5445,0,0,0-.403,1.7134,11.6329,11.6329,0,0,1,.2812,2.9325C108.5616,123.7971,108.6464,125.0466,110.0189,125.2246Z" style="fill: #231f20"/>
              </g>
              <g>
                <path d="M111.4065,125.2247s7.9892-1.3468,8.0771-.0085-.8777,2.1361-.7763,3.2792.1181,3.9257-1.1713,4.5719-2.4838,3.609-3.4743,3.2739-2.4025.0024-2.3564-2.3735S110.7863,126.0713,111.4065,125.2247Z" style="fill: #fff"/>
                <path d="M114.2242,136.6647a.7983.7983,0,0,1-.2573-.0431,4.3742,4.3742,0,0,0-.5926-.1376c-.894-.1662-2.0066-.3731-1.9648-2.5221.0173-.8961-.1167-2.2985-.2463-3.6546-.2761-2.89-.4137-4.6865.0045-5.2574l.071-.0969.1185-.02c.0172-.0029,1.7353-.2909,3.5671-.4672,3.8039-.3666,4.3964.1027,4.5913.2566a.65.65,0,0,1,.2632.4744,3.9587,3.9587,0,0,1-.4346,1.8914,2.8363,2.8363,0,0,0-.3422,1.3811c.06.6706.275,4.0566-1.3333,4.8627a5.9324,5.9324,0,0,0-1.5581,1.6662C115.4774,135.8523,114.8751,136.6647,114.2242,136.6647Zm-2.6275-11.1715c-.2393.6249-.0126,2.998.1556,4.7576.1373,1.4361.2669,2.7925.2489,3.7226-.032,1.6474.6358,1.7716,1.4813,1.9288a4.8965,4.8965,0,0,1,.6741.1587c.3427.1166.9729-.7332,1.4787-1.4153a6.1157,6.1157,0,0,1,1.7682-1.8427c1.05-.5264,1.1282-2.9387,1.0091-4.2813a3.37,3.37,0,0,1,.3875-1.6662,3.3844,3.3844,0,0,0,.3882-1.62c-.001-.016-.0254-.0376-.04-.049C118.4278,124.6167,114.1965,125.0641,111.5967,125.4932Z" style="fill: #231f20"/>
              </g>
              <g>
                <path d="M109.8132,126.3343s2.5725,8.8785,1.4335,10.4989-.9642,1.2931-1.901,1.0623-1.3679.6242-2.17-.6787-1.543-1.4819-2.3648-2.1845-2.6786-1.5422-.8745-3.9608S107.6975,126.7361,109.8132,126.3343Z" style="fill: #fff"/>
                <path d="M110.0842,138.3778a1.4992,1.4992,0,0,1-.4526-.09c-.1011-.033-.2157-.07-.3567-.1052a1.5314,1.5314,0,0,0-.7019.02c-.5771.11-1.0646.1193-1.649-.8305a4.6005,4.6005,0,0,0-1.5535-1.5566,8.3136,8.3136,0,0,1-.7517-.5579c-.0992-.0849-.219-.1751-.3457-.2707-.8681-.6544-2.321-1.75-.5736-4.0921,2.1936-2.9411,4.1187-4.4825,6.0585-4.851l.2645-.05.075.2587c.2673.9226,2.5777,9.0634,1.3913,10.7512C110.7823,138.0084,110.5228,138.3778,110.0842,138.3778Zm-1.0858-.82a1.7324,1.7324,0,0,1,.4181.0506c.162.04.2931.0827.3984.1169.2646.0858.2729.08.3362.0328a6.66,6.66,0,0,0,.8536-1.0948c.4188-.5961.3835-3.7428-1.399-9.98-1.6835.4292-3.4635,1.9261-5.4319,4.5651-1.3952,1.87-.4544,2.58.4555,3.2658.1343.1011.261.1966.374.2932a7.8667,7.8667,0,0,0,.7009.5192,5.156,5.156,0,0,1,1.7237,1.7351c.417.6776.6231.6379,1.034.5595A2.7544,2.7544,0,0,1,108.9984,137.5575Z" style="fill: #231f20"/>
              </g>
              <g>
                <path d="M105.4377,126.4468s-3.2785,4.2983-4.771,4.1158-1.21-1.5128-1.8865-2.2481-2.48-.9824-1.5356-2.8929.8345-2.6193,4.1081-2.33A4.7373,4.7373,0,0,1,105.4377,126.4468Z" style="fill: #fff"/>
                <path d="M100.7505,130.8637a1.025,1.025,0,0,1-.12-.0072,1.8891,1.8891,0,0,1-1.6545-1.5277,2.3658,2.3658,0,0,0-.4139-.814,3.1849,3.1849,0,0,0-.6295-.4631c-.747-.4681-1.77-1.1088-.9535-2.761.1066-.2158.2-.416.2856-.6011.7482-1.61,1.158-2.1542,4.1138-1.8928a5.0772,5.0772,0,0,1,4.3451,3.5743l.037.14-.0878.1152C105.3353,127.069,102.3925,130.8637,100.7505,130.8637ZM100.09,123.32c-1.5362,0-1.7517.4639-2.2882,1.6189-.0878.1889-.1829.3934-.2917.6136-.5794,1.1726.0016,1.5365.7371,1.9974a3.6319,3.6319,0,0,1,.7508.5641,2.8409,2.8409,0,0,1,.5349,1.0129c.22.6066.3788,1.0451,1.17,1.1419.94.1167,3.1591-2.27,4.4072-3.8812a4.3744,4.3744,0,0,0-3.7831-3.0015C100.8373,123.3432,100.4311,123.32,100.09,123.32Z" style="fill: #231f20"/>
              </g>
            </g>
            <g>
              <g>
                <path d="M110.5879,124.5071s4.84,1.19,5.5323-.158,1.45-3.981.4542-4.3529-2.18.3742-2.8053.02-1.8926-1.51-3.6043-.1943S107.4228,124.6776,110.5879,124.5071Z" style="fill: #fff"/>
                <path d="M114.1107,125.2943a16.7768,16.7768,0,0,1-3.5514-.49c-1.511.068-2.0194-.6878-2.1891-1.1462-.4808-1.2985.4649-3.1876,1.6143-4.0712a2.8535,2.8535,0,0,1,3.6836.0182c.0914.0587.1737.1119.2468.1533a1.7708,1.7708,0,0,0,.9975-.0374,3.2243,3.2243,0,0,1,1.7655-.0025.9545.9545,0,0,1,.5534.5774c.3866.9983-.2631,3.05-.8478,4.1878C116.0664,125.1013,115.1422,125.2943,114.1107,125.2943Zm-3.4949-1.085.0427.01c1.9156.4707,4.7947.78,5.1986-.0059.6086-1.1845,1.096-2.9967.8222-3.7038a.3569.3569,0,0,0-.2083-.2365,2.7389,2.7389,0,0,0-1.4464.0291,2.0675,2.0675,0,0,1-1.4012-.0286c-.0815-.0462-.1735-.1051-.2754-.1706a2.2877,2.2877,0,0,0-3.0029-.0466c-1.0713.8233-1.7614,2.4739-1.42,3.3964.204.5512.7583.806,1.6467.7584Z" style="fill: #231f20"/>
              </g>
              <g>
                <path d="M108.3265,125.18s-.2134-6.731-1.3138-7.0491-2.1418-.9834-2.6069-.3484.1218,2.0045-.7579,2.3865-.8332,1.6555-1.6966,1.8994-.4665,3.3006,1.1557,3.5937A19.789,19.789,0,0,0,108.3265,125.18Z" style="fill: #fff"/>
                <path d="M104.01,126.0243a5.5174,5.5174,0,0,1-.9553-.07c-1.1321-.2048-1.7827-1.5162-1.84-2.7058-.0382-.79.2073-1.3372.6567-1.4641.3171-.09.4817-.4063.6723-.7729a2.1337,2.1337,0,0,1,.9869-1.1132c.3229-.14.3487-.497.3642-1.0676a2.12,2.12,0,0,1,.2728-1.2222c.48-.6548,1.3193-.34,2.1312-.0364.26.0973.5281.1976.7967.2753,1.18.3411,1.4611,5.2354,1.5273,7.324l.0079.2467-.2414.0521A25.5839,25.5839,0,0,1,104.01,126.0243Zm.9668-8.2092a.38.38,0,0,0-.3321.1427,1.758,1.758,0,0,0-.1586.8883c-.0156.578-.0351,1.2973-.72,1.5946a1.6377,1.6377,0,0,0-.6975.8433,1.7937,1.7937,0,0,1-1.0365,1.0693c-.11.0311-.2529.32-.2265.8662.0386.7987.4844,1.9945,1.3543,2.1517a17.95,17.95,0,0,0,4.8625-.4308c-.1261-3.3719-.627-6.3907-1.0915-6.5248-.29-.084-.57-.1887-.84-.29A3.8229,3.8229,0,0,0,104.9765,117.8151Z" style="fill: #231f20"/>
              </g>
              <g>
                <path d="M108.9994,126.047s4.1435,4.1659,5.6363,3.9354,1.9664-1.0546,1.8868-2.056-2.3953-5.2995-5.6641-3.8561S108.9994,126.047,108.9994,126.047Z" style="fill: #fff"/>
                <path d="M114.5256,130.2863c-1.6339,0-5.1284-3.4234-5.6971-3.9915a.7279.7279,0,0,1-.4272-.6109c-.0157-.5745.7271-1.1732,2.3375-1.8844a3.4583,3.4583,0,0,1,3.2872.217,6.566,6.566,0,0,1,2.7915,3.8863c.06.7535-.1382,2.0635-2.1366,2.3721A1.0132,1.0132,0,0,1,114.5256,130.2863Zm-2.3409-6.213a2.9706,2.9706,0,0,0-1.2068.2676c-1.9744.872-1.9855,1.3089-1.985,1.327.001.0414.09.0942.1112.1023l.06.0227.0452.0455c1.5612,1.5693,4.403,4.0017,5.3813,3.8516,1.18-.1822,1.7156-.7515,1.6371-1.74a6.083,6.083,0,0,0-2.5049-3.4251A2.9758,2.9758,0,0,0,112.1847,124.0733Z" style="fill: #231f20"/>
              </g>
              <g>
                <path d="M110.2951,126.5364s5.7192,2.229,4.8692,4.871c0,0,.0993.28-1.2263.9355s.8307.5169.34,1.2276a4.8953,4.8953,0,0,1-3.6977,1.0979c-.8331-.2891-1.8846.556-2.5086-.14S107.5529,127.0486,110.2951,126.5364Z" style="fill: #fff"/>
                <path d="M108.7456,135.1073a1.1315,1.1315,0,0,1-.8943-.3808c-.5441-.6065-.54-3.8773.1849-6.0121.488-1.4369,1.25-2.2908,2.2046-2.469l.083-.0154.0788.0307c.2425.0943,5.8922,2.333,5.061,5.18-.0122.3273-.4712.7109-1.3944,1.1675-.0511.0252-.0938.048-.1293.0678l.0389.0168c.2512.1074.5638.2412.6491.5363a.5867.5867,0,0,1-.1066.5093,5.0565,5.0565,0,0,1-4.0383,1.21,1.9265,1.9265,0,0,0-.9823.0526A3.6978,3.6978,0,0,1,108.7456,135.1073Zm1.5242-8.2627c-.8628.2133-1.3758,1.2042-1.6564,2.011-.7825,2.251-.59,5.1671-.3215,5.4755.23.2573.5626.2019,1.0857.0906a2.41,2.41,0,0,1,1.2994-.0327,4.7361,4.7361,0,0,0,3.3573-.9868l.01-.015a1.6921,1.6921,0,0,0-.298-.15c-.25-.1067-.5332-.2279-.5413-.5236-.0081-.2931.2847-.4786.6021-.6356a3.2836,3.2836,0,0,0,1.0485-.6766l.0272-.0842C115.4989,129.4012,111.8385,127.4728,110.27,126.8446Z" style="fill: #231f20"/>
              </g>
              <g>
                <path d="M109.5087,125.7853s4.0619,1.5457,3.6,4.2452-1.1695,4.1982-2.38,3.6529-2.3693,1.03-3.2043.93-1.4676-1.2787-2.3591-1.2161-3.5638-1.5644-3.3785-2.9762S104.1182,125.6462,109.5087,125.7853Z" style="fill: #fff"/>
                <path d="M107.6028,134.9139a.9487.9487,0,0,1-.114-.0067,2.5246,2.5246,0,0,1-1.2224-.6627,1.7724,1.7724,0,0,0-1.0807-.552,4.9808,4.9808,0,0,1-2.9535-1.5839,2.194,2.194,0,0,1-.7392-1.726c.2092-1.5923,2.5146-5.0338,8.0233-4.8931l.05.0011.0472.018c.1751.0666,4.2836,1.6658,3.7861,4.5719-.3848,2.2473-.9087,3.4773-1.6484,3.871a1.2466,1.2466,0,0,1-1.1449.0017c-.5755-.2591-1.181.1055-1.7665.4581A2.6214,2.6214,0,0,1,107.6028,134.9139Zm-2.3691-1.815a2.3433,2.3433,0,0,1,1.4041.6847,2.0983,2.0983,0,0,0,.9213.536,2.0512,2.0512,0,0,0,.9758-.4151,2.47,2.47,0,0,1,2.3151-.4907.6684.6684,0,0,0,.6237.0152c.5494-.2923,1.0013-1.4526,1.343-3.4483.3915-2.2869-2.9385-3.7256-3.3682-3.901-5.0641-.1105-7.1819,2.958-7.3686,4.38a1.7184,1.7184,0,0,0,.5833,1.2431,4.5294,4.5294,0,0,0,2.481,1.3994C105.1744,133.1,105.2042,133.0989,105.2337,133.0989Z" style="fill: #231f20"/>
              </g>
            </g>
            <g>
              <g>
                <path d="M110.1816,124.2019s.6455-4.3733-1.5315-3.681-2.3094,1.7949-3.39,2.1055-.83,1.3952-1.591,1.814-1.956,1.0541-1.9447,2.1967,1.0715,4.2663,1.6608,3.9836,3.8756-3.2284,4.6416-3.6206A4.2994,4.2994,0,0,0,110.1816,124.2019Z" style="fill: #fff"/>
                <path d="M103.3063,130.9345a.55.55,0,0,1-.2936-.09c-.7565-.4708-1.5739-3.213-1.5838-4.2046-.0129-1.2981,1.2813-2.01,2.0546-2.4349l.0433-.0239a1.28,1.28,0,0,0,.4876-.6749,1.7627,1.7627,0,0,1,1.1643-1.1643,2.3389,2.3389,0,0,0,.9581-.6506,5.6362,5.6362,0,0,1,2.4236-1.4526,1.2852,1.2852,0,0,1,1.2954.1892c1.0206.8679.6627,3.5178.6185,3.817l-.0054.0277a4.6124,4.6124,0,0,1-2.3069,2.9907,26.9759,26.9759,0,0,0-2.4561,1.9176,19.9906,19.9906,0,0,1-2.1923,1.7065A.4812.4812,0,0,1,103.3063,130.9345Zm5.776-10.1917a1.1368,1.1368,0,0,0-.3425.06,5.0549,5.0549,0,0,0-2.1975,1.32,2.863,2.863,0,0,1-1.2.7881c-.4744.1365-.6126.4458-.7877.8372a1.7963,1.7963,0,0,1-.7423.9519l-.0437.0239c-.7416.4078-1.7573.9663-1.7479,1.9105a7.975,7.975,0,0,0,1.2819,3.6954c.3056-.1792,1.2169-.9341,2.0258-1.6042a24.7734,24.7734,0,0,1,2.5639-1.9887,4.0093,4.0093,0,0,0,1.9985-2.5921c.146-1.008.1607-2.7736-.4186-3.2658A.58.58,0,0,0,109.0823,120.7428Z" style="fill: #231f20"/>
              </g>
              <g>
                <path d="M107.2457,126.929s-1.0463,2.49-1.3937,3.0916a1.5594,1.5594,0,0,0,.5378,1.9169c.5907.4018,1.4322-.0294,1.6905.3964a.7853.7853,0,0,0,1.3284.0236c.4351-.5425,1.6446-1.4415,1.6117-2.724s-1.4149-4.4993-2.2185-4.0162A8.2539,8.2539,0,0,0,107.2457,126.929Z" style="fill: #fff"/>
                <path d="M108.7419,133.0073c-.0231,0-.0464-.0006-.07-.0021a1.0739,1.0739,0,0,1-.8447-.5177c-.043-.0707-.2723-.0676-.4746-.0647a1.8644,1.8644,0,0,1-1.1294-.2407,1.8379,1.8379,0,0,1-.6277-2.3094c.3342-.5788,1.3668-3.0337,1.3772-3.0583l.02-.0469.0341-.0375a8.4748,8.4748,0,0,1,1.6228-1.3661.6746.6746,0,0,1,.6954.011c.9179.5035,1.9425,3.1268,1.9714,4.2512a3.6932,3.6932,0,0,1-1.3369,2.5479c-.138.1424-.257.2655-.34.3686A1.1465,1.1465,0,0,1,108.7419,133.0073Zm-1.2672-1.1775a.8978.8978,0,0,1,.8587.3506.4808.4808,0,0,0,.3774.2341.5519.5519,0,0,0,.4671-.2422c.1-.1248.2279-.257.3762-.41a3.18,3.18,0,0,0,1.17-2.1212,6.59,6.59,0,0,0-1.6646-3.7474c-.0749-.0411-.0972-.0278-.1056-.0227a7.8728,7.8728,0,0,0-1.4564,1.2211c-.1523.3614-1.06,2.5058-1.39,3.0765a1.2755,1.2755,0,0,0,.448,1.5242,1.37,1.37,0,0,0,.7884.1381C107.3874,131.83,107.4309,131.83,107.4747,131.83Z" style="fill: #231f20"/>
              </g>
            </g>
            <g>
              <path d="M109.1673,124.122a1.3248,1.3248,0,0,1,.4812.0024c.5957.1284,1.102.9753,1.1533,1.9285.0293.5576-.3063.919-.9449,1.0176a2.9858,2.9858,0,0,1-1.1228-.0734,2.14,2.14,0,0,1-1.5417-1.0129.7341.7341,0,0,1,.1329-.752A3.12,3.12,0,0,1,109.1673,124.122Z" style="fill: #fff"/>
              <path d="M109.5137,127.3913a3.6911,3.6911,0,0,1-.8482-.1063,2.3867,2.3867,0,0,1-1.7486-1.1929,1.0244,1.0244,0,0,1,.174-1.04,3.39,3.39,0,0,1,2.0313-1.2222,1.6235,1.6235,0,0,1,.59.0058,2.2832,2.2832,0,0,1,1.3853,2.2016,1.2441,1.2441,0,0,1-1.1953,1.326A2.552,2.552,0,0,1,109.5137,127.3913Zm-.0948-2.994a1.3578,1.3578,0,0,0-.2064.0172h0a2.8417,2.8417,0,0,0-1.652.9974.4336.4336,0,0,0-.0926.4643,1.8979,1.8979,0,0,0,1.3348.8331,2.6967,2.6967,0,0,0,1.0091.0688c.7259-.1121.7023-.5618.6945-.7095-.0475-.8814-.5142-1.5674-.92-1.6551A.7912.7912,0,0,0,109.4189,124.3973Z" style="fill: #231f20"/>
            </g>
            <g>
              <path d="M110.0366,124.3167s-1.4007-.03-1.71.8636.9861,1.41.4076,1.8168a1.0868,1.0868,0,0,1-1.4884-.0681C106.8249,126.4578,106.85,122.2426,110.0366,124.3167Z" style="fill: #fff"/>
              <path d="M107.9644,127.5541a1.227,1.227,0,0,1-.9394-.4281,3.2137,3.2137,0,0,1,.3348-3.148c.4414-.5139,1.2918-.9159,2.8383.0907l.8692.5656-1.0363-.0218c-.01-.0005-1.1942-.0009-1.4249.6647-.1.289.0454.52.279.84a1.0048,1.0048,0,0,1,.2884.7267.6012.6012,0,0,1-.2693.3955A1.6681,1.6681,0,0,1,107.9644,127.5541Zm.5533-3.512a.8871.8871,0,0,0-.6692.2778,2.8721,2.8721,0,0,0-.379,2.4156c.4114.4607.9838.0971,1.0945.0195l.02-.0154a1.6782,1.6782,0,0,0-.1767-.2734,1.4567,1.4567,0,0,1-.36-1.3828,1.5359,1.5359,0,0,1,1.0587-.9215A1.7094,1.7094,0,0,0,108.5177,124.0421Z" style="fill: #231f20"/>
            </g>
          </g>
        </g>
      </g>
      <g>
        <text transform="translate(67.3014 99.5867)" style="font-size: 3.6656055450439453px;fill: #f3a488;font-family: Raleway-Regular, Raleway">wri<tspan x="5.0654" y="0" style="letter-spacing: -0.008924812925993049em">t</tspan><tspan x="6.2607" y="0">e</tspan><tspan x="8.4126" y="0" style="letter-spacing: -0.027040851104128193em"> </tspan><tspan x="9.248" y="0" style="letter-spacing: -0.019048481319656807em">y</tspan><tspan x="11.165" y="0">ou</tspan><tspan x="15.5234" y="0" style="letter-spacing: -0.02291146004881798em">r</tspan><tspan x="16.7261" y="0"> </tspan><tspan x="17.6606" y="0" style="letter-spacing: -0.009058019089067573em">t</tspan><tspan x="18.8555" y="0" style="letter-spacing: -0.019980924461178468em">e</tspan><tspan x="20.9341" y="0">xt he</tspan><tspan x="29.2334" y="0" style="letter-spacing: -0.015984739568942776em">r</tspan><tspan x="30.4614" y="0">e</tspan></text>
        <text transform="translate(63.4415 59.5144)" style="font-size: 5.568338394165039px;fill: #f3a488;font-family: Raleway-Regular, Raleway">VIN<tspan x="9.4604" y="0" style="letter-spacing: -0.06795886707362062em">T</tspan><tspan x="12.4785" y="0" style="letter-spacing: -0.026043591639826225em">A</tspan><tspan x="16.0977" y="0">GE </tspan><tspan x="24.8955" y="0" style="letter-spacing: -0.02893732404425136em">L</tspan><tspan x="27.9805" y="0">OGO</tspan></text>
        <path d="M54.3573,76.5879v-11.43h7.679v1.9477H56.5789v2.9463h4.54v1.8024h-4.54v4.7331Zm9.24,0v-11.43h2.2216V74.64h5.8273v1.9478Zm13.5543.0805a5.1978,5.1978,0,0,1-2.2775-.4907,5.5945,5.5945,0,0,1-1.7548-1.3039,6.0513,6.0513,0,0,1-1.5376-4,5.7522,5.7522,0,0,1,.4266-2.19,6.0511,6.0511,0,0,1,1.1754-1.851,5.6167,5.6167,0,0,1,1.7787-1.28A5.2865,5.2865,0,0,1,77.2,65.078a5.016,5.016,0,0,1,2.2619.507,5.6492,5.6492,0,0,1,1.7466,1.3282A6.1133,6.1133,0,0,1,82.3351,68.78a5.8819,5.8819,0,0,1,.4027,2.1252,5.7755,5.7755,0,0,1-.4188,2.1814,5.9135,5.9135,0,0,1-1.159,1.8344,5.5661,5.5661,0,0,1-1.7708,1.2721A5.2765,5.2765,0,0,1,77.1516,76.6684Zm-3.3159-5.7949a4.5858,4.5858,0,0,0,.2254,1.4322,3.8193,3.8193,0,0,0,.6517,1.2235,3.2287,3.2287,0,0,0,1.0465.8532,3.2436,3.2436,0,0,0,2.8334-.0079,3.2554,3.2554,0,0,0,1.0462-.8774,3.9118,3.9118,0,0,0,.6438-1.2314A4.5768,4.5768,0,0,0,80.5,70.8735a4.4589,4.4589,0,0,0-.2335-1.4329,3.9524,3.9524,0,0,0-.66-1.2234,3.1572,3.1572,0,0,0-1.0465-.8454,3.2573,3.2573,0,0,0-2.8252.0164,3.1807,3.1807,0,0,0-1.0461.8688,3.9038,3.9038,0,0,0-.636,1.2235A4.5755,4.5755,0,0,0,73.8357,70.8735Zm10.6077,5.7144v-11.43h5.055a3.25,3.25,0,0,1,1.457.33,3.78,3.78,0,0,1,1.1509.8694,4.1185,4.1185,0,0,1,.757,1.2236,3.6834,3.6834,0,0,1,.2735,1.3765,3.7982,3.7982,0,0,1-.5555,2.02A3.1865,3.1865,0,0,1,91.0765,72.29l2.6073,4.2979H91.1891l-2.3345-3.8314H86.6654v3.8314Zm2.222-5.7792h2.7852a1.1787,1.1787,0,0,0,.5712-.1446,1.4588,1.4588,0,0,0,.4587-.3945,1.9783,1.9783,0,0,0,.3062-.5876,2.288,2.288,0,0,0,.1125-.7243,2.0542,2.0542,0,0,0-.1289-.74,1.9267,1.9267,0,0,0-.3461-.5876,1.5662,1.5662,0,0,0-.4992-.3867,1.2935,1.2935,0,0,0-.5712-.1368H86.6654Zm11.5585-5.65h1.9634l4.347,11.43h-2.286l-1.0626-2.8494H97.1933l-1.0461,2.8494H93.8611Zm2.56,7.0184-1.5774-4.491-1.6423,4.491Zm5.0064,4.4111v-11.43h2.2213V74.64h5.8277v1.9478ZM51.2989,91.6217V80.1923h4.1533a6.2054,6.2054,0,0,1,2.455.4507,4.9341,4.9341,0,0,1,2.825,3.0344,6.8086,6.8086,0,0,1,.3543,2.2135,6.6766,6.6766,0,0,1-.3945,2.3579,5.0345,5.0345,0,0,1-1.1348,1.8033,5.1141,5.1141,0,0,1-1.7787,1.1594,6.2837,6.2837,0,0,1-2.3263.41Zm7.55-5.7308a4.8673,4.8673,0,0,0-.2254-1.5133,3.3963,3.3963,0,0,0-.66-1.1915,2.9544,2.9544,0,0,0-1.0707-.7726,3.6152,3.6152,0,0,0-1.4408-.2735H53.5205v7.534h1.9317a3.4811,3.4811,0,0,0,1.4568-.29,2.9793,2.9793,0,0,0,1.0626-.7969,3.5506,3.5506,0,0,0,.652-1.1993A4.8113,4.8113,0,0,0,58.849,85.8909Zm3.9756,5.7308V80.1923H67.88a3.2531,3.2531,0,0,1,1.4566.33,3.78,3.78,0,0,1,1.1509.87,4.1077,4.1077,0,0,1,.7567,1.2235,3.6865,3.6865,0,0,1,.2739,1.3767,3.7982,3.7982,0,0,1-.5556,2.02,3.1891,3.1891,0,0,1-1.5051,1.3125l2.608,4.2979H69.57L67.2354,87.79H65.0462v3.8314Zm2.2216-5.7792h2.785a1.1789,1.1789,0,0,0,.5714-.1446,1.46,1.46,0,0,0,.4587-.3946,1.9672,1.9672,0,0,0,.3059-.5874,2.2805,2.2805,0,0,0,.1128-.7243,2.063,2.063,0,0,0-.1288-.7406,1.931,1.931,0,0,0-.3462-.5876,1.5731,1.5731,0,0,0-.4989-.3867,1.2982,1.2982,0,0,0-.5715-.1367H65.0462Zm16.42,3.8315v1.9477H73.53V80.1923h7.7915V82.14h-5.57v2.7525h4.8133v1.8032H75.7514V89.674Zm4.9906-9.4817H88.42l4.347,11.4294H90.4811l-1.0625-2.8493H85.4263L84.38,91.6217H82.094Zm2.5594,7.0183L87.4389,82.72l-1.6424,4.4909Zm14.3267,4.4111v-7.566L100.3974,89.69H99.19l-2.9461-5.6347v7.566H94.0228V80.1923H96.405l3.3806,6.5034,3.4127-6.5034h2.3665V91.6217Zm11.4131-8.4356a2.7941,2.7941,0,0,0-.41-.3055,4.9618,4.9618,0,0,0-.7242-.3781,6.3048,6.3048,0,0,0-.9259-.3141,4.0628,4.0628,0,0,0-1.0141-.1289,2.27,2.27,0,0,0-1.3681.3382,1.1168,1.1168,0,0,0-.4508.95.9792.9792,0,0,0,.1688.5876,1.4679,1.4679,0,0,0,.4908.41,4.1462,4.1462,0,0,0,.8132.3218q.49.1454,1.1345.3062.8375.2254,1.5219.4829a4.1222,4.1222,0,0,1,1.1587.6438,2.6676,2.6676,0,0,1,.7328.9258,3.0793,3.0793,0,0,1,.2571,1.3275,3.3074,3.3074,0,0,1-.3461,1.57,2.9063,2.9063,0,0,1-.9336,1.0547,4.0479,4.0479,0,0,1-1.3525.5876,6.7948,6.7948,0,0,1-1.6017.1852,8.5953,8.5953,0,0,1-2.5431-.3868,7.817,7.817,0,0,1-2.254-1.0946l.9822-1.9157a3.1127,3.1127,0,0,0,.5233.3789,7.9777,7.9777,0,0,0,.8931.4664,6.9385,6.9385,0,0,0,1.143.3947,5.161,5.161,0,0,0,1.2883.1609q1.8342,0,1.8346-1.1752a.9663.9663,0,0,0-.2087-.628,1.7777,1.7777,0,0,0-.5961-.4509,5.7748,5.7748,0,0,0-.9336-.3539q-.5469-.16-1.2236-.354a10.3743,10.3743,0,0,1-1.4243-.4913,3.7439,3.7439,0,0,1-1.0063-.6275,2.3546,2.3546,0,0,1-.6038-.8375,2.9006,2.9006,0,0,1-.2009-1.1345,3.5466,3.5466,0,0,1,.3218-1.5453,3.1183,3.1183,0,0,1,.8932-1.1267,4.0432,4.0432,0,0,1,1.3281-.6844,5.5007,5.5007,0,0,1,1.6259-.2336,6.3143,6.3143,0,0,1,2.222.3783,8.3012,8.3012,0,0,1,1.77.8936Z" style="fill: #4c4c4c"/>
      </g>
    </g>
    <path d="M139.1358,91.15l-.577-.1322a54.8356,54.8356,0,0,0-22.818-57.695l.3306-.4909A55.4277,55.4277,0,0,1,139.1358,91.15Z" style="fill: #231f20"/>
  </g>
</svg>
