<svg xmlns="http://www.w3.org/2000/svg" width="170" height="170" viewBox="0 0 170 170">
  <defs>
    <style>
      .cls-1 {
        fill: #fff;
        fill-rule: evenodd;
      }
    </style>
  </defs>
  <path class="cls-1" d="M39.957,79.15l0.169-1.035L36.6,77.549l0.7-4.311,0.01-.061L36.3,73.014l-0.714,4.371-2.7-.433,0.79-4.847,0.01-.061-1.006-.162-0.959,5.882-0.01.061L39.9,79.14ZM38.993,68.516a3.677,3.677,0,0,0,1.393.289,3.217,3.217,0,0,0,1.067-.183,2.879,2.879,0,0,0,1.729-1.691,2.565,2.565,0,0,0-.071-2.349l0.8,0.326,0.4-.969-5.863-2.391-0.4.97,0.813,0.331a2.524,2.524,0,0,0-1.7,1.559,2.921,2.921,0,0,0,.009,2.468A3.358,3.358,0,0,0,38.993,68.516Zm-0.913-3.8a1.914,1.914,0,0,1,1.209-1.163,2.18,2.18,0,0,1,.674-0.105A2.738,2.738,0,0,1,41,63.667a2.43,2.43,0,0,1,1.3,1.113,1.891,1.891,0,0,1,.035,1.67,2,2,0,0,1-1.221,1.186,2.613,2.613,0,0,1-3-1.225A1.982,1.982,0,0,1,38.08,64.716Zm4.659-7.274a1.323,1.323,0,0,0,.951.273,2.217,2.217,0,0,0,.882-0.341,5.566,5.566,0,0,0,.822-0.654c0.259-.248.516-0.476,0.763-0.676a2.622,2.622,0,0,1,.7-0.42,0.608,0.608,0,0,1,.6.081,0.755,0.755,0,0,1,.295.879,2.393,2.393,0,0,1-.189.5,4.472,4.472,0,0,1-.3.494,2.129,2.129,0,0,1-.434.45,1.233,1.233,0,0,1-1.436.126l-0.049-.027-0.625.888,0.056,0.034a2.015,2.015,0,0,0,1.067.315,2.094,2.094,0,0,0,.566-0.08A3.032,3.032,0,0,0,48.076,58a3.211,3.211,0,0,0,.681-1.813,1.633,1.633,0,0,0-.768-1.4,1.392,1.392,0,0,0-.972-0.287,2.225,2.225,0,0,0-.9.33,5.26,5.26,0,0,0-.828.652c-0.253.242-.508,0.47-0.759,0.679a2.714,2.714,0,0,1-.684.431,0.564,0.564,0,0,1-.577-0.068,0.668,0.668,0,0,1-.317-0.62,2,2,0,0,1,.423-0.971c0.533-.755,1.06-0.982,1.608-0.7l0.049,0.026,0.613-.869-0.061-.033a1.877,1.877,0,0,0-1.407-.183,2.806,2.806,0,0,0-1.515,1.178,3.021,3.021,0,0,0-.674,1.783A1.6,1.6,0,0,0,42.739,57.442Zm9.608-4.866,0.777-.711-2.471-2.656a1.758,1.758,0,0,1-.509-1.319,1.782,1.782,0,0,1,.6-1.234,1.615,1.615,0,0,1,1.222-.457,1.855,1.855,0,0,1,1.242.651l2.478,2.665,0.776-.712-2.5-2.684A2.763,2.763,0,0,0,52,45.159a2.24,2.24,0,0,0-.955.152,3.026,3.026,0,0,0-.923.6,2.057,2.057,0,0,0-.62,1,3.155,3.155,0,0,0-.1.949l-2.265-2.436-0.777.712,5.943,6.39Zm5.06-13.165-0.72-1.125-0.954.6,0.72,1.125Zm2.936,6.611,0.033,0.052,0.891-.563L57.9,40.253,57.868,40.2l-0.891.563Zm5.227-3.837a2.912,2.912,0,0,0,1.231.274,3.378,3.378,0,0,0,1.264-.259,3.01,3.01,0,0,0,1.781-1.737,3.265,3.265,0,0,0-.095-2.442A3.3,3.3,0,0,0,68.105,36.2a3.054,3.054,0,0,0-2.5-.015,3.017,3.017,0,0,0-1.781,1.737A3.589,3.589,0,0,0,65.57,42.185ZM64.8,38.273a1.9,1.9,0,0,1,1.176-1.2,2.213,2.213,0,0,1,.825-0.171,1.827,1.827,0,0,1,.859.215,2.669,2.669,0,0,1,1.222,2.99,2.111,2.111,0,0,1-2.861,1.151A2.667,2.667,0,0,1,64.8,38.273Zm10.356,1.543L76.2,39.65l-0.575-3.569a1.758,1.758,0,0,1,.313-1.378,1.806,1.806,0,0,1,1.192-.7A1.614,1.614,0,0,1,78.4,34.3a1.835,1.835,0,0,1,.671,1.225L79.646,39.1l1.043-.165-0.58-3.605a2.728,2.728,0,0,0-1.1-1.881,2.249,2.249,0,0,0-.88-0.4,3.032,3.032,0,0,0-1.106,0,2.071,2.071,0,0,0-1.074.492,3.185,3.185,0,0,0-.616.733L75.2,33.438l-1.043.165,0.989,6.151Zm56.085,54.253-0.059-.017-0.951,3.374a3.728,3.728,0,0,0-.114,1.453,3.565,3.565,0,0,0,.467,1.392,4.211,4.211,0,0,0,2.635,1.941,4.926,4.926,0,0,0,1.325.19,4.005,4.005,0,0,0,1.941-.492,3.627,3.627,0,0,0,1.127-.952,3.735,3.735,0,0,0,.662-1.3l0.933-3.316,0.017-.059Zm6.073,5.284a2.558,2.558,0,0,1-1.453,1.713,3.652,3.652,0,0,1-4.3-1.2,2.534,2.534,0,0,1-.348-2.213h0l0.657-2.328,6.1,1.694ZM130.3,106.3a3.266,3.266,0,0,0-2.446-.385,3.079,3.079,0,0,0-1.981,1.543,2.98,2.98,0,0,0-.449,1.854,3.04,3.04,0,0,0,.693,1.588l0.057,0.07,0.55-.957,0.019-.033-0.021-.031a1.785,1.785,0,0,1-.013-2,2.056,2.056,0,0,1,1.211-1,2.212,2.212,0,0,1,1.463.079l-2.543,4.43-0.031.053,0.378,0.214a3.523,3.523,0,0,0,1.744.493,3.051,3.051,0,0,0,.683-0.077,3.017,3.017,0,0,0,1.969-1.522,2.983,2.983,0,0,0,.315-2.458A3.284,3.284,0,0,0,130.3,106.3Zm0.441,3.841a2,2,0,0,1-1.143.952,2.15,2.15,0,0,1-1.378-.048l2.02-3.518a2.122,2.122,0,0,1,.744,1.152A1.976,1.976,0,0,1,130.744,110.143Zm-6.2,5.892H124.52a2.205,2.205,0,0,0-.916.232,5.42,5.42,0,0,0-.9.55c-0.291.217-.574,0.411-0.841,0.578a2.63,2.63,0,0,1-.743.333,0.608,0.608,0,0,1-.585-0.154,0.752,0.752,0,0,1-.185-0.908,2.241,2.241,0,0,1,.25-0.472,4.185,4.185,0,0,1,.361-0.454,2.1,2.1,0,0,1,.487-0.393,1.233,1.233,0,0,1,1.44.048l0.046,0.033,0.73-.805-0.052-.041a1.98,1.98,0,0,0-1.591-.431,3.029,3.029,0,0,0-1.822,1.065,3.221,3.221,0,0,0-.9,1.717,1.637,1.637,0,0,0,.593,1.478,1.4,1.4,0,0,0,.926.4h0a2.233,2.233,0,0,0,.93-0.219,5.226,5.226,0,0,0,.9-0.547c0.282-.211.564-0.407,0.837-0.582a2.746,2.746,0,0,1,.729-0.346,0.57,0.57,0,0,1,.566.138c0.416,0.372.318,0.884-.3,1.566s-1.172.847-1.684,0.5l-0.045-.031-0.715.788,0.057,0.04a1.9,1.9,0,0,0,1.111.371,1.95,1.95,0,0,0,.263-0.019,2.81,2.81,0,0,0,1.65-.985,3.027,3.027,0,0,0,.888-1.688,1.6,1.6,0,0,0-.583-1.376A1.334,1.334,0,0,0,124.544,116.035Zm-5.714,10.376,0.834,1.045,0.886-.7-0.833-1.044Zm-3.617-6.269-0.038-.048-0.827.652,3.9,4.88,0.038,0.048,0.828-.652Zm-4.739,4.441a2.921,2.921,0,0,0-2.413.212,2.591,2.591,0,0,0-1.454,1.862l-0.313-.586a1.947,1.947,0,0,1-.252-1.465,2.057,2.057,0,0,1,1.121-1.126,1.7,1.7,0,0,1,1.988,0l0.032,0.027,1.024-.538-0.06-.059a2.546,2.546,0,0,0-1.527-.715,3.649,3.649,0,0,0-2.053.509,2.98,2.98,0,0,0-1.519,1.6,2.669,2.669,0,0,0,.284,2.2l2.818,5.288,0.029,0.055,0.934-.491-0.405-.759a2.541,2.541,0,0,0,2.3-.125,2.976,2.976,0,0,0,1.595-1.893A3.492,3.492,0,0,0,110.474,124.583Zm1.117,3.768a2.193,2.193,0,0,1-2.752,1.446,2.363,2.363,0,0,1-1.229-1.151,2.335,2.335,0,0,1-.267-1.655,1.991,1.991,0,0,1,.364-0.725,2.1,2.1,0,0,1,.7-0.563,2.224,2.224,0,0,1,1.035-.274,1.921,1.921,0,0,1,.657.117A2.509,2.509,0,0,1,111.591,128.351Zm-10.8-.38-1.023.264,0.917,3.5a1.75,1.75,0,0,1-.177,1.4,1.8,1.8,0,0,1-1.118.805,1.6,1.6,0,0,1-1.295-.168,1.833,1.833,0,0,1-.786-1.155l-0.92-3.51-1.023.264,0.927,3.534a2.726,2.726,0,0,0,1.277,1.766,2.236,2.236,0,0,0,.914.314,2.083,2.083,0,0,0,.266.015,3.378,3.378,0,0,0,.836-0.115,2.1,2.1,0,0,0,1.022-.593,3.213,3.213,0,0,0,.542-0.789l0.215,0.82,1.022-.264-1.581-6.029Zm-7.98-47.739a1.2,1.2,0,0,0-.239-0.278,1.167,1.167,0,0,0-.382-0.2l-0.061-.02-0.963,1.108-0.019.022,0,0.029a1.014,1.014,0,0,0,.084.584,1.812,1.812,0,0,0,.311.434q0.185,0.193.379,0.386a1.916,1.916,0,0,1,.307.392l0.035,0.059,0.067-.015a0.486,0.486,0,0,0,.442-0.389,2.919,2.919,0,0,0,.028-0.529,2.915,2.915,0,0,1,.027-0.513,0.414,0.414,0,0,1,.309-0.31l0.11-.042-0.066-.1a3.432,3.432,0,0,1-.189-0.312C92.931,80.434,92.871,80.332,92.809,80.232Zm32.7,8.722a7.585,7.585,0,0,0,.805-0.378,1.584,1.584,0,0,0,.183-0.128,0.624,0.624,0,0,1,.158-0.093l1.752-.836,0.152,0.15,0.063-.051a2.954,2.954,0,0,1,.777-0.462,7.785,7.785,0,0,0,.822-0.38,0.3,0.3,0,0,0,.255-0.136c0.052-.074.109-0.154,0.173-0.24a1.506,1.506,0,0,1,.2-0.221,0.246,0.246,0,0,1,.239-0.031l0.042,0.01,0.035-.027a1.668,1.668,0,0,0,.294-0.292,3.293,3.293,0,0,1,.257-0.289c0.105-.115.184-0.2,0.235-0.259s0.1-.116.144-0.169,0.084-.1.135-0.158,0.129-.137.232-0.239l0.064-.063-0.064-.063a0.057,0.057,0,0,1,0-.031,0.239,0.239,0,0,1,.016-0.073l0.01-.222a0.217,0.217,0,0,0-.144-0.212l-0.05-.02-0.041.035a5.221,5.221,0,0,1-.453.339c-0.157.1-.316,0.207-0.478,0.31q-0.294.189-.457,0.283a2.642,2.642,0,0,0-.3.2c-0.084.066-.171,0.14-0.258,0.221l-0.382.355-0.133-.164-0.07.07c-0.13.128-.262,0.248-0.4,0.357a0.426,0.426,0,0,1-.435.053l-0.04-.013-0.037.023a0.6,0.6,0,0,1-.249.091,2.054,2.054,0,0,0-.292.055,0.848,0.848,0,0,0-.271.125,0.611,0.611,0,0,0-.215.324c-0.145.022-.289,0.038-0.429,0.048a2.491,2.491,0,0,0-.442.072,1.5,1.5,0,0,0-.4.165,0.987,0.987,0,0,0-.327.326,1.368,1.368,0,0,0-.111.23,2.061,2.061,0,0,0-.065.2,0.755,0.755,0,0,1-.215.006,0.217,0.217,0,0,1-.169-0.114l-0.032-.051-0.059.01a4.416,4.416,0,0,0-.827.221c-0.269.1-.528,0.206-0.77,0.313s-0.509.215-.762,0.309a3.472,3.472,0,0,1-.785.193,1.744,1.744,0,0,0-1.063-.113,2.735,2.735,0,0,1-.523,0,0.562,0.562,0,0,1-.335-0.145,1.044,1.044,0,0,1,.317-0.367,2.6,2.6,0,0,1,.488-0.267,4.788,4.788,0,0,1,.538-0.187,2.127,2.127,0,0,0,.518-0.216,1.211,1.211,0,0,0,.386-0.365,1.019,1.019,0,0,0,.151-0.51l0.226,0.047a2.6,2.6,0,0,1,.32.084l0.041,0.013,0.035-.023a0.658,0.658,0,0,0,.252-0.3,0.956,0.956,0,0,1,.175-0.259,0.372,0.372,0,0,0,.284.106,0.173,0.173,0,0,0,.118-0.076,1.122,1.122,0,0,0,.133-0.309,0.985,0.985,0,0,1,.152-0.31,0.3,0.3,0,0,1,.329-0.035l0.039,0.011,0.033-.021a1.851,1.851,0,0,0,.622-0.626,7.16,7.16,0,0,0,.386-0.757c0.08-.161.159-0.313,0.234-0.456a2.923,2.923,0,0,1,.263-0.412,0.828,0.828,0,0,0,.156-0.5,0.685,0.685,0,0,0-.141-0.424,0.417,0.417,0,0,0,.137-0.51,1.292,1.292,0,0,0-.475-0.641,1.7,1.7,0,0,0-.862-0.329,1.226,1.226,0,0,0-.962.382,0.431,0.431,0,0,0-.5-0.074,1.953,1.953,0,0,0-.329.28,2.231,2.231,0,0,1-.342.291,0.454,0.454,0,0,1-.445-0.009l-0.054-.022-0.043.039a6.633,6.633,0,0,1-.619.511c-0.217.159-.435,0.326-0.646,0.495a7.654,7.654,0,0,0-.608.542,3.157,3.157,0,0,0-.511.667l-0.017.03,0.007,0.034a0.677,0.677,0,0,1,.019.311,0.569,0.569,0,0,1-.091.2,1.428,1.428,0,0,1-.156.179,1.685,1.685,0,0,0-.211.264l-0.024.036,0.013,0.041a0.318,0.318,0,0,0,.105.143,0.085,0.085,0,0,1,.03.071,0.212,0.212,0,0,1-.035.153,0.154,0.154,0,0,1-.1.044,1.1,1.1,0,0,1-.185,0c-0.072-.006-0.138-0.009-0.2-0.009h-0.09v0.089c0,0.084,0,.161.01,0.232s0.008,0.139.008,0.217a1.663,1.663,0,0,1-.09.574,2.087,2.087,0,0,1-.242.464,0.857,0.857,0,0,0-.146.585c0,0.033.011,0.066,0.015,0.1a0.414,0.414,0,0,0-.155.163l-0.149-.149-0.058.1a0.752,0.752,0,0,1-.329.389,0.773,0.773,0,0,1-.3.031,0.962,0.962,0,0,0-.374.038,0.747,0.747,0,0,0-.371.363,0.324,0.324,0,0,0-.213-0.1h-0.009a0.369,0.369,0,0,0-.255.123,0.548,0.548,0,0,0-.331-0.175,0.745,0.745,0,0,0-.317.049q-0.132.052-.273,0.113a0.346,0.346,0,0,1-.245.008,0.337,0.337,0,0,1-.082-0.04,1.092,1.092,0,0,0-.1-0.085,0.941,0.941,0,0,1-.41-0.573,4.428,4.428,0,0,1-.043-0.61,1.823,1.823,0,0,0-.092-0.589,0.844,0.844,0,0,0-.539-0.461,0.944,0.944,0,0,1,.169-0.391,1.175,1.175,0,0,1,.324-0.289,3.753,3.753,0,0,1,.424-0.219,5.2,5.2,0,0,0,.487-0.246l0.064-.036-0.023-.069a1.067,1.067,0,0,1-.051-0.589,2.339,2.339,0,0,1,.193-0.508c0.085-.162.166-0.331,0.247-0.515a1.189,1.189,0,0,0,.085-0.616l0-.031-0.023-.023a0.676,0.676,0,0,0-.281-0.169,0.658,0.658,0,0,0-.321-0.02,0.808,0.808,0,0,0-.293.117,0.513,0.513,0,0,0-.2.24,4.217,4.217,0,0,0-.8,1.089c-0.224.428-.448,0.817-0.666,1.16l-0.013.031a1.246,1.246,0,0,1-.381.711,5.255,5.255,0,0,1-.718.543c-0.268.169-.542,0.353-0.814,0.547a2.281,2.281,0,0,0-.641.694,0.544,0.544,0,0,0-.382.094,0.963,0.963,0,0,0-.24.286c-0.059.106-.115,0.218-0.169,0.335a0.936,0.936,0,0,1-.139.222,0.655,0.655,0,0,0-.508-0.027,2.007,2.007,0,0,0-.42.226,3.028,3.028,0,0,1-.337.209,0.258,0.258,0,0,1-.283-0.047l-0.077-.05-0.049.077a0.22,0.22,0,0,1-.153.115,1.037,1.037,0,0,1-.2,0,2.328,2.328,0,0,0-.248-0.346,0.277,0.277,0,0,1-.052-0.3,0.421,0.421,0,0,0,.343-0.334,0.57,0.57,0,0,0-.03-0.124l0.012-.014,0.051-.05-0.172-.273-0.058.035a1.408,1.408,0,0,1-.115-0.191c-0.012-.026-0.039-0.087.107-0.183l0.025-.017,0.01-.028a6.458,6.458,0,0,1,.421-0.955q0.252-.468.5-0.934c0.163-.312.316-0.634,0.456-0.957a5.117,5.117,0,0,0,.316-1.009c0.023-.07.047-0.146,0.071-0.229a0.65,0.65,0,0,0,.021-0.266,0.526,0.526,0,0,0-.262-0.483,0.847,0.847,0,0,0-.5-0.124,0.69,0.69,0,0,0-.459.217,0.531,0.531,0,0,0-.1.529,4.51,4.51,0,0,0-1.319,1.637,6.923,6.923,0,0,0-.617,2.066l-0.007.053,0.044,0.031a0.071,0.071,0,0,1,.032.105q-0.062.132-.123,0.27a0.664,0.664,0,0,0-.06.31,0.378,0.378,0,0,0,.288.274c0,0.067,0,.133-0.009.2a0.176,0.176,0,0,1-.119.144l-0.057.031,0.012,0.063c0.021,0.106.051,0.211,0.081,0.317-0.108.073-.224,0.145-0.328,0.219-0.122.1-.238,0.2-0.345,0.3s-0.22.2-.339,0.294a1.228,1.228,0,0,1-.116.075c-0.077.047-.162,0.1-0.256,0.166s-0.176.116-.255,0.16a1.209,1.209,0,0,0-.144.089c-0.194.09-.34,0.161-0.437,0.212a3.556,3.556,0,0,0-.435.295,5.3,5.3,0,0,0-.762.129l-0.676.162a3.507,3.507,0,0,0-.27-0.611q-0.181-.329-0.374-0.659l-0.031-.031c-0.091-.057-0.186-0.119-0.283-0.187-0.081-.057-0.167-0.112-0.256-0.163,0.02-.1.044-0.2,0.073-0.31s0.061-.243.085-0.368a2.338,2.338,0,0,0,.163-0.319q0.114-.252.228-0.54l0.209-.527c0.062-.157.1-0.246,0.115-0.281,0.047-.143.089-0.291,0.125-0.441l0.1-.432a1.482,1.482,0,0,0,.195-0.427,2.925,2.925,0,0,1,.152-0.419c0.08-.172.153-0.321,0.216-0.447s0.123-.254.177-0.377,0.1-.246.157-0.373,0.1-.244.163-0.387c0.168-.031.332-0.06,0.491-0.086s0.355-.061.541-0.1l0.112-.021-0.551-1.229-1.092-.318-0.035.026a0.854,0.854,0,0,1-.181.093c-0.087.034-.178,0.068-0.275,0.1s-0.195.066-.292,0.094-0.183.056-.243,0.081l-0.019.01a1.6,1.6,0,0,1-.19.114c-0.085.045-.179,0.09-0.281,0.135l-0.3.13c-0.092.04-.166,0.071-0.221,0.093q-0.42.157-.838,0.32a4.875,4.875,0,0,0-.823.419l-0.375.294c-0.086.069-.21,0.16-0.381,0.283a1.864,1.864,0,0,0-.294.381,3.125,3.125,0,0,1-.25.366,1.728,1.728,0,0,1-.331.279,3.372,3.372,0,0,0-.375.284l-0.4.856a0.86,0.86,0,0,1-.1.118c-0.063.068-.132,0.139-0.206,0.213l-0.209.208a0.379,0.379,0,0,0-.119.168l-0.355.807c-0.1.127-.2,0.253-0.285,0.377s-0.177.26-.27,0.4L95.2,88.26,95.209,88.3c0.012,0.043.024,0.1,0.036,0.147a0.6,0.6,0,0,0-.368.224l-0.014.018,0,0.023a0.342,0.342,0,0,1-.142.276,1.059,1.059,0,0,1-.3.056,1.526,1.526,0,0,0-.369.064,0.468,0.468,0,0,0-.293.362,0.629,0.629,0,0,1-.326.034c-0.113-.023-0.222-0.048-0.324-0.076a1.19,1.19,0,0,0-.36-0.038,0.942,0.942,0,0,0-.437.163,3.612,3.612,0,0,0-.587.019,0.607,0.607,0,0,1-.481-0.135L91.2,89.4l-0.05.019a0.322,0.322,0,0,1-.324.009,0.727,0.727,0,0,1-.138-0.331,3.177,3.177,0,0,1-.051-0.479,0.785,0.785,0,0,0-.068-0.323,0.372,0.372,0,0,0,.157-0.174,1.364,1.364,0,0,0,.084-0.268,0.639,0.639,0,0,1,.077-0.206,0.193,0.193,0,0,1,.175-0.059h0.143l-0.063-.128a0.718,0.718,0,0,1-.071-0.63,2.554,2.554,0,0,1,.354-0.518,4.71,4.71,0,0,0,.416-0.554,1.013,1.013,0,0,0,.072-0.826,0.651,0.651,0,0,0-.138-0.256c0-.01.01-0.019,0.014-0.029l0.068-.162-0.172.041c-0.035.008-.064,0.025-0.1,0.035a0.5,0.5,0,0,0-.089-0.044,1.014,1.014,0,0,0-.285-0.019c-0.091.005-.182,0.008-0.273,0.008H90.905l-0.026.026c-0.092.091-.192,0.185-0.3,0.282a2.32,2.32,0,0,0-.308.333,1.737,1.737,0,0,0-.212.37q-0.233.222-.452,0.462l-0.871.951a3.881,3.881,0,0,1-.936.749,0.659,0.659,0,0,0-.371-0.015,0.883,0.883,0,0,0-.3.154,1.341,1.341,0,0,0-.243.25,2.2,2.2,0,0,1-.2.23,2.154,2.154,0,0,0-.58.2,3.1,3.1,0,0,0-.565.374,5.614,5.614,0,0,0-.5.474c-0.125.133-.239,0.263-0.34,0.388l-0.425-.591-0.32.3a2.5,2.5,0,0,1-.394-0.68,1.742,1.742,0,0,1-.107-0.428,0.886,0.886,0,0,1,.039-0.393l0.006-.019,0-.02c-0.057-.509-0.11-1.037-0.157-1.57A11.763,11.763,0,0,1,83.3,84.79c0.321-.649.615-1.317,0.874-1.987,0.252-.649.513-1.339,0.776-2.05,0.077-.22.154-0.442,0.232-0.666l0.048-.138c0.089-.262.188-0.531,0.295-0.8a1.14,1.14,0,0,1,.468-0.667,1.3,1.3,0,0,1,.612-0.129c0.231,0.006.469,0.014,0.712,0.025a1.261,1.261,0,0,0,.737-0.208,0.64,0.64,0,0,0,.443.077,0.59,0.59,0,0,0,.332-0.186l0.247,0.246,0.034,0a2.426,2.426,0,0,0,.651-0.054q0.315-.069.629-0.147c0.2-.05.406-0.09,0.6-0.119a1.391,1.391,0,0,1,.54.025l0.06,0.015,0.036-.051a0.487,0.487,0,0,1,.39-0.247,2.385,2.385,0,0,1,.538.042,3.048,3.048,0,0,0,.6.045,0.856,0.856,0,0,0,.6-0.3l0.036-.038-0.015-.049a0.576,0.576,0,0,1-.026-0.32q0.045-.15.072-0.275a0.48,0.48,0,0,0-.031-0.3,0.818,0.818,0,0,0-.35-0.317l-0.03-.018-0.034.007c-0.175.035-.371,0.078-0.587,0.13s-0.43.1-.637,0.128a5.937,5.937,0,0,1-.634.068,3.206,3.206,0,0,1-.566-0.016l-0.034,0-0.028.019a0.265,0.265,0,0,1-.23.049,1.692,1.692,0,0,1-.29-0.115,2.084,2.084,0,0,0-.355-0.136,0.631,0.631,0,0,0-.457.058l-0.023.012-0.013.022a0.407,0.407,0,0,1-.258.225,0.849,0.849,0,0,1-.313-0.047,2.021,2.021,0,0,0-.365-0.091,0.432,0.432,0,0,0-.357.123,0.455,0.455,0,0,0-.516-0.04,2.832,2.832,0,0,1-.278.092,0.434,0.434,0,0,1-.237,0c-0.1-.12-0.209-0.244-0.334-0.381a0.324,0.324,0,0,1-.044-0.387,1.488,1.488,0,0,0,.274-0.355,0.338,0.338,0,0,1,.253-0.2l0.071-.006,0.01-.07a0.62,0.62,0,0,1,.108-0.24,2.8,2.8,0,0,0,.179-0.3,0.438,0.438,0,0,0,.041-0.323,0.378,0.378,0,0,0-.208-0.218,1.548,1.548,0,0,0,.206-0.384,4.761,4.761,0,0,0,.151-0.511q0.061-.261.114-0.521a3.253,3.253,0,0,1,.136-0.489l0.025-.07L88.116,72.2c-0.137-.08-0.28-0.156-0.423-0.227a0.928,0.928,0,0,0-.539-0.078l-0.033.011a2.451,2.451,0,0,0-.938.888,5.426,5.426,0,0,0-.487,1.124c-0.122.4-.232,0.81-0.324,1.216a4.7,4.7,0,0,1-.4,1.114,2.7,2.7,0,0,1-1.515.71,3.777,3.777,0,0,1-.824.008,8.348,8.348,0,0,1-.913-0.145l-0.034-.008-0.03.018a0.671,0.671,0,0,1-.324.1,3.008,3.008,0,0,0-.359.036,0.588,0.588,0,0,0-.306.143,0.628,0.628,0,0,0-.151.437V77.73a0.269,0.269,0,0,0,.213.229,1.571,1.571,0,0,0,.64.01,1.351,1.351,0,0,1,.327-0.023,0.956,0.956,0,0,0,.13.062,2.054,2.054,0,0,0,.592.126c0.378,0.023.762,0.009,1.137,0.043a2.082,2.082,0,0,1,.447.095c-0.323.811-.637,1.639-0.933,2.466-0.306.855-.579,1.733-0.812,2.608-0.092.353-.18,0.711-0.262,1.065s-0.168.71-.261,1.078l-0.061.241a0.811,0.811,0,0,0-.011.287,2.757,2.757,0,0,0,.081.492,3.207,3.207,0,0,1,.085.437,1,1,0,0,1,0,.107c-0.045.031-.089,0.065-0.134,0.092a0.424,0.424,0,0,1-.223.056h-0.09v0.089a0.525,0.525,0,0,1-.049.323,0.259,0.259,0,0,1-.183,0,1.287,1.287,0,0,0-.308-0.055,0.319,0.319,0,0,0-.287.2l-0.15-.149-0.057.1a0.749,0.749,0,0,1-.33.389,0.776,0.776,0,0,1-.305.031,0.961,0.961,0,0,0-.374.038,0.749,0.749,0,0,0-.371.363,0.322,0.322,0,0,0-.212-0.1H78.747a0.368,0.368,0,0,0-.255.123,0.548,0.548,0,0,0-.332-0.175,0.747,0.747,0,0,0-.317.049q-0.132.052-.273,0.113a0.344,0.344,0,0,1-.244.008,0.319,0.319,0,0,1-.082-0.04,1.071,1.071,0,0,0-.1-0.085,0.942,0.942,0,0,1-.41-0.573,4.506,4.506,0,0,1-.043-0.61,1.828,1.828,0,0,0-.092-0.589,0.847,0.847,0,0,0-.54-0.461,0.95,0.95,0,0,1,.169-0.391,1.183,1.183,0,0,1,.324-0.289,3.787,3.787,0,0,1,.424-0.219,5.239,5.239,0,0,0,.487-0.246l0.064-.036L77.5,84.947a1.059,1.059,0,0,1-.051-0.589,2.339,2.339,0,0,1,.193-0.508c0.085-.162.166-0.331,0.247-0.515a1.193,1.193,0,0,0,.085-0.616l0-.031-0.022-.023a0.686,0.686,0,0,0-.281-0.169,0.66,0.66,0,0,0-.322-0.02,0.813,0.813,0,0,0-.293.117,0.512,0.512,0,0,0-.2.24,4.233,4.233,0,0,0-.8,1.089c-0.224.428-.448,0.817-0.667,1.16l-0.012.031a1.245,1.245,0,0,1-.382.711,5.183,5.183,0,0,1-.718.543c-0.268.169-.541,0.353-0.814,0.547a2.282,2.282,0,0,0-.641.694,0.544,0.544,0,0,0-.382.094,0.951,0.951,0,0,0-.24.286c-0.059.106-.115,0.218-0.169,0.335a0.935,0.935,0,0,1-.14.222,0.655,0.655,0,0,0-.508-0.027,2,2,0,0,0-.419.226,3.031,3.031,0,0,1-.337.209,0.258,0.258,0,0,1-.283-0.047l-0.077-.05-0.049.077a0.221,0.221,0,0,1-.153.115,1.038,1.038,0,0,1-.2,0,2.311,2.311,0,0,0-.248-0.346,0.277,0.277,0,0,1-.051-0.3,0.421,0.421,0,0,0,.343-0.334,0.618,0.618,0,0,0-.14-0.334,1.384,1.384,0,0,1-.172-0.284c-0.012-.026-0.039-0.087.107-0.183l0.025-.017,0.01-.028a6.448,6.448,0,0,1,.421-0.955q0.253-.468.5-0.934c0.163-.312.316-0.634,0.456-0.957a5.072,5.072,0,0,0,.316-1.009c0.023-.07.047-0.146,0.071-0.229a0.64,0.64,0,0,0,.021-0.266,0.525,0.525,0,0,0-.261-0.483,0.851,0.851,0,0,0-.505-0.124,0.689,0.689,0,0,0-.459.217,0.529,0.529,0,0,0-.1.529,4.51,4.51,0,0,0-1.319,1.637c-0.034.072-.062,0.146-0.094,0.218a1.352,1.352,0,0,0-.206.135,0.457,0.457,0,0,0-.357-0.24H68.2a0.789,0.789,0,0,0-.383.126,2.625,2.625,0,0,1-.329.175A0.233,0.233,0,0,1,67.222,85l-0.049-.044-0.057.033a1.537,1.537,0,0,1-.953.222,2.536,2.536,0,0,1-.931-0.318l0-1.345a2.825,2.825,0,0,0-.09-0.34c-0.046-.15-0.1-0.306-0.148-0.467s-0.1-.32-0.157-0.476-0.089-.271-0.112-0.35l-0.009-.032-0.027-.018a1.036,1.036,0,0,0-.839-0.219,2.362,2.362,0,0,0-.679.3c-0.217.139-.444,0.275-0.674,0.4a1.2,1.2,0,0,1-.77.119l-0.172-.025L61.632,82.6a0.151,0.151,0,0,1,.006.134c-0.029.07-.056,0.137-0.08,0.2a0.848,0.848,0,0,0-.049.2,0.237,0.237,0,0,0,.073.187,0.716,0.716,0,0,1-.142.106c-0.079.045-.16,0.087-0.245,0.126s-0.179.084-.272,0.131a1.023,1.023,0,0,0-.268.189l-0.032.031,0.007,0.044a0.5,0.5,0,0,1-.143.49,3.629,3.629,0,0,1-.476.337,2.066,2.066,0,0,0-.464.371,0.629,0.629,0,0,0-.086.628A0.48,0.48,0,0,0,59.25,86c-0.163.078-.327,0.149-0.487,0.231-0.3.161-.6,0.317-0.9,0.465a3.353,3.353,0,0,1-.828.283,8.082,8.082,0,0,0-.588-2.941A14.48,14.48,0,0,0,54.977,81.3a14.081,14.081,0,0,0,.833-2.019,7.162,7.162,0,0,0,.353-2.221,4.228,4.228,0,0,0-.134-0.989c-0.084-.345-0.169-0.661-0.255-0.943-0.035-.092-0.073-0.192-0.113-0.3a2.321,2.321,0,0,1-.09-0.288L55.563,74.5a1.312,1.312,0,0,0-.346-0.5,1.6,1.6,0,0,0-.48-0.284,2.829,2.829,0,0,0-.549-0.143c-0.185-.029-0.369-0.06-0.554-0.095l-0.217-.043a0.973,0.973,0,0,0-.525.018l-0.393.1c-0.138.034-.273,0.073-0.4,0.114l-0.292.1A6.207,6.207,0,0,0,50,74.825a8.5,8.5,0,0,0-1.355,1.466A11.78,11.78,0,0,0,47.6,78.033c-0.3.608-.59,1.233-0.872,1.859-0.268.591-.549,1.18-0.834,1.751a13.023,13.023,0,0,1-.985,1.656l-0.018.025,0,0.03a1.757,1.757,0,0,1-.09.674c-0.077.211-.161,0.416-0.25,0.606-0.094.206-.183,0.414-0.263,0.618a1.959,1.959,0,0,0-.127.657,0.675,0.675,0,0,0-.464.344,1.358,1.358,0,0,0-.1.48,2.12,2.12,0,0,1-.067.456,0.518,0.518,0,0,1-.34.312l-0.07.03L43.137,87.6a1.85,1.85,0,0,1,.033.61q-0.034.345-.087,0.722l-0.1.77a2.9,2.9,0,0,0,0,.793l0.008,0.056,0.055,0.017a1.182,1.182,0,0,0,.7.042,0.871,0.871,0,0,0,.436-0.3,1.885,1.885,0,0,0,.265-0.49c0.069-.183.142-0.367,0.216-0.551a2.708,2.708,0,0,1,.278-0.51,1.177,1.177,0,0,1,.44-0.37l0.954,0.681a1.094,1.094,0,0,1,.161.12,1.283,1.283,0,0,0,.19.141,9.6,9.6,0,0,0,.985.471c0.358,0.149.736,0.287,1.122,0.409s0.769,0.229,1.146.321,0.734,0.162,1.062.209a8.362,8.362,0,0,0,1.142.078,8.266,8.266,0,0,0,1.137-.078,4.689,4.689,0,0,0,2.1-.845l0.053-.038L55.409,89.8a0.353,0.353,0,0,1,.027-0.348,0.849,0.849,0,0,1,.315-0.226c0.151-.066.295-0.121,0.438-0.17a0.773,0.773,0,0,0,.372-0.247l0.052-.069-0.145-.115c0.277-.179.557-0.347,0.831-0.5a8.8,8.8,0,0,1,.931-0.445c0.22-.092.431-0.2,0.642-0.316,0,0.02,0,.043-0.007.063a3.493,3.493,0,0,1-.195.514q-0.123.26-.237,0.531a1.23,1.23,0,0,0-.085.623l0,0.024,0.015,0.019a2.641,2.641,0,0,1,.328.569,1.878,1.878,0,0,1,.142.644l0,0.1,0.1-.019a0.652,0.652,0,0,1,.3.006,0.919,0.919,0,0,1,.254.118q0.127,0.084.255,0.186a1.6,1.6,0,0,0,.286.183l0.025,0.012,0.027,0a5.051,5.051,0,0,0,1.542-.466,4.445,4.445,0,0,0,1.266-.91,0.58,0.58,0,0,0,.531-0.141,1.181,1.181,0,0,0,.218-0.411c0.045-.146.1-0.294,0.161-0.441a0.48,0.48,0,0,1,.335-0.261l0.118-.034-0.069-.1a1.477,1.477,0,0,0-.1-0.13,0.062,0.062,0,0,1-.016-0.027,0.745,0.745,0,0,0,.484-0.407,4.251,4.251,0,0,0,.2-0.582,2.444,2.444,0,0,1,.194-0.518,0.525,0.525,0,0,1,.457-0.221,0.842,0.842,0,0,1,.186-0.008,1.824,1.824,0,0,0,.242.009,1.316,1.316,0,0,1,.382.024,1.269,1.269,0,0,0,.46.01c0.53-.084.988-0.148,1.4-0.2,0.1-.012.207-0.031,0.309-0.047-0.05.214-.093,0.429-0.122,0.647l-0.007.053,0.044,0.031a0.071,0.071,0,0,1,.032.105q-0.062.132-.123,0.27a0.663,0.663,0,0,0-.06.31,0.377,0.377,0,0,0,.287.274c0,0.067,0,.133-0.008.2a0.179,0.179,0,0,1-.119.144l-0.057.031,0.012,0.063a4.223,4.223,0,0,0,.284.9q0.192,0.432.383,0.88l0.023,0.055h0.06a0.55,0.55,0,0,1,.329.086,2.345,2.345,0,0,1,.252.217,2.6,2.6,0,0,0,.271.233,0.6,0.6,0,0,0,.368.107l0.068,0a0.682,0.682,0,0,0,.144-0.029,0.815,0.815,0,0,0,.141-0.044,3.1,3.1,0,0,0,.744-0.311,1.161,1.161,0,0,0,.5-0.585,2.3,2.3,0,0,0,.817-0.2,4.358,4.358,0,0,0,.862-0.494,4.52,4.52,0,0,0,.737-0.679,3.466,3.466,0,0,0,.485-0.705h0.009a0.5,0.5,0,0,1,.381.118,0.782,0.782,0,0,1,.18.358,4.158,4.158,0,0,1,.077.474,0.976,0.976,0,0,0,.167.469,0.235,0.235,0,0,0,.133.112c0.01,0.006.028,0.02,0.06,0.044a1.278,1.278,0,0,1,.2.178,1.416,1.416,0,0,0,.228.2,2.994,2.994,0,0,0,2.4.606l0.029,0,0.021-.02a0.766,0.766,0,0,1,.265-0.179q0.158-.061.306-0.122a1.049,1.049,0,0,0,.285-0.17,0.727,0.727,0,0,0,.2-0.293c0.1-.059.182-0.1,0.246-0.136a0.689,0.689,0,0,1,.169-0.061,1.691,1.691,0,0,1,.189-0.025c0.074-.006.179-0.008,0.315-0.008h0.03l1.076-.81a3.523,3.523,0,0,0,.337,1.047,3.026,3.026,0,0,0,1.049,1.148,2.523,2.523,0,0,0,.326.171,2.567,2.567,0,0,0,.35.135,1.668,1.668,0,0,0,.341.034,2.464,2.464,0,0,0,.65-0.1,2.819,2.819,0,0,0,.861-0.381A0.8,0.8,0,0,0,85.8,90.42a0.781,0.781,0,0,1,.38.012,0.18,0.18,0,0,1,.092.1l0.059,0.115,0.088-.095a8.082,8.082,0,0,1,.826-0.778c0.289-.234.591-0.457,0.9-0.659,0.092-.058.191-0.117,0.295-0.181l0.3-.181a2.263,2.263,0,0,0,.481-0.389c0,0.106-.015.213-0.009,0.319a2.776,2.776,0,0,0,.108.625,1.2,1.2,0,0,0,.3.52q0.09,0.09.2,0.179a1.428,1.428,0,0,1,.181.18c0.08,0.09.163,0.191,0.25,0.3a1.778,1.778,0,0,0,.3.3,1.113,1.113,0,0,0,.36.188,0.785,0.785,0,0,0,.364.015,0.267,0.267,0,0,0,.193.135l0.034,0a0.378,0.378,0,0,0,.2-0.057,0.972,0.972,0,0,0,.182-0.143,0.25,0.25,0,0,1,.113-0.074,0.607,0.607,0,0,1,.233-0.013c0.113,0.011.206,0.017,0.278,0.017,0.217,0,.4.006,0.532,0.017a1.493,1.493,0,0,0,.538-0.073l0.042-.012,0.016-.04a0.371,0.371,0,0,1,.2-0.24c0.21-.046.445-0.021,0.627-0.08a0.393,0.393,0,0,0,.228-0.307l0.061-.009,0.037-.014c0.321-.216.577-0.377,0.76-0.48l0.1-.055c0.027,0.04.05,0.077,0.082,0.122q0.175,0.253.281,0.392l0.024,0.031L96.956,90.2l0.016,0q0.189-.051.422-0.1a2.185,2.185,0,0,0,.44-0.142,3.582,3.582,0,0,0,.778-0.452l0.079-.059q-0.069.19-.147,0.4a2.394,2.394,0,0,0-.118.412,2.43,2.43,0,0,0-.036.439c0,0.146-.006.291-0.017,0.434l0,0.019,0.275,0.752a2.055,2.055,0,0,1-.134.337,1.477,1.477,0,0,0-.139.4q-0.035.19-.078,0.414a2.7,2.7,0,0,1-.107.394,3.828,3.828,0,0,1-.2.372c-0.075.126-.144,0.257-0.205,0.388s-0.116.261-.175,0.4-0.116.269-.173,0.4l-0.007.024c-0.023.16-.046,0.3-0.069,0.427l-0.061.3c-0.018.087-.024,0.125-0.026,0.145a2.532,2.532,0,0,1-.173.364q-0.113.2-.2,0.4a2.258,2.258,0,0,0-.136.441,3.49,3.49,0,0,1-.109.408c-0.059.151-.112,0.3-0.158,0.437l-0.146.436,0,0.022c0.023,0.126.049,0.274,0.078,0.44s0.061,0.338.1,0.512,0.073,0.347.113,0.521a2.108,2.108,0,0,0,.141.421c-0.021.085-.042,0.176-0.062,0.275s-0.046.207-.069,0.3l-0.018.071,1.008,0.463,1.035,0.08,0.025-.016c0.256-.161.507-0.338,0.748-0.524s0.481-.381.709-0.574c0.105-.092.22-0.187,0.343-0.281a2.531,2.531,0,0,0,.347-0.317c0.047-.059.12-0.157,0.22-0.3s0.2-.284.3-0.435,0.194-.3.282-0.444a3.27,3.27,0,0,0,.187-0.346,3.32,3.32,0,0,0,.16-0.435,3.316,3.316,0,0,1,.153-0.411l0.366-.794,0.008-.031a1.075,1.075,0,0,1,.031-0.12c0.023-.08.051-0.171,0.086-0.273s0.067-.2.1-0.3a0.8,0.8,0,0,0,.046-0.185c0.023-.151.044-0.3,0.061-0.453s0.038-.291.061-0.429A3.654,3.654,0,0,1,103,94.391a3.8,3.8,0,0,0,.1-0.451,6.142,6.142,0,0,0,.08-0.894,4.256,4.256,0,0,0-.08-0.918l-0.044-.214-0.011.018,0.005-.021,0.118-.023a0.8,0.8,0,0,1,.157-0.016h0.055l0.025-.049a1.46,1.46,0,0,1,.075-0.132c0.016-.026.031-0.052,0.046-0.078a1.58,1.58,0,0,0,.159.034,1.139,1.139,0,0,1,.2.048l0.052,0.017,0.04-.039a1.464,1.464,0,0,1,.13-0.1c0.071-.053.144-0.111,0.222-0.177l0.207-.172a0.88,0.88,0,0,0,.109-0.1l0.078-.022c0.057-.017.118-0.033,0.181-0.051s0.155-.043.271-0.078l0.021-.009a0.738,0.738,0,0,0,.14-0.1l0.111-.111c0.016-.016.052-0.045,0.1-0.085a2.663,2.663,0,0,0,.344-0.287q0.153-.153.309-0.29a1.975,1.975,0,0,1,.341-0.24c0.141-.079.265-0.157,0.382-0.238l0.012-.008c0.055,0.129.111,0.254,0.167,0.385l0.023,0.055h0.06a0.55,0.55,0,0,1,.329.086,2.4,2.4,0,0,1,.252.217,2.648,2.648,0,0,0,.27.233,0.606,0.606,0,0,0,.369.107l0.068,0a0.68,0.68,0,0,0,.144-0.029,0.834,0.834,0,0,0,.141-0.044A3.084,3.084,0,0,0,109.5,90.3a1.157,1.157,0,0,0,.5-0.585,2.306,2.306,0,0,0,.818-0.2,4.344,4.344,0,0,0,.861-0.494,4.508,4.508,0,0,0,.738-0.679,3.478,3.478,0,0,0,.484-0.705h0.01a0.5,0.5,0,0,1,.38.118,0.776,0.776,0,0,1,.18.358,4.117,4.117,0,0,1,.076.474,0.987,0.987,0,0,0,.167.469,0.236,0.236,0,0,0,.133.112l0.06,0.044a1.3,1.3,0,0,1,.2.178,1.371,1.371,0,0,0,.228.2,2.993,2.993,0,0,0,2.4.606l0.029,0,0.021-.02a0.761,0.761,0,0,1,.265-0.179c0.1-.041.207-0.081,0.3-0.122a1.044,1.044,0,0,0,.286-0.17,0.735,0.735,0,0,0,.2-0.293c0.1-.059.182-0.1,0.245-0.136a0.7,0.7,0,0,1,.17-0.061,1.661,1.661,0,0,1,.189-0.025c0.074-.006.179-0.008,0.315-0.008h0.031l0.55-.415c0.082,0.133.157,0.247,0.217,0.327a4.86,4.86,0,0,1,.3.45,2.43,2.43,0,0,0,.333.448,1.115,1.115,0,0,0,.427.282,0.6,0.6,0,0,0,.2.032,0.91,0.91,0,0,0,.369-0.089,2.529,2.529,0,0,0,.932.017,3.886,3.886,0,0,1,.434-0.043,2.316,2.316,0,0,1,.408.025l0.032,0.006,0.029-.017a1,1,0,0,1,.447-0.109,3.473,3.473,0,0,0,.589-0.08,0.911,0.911,0,0,0,.444-0.222,0.46,0.46,0,0,0,.053-0.49l0.139-.042C124.966,89.164,125.239,89.062,125.508,88.954Zm-4.18-3.3a4.862,4.862,0,0,1,.2-0.466,1.912,1.912,0,0,1,.266-0.4,0.975,0.975,0,0,1,.423-0.268l0.056-.02,0-.059c0.012-.178.031-0.359,0.06-0.536q0.036-.221.078-0.448a0.971,0.971,0,0,0,.551-0.009,1.346,1.346,0,0,0,.457-0.269,3.571,3.571,0,0,0,.356-0.372,1.551,1.551,0,0,1,.347-0.31,0.756,0.756,0,0,1,.4-0.124,1.15,1.15,0,0,1,.553.166h0a1.908,1.908,0,0,1-.09.208,3.024,3.024,0,0,0-.133.309,6.121,6.121,0,0,1-.463.955,1.259,1.259,0,0,1-.783.581l-0.038.011-0.018.035a1.136,1.136,0,0,1-.436.465c-0.2.125-.422,0.242-0.646,0.35s-0.45.23-.668,0.358a1.742,1.742,0,0,0-.478.407l-0.048-.048a0.26,0.26,0,0,0-.173-0.088A2.377,2.377,0,0,0,121.328,85.655ZM55.641,86.97l-0.142.047,0.061,0.1a0.466,0.466,0,0,1,.1.265,0.239,0.239,0,0,1-.085.165,0.9,0.9,0,0,1-.23.149c-0.1.045-.19,0.085-0.286,0.121l-0.347.155a0.816,0.816,0,0,0-.319.272c-0.127.023-.25,0.05-0.371,0.078s-0.243.054-.37,0.077q-0.367.07-.706,0.139a1.784,1.784,0,0,0-.61.255,0.286,0.286,0,0,0-.2-0.127,0.494,0.494,0,0,0-.244.041c-0.07.029-.144,0.061-0.22,0.1a0.23,0.23,0,0,1-.184,0l-0.042-.016-0.037.024a0.857,0.857,0,0,1-.468.133H50.912a3.645,3.645,0,0,1-.6-0.067c-0.2-.038-0.407-0.084-0.622-0.137a2.6,2.6,0,0,0-.576-0.08L49.1,88.647a2.706,2.706,0,0,0-.54-0.233l-0.554-.171a5.3,5.3,0,0,1-1.181-.6q-0.536-.362-1.058-0.7a11.588,11.588,0,0,0,1.2-2.346c0.31-.832.615-1.687,0.907-2.544,0.128-.392.265-0.78,0.407-1.154s0.288-.761.427-1.142l0-.012a5.7,5.7,0,0,0,.62-0.944c0.172-.33.343-0.674,0.505-1.021,0.012-.024.036-0.074,0.071-0.149s0.072-.151.113-0.232,0.077-.159.107-0.23a0.428,0.428,0,0,0,.05-0.155V76.37a0.581,0.581,0,0,1,.089-0.331,1.037,1.037,0,0,1,.231-0.247,2.308,2.308,0,0,1,.318-0.2c0.123-.064.237-0.124,0.34-0.182a3.513,3.513,0,0,0,.393-0.239,1.165,1.165,0,0,0,.307-0.346l0.026-.027a1.806,1.806,0,0,1,.446-0.174,2.477,2.477,0,0,1,.538-0.075,3.536,3.536,0,0,1,.552.024,1.818,1.818,0,0,1,.463.115,1.1,1.1,0,0,1,.418.337,4.992,4.992,0,0,1,.328.454c0,0.154.007,0.3,0.018,0.431a0.478,0.478,0,0,0,.281.385,5.834,5.834,0,0,1,.058,1.08,4.926,4.926,0,0,1-.137.925,5.747,5.747,0,0,1-.309.894c-0.133.3-.288,0.638-0.461,0.992l-0.318.7a1.368,1.368,0,0,1-.7.14,2,2,0,0,1-.733-0.139l-0.039-.017-0.038.02a1.871,1.871,0,0,1-.723.2,7.99,7.99,0,0,0-.845.114,2.144,2.144,0,0,0-.754.289,1.119,1.119,0,0,0-.457.757l-0.007.031L49.482,82.3a0.5,0.5,0,0,1,.061.368,1.847,1.847,0,0,1-.142.379l-0.174.345a0.369,0.369,0,0,0,.211.557,0.744,0.744,0,0,1,.161.072l0,0.007a0.727,0.727,0,0,0,.544.4,2.155,2.155,0,0,0,.681-0.018c0.236-.041.472-0.094,0.705-0.157a2.037,2.037,0,0,1,.6-0.075l0.024,0,0.021-.011c0.164-.081.35-0.183,0.554-0.305s0.411-.256.616-0.4A4.307,4.307,0,0,0,53.907,83a1.963,1.963,0,0,0,.325-0.413,3.852,3.852,0,0,1,.62.875,6.666,6.666,0,0,1,.464,1.143,12.254,12.254,0,0,1,.3,1.227q0.106,0.549.212,1.052A0.265,0.265,0,0,0,55.641,86.97Zm-2.932-4.864v0.273c-0.1.049-.2,0.091-0.292,0.128a3.022,3.022,0,0,0-.34.161c-0.209.114-.417,0.218-0.62,0.308a3.024,3.024,0,0,1-.584.188c0.071-.122.141-0.251,0.212-0.386a2.364,2.364,0,0,1,.269-0.408,1.139,1.139,0,0,1,.338-0.28A0.811,0.811,0,0,1,52.08,82l0.075,0a0.55,0.55,0,0,1,.094.006A0.323,0.323,0,0,0,52.392,82a0.671,0.671,0,0,1,.221.007A0.136,0.136,0,0,1,52.709,82.106Zm10.867,4.922a6.446,6.446,0,0,1-.523.742L63,87.833l0.076,0.075a0.719,0.719,0,0,0-.367.374c-0.093.2-.18,0.4-0.262,0.58a0.9,0.9,0,0,1-.284.379,0.564,0.564,0,0,1-.53-0.109L61.6,89.11l-0.04.016a1.817,1.817,0,0,1-.34.1c-0.123.024-.246,0.05-0.37,0.079a2.052,2.052,0,0,0-.372.126,1.117,1.117,0,0,0-.2.114l-0.011-.02a0.373,0.373,0,0,0-.148-0.136l-0.047-.024-0.161.109a1.936,1.936,0,0,0,.1-0.482q0.034-.414.078-0.828a2.824,2.824,0,0,1,.177-0.746,0.918,0.918,0,0,1,.495-0.5l0.079-.038L60.8,86.8a0.766,0.766,0,0,1-.073-0.494,1.175,1.175,0,0,1,.2-0.418,2.511,2.511,0,0,1,.353-0.376,2.67,2.67,0,0,0,.347-0.361,1.262,1.262,0,0,1,.563.2c0.175,0.118.348,0.246,0.515,0.384a5.569,5.569,0,0,0,.513.377,1.135,1.135,0,0,0,.561.177A1.447,1.447,0,0,1,63.576,87.028Zm0.555-3.356a5.425,5.425,0,0,1-.137.569,2.05,2.05,0,0,0-.091.55,0.206,0.206,0,0,1-.109.063,0.747,0.747,0,0,1-.222.023,0.841,0.841,0,0,1-.228-0.047,0.784,0.784,0,0,1-.126-0.055,0.411,0.411,0,0,0-.109-0.327q-0.116-.123-0.24-0.238a1.273,1.273,0,0,1-.195-0.226A0.215,0.215,0,0,1,62.66,83.8a0.566,0.566,0,0,0,.42-0.1,1.279,1.279,0,0,0,.309-0.325l0.244-.363a0.787,0.787,0,0,1,.231-0.226,0.71,0.71,0,0,1,.259.379A1.225,1.225,0,0,1,64.131,83.672Zm37.15,6.891c0.04,0.013.08,0.024,0.123,0.034,0.016,0.061.031,0.12,0.045,0.178s0.022,0.09.034,0.136c-0.07.009-.139,0.02-0.206,0.032-0.1.017-.207,0.037-0.318,0.06-0.145.018-.3,0.012-0.459,0.023a1.2,1.2,0,0,1,.073-0.171,1.612,1.612,0,0,0,.1-0.247,1,1,0,0,0,.231-0.045,0.5,0.5,0,0,1,.24-0.021A0.426,0.426,0,0,1,101.281,90.563Zm-2.814-2.607a2.746,2.746,0,0,1-.354.326,3.986,3.986,0,0,0-.35.3c-0.186.012-.368,0.032-0.541,0.059-0.123.02-.253,0.038-0.385,0.055,0.1-.1.211-0.212,0.335-0.346l0.024-.025V88.293a0.617,0.617,0,0,1,.061-0.338,1.2,1.2,0,0,1,.17-0.193,0.956,0.956,0,0,0,.2-0.276,1.236,1.236,0,0,0,.07-0.579l-0.007-.153-0.114.071a2.306,2.306,0,0,1,.121-0.206,1.358,1.358,0,0,1,.253-0.251,2.263,2.263,0,0,0,.3-0.279,2.881,2.881,0,0,0,.261-0.339c0.075-.115.153-0.223,0.232-0.324a3.693,3.693,0,0,1,.909-0.894c0.322-.212.69-0.434,1.1-0.659h0.031l0.026-.026c0.161-.158.326-0.311,0.492-0.454,0.123-.106.246-0.216,0.366-0.331,0,0.041.006,0.081,0.008,0.122,0,0.095.008,0.184,0.008,0.269a7.366,7.366,0,0,0-.327.857c-0.093.3-.193,0.6-0.29,0.867a2.631,2.631,0,0,1-.172.227c-0.111.138-.232,0.287-0.365,0.448s-0.264.329-.378,0.488a1.708,1.708,0,0,0-.211.355,4.032,4.032,0,0,0-.762.583C98.938,87.509,98.7,87.733,98.467,87.956Zm1.2,0.827c-0.048.075-.093,0.154-0.136,0.234-0.134.057-.263,0.118-0.385,0.181s-0.235.116-.356,0.167c0.2-.151.385-0.289,0.551-0.418a0.818,0.818,0,0,1,.274-0.147Zm2.174,6.271c-0.045.323-.08,0.633-0.1,0.924-0.056.133-.112,0.265-0.168,0.392s-0.121.259-.186,0.379l-0.455.746c-0.07.128-.138,0.26-0.2,0.393a1.489,1.489,0,0,1-.217.329c-0.011.011-.049,0.04-0.114,0.088s-0.144.106-.224,0.163l-0.244.173a1.7,1.7,0,0,1-.145.1l-0.032.027a4.593,4.593,0,0,0-.412.693,2.377,2.377,0,0,0-.341.193c-0.108.074-.226,0.144-0.344,0.209a5.054,5.054,0,0,1-.629.238l-0.2-.224-0.206-.235c0.021-.11.05-0.23,0.086-0.356,0.04-.144.073-0.284,0.1-0.416s0.047-.279.071-0.424,0.046-.279.068-0.4a7.483,7.483,0,0,1,.215-0.8c0.087-.266.171-0.532,0.254-0.8,0.023-.092.063-0.226,0.12-0.4a2.078,2.078,0,0,1,.15-0.373,3.5,3.5,0,0,1,.229-0.363,2.319,2.319,0,0,0,.226-0.387,1.934,1.934,0,0,0,.137-0.434,2.629,2.629,0,0,1,.11-0.4,8.105,8.105,0,0,1,.31-0.76q0.164-.351.328-0.694c0.306-.064.62-0.115,0.934-0.154s0.593-.076.879-0.117q0.03,0.2.066,0.374c0.029,0.142.054,0.286,0.077,0.434l0.085,1A4.035,4.035,0,0,0,101.839,95.054ZM85.887,132.83A48.758,48.758,0,0,1,37,84.31H36.009c0,27.3,22.375,49.507,49.879,49.507,0.866,0,1.748-.023,2.621-0.067l-0.052-.986C87.6,132.808,86.736,132.83,85.887,132.83Zm48.885-48.52h0.994c0-27.3-22.375-49.507-49.879-49.507V35.79A48.759,48.759,0,0,1,134.772,84.31Zm-19.3,29.606a42.458,42.458,0,0,1-59.656,0l-0.7.7a43.457,43.457,0,0,0,61.062,0c0.532-.529,1.058-1.079,1.563-1.634L117,112.319C116.5,112.862,115.99,113.4,115.47,113.916ZM55.814,54.7a42.408,42.408,0,0,1,59.656,0l0.7-.7a43.456,43.456,0,0,0-61.062,0Z"/>
</svg>
