<svg xmlns="http://www.w3.org/2000/svg" width="170" height="170" viewBox="0 0 170 170">
  <defs>
    <style>
      .cls-1 {
        fill: #fff;
        fill-rule: evenodd;
      }
    </style>
  </defs>
  <path class="cls-1" d="M103.05,100.975h47.376v-0.386H103.05v0.386Zm2.524-36.39a5.164,5.164,0,0,0-.077-0.538,2.486,2.486,0,0,0-.359-0.845q-0.258-.384-0.616-0.846a0.783,0.783,0,0,0-.257-0.307c-0.1-.068-0.223-0.153-0.359-0.256a0.675,0.675,0,0,0-.282-0.23,1.712,1.712,0,0,1-.437-0.384,6.072,6.072,0,0,0-.924-0.231c-0.308-.051-0.616-0.11-0.924-0.179q-0.36-.051-0.77-0.077t-0.77-.026q-0.411,0-.95.026t-0.95.077a0.853,0.853,0,0,0-.257.051,0.854,0.854,0,0,1-.256.051l-1.027.2a3.715,3.715,0,0,0-.924.307,16.857,16.857,0,0,0-1.848.717,17.311,17.311,0,0,0-1.8.921,14.074,14.074,0,0,0-1.9.922h0.051l-1.54.973L86.195,66.4l-1.335.973q-1.644,1.178-3.234,2.484t-3.08,2.688q-1.386,1.383-2.824,2.919c-0.587.627-1.148,1.246-1.7,1.861l-1.692,2.026c-1.721.261-3.421,0.456-5.019,0.648-7.861.943-15.775,1.34-23.658,2.051a115.813,115.813,0,0,0-21.982,3.986,72.136,72.136,0,0,0-9.946,3.509c-2.72,1.244-5.784,2.827-7.589,5.3-1.428,1.957-1.749,4.982.317,6.645,1.746,1.405,4.316,1.121,6.331.581a0.773,0.773,0,0,0-.412-1.49c-2.166.579-5.778,0.815-5.865-2.334-0.091-3.322,4.254-5.519,6.758-6.775,5.928-2.975,12.7-4.7,19.173-6.022,13.266-2.713,26.938-2.467,40.322-4.354l0.126-.018-0.116.139c-0.1.132-.2,0.264-0.287,0.391a17.171,17.171,0,0,0-1.232,1.639l-1.129,1.69q-0.566.872-1.155,1.793t-1.052,1.792c-0.172.341-.334,0.649-0.488,0.921s-0.3.547-.436,0.82a4.106,4.106,0,0,0-.385.947,9.116,9.116,0,0,1-.282.9q-0.256.462-.488,0.922a3.813,3.813,0,0,0-.334,1.024l-0.359,1.024a3.711,3.711,0,0,0-.308.921,8.3,8.3,0,0,0-.154,1q-0.05.538-.1,1.153v0.461a1.931,1.931,0,0,0,.051.46,0.87,0.87,0,0,0,.025.205,0.8,0.8,0,0,1,.026.2v0.256a0.582,0.582,0,0,0,.051.257,8.371,8.371,0,0,0,.667,1.69,1.242,1.242,0,0,0,.205.307,2.941,2.941,0,0,1,.257.307,1.382,1.382,0,0,0,.308.461l0.308,0.308q0.411,0.255.77,0.511a2.355,2.355,0,0,0,.718.359H65.917a3.955,3.955,0,0,0,1.745.665,3.772,3.772,0,0,0,.821.129c0.308,0.016.6,0.025,0.873,0.025h0.257a9.724,9.724,0,0,0,1.694-.154,1.784,1.784,0,0,0,.334-0.025,1.058,1.058,0,0,1,.18-0.025q0.41-.1,1-0.231a4.916,4.916,0,0,0,.693-0.179l0.975-.2,1.027-.359q0.41-.153.95-0.358t0.95-.409l2.926-1.383q0.462-.257.77-0.41t0.591-.307l0.565-.308c0.188-.1.436-0.239,0.744-0.409L86.5,97.744H86.4a1.463,1.463,0,0,0,.205-0.128,2.048,2.048,0,0,0,.2-0.18l0.359-.307,0.411-.256,0.513-.461,0.77-.666,0.41-.41q0.154-.1.385-0.281a1.151,1.151,0,0,0,.334-0.384,0.547,0.547,0,0,0,.308-0.41l0.257-.2a0.551,0.551,0,0,1,.026-0.18,0.437,0.437,0,0,0,.026-0.128c0-.032,0-0.06,0-0.09a33.936,33.936,0,0,0-3.815,2.2l-0.291.249-1.027.768-0.667.46,0.052-.051-1.848,1.28L80.8,99.793a5.633,5.633,0,0,1-1.181.614,7.117,7.117,0,0,0-1.027.461l-1.13.564a2.163,2.163,0,0,1-.539.23,4.984,4.984,0,0,0-.539.179l-0.77.307a4.053,4.053,0,0,1-.821.308l-0.822.2-1.129.256-0.616.154-1.694.2H69.459c-0.274-.034-0.539-0.069-0.8-0.1a2.842,2.842,0,0,1-.745-0.2,4.9,4.9,0,0,1-1.335-.537,6.914,6.914,0,0,1-1.13-.8l-0.205-.256-0.514-.768h0.051a2.778,2.778,0,0,1-.359-0.973,4.887,4.887,0,0,1-.154-0.564,2.922,2.922,0,0,1-.051-0.563V97.8l0.308-1.844q0.205-.664.436-1.357t0.488-1.408q0.256-.614.488-1.1t0.488-1.049l0.256-.615a3.8,3.8,0,0,0,.411-0.666,9.879,9.879,0,0,1,.616-1.024l0.924-1.741-0.052.051,1.13-1.638,1.129-1.69,1.9-2.356a3.172,3.172,0,0,0,.462-0.589c0.009-.015.02-0.029,0.029-0.044a35.591,35.591,0,0,0,8.789-2.439c-0.013.034-.025,0.065-0.039,0.1a0.452,0.452,0,0,1-.051.2,0.458,0.458,0,0,0-.051.205,0.625,0.625,0,0,0-.154.461,0.294,0.294,0,0,0-.051.2v1.024a2.355,2.355,0,0,0,.051.461,1.756,1.756,0,0,0,.154.46,3.685,3.685,0,0,1,.205.358,1.56,1.56,0,0,0,.308.41,3.194,3.194,0,0,0,.9.589,5.445,5.445,0,0,0,.9.282,1.228,1.228,0,0,1,.231.025,1.1,1.1,0,0,0,.231.026h0.359c0.205,0,.4-0.007.59-0.026A5.081,5.081,0,0,0,86.143,83a7.129,7.129,0,0,0,1.078-.257q0.462-.153.873-0.256l1.9-.768a8.275,8.275,0,0,0,1.848-1.024l0.668-.358-0.051.051,1.129-.717,1.643-1.177a0.594,0.594,0,0,1,.154-0.1,0.411,0.411,0,0,1,.1-0.077,0.39,0.39,0,0,0,.1-0.077l1.284-1.075,1.951-1.639L99.9,74.6q0.565-.615,1.258-1.383t1.515-1.793l0.2-.2a0.8,0.8,0,0,0,.154-0.205l-0.051.051,0.872-1.229,1.027-1.741,0.308-.82A3.157,3.157,0,0,0,105.5,66.2a3.537,3.537,0,0,0,.1-1.075C105.6,64.951,105.591,64.773,105.574,64.585Zm-1.078.358a0.2,0.2,0,0,0-.025.128v0.205l-0.1.563a2.991,2.991,0,0,1-.411.973l-0.257.461a0.209,0.209,0,0,1-.051.154,0.143,0.143,0,0,0-.051.1,13.843,13.843,0,0,1-1.771,2.765q-1.053,1.282-2.182,2.458-1.336,1.332-2.8,2.587A34.97,34.97,0,0,1,93.9,77.618q-0.566.411-1.386,0.922t-1.848,1.126a11.354,11.354,0,0,1-1.72.974q-0.9.41-1.617,0.666-0.72.2-1.437,0.359a6.907,6.907,0,0,1-1.438.153,1.32,1.32,0,0,1-.411-0.051,1.474,1.474,0,0,1-.257-0.051l-0.565-.2-0.205-.1-0.205-.256V81.1a0.98,0.98,0,0,0-.051-0.307,0.238,0.238,0,0,0-.026-0.1,0.341,0.341,0,0,1-.026-0.153,0.814,0.814,0,0,1-.1-0.358,0.5,0.5,0,0,1,.1-0.359,0.351,0.351,0,0,1,.026-0.154,0.229,0.229,0,0,0,.026-0.1,5.416,5.416,0,0,0,.154-0.717,3.56,3.56,0,0,1,.308-0.922c0.059-.088.133-0.207,0.217-0.345a15.388,15.388,0,0,0,3.849-2.953,0.186,0.186,0,0,0,.041-0.03,0.3,0.3,0,0,0,.037-0.055c0.1-.105.194-0.209,0.288-0.318a1.436,1.436,0,0,1,.138-0.114,1.264,1.264,0,0,1,.205-0.128l0.41-.358,0.359-.307,0.1-.205a0.445,0.445,0,0,1,.077-0.179,0.456,0.456,0,0,0,.077-0.231V72.343a0.464,0.464,0,0,0-.18-0.23,0.583,0.583,0,0,0-.18-0.026H88.094a1.018,1.018,0,0,0-.616.154l-0.924.46-0.616.461-0.462.461a0.582,0.582,0,0,0-.205.2,0.164,0.164,0,0,1-.154.1,0.293,0.293,0,0,0-.206.2,2.219,2.219,0,0,0-.231.281,2.289,2.289,0,0,1-.231.282l-0.411.512-0.309.394a24.939,24.939,0,0,1-9.053,3.346l0.356-.416,1.041-1.216,2.01-2q0.616-.717,1.335-1.408t1.489-1.357q0.77-.716,1.566-1.383t1.515-1.28q0.718-.564,1.437-1.076t1.438-1.076l-0.052.1,0.308-.307q0.718-.461,1.489-0.947t1.54-.947l0.616-.461v0.1q0.41-.256.95-0.589a9.864,9.864,0,0,1,1.1-.589l0.667-.256a10.168,10.168,0,0,1,2.824-1.28,10.468,10.468,0,0,1,1.8-.435q0.873-.127,1.745-0.18h0.411a1.926,1.926,0,0,1,.308.026,2.083,2.083,0,0,0,.359.026,9.729,9.729,0,0,1,1.592.358,0.887,0.887,0,0,1,.257.051c0.136,0.069.3,0.162,0.487,0.282a1.327,1.327,0,0,1,.385.333l0.257,0.205a0.489,0.489,0,0,0,.154.179,0.818,0.818,0,0,1,.2.281l0.206,0.615v0.256a0.7,0.7,0,0,0,.051.307A0.1,0.1,0,0,1,104.5,64.943Zm3.247,32.976a1.171,1.171,0,0,0,1.111-.722h0.43a1.619,1.619,0,0,1-.593.8,1.745,1.745,0,0,1-1.04.315,1.651,1.651,0,0,1-1.28-.538,2.067,2.067,0,0,1,0-2.607,1.651,1.651,0,0,1,1.28-.538,1.744,1.744,0,0,1,1.04.315,1.618,1.618,0,0,1,.593.8h-0.43a1.171,1.171,0,0,0-1.111-.722,1.61,1.61,0,0,0-.642.112,1.207,1.207,0,0,0-.43.307,1.665,1.665,0,0,0,0,2.053A1.356,1.356,0,0,0,107.743,97.919Zm3.61-2.406V95.92H111.3a0.871,0.871,0,0,0-.718.353,1.267,1.267,0,0,0-.262.8v1.195h-0.408V95.556h0.408v0.668a1.031,1.031,0,0,1,1-.711h0.027Zm1.693,2.433a0.825,0.825,0,0,0,.79-0.456h0.446a1.309,1.309,0,0,1-.449.6,1.294,1.294,0,0,1-.792.228,1.317,1.317,0,0,1-1-.407,1.386,1.386,0,0,1-.376-0.994,1.411,1.411,0,0,1,.36-0.994,1.409,1.409,0,0,1,1.981,0,1.411,1.411,0,0,1,.36.994v0.163h-2.282a0.983,0.983,0,0,0,.3.619A0.92,0.92,0,0,0,113.046,97.946Zm-0.033-2.064a0.9,0.9,0,0,0-.631.234,0.961,0.961,0,0,0-.294.581h1.851a0.961,0.961,0,0,0-.294-0.581A0.9,0.9,0,0,0,113.013,95.882Zm4.084,1.955a1.1,1.1,0,0,1-.975.478,1.234,1.234,0,0,1-.958-0.407,1.556,1.556,0,0,1,0-1.988,1.268,1.268,0,0,1,.986-0.407A1.081,1.081,0,0,1,117.1,96v-0.44h0.408v2.715H117.1V97.837Zm-0.92.109a0.863,0.863,0,0,0,.7-0.3,1.2,1.2,0,0,0,0-1.456,0.864,0.864,0,0,0-.7-0.3,0.906,0.906,0,0,0-.708.3,1.163,1.163,0,0,0,0,1.456A0.905,0.905,0,0,0,116.177,97.946Zm2.439,0.326V95.915H118.06V95.556h0.556V94.584h0.409v0.972h0.625v0.358h-0.625v2.357h-0.409Zm2.014-3.7V95.1h-0.44V94.568h0.44Zm-0.424.989h0.408v2.715h-0.408V95.556Zm3.506,0-1.062,2.715h-0.478L121.1,95.556h0.447l0.86,2.281,0.855-2.281h0.446Zm1.672,2.39a0.827,0.827,0,0,0,.79-0.456h0.446a1.311,1.311,0,0,1-.45.6,1.293,1.293,0,0,1-.791.228,1.32,1.32,0,0,1-1-.407A1.39,1.39,0,0,1,124,96.914a1.415,1.415,0,0,1,.359-0.994,1.41,1.41,0,0,1,1.982,0,1.415,1.415,0,0,1,.359.994v0.163H124.42a0.983,0.983,0,0,0,.3.619A0.92,0.92,0,0,0,125.384,97.946Zm-0.033-2.064a0.9,0.9,0,0,0-.631.234,0.961,0.961,0,0,0-.294.581h1.851a0.972,0.972,0,0,0-.294-0.581A0.9,0.9,0,0,0,125.351,95.882Zm3.724,2.39h-0.408v-3.6h1.622a1.284,1.284,0,0,1,.91.315,1.236,1.236,0,0,1,0,1.687,1.279,1.279,0,0,1-.907.312h-1.214v1.282Zm0-3.21V96.61h1.187a0.9,0.9,0,0,0,.643-0.206,0.85,0.85,0,0,0,0-1.135,0.9,0.9,0,0,0-.643-0.207h-1.187Zm4.47,0.451V95.92H133.5a0.874,0.874,0,0,0-.719.353,1.272,1.272,0,0,0-.261.8v1.195h-0.408V95.556h0.408v0.668a1.031,1.031,0,0,1,1-.711h0.027Zm1.66,0a1.3,1.3,0,0,1,.992.407,1.556,1.556,0,0,1,0,1.988,1.409,1.409,0,0,1-1.982,0,1.552,1.552,0,0,1,0-1.988A1.294,1.294,0,0,1,135.205,95.513Zm0,2.433a0.864,0.864,0,0,0,.7-0.3,1.208,1.208,0,0,0,0-1.456,0.95,0.95,0,0,0-1.394,0,1.2,1.2,0,0,0,0,1.456A0.863,0.863,0,0,0,135.205,97.946Zm3.257,0a0.765,0.765,0,0,0,.462-0.147,0.836,0.836,0,0,0,.294-0.38h0.441a1.234,1.234,0,0,1-.457.646,1.384,1.384,0,0,1-.827.25,1.264,1.264,0,0,1-.975-0.407,1.536,1.536,0,0,1,0-1.988,1.266,1.266,0,0,1,.975-0.407,1.38,1.38,0,0,1,.827.25,1.232,1.232,0,0,1,.457.646h-0.441a0.84,0.84,0,0,0-.294-0.38,0.765,0.765,0,0,0-.462-0.147,1.087,1.087,0,0,0-.444.082,0.9,0.9,0,0,0-.308.223,1.129,1.129,0,0,0,0,1.456A0.958,0.958,0,0,0,138.462,97.946Zm3.026,0a0.825,0.825,0,0,0,.79-0.456h0.446a1.309,1.309,0,0,1-.449.6,1.294,1.294,0,0,1-.792.228,1.319,1.319,0,0,1-1-.407,1.39,1.39,0,0,1-.375-0.994,1.415,1.415,0,0,1,.359-0.994,1.41,1.41,0,0,1,1.982,0,1.415,1.415,0,0,1,.359.994v0.163h-2.281a0.987,0.987,0,0,0,.3.619A0.921,0.921,0,0,0,141.488,97.946Zm-0.032-2.064a0.9,0.9,0,0,0-.632.234,0.966,0.966,0,0,0-.294.581h1.852a0.968,0.968,0,0,0-.3-0.581A0.9,0.9,0,0,0,141.456,95.882Zm3.561,0.4a0.562,0.562,0,0,0-.684-0.424q-0.629,0-.629.391a0.274,0.274,0,0,0,.134.247,1.225,1.225,0,0,0,.335.138q0.2,0.055.438,0.1a2.23,2.23,0,0,1,.438.131,0.928,0.928,0,0,1,.335.231,0.574,0.574,0,0,1,.134.4,0.693,0.693,0,0,1-.3.606,1.393,1.393,0,0,1-.811.209,1.3,1.3,0,0,1-.866-0.272,0.832,0.832,0,0,1-.316-0.624h0.425a0.566,0.566,0,0,0,.425.505,0.945,0.945,0,0,0,.28.043,1.905,1.905,0,0,0,.259-0.016,1.058,1.058,0,0,0,.234-0.06,0.362,0.362,0,0,0,.261-0.353,0.291,0.291,0,0,0-.133-0.258,1.186,1.186,0,0,0-.335-0.147c-0.134-.038-0.281-0.072-0.438-0.1a2.328,2.328,0,0,1-.438-0.128,0.931,0.931,0,0,1-.336-0.223,0.55,0.55,0,0,1-.133-0.391,0.675,0.675,0,0,1,.27-0.573,1.308,1.308,0,0,1,.8-0.2,1.2,1.2,0,0,1,.79.239,0.785,0.785,0,0,1,.277.532h-0.413Zm2.733,0a0.562,0.562,0,0,0-.684-0.424q-0.629,0-.628.391a0.274,0.274,0,0,0,.133.247,1.225,1.225,0,0,0,.335.138q0.2,0.055.438,0.1a2.26,2.26,0,0,1,.439.131,0.924,0.924,0,0,1,.334.231,0.574,0.574,0,0,1,.134.4,0.693,0.693,0,0,1-.3.606,1.393,1.393,0,0,1-.811.209,1.3,1.3,0,0,1-.866-0.272,0.832,0.832,0,0,1-.316-0.624h0.425a0.566,0.566,0,0,0,.425.505,0.945,0.945,0,0,0,.28.043,1.905,1.905,0,0,0,.259-0.016,1.058,1.058,0,0,0,.234-0.06,0.362,0.362,0,0,0,.261-0.353,0.291,0.291,0,0,0-.133-0.258,1.173,1.173,0,0,0-.335-0.147c-0.134-.038-0.281-0.072-0.438-0.1A2.328,2.328,0,0,1,146.5,96.9a0.918,0.918,0,0,1-.335-0.223,0.546,0.546,0,0,1-.133-0.391,0.675,0.675,0,0,1,.269-0.573,1.309,1.309,0,0,1,.8-0.2,1.2,1.2,0,0,1,.789.239,0.781,0.781,0,0,1,.277.532H147.75Zm-28.873,6.831a1.613,1.613,0,0,1,.62.123,1.56,1.56,0,0,1,.529.355,1.975,1.975,0,0,1,0,2.64,1.563,1.563,0,0,1-.529.356,1.631,1.631,0,0,1-.62.122h-1.519v-3.6h1.519Zm-0.017,3.21a1.15,1.15,0,0,0,.921-0.418,1.612,1.612,0,0,0,0-1.988,1.153,1.153,0,0,0-.921-0.418h-1.094v2.824h1.094Zm3.567,0.06a0.826,0.826,0,0,0,.79-0.456h0.446a1.315,1.315,0,0,1-.449.6,1.3,1.3,0,0,1-.792.228,1.319,1.319,0,0,1-1-.407,1.39,1.39,0,0,1-.375-0.994,1.415,1.415,0,0,1,.359-0.994,1.41,1.41,0,0,1,1.982,0,1.41,1.41,0,0,1,.359.994v0.163h-2.281a0.982,0.982,0,0,0,.3.619A0.919,0.919,0,0,0,122.427,106.385Zm-0.033-2.064a0.9,0.9,0,0,0-.631.234,0.959,0.959,0,0,0-.294.581h1.851a0.97,0.97,0,0,0-.294-0.581A0.9,0.9,0,0,0,122.394,104.321Zm3.561,0.4a0.562,0.562,0,0,0-.684-0.424c-0.419,0-.629.131-0.629,0.391a0.275,0.275,0,0,0,.134.248,1.229,1.229,0,0,0,.335.138c0.134,0.036.28,0.07,0.438,0.1a2.336,2.336,0,0,1,.438.131,0.929,0.929,0,0,1,.335.231,0.575,0.575,0,0,1,.134.4,0.692,0.692,0,0,1-.3.606,1.39,1.39,0,0,1-.811.209,1.3,1.3,0,0,1-.866-0.271,0.835,0.835,0,0,1-.316-0.625h0.425a0.565,0.565,0,0,0,.425.5,0.914,0.914,0,0,0,.28.044,1.905,1.905,0,0,0,.259-0.016,1.073,1.073,0,0,0,.234-0.06,0.362,0.362,0,0,0,.261-0.353,0.29,0.29,0,0,0-.133-0.258,1.169,1.169,0,0,0-.335-0.147c-0.134-.038-0.281-0.072-0.438-0.1a2.336,2.336,0,0,1-.438-0.128,0.92,0.92,0,0,1-.336-0.223,0.545,0.545,0,0,1-.133-0.391,0.674,0.674,0,0,1,.27-0.572,1.306,1.306,0,0,1,.8-0.2,1.205,1.205,0,0,1,.79.239,0.784,0.784,0,0,1,.277.532h-0.413Zm1.556-1.716v0.532h-0.44v-0.532h0.44Zm-0.424.988H127.5v2.716h-0.408V104Zm3.348,0.435V104h0.409v2.634a1.154,1.154,0,0,1-.335.894,1.285,1.285,0,0,1-.9.307,1.56,1.56,0,0,1-.885-0.217,1.084,1.084,0,0,1-.433-0.576h0.452a0.761,0.761,0,0,0,.8.423,0.927,0.927,0,0,0,.686-0.217,0.879,0.879,0,0,0,.212-0.641v-0.375a1.1,1.1,0,0,1-.974.484,1.243,1.243,0,0,1-.958-0.4,1.507,1.507,0,0,1,0-1.955,1.278,1.278,0,0,1,.988-0.4A1.072,1.072,0,0,1,130.435,104.43Zm-0.92,1.912a0.968,0.968,0,0,0,.4-0.079,0.911,0.911,0,0,0,.3-0.215,1.172,1.172,0,0,0,0-1.434,0.9,0.9,0,0,0-.7-0.293,0.913,0.913,0,0,0-.708.293,1.136,1.136,0,0,0,0,1.434A0.91,0.91,0,0,0,129.515,106.342ZM132.069,104v0.424a1.352,1.352,0,0,1,.359-0.331,0.876,0.876,0,0,1,.484-0.136,1.292,1.292,0,0,1,.469.076,0.955,0.955,0,0,1,.343.228,1.17,1.17,0,0,1,.338.874v1.581h-0.409v-1.57a0.832,0.832,0,0,0-.212-0.6,0.729,0.729,0,0,0-.55-0.223,0.815,0.815,0,0,0-.583.228,0.8,0.8,0,0,0-.239.6v1.564H131.66V104h0.409Zm-31.552-21.45a0.671,0.671,0,0,0,.129.18,0.5,0.5,0,0,1,.077.334,0.964,0.964,0,0,1-.18.565c-0.121.172-.232,0.343-0.335,0.514l-0.412.669-0.257.309,0.1-.052-0.309.463-0.309.257,0.722-.257,0.979-.411,0.516-.155a0.1,0.1,0,0,0,.077-0.025,0.107,0.107,0,0,1,.078-0.026,0.28,0.28,0,0,1,.257-0.077,2.514,2.514,0,0,0,.412.026,0.249,0.249,0,0,1,.232.18,0.891,0.891,0,0,0,.181.283v0.205a0.579,0.579,0,0,1-.052.411,1.017,1.017,0,0,0-.1.463l-0.1.1-0.258.411-0.361.411-0.772.822L99.435,89.9a2.015,2.015,0,0,0-.257.36c-0.1.172-.19,0.309-0.258,0.411l-0.206.669v0.1a0.182,0.182,0,0,0,.154.154l0.412,0.051h0.181a1.22,1.22,0,0,0,.335-0.1,0.59,0.59,0,0,0,.181-0.154,0.532,0.532,0,0,1,.335-0.051,1.607,1.607,0,0,1,.206-0.155,0.5,0.5,0,0,1,.258-0.1l0.412-.154a2.534,2.534,0,0,1,.387-0.309q0.231-.154.129-0.051l0.824-.514a8.623,8.623,0,0,0,1.108-.72q0.541-.411,1.108-0.823l1.547-1.285,0.386-.308a2.785,2.785,0,0,0,.232-0.206l0.1-.1,0.309-.257a2.067,2.067,0,0,1,.258-0.308,0.556,0.556,0,0,1,.413-0.155q0.566,0,.334.463a3.947,3.947,0,0,1-.489.771l-0.413.309a0.516,0.516,0,0,0-.18.154,1.344,1.344,0,0,0-.129.206l-0.309.205c-0.137.138-.275,0.283-0.412,0.437a1.242,1.242,0,0,1-.464.334,0.866,0.866,0,0,0-.361.231c-0.069.086-.121,0.146-0.154,0.18l-0.619.514a11.53,11.53,0,0,1-1.881,1.285q-0.8.412-1.315,0.719c-0.2.138-.412,0.275-0.618,0.411a1.609,1.609,0,0,1-.567.257l-0.721.257-0.773.1-0.206-.1a0.4,0.4,0,0,1-.258-0.052,0.564,0.564,0,0,1-.361-0.205c-0.1-.068-0.189-0.129-0.257-0.18a0.331,0.331,0,0,1-.1-0.283l-0.1-.309,0.207-.874a0.444,0.444,0,0,1,.154-0.308,5.108,5.108,0,0,1,.618-1.029c0.068-.1.155-0.222,0.258-0.36a7.39,7.39,0,0,1,.618-0.771l0.412-.515a1.253,1.253,0,0,0,.463-0.514l0.258-.308-0.051.1,0.361-.565-0.361.154a3.36,3.36,0,0,1-.438.18,4.051,4.051,0,0,1-.49.129l-0.567.154-0.309.1a1.143,1.143,0,0,1-.361.051l-0.825-.1a0.929,0.929,0,0,1-.412-0.771,0.145,0.145,0,0,1-.051-0.1v-0.1A4.738,4.738,0,0,1,97.58,84.7l0.67-.977,1.236-1.182a2.28,2.28,0,0,0,.464-0.309h0.257Zm-1.031,1.131a5.845,5.845,0,0,0-.541.669,5.66,5.66,0,0,0-.438.668,2.706,2.706,0,0,0-.309.771,1.079,1.079,0,0,0,.257-0.36q0.257-.411.361-0.617a0.148,0.148,0,0,1,.051-0.1l0.154-.155Zm12.473-1.285a0.714,0.714,0,0,1,.412.257,0.227,0.227,0,0,0,.154.129,0.157,0.157,0,0,1,.1.18v0.411a0.359,0.359,0,0,1-.025.154,0.729,0.729,0,0,0-.026.257c-0.035,0-.052.052-0.052,0.155l-0.566.719-0.671.72-0.206.1a1.078,1.078,0,0,1-.566.463l-0.1.154-0.206.154c-0.069.034-.163,0.086-0.283,0.154s-0.216.121-.284,0.155a5.355,5.355,0,0,1-1,.617,4.757,4.757,0,0,0-.489.206l-0.1.154-0.361.309c-0.035.069-.112,0.206-0.232,0.411a1.478,1.478,0,0,0-.18.359,1.58,1.58,0,0,1-.129.231,0.1,0.1,0,0,0-.026.077,1.144,1.144,0,0,1-.052.36,0.854,0.854,0,0,0-.051.257l0.1,0.463a0.194,0.194,0,0,0,.026.128,0.67,0.67,0,0,1,.077.129l0.1,0.155c0-.034.052-0.034,0.155,0a0.831,0.831,0,0,0,.206.051h0.309q0.464-.1.7-0.129a4.837,4.837,0,0,0,.747-0.18l1.186-.463a0.217,0.217,0,0,0,.129-0.077,0.206,0.206,0,0,1,.128-0.077h0.052l0.1-.052a0.3,0.3,0,0,1,.206-0.1,2.033,2.033,0,0,1,.438-0.283c0.12-.051.249-0.111,0.386-0.18l0.464-.257,0.464-.309,0.67-.411,0.361-.309,0.206-.1,0.464-.257,0.928-.719,0.36-.257a4.8,4.8,0,0,0,.413-0.257c0.206-.137.258-0.188,0.154-0.155l0.516-.463h0.1a0.1,0.1,0,0,0,.077-0.025,0.205,0.205,0,0,1,.129-0.026,0.52,0.52,0,0,1,.283.309,2.626,2.626,0,0,1,.026.411,0.442,0.442,0,0,1-.154.308l-0.258.257a0.486,0.486,0,0,0-.206.154,0.894,0.894,0,0,1-.258.1l-1.391,1.131a0.289,0.289,0,0,1-.155.1,0.209,0.209,0,0,1-.155.052l-0.309.257a0.253,0.253,0,0,0-.128.051,1.542,1.542,0,0,1-.181.1l0.052-.051c0.1-.1.025-0.042-0.232,0.18a3.3,3.3,0,0,1-.593.437l-0.361.205-0.361.155-0.309.257-0.361.257-0.155.051q-0.206.1-.489,0.283a3.258,3.258,0,0,1-.541.283,0.445,0.445,0,0,1-.31.154,0.635,0.635,0,0,1-.257.155c-0.1.034-.138,0.034-0.1,0a0.461,0.461,0,0,1-.258.129,0.967,0.967,0,0,0-.258.077l-0.309.1-0.721.154a1.726,1.726,0,0,1-.773.154,0.552,0.552,0,0,1-.18-0.025,0.584,0.584,0,0,0-.181-0.026h-0.515a0.046,0.046,0,0,1-.052-0.051,0.467,0.467,0,0,1-.413-0.154c-0.069,0-.095-0.008-0.076-0.026s-0.009-.042-0.078-0.077a1.042,1.042,0,0,1-.309-0.205,0.828,0.828,0,0,1-.206-0.463,0.131,0.131,0,0,0-.052-0.129,0.2,0.2,0,0,1-.051-0.18,0.2,0.2,0,0,0-.026-0.129A0.2,0.2,0,0,1,105.98,90l-0.052-.257a0.705,0.705,0,0,0-.025-0.154,0.216,0.216,0,0,1,.077-0.206,1.812,1.812,0,0,1,.052-0.514V88.818a1.235,1.235,0,0,1,.154-0.411l0.207-.411a2.393,2.393,0,0,0,.077-0.283,0.382,0.382,0,0,1,.18-0.231l0.206-.257-0.052.051,0.155-.411,0.258-.308,0.567-.925a0.436,0.436,0,0,0,.181-0.231,0.868,0.868,0,0,1,.18-0.283l0.206-.257,0.773-.874,0.464-.411,0.824-.669,0.825-.463h0.232c0.051,0,.2-0.016.438-0.051h0.052ZM108.2,86.453L108.4,86.3l0.619-.411,0.567-.411,0.721-.463h-0.051a6.325,6.325,0,0,0,.67-0.565l0.515-.514V83.676a0.148,0.148,0,0,1,.052-0.1h-0.129a0.431,0.431,0,0,0-.232.154l-0.1.051a0.488,0.488,0,0,0-.335.206,0.49,0.49,0,0,1-.284.205,5.11,5.11,0,0,0-1.107,1A11.492,11.492,0,0,1,108.2,86.35v0.1ZM121.6,82.7a0.687,0.687,0,0,1,.309.077,2.836,2.836,0,0,1,.31.18,0.331,0.331,0,0,1,.309.205,0.277,0.277,0,0,1,.154.206,0.229,0.229,0,0,0,.078.206,0.232,0.232,0,0,1,.077.205V83.727a0.966,0.966,0,0,1,.155.643,2.871,2.871,0,0,1-.155.54l-0.36.463-0.464.617-0.155.154a0.8,0.8,0,0,0-.155.205,0.151,0.151,0,0,0-.051.1l-0.1.1-0.1.1a4.366,4.366,0,0,0-.412.848q-0.206.54-.309,0.849l-0.206.668a0.2,0.2,0,0,1-.026.129,0.2,0.2,0,0,0-.026.129,0.83,0.83,0,0,0,.052.257,0.8,0.8,0,0,0,.026.205,0.86,0.86,0,0,1,.025.206l0.155,0.308V90.206c0-.068.052-0.051,0.155,0.051h-0.052l0.361,0.257h0.206a0.152,0.152,0,0,1,.1.051,0.146,0.146,0,0,0,.1.051c0.034-.068.069-0.085,0.1-0.051a0.21,0.21,0,0,0,.155.051,0.351,0.351,0,0,1,.258-0.1h0.257a0.131,0.131,0,0,0,.129-0.051,0.131,0.131,0,0,1,.129-0.051l0.412-.1,0.31-.1,0.464-.257,0.979-.669,0.515-.309,0.49-.488a2.52,2.52,0,0,1,.489-0.386l0.515-.463,1.8-1.7a0.377,0.377,0,0,1,.232-0.18,2.391,2.391,0,0,0,.386-0.128l0.258,0.205c0.136,0.172.171,0.292,0.1,0.36a1.942,1.942,0,0,0-.258.36,9.319,9.319,0,0,0-1.186,1.182,7.109,7.109,0,0,1-.669.771l-0.1.1-0.1.1-1.185.925-0.361.36q-0.567.36-1.159,0.771a3.816,3.816,0,0,1-1.16.566,0.148,0.148,0,0,0-.1.051,0.211,0.211,0,0,1-.155.051,2.475,2.475,0,0,1-.773.1,1.808,1.808,0,0,1-.515.051c0,0.069-.069.1-0.206,0.1a0.565,0.565,0,0,1-.258-0.051,2.17,2.17,0,0,0-.515-0.1l0.051,0.051a0.148,0.148,0,0,1-.1-0.051h-0.051l-0.361-.205a1.688,1.688,0,0,1-.515-0.54,1.783,1.783,0,0,1-.258-0.643c-0.035-.274-0.069-0.54-0.1-0.8a2.059,2.059,0,0,1,.154-0.951V88.355l-0.309.205-0.412.36a1.471,1.471,0,0,1-.541.411,6.075,6.075,0,0,0-.593.309l-0.1.051a3.873,3.873,0,0,1-.7.36,4.772,4.772,0,0,0-.49.205,0.231,0.231,0,0,0-.1.026,0.225,0.225,0,0,1-.1.025,0.167,0.167,0,0,1-.18,0,0.433,0.433,0,0,0-.232-0.051l-0.258.051a0.64,0.64,0,0,1-.361-0.154,2.156,2.156,0,0,0-.232-0.051A0.59,0.59,0,0,1,115,89.846a0.12,0.12,0,0,0-.077-0.129,0.088,0.088,0,0,1-.078-0.077l0.1-.72,0.206-.411-0.1.051,0.154-.359,0.258-.463,0.413-.617a0.209,0.209,0,0,0,.051-0.154l0.257-.36,1.186-1.491-0.1.051a1.864,1.864,0,0,1,.206-0.18,2,2,0,0,0,.206-0.18l0.67-.565,0.412-.36-0.051.1,0.928-.669a2.988,2.988,0,0,1,.9-0.411A3.666,3.666,0,0,1,121.6,82.7Zm-5.463,6.118q-0.1.206,0,.231a0.588,0.588,0,0,0,.335-0.077c0.155-.068.326-0.154,0.516-0.257s0.334-.188.437-0.257q0.774-.463,1.315-0.848a9.015,9.015,0,0,0,1.108-.951l0.825-.823,0.1-.1a1.362,1.362,0,0,1,.257-0.36,1.372,1.372,0,0,0,.258-0.36l0.567-.719a0.114,0.114,0,0,1-.026-0.129,0.572,0.572,0,0,0,.026-0.18l-0.206-.206h-0.361a0.892,0.892,0,0,0-.567.206l-0.412.205a2.549,2.549,0,0,0-.258.155,4.83,4.83,0,0,1-.412.257l-0.052.1-0.67.565-0.284.283a1.234,1.234,0,0,1-.283.231,0.618,0.618,0,0,1-.412.411l-0.1.257-0.876,1.028-0.413.617-0.361.514Zm40.716-15.681h0.669a4.929,4.929,0,0,1,.671.051,4.639,4.639,0,0,0,.669.052h0.671a0.6,0.6,0,0,1,.309.179,0.493,0.493,0,0,1,.206.283V74.01a1.545,1.545,0,0,1-.335.335,0.729,0.729,0,0,1-.438.179q-0.516-.05-1-0.077t-1-.026c-0.515-.034-0.946-0.051-1.289-0.051h-2.267c-0.448,0-1.031.017-1.753,0.051q-0.876.1-1.675,0.18t-1.572.129a0.855,0.855,0,0,0-.257.051,1.355,1.355,0,0,0-.413.051,0.849,0.849,0,0,0-.206.026,1.071,1.071,0,0,1-.257.025q-0.31.052-.671,0.1a4.46,4.46,0,0,1-.618.051,2.182,2.182,0,0,1-.67.128,4.671,4.671,0,0,0-.825.129,0.547,0.547,0,0,1-.283.026,1.6,1.6,0,0,0-.541.077l-1.5.36a0.57,0.57,0,0,0-.18.026,0.57,0.57,0,0,1-.181.025,0.594,0.594,0,0,1-.412.1,0.364,0.364,0,0,0-.155.025,0.344,0.344,0,0,1-.154.026l-2.32.514L138.5,77.1l-1.288,1.645a4.946,4.946,0,0,1-.593.848q-0.335.386-.644,0.8l-1.392,1.542a8.128,8.128,0,0,1-.824.977l-0.773.874-0.567.72-0.619.617a7.009,7.009,0,0,0-.979.848q-0.412.438-.824,0.848l-0.516.72-0.412.72-0.1.1a0.147,0.147,0,0,0-.052.1,0.3,0.3,0,0,1-.051.206,0.9,0.9,0,0,0-.155.359,1.081,1.081,0,0,0-.051.411,0.425,0.425,0,0,1-.026.129,0.547,0.547,0,0,0-.026.18,0.26,0.26,0,0,1-.051.129,0.414,0.414,0,0,0-.052.231,0.245,0.245,0,0,0,.052.129,0.262,0.262,0,0,1,.051.128l-0.051.052H128.6a0.342,0.342,0,0,0,.026.154l0.077,0.154a0.393,0.393,0,0,0,.464.309,1.083,1.083,0,0,0,.825.205,1.429,1.429,0,0,0,.824-0.205l0.567-.206a2.1,2.1,0,0,1,.464-0.205,1.694,1.694,0,0,1,.412-0.1,0.148,0.148,0,0,0,.1-0.051c0.034,0,.052-0.008.052-0.026s0.017-.025.052-0.025l0.257-.1h0.155l0.257-.205,0.413-.309a0.227,0.227,0,0,0,.1-0.025q0.051-.025.309-0.129l0.464-.257h-0.051l0.515-.308-0.052.051,0.31-.206a0.911,0.911,0,0,1,.257-0.257l0.31-.206a0.388,0.388,0,0,0,.231-0.1c0.086-.068.146-0.12,0.181-0.154l0.412-.206-0.155.051a0.628,0.628,0,0,1,.284-0.231,0.9,0.9,0,0,0,.284-0.18,0.141,0.141,0,0,0,.1-0.077,0.134,0.134,0,0,1,.1-0.077,3.559,3.559,0,0,1,.722-0.72l0.413-.36v0.1a0.564,0.564,0,0,1,.36-0.206,0.082,0.082,0,0,0,.077-0.051,0.2,0.2,0,0,1,.181-0.051,0.343,0.343,0,0,1,.361.411l-0.207.205a0.443,0.443,0,0,1-.154.309l-0.722.669-0.618.617-0.515.309-0.361.36a0.388,0.388,0,0,0-.232.1,0.647,0.647,0,0,0-.181.205l-0.824.72V90a0.58,0.58,0,0,1-.309.205l-0.052.1a0.348,0.348,0,0,1-.258.1,0.677,0.677,0,0,1-.232.154,0.68,0.68,0,0,0-.231.154,1.447,1.447,0,0,1-.361.206,0.852,0.852,0,0,1-.206.051l-0.258.1H133.6l-0.412.309a0.859,0.859,0,0,0-.206.025,1.046,1.046,0,0,1-.258.026,0.33,0.33,0,0,1-.309.205,0.205,0.205,0,0,0-.129.026,0.1,0.1,0,0,1-.077.025,0.558,0.558,0,0,1-.413.154l-0.773.205-0.464.155a0.106,0.106,0,0,0-.077.025,0.1,0.1,0,0,1-.077.026,0.662,0.662,0,0,1-.515,0,0.359,0.359,0,0,0-.155.025,0.349,0.349,0,0,1-.155.026l-0.412-.051a3.991,3.991,0,0,1-.9-0.283,2.219,2.219,0,0,1-.489-0.386,1,1,0,0,1-.361-0.668V90.617a0.1,0.1,0,0,0-.026-0.077,0.2,0.2,0,0,1-.026-0.128v-0.1a1.147,1.147,0,0,1,.052-0.565V89.126l0.206-.874,1.031-2.519,0.412-.823,0.618-1.285,0.258-.411a0.6,0.6,0,0,1,.206-0.411l-0.1.1,0.258-.411a0.981,0.981,0,0,0,.18-0.257c0.052-.1.111-0.239,0.18-0.411l1.032-1.8q0.153-.154.308-0.334a0.508,0.508,0,0,0,.155-0.283,4.293,4.293,0,0,1,.284-0.566c0.12-.205.232-0.393,0.335-0.565a0.465,0.465,0,0,0,.129-0.205,0.448,0.448,0,0,1,.129-0.206h-0.052l-1.907.411a4.6,4.6,0,0,1-.953.231,7.162,7.162,0,0,1-1,.077c-0.276.069-.576,0.128-0.9,0.18s-0.644.095-.953,0.128h-0.722a1.586,1.586,0,0,0-.463-0.051,0.839,0.839,0,0,0-.361-0.129,0.511,0.511,0,0,1-.309-0.128,0.6,0.6,0,0,1-.309-0.309l0.051-.411c0-.137.154-0.205,0.464-0.205h0.464q0.051,0,.051.025c0,0.018.018,0.026,0.052,0.026h1.134l1.855-.257a7.423,7.423,0,0,0,2.113-.411l2.01-.36,0.825-.154,0.232-.463a0.911,0.911,0,0,1,.283-0.36l0.206-.309,0.464-.617,0.361-.463V74.37a0.331,0.331,0,0,1,.206-0.309,0.207,0.207,0,0,0,.051-0.154l0.464-.411,0.361-.463,0.619-.617a0.152,0.152,0,0,0,.051-0.1l0.773-.771,1.031-.771,0.206-.1a3.75,3.75,0,0,0,.464-0.283c0.172-.12.223-0.18,0.155-0.18l0.515-.309,0.31-.206a1.845,1.845,0,0,1,.515-0.051,0.931,0.931,0,0,1,.257.1,1.231,1.231,0,0,1,.258.154l0.206,0.205a0.413,0.413,0,0,0,.1.309v0.514a0.317,0.317,0,0,0-.1.231v0.231a1.187,1.187,0,0,1-.025.231,1.137,1.137,0,0,0-.026.231l-0.155.463a0.826,0.826,0,0,0-.1.36l-0.67.977a1.569,1.569,0,0,0-.232.335c-0.086.154-.112,0.214-0.077,0.18l-0.619.771-0.051.1,0.67-.155a3.138,3.138,0,0,0,.438-0.025q0.18-.026.438-0.077l1.392-.309,0.721-.154,0.825-.205a3.4,3.4,0,0,1,.824-0.1,6.6,6.6,0,0,1,.979-0.154c0.378-.034.7-0.051,0.98-0.051a0.905,0.905,0,0,1,.412-0.129c0.172-.017.309-0.026,0.412-0.026A0.883,0.883,0,0,1,148.5,73.6l1.546-.154,1.6-.205a0.352,0.352,0,0,0,.154-0.026,0.758,0.758,0,0,1,.258-0.026h1.34c0.31,0,.6-0.008.877-0.025s0.6-.026.979-0.026h1.6ZM130.254,85.219c0.069-.1.163-0.231,0.284-0.386a3.927,3.927,0,0,1,.283-0.334l1.289-1.388,0.567-.617,0.283-.283a1.146,1.146,0,0,0,.232-0.385l1.289-1.388,1.185-1.337,0.618-.823,0.722-.823c0.068-.1.145-0.214,0.232-0.334s0.162-.231.232-0.334a12.927,12.927,0,0,0-1.547.411l-1.082.205v0.051l-0.876,1.439-0.773,1.08a13.459,13.459,0,0,0-.721,1.157,14.291,14.291,0,0,0-.671,1.363L131.6,82.8q-0.465.771-.825,1.44a0.274,0.274,0,0,0-.155.205Zm5.515-9.049,0.361-.154,1.494-.309c0.172-.034.335-0.068,0.49-0.1a3.11,3.11,0,0,0,.489-0.154l0.1-.1,0.618-.925,0.773-1.182v0.051l0.31-.463a0.147,0.147,0,0,1,.051-0.1l0.1-.1a0.883,0.883,0,0,1,.155-0.411l0.258-.411a0.5,0.5,0,0,0-.026-0.488,0.863,0.863,0,0,0-.748.231,4.314,4.314,0,0,0-1.134.977l-0.206.154-0.206.257-0.206.205-0.232.231c-0.086.086-.112,0.095-0.077,0.026a1.023,1.023,0,0,1-.361.309l-0.567.565-0.257.411-0.568.617-0.412.514Zm5.051-2V74.114l0.052-.052Zm-0.826,9.666a0.226,0.226,0,0,0,.1-0.026,0.361,0.361,0,0,1,.155-0.026,1.167,1.167,0,0,0,.232-0.025c0.086-.017.163,0.077,0.232,0.283a1.032,1.032,0,0,1-.154.823l-0.258.309-0.155.257-0.052.1a1.467,1.467,0,0,0-.232.36c-0.086.172-.179,0.343-0.283,0.514l-0.154.257,0.1-.051-0.413.874-0.309,1.285a0.5,0.5,0,0,0-.052.231v0.18a0.986,0.986,0,0,0,.207.591,0.874,0.874,0,0,0,.876.18q0.514-.1.954-0.18a4.3,4.3,0,0,0,1-.335l0.928-.463q0.413-.205.67-0.36l0.67-.463a3.351,3.351,0,0,1,.516-0.308,1.077,1.077,0,0,0,.412-0.309l0.824-.669,0.258-.206,0.876-.668,0.618-.566a0.145,0.145,0,0,1,.053-0.1,0.373,0.373,0,0,1,.515,0,0.554,0.554,0,0,1-.052.514h-0.052l-0.206.36a3.824,3.824,0,0,1-.309.385,0.408,0.408,0,1,0-.1.129l-0.876.72-0.361.257-0.825.72a2.826,2.826,0,0,1-.438.36l-0.386.257a7.232,7.232,0,0,1-.876.54q-0.361.181-.722,0.386l-0.412.205a4.342,4.342,0,0,0-.567.283,2.878,2.878,0,0,1-.67.283,6.335,6.335,0,0,1-.618.206,2.178,2.178,0,0,1-.516.1,0.615,0.615,0,0,1-.412.077c-0.173-.017-0.344-0.026-0.515-0.026h-0.31a0.42,0.42,0,0,1-.129-0.025,0.43,0.43,0,0,0-.129-0.026A0.1,0.1,0,0,1,138.577,91a0.212,0.212,0,0,0-.129-0.025,0.128,0.128,0,0,1-.128-0.051,0.134,0.134,0,0,0-.129-0.051l0.051,0.051a0.148,0.148,0,0,1-.1-0.051,0.423,0.423,0,0,0-.1-0.077,0.274,0.274,0,0,1-.1-0.129,0.759,0.759,0,0,1-.258-0.334,2.7,2.7,0,0,1-.154-0.437,2.741,2.741,0,0,1-.052-0.617q0.053-.463.1-0.848a5.275,5.275,0,0,1,.155-0.746,0.489,0.489,0,0,0,.129-0.283,0.78,0.78,0,0,1,.129-0.334,0.319,0.319,0,0,1,.051-0.18,1.6,1.6,0,0,0,.1-0.18l0.155-.411a0.147,0.147,0,0,0,.1-0.1,0.345,0.345,0,0,1,.1-0.257l0.464-.771,0.258-.36,0.1-.309,0.618-.617Zm1.959-3.547,0.1,0.1a0.176,0.176,0,0,1,.052.129,0.173,0.173,0,0,0,.051.128l0.155,0.155v0.051l0.051,0.565-0.18.18-0.335.334-0.1.051-0.413.257c-0.069,0-.1-0.008-0.1-0.026s-0.017-.026-0.051-0.026a0.045,0.045,0,0,1-.052-0.051c-0.172,0-.257-0.12-0.257-0.36l-0.309-.1v-0.36a1.582,1.582,0,0,0,.154-0.283,0.683,0.683,0,0,1,.155-0.231v-0.1a0.272,0.272,0,0,1,.1-0.231,2.15,2.15,0,0,1,.31-0.179h0.309c0.034,0,.052.008,0.052,0.025s0.017,0.026.051,0.026h0.052Zm11.7,2.313a0.5,0.5,0,0,1,.1.257,0.682,0.682,0,0,1,0,.72c-0.034.1-.069,0.205-0.1,0.309a2.856,2.856,0,0,1-.155.36,0.241,0.241,0,0,1-.025.1,0.219,0.219,0,0,0-.026.1q-0.207.36-.387,0.745a4.735,4.735,0,0,1-.592.9l-0.258.308v0.155a0.213,0.213,0,0,0,.077.129c0.052,0.051.094,0.095,0.129,0.128l0.206,0.155,0.309,0.257a2.148,2.148,0,0,0,.387.154q0.18,0.052.387,0.1h0.309a0.215,0.215,0,0,0,.155-0.051,1.077,1.077,0,0,0,.412-0.051,1.375,1.375,0,0,0,.206-0.129,0.311,0.311,0,0,1,.154-0.077,0.624,0.624,0,0,0,.207-0.077,0.89,0.89,0,0,0,.206-0.129,1.1,1.1,0,0,0,.618-0.36,2.273,2.273,0,0,0,.335-0.283,1.284,1.284,0,0,1,.439-0.283v0.051a0.148,0.148,0,0,0,.1-0.051,0.423,0.423,0,0,0,.129-0.026,0.4,0.4,0,0,1,.232.026,0.445,0.445,0,0,0,.052.205,0.571,0.571,0,0,0,.025.18,0.432,0.432,0,0,1,.026.129,0.149,0.149,0,0,0-.051.1,0.106,0.106,0,0,1-.026.077,0.1,0.1,0,0,0-.026.077,1.831,1.831,0,0,0-.438.36,1.279,1.279,0,0,1-.386.309l0.051-.051a5.428,5.428,0,0,1-.644.463,5.623,5.623,0,0,1-.851.411,3.092,3.092,0,0,1-1.236.205H153.42a1.591,1.591,0,0,1-.387-0.051l-0.618-.257a0.212,0.212,0,0,1-.129-0.077,0.212,0.212,0,0,0-.129-0.077,2.768,2.768,0,0,1-.412-0.463l-0.155-.257-0.051.051-0.464.617-0.206.257-0.361.411-1.289,1.028-0.618.514a1.08,1.08,0,0,1-.386.334q-0.181.077-.387,0.18l-0.979.463a2.881,2.881,0,0,1-.67.1,0.318,0.318,0,0,0-.18.051,0.139,0.139,0,0,1-.181-0.051,0.891,0.891,0,0,1-.283-0.154c-0.086-.068-0.146-0.12-0.181-0.154a0.586,0.586,0,0,1-.18-0.334,2.648,2.648,0,0,1,.232-1.517,0.721,0.721,0,0,0,.051-0.309l0.206-.514q0.1-.2.232-0.463a2.332,2.332,0,0,0,.181-0.463l0.309-.617,0.515-.925c0.034-.068.078-0.154,0.129-0.257a2.274,2.274,0,0,0,.129-0.309v0.051a0.249,0.249,0,0,1,.077-0.18,0.208,0.208,0,0,0,.078-0.129l0.155-.257a1.342,1.342,0,0,0,.205-0.36c0.034-.1.069-0.222,0.1-0.36l0.258-.463c0.034-.1.069-0.2,0.1-0.283a0.45,0.45,0,0,1,.464-0.077,0.381,0.381,0,0,1,.232.283,2.181,2.181,0,0,1,.026.283,0.867,0.867,0,0,1-.051.411L148.6,84.7c-0.069.171-.137,0.343-0.206,0.514a3.607,3.607,0,0,1-.258.514c-0.034,0-.051.034-0.051,0.1a0.459,0.459,0,0,1-.052.206l-0.515.874,0.051-.1-1.082,2.108a5.1,5.1,0,0,0-.181.54,2.071,2.071,0,0,0-.077.54c0,0.1.069,0.1,0.206,0a4.018,4.018,0,0,0,.825-0.309,6.82,6.82,0,0,0,.722-0.411l0.412-.411,0.567-.411,0.309-.411,0.464-.36,0.825-.925,0.618-.874a0.58,0.58,0,0,0,.206-0.308,0.149,0.149,0,0,0,.1-0.1l0.1-.617a0.285,0.285,0,0,1,.1-0.129,0.131,0.131,0,0,0,.052-0.129,3.806,3.806,0,0,1,.876-1.7l0.207-.205a0.176,0.176,0,0,1,.154-0.154,1.008,1.008,0,0,0,.18-0.026,1.213,1.213,0,0,1,.232-0.025h0.052Zm7.628-.206a0.709,0.709,0,0,1,.412.257,0.229,0.229,0,0,0,.155.129,0.158,0.158,0,0,1,.1.18v0.411a0.357,0.357,0,0,1-.026.154,0.729,0.729,0,0,0-.026.257c-0.034,0-.051.052-0.051,0.155l-0.567.719-0.67.72-0.206.1a1.083,1.083,0,0,1-.567.463l-0.1.154-0.206.154c-0.069.034-.163,0.086-0.283,0.154s-0.215.121-.283,0.155a5.421,5.421,0,0,1-1.005.617,4.782,4.782,0,0,0-.49.206l-0.1.154L157,87.841c-0.035.069-.112,0.206-0.232,0.411a1.522,1.522,0,0,0-.18.359,1.481,1.481,0,0,1-.129.231,0.1,0.1,0,0,0-.026.077,1.146,1.146,0,0,1-.051.36,0.83,0.83,0,0,0-.052.257l0.1,0.463a0.194,0.194,0,0,0,.026.128,0.62,0.62,0,0,1,.077.129l0.1,0.155c0-.034.052-0.034,0.155,0a0.831,0.831,0,0,0,.206.051h0.309q0.465-.1.7-0.129a4.864,4.864,0,0,0,.747-0.18l1.186-.463a0.214,0.214,0,0,0,.129-0.077,0.208,0.208,0,0,1,.128-0.077h0.052l0.1-.052a0.3,0.3,0,0,1,.206-0.1A2.033,2.033,0,0,1,161,89.1c0.12-.051.249-0.111,0.387-0.18l0.464-.257,0.463-.309,0.671-.411,0.361-.309,0.2-.1,0.464-.257,0.928-.719L165.3,86.3c0.068-.034.206-0.12,0.412-0.257s0.258-.188.155-0.155l0.515-.463h0.1a0.1,0.1,0,0,0,.077-0.025,0.205,0.205,0,0,1,.129-0.026,0.522,0.522,0,0,1,.284.309,2.626,2.626,0,0,1,.026.411,0.444,0.444,0,0,1-.155.308l-0.258.257a0.486,0.486,0,0,0-.206.154,0.894,0.894,0,0,1-.258.1l-1.391,1.131a0.289,0.289,0,0,1-.155.1,0.206,0.206,0,0,1-.154.052l-0.31.257a0.257,0.257,0,0,0-.128.051,1.542,1.542,0,0,1-.181.1l0.052-.051c0.1-.1.025-0.042-0.232,0.18a3.3,3.3,0,0,1-.593.437l-0.361.205-0.361.155L162,89.794l-0.361.257-0.155.051q-0.207.1-.49,0.283a3.219,3.219,0,0,1-.541.283,0.445,0.445,0,0,1-.309.154,0.639,0.639,0,0,1-.258.155c-0.1.034-.138,0.034-0.1,0a0.461,0.461,0,0,1-.258.129,0.959,0.959,0,0,0-.257.077l-0.309.1-0.722.154a1.726,1.726,0,0,1-.773.154,0.567,0.567,0,0,1-.181-0.025,0.577,0.577,0,0,0-.18-0.026H156.59a0.046,0.046,0,0,1-.052-0.051,0.463,0.463,0,0,1-.412-0.154c-0.069,0-.095-0.008-0.077-0.026s-0.009-.042-0.078-0.077a1.042,1.042,0,0,1-.309-0.205,0.835,0.835,0,0,1-.206-0.463,0.133,0.133,0,0,0-.051-0.129,0.2,0.2,0,0,1-.052-0.18,0.2,0.2,0,0,0-.026-0.129A0.2,0.2,0,0,1,155.3,90l-0.051-.257a0.662,0.662,0,0,0-.026-0.154,0.216,0.216,0,0,1,.077-0.206,1.812,1.812,0,0,1,.052-0.514V88.818a1.26,1.26,0,0,1,.154-0.411l0.206-.411a2.23,2.23,0,0,0,.078-0.283,0.378,0.378,0,0,1,.18-0.231l0.206-.257-0.051.051,0.155-.411,0.257-.308,0.567-.925a0.435,0.435,0,0,0,.18-0.231,0.9,0.9,0,0,1,.181-0.283l0.206-.257,0.773-.874,0.464-.411,0.824-.669,0.825-.463h0.232c0.051,0,.2-0.016.438-0.051h0.052Zm-3.763,4.062,0.207-.154,0.618-.411,0.567-.411,0.721-.463h-0.051a6.225,6.225,0,0,0,.67-0.565l0.516-.514V83.676a0.15,0.15,0,0,1,.051-0.1h-0.129a0.434,0.434,0,0,0-.232.154l-0.1.051a0.488,0.488,0,0,0-.335.206,0.49,0.49,0,0,1-.284.205,5.161,5.161,0,0,0-1.108,1,11.479,11.479,0,0,1-1.108,1.157v0.1ZM97.85,86.067c-3.548,4.12-7.777,7.326-12.1,10.606-0.649.493-.01,1.606,0.648,1.107,4.4-3.341,8.74-6.607,12.357-10.807,0.536-.623-0.369-1.533-0.908-0.906h0Z"/>
</svg>
