<svg xmlns="http://www.w3.org/2000/svg" width="170" height="170" viewBox="0 0 170 170">
  <defs>
    <style>
      .cls-1 {
        fill: #fff;
        fill-rule: evenodd;
      }
    </style>
  </defs>
  <path class="cls-1" d="M103.189,60.285c-0.371-.437-0.716-0.786-1.029-1.1a14.926,14.926,0,0,1,1.016,1.251C103.435,60.677,102.931,60.02,103.189,60.285Zm-0.626-.419c-0.27-.269-0.544-0.581-0.853-0.936l0.971,1.169C102.744,60.135,102.915,60.275,102.563,59.865Zm-4.1-4.248L98.5,55.685l0.025,0Zm4.265,4.553a5.623,5.623,0,0,0,.553.6l-0.6-.677C102.653,60.08,102.644,60.08,102.726,60.17Zm-0.2.062,0.429,0.573,0-.05a1.123,1.123,0,0,0,.488.537,4.771,4.771,0,0,0-.441-0.545Zm-3.94-4.727c0.015-.019-0.731-0.405-0.731-0.405l0.521,0.362Zm-1.535-1.246L96.632,54l0.3,0.3ZM43.68,99.62l-0.278.062C43.593,99.729,43.715,99.726,43.68,99.62Zm7.83-48.9,0.46,0.331a1.951,1.951,0,0,1,1-.468C52.178,50.531,51.147,50.32,51.51,50.721ZM39.689,79a2.438,2.438,0,0,0,.517-0.653ZM55.557,112.58c-0.536-.407-0.445-0.017-0.636.166l0.315-.075ZM79.685,46.352a8.694,8.694,0,0,0-1.3-.439C79.008,46.211,79.485,46.547,79.685,46.352ZM38.637,104.263a0.489,0.489,0,0,0,.528.14C38.926,104.219,38.738,104.141,38.637,104.263Zm39.746-58.35a2.28,2.28,0,0,0-1.553-.186l0.28,0.1A4.991,4.991,0,0,1,78.383,45.913ZM90.736,50.1c0.355,0.18.064,0.012,0,0h0ZM72.868,47.552H72.834C72.951,47.612,72.931,47.6,72.868,47.552Zm18.359,2.9c-0.122-.09-0.265-0.187-0.424-0.288C90.869,50.217,91,50.305,91.227,50.453Zm-0.034-.112,0.3,0.18C91.548,50.52,91.517,50.482,91.193,50.341Zm-0.948-.5c0.2,0.106.385,0.215,0.558,0.325-0.063-.048-0.088-0.073-0.067-0.069Zm-11.3,71.029,0.084,0.016C79.391,120.725,79.228,120.763,78.945,120.869ZM48.723,61.2a0.47,0.47,0,0,0,.006-0.05l-0.05.026Zm54.616,46.321a50.743,50.743,0,0,1-5.385,5.4l0.184-.085a30.216,30.216,0,0,1-3.034,2.2l0.055-.058a5.767,5.767,0,0,1-1.314.916c0.429-.34-0.984.362-0.412-0.072a8.519,8.519,0,0,0-1.948,1.554l-0.364.01a4.691,4.691,0,0,1-1.345.882h0c0.741-.481-0.729.071,0.1-0.49a9.043,9.043,0,0,0-1.4.507c-0.205.082-.362,0.152-0.542,0.227a0.883,0.883,0,0,0-.729.055c0.257,0.012.549-.013,0.232,0.153a0.259,0.259,0,0,0-.025.01,5.933,5.933,0,0,1-.9.346l0.473-.262-0.548.276a1.648,1.648,0,0,1-.724.022c-0.82.807,1.943-.348,1.428-0.067,0.519-.015-0.688.62-1.38,0.813-0.683.267-1.391-.312-3.134,0.076,0.175-.035.177-0.08,0.351-0.114-0.694-.034-1.23.533-2.105,0.345-0.392.421-1.064,0.092-1.119,0.593l0.872-.166,0.16,0.065a5.555,5.555,0,0,1-2.695.64,3.181,3.181,0,0,1,.855-0.43,12.438,12.438,0,0,1-1.336.081c0.084-.484,1.978-0.338,2.913-0.8-0.405-.125-1.3.29-1.446,0.172a0.527,0.527,0,0,1,.252-0.216c-0.1.014-.153,0.019-0.212,0.025,0-.007,0-0.009.008-0.017-0.006.008-.015,0.011-0.021,0.018-0.542.051,0.42-.227-0.266-0.347a2.744,2.744,0,0,1,.542-0.109,4.04,4.04,0,0,1-.545-0.118l0.026,0.019,0.005,0v0.006c0.048,0.036.066,0.06,0.014,0.039l-0.02.007a0.34,0.34,0,0,1-.032.12c-0.3-.05-0.056-0.079.032-0.12a0.3,0.3,0,0,0,.007-0.046l0,0-1,.208a3.186,3.186,0,0,0,.966-0.036c-0.117.286-.5,0.463-0.331,0.727a3.365,3.365,0,0,1-.621.058,7.149,7.149,0,0,0-.786-0.03,3.612,3.612,0,0,0-.437-0.695c-0.007.138,0,.262-0.511,0.458a3.824,3.824,0,0,0,.6.283,1.928,1.928,0,0,0-.521.172l0.06-.332a3.236,3.236,0,0,1-.926.208l0.614-.439a3.27,3.27,0,0,1-2-.161,1.347,1.347,0,0,1,.933-0.12c-0.306-.529-0.151.066-0.617-0.58,0.38,0.754-1.405-.04-1.061.614-0.007,0-.014,0-0.021,0-0.421-.628-0.769-0.31-1.311-1,0.009,0.192.2,0.39-.33,0.225a0.686,0.686,0,0,1-.127.153l-0.035-.019,0.028,0.026c-0.025.026-.027,0.032,0.011,0.009a0.786,0.786,0,0,1,.255.324,0.6,0.6,0,0,1-.1.072,4.239,4.239,0,0,0-1.137-.189,1.66,1.66,0,0,1,.893.347,2.1,2.1,0,0,1-.384.095,3.007,3.007,0,0,1-1.183-.612c-0.127-.021-0.23-0.035-0.32-0.046-0.065-.157-0.036-0.281.31-0.338l-0.654-.146a1.463,1.463,0,0,0-1.2-.445c-0.279-.181-0.853.315-0.523,0.019l-1.062.036,0.017-.12c-0.95-.32-2.246.153-3.069-1.1a1.816,1.816,0,0,1-1.212-.37l0.062-.47c-0.462-.023-1.006-0.944-1.352-0.611,0.124-1.4-1.723-1.191-2.236-1.856l-0.334.542a1.988,1.988,0,0,0-.3-0.145c-0.626-.656-2.151-0.518-2.967-1.391a1.153,1.153,0,0,0-.037-0.146c0.006-.006.015-0.009,0.021-0.015l-0.023.006a1.266,1.266,0,0,0-1.168-.942l-0.211-.047a4.58,4.58,0,0,0-1.5-1.229c0-.019-0.008-0.037-0.01-0.057a0.084,0.084,0,0,0,.065.019,0.378,0.378,0,0,0-.067-0.076c-0.007-.154,0-0.323-0.02-0.479a1.353,1.353,0,0,0-.019.443,1.542,1.542,0,0,0-.3-0.194l0.028-.677a0.527,0.527,0,0,1,.293.428c0.095-.618.378-1.456-0.016-0.981l-0.271.41,0.009-.23c-0.488-.326-0.452.159-0.558,0.514-0.044.067-.085,0.143-0.127,0.218a0.46,0.46,0,0,1-.535-0.016c0.322-.678-0.834-0.177-0.248-1.158a0.442,0.442,0,0,1-.2.039,0.468,0.468,0,0,0,.215-0.425c-0.707-.151-2.154-0.371-2.341-1.754a3.518,3.518,0,0,1,.762.727L48.5,106.276c1.329,0.249,1.558,1.008,1.6-.09-0.688.541-1.314-.036-1.823-0.7s-1.02-1.326-1.813-.835l-0.015-.7c0.081,0.146.185,0.1,0.265,0.249,0.07-1.1-.926-0.458-1.629-0.791-0.165-.32-0.36-0.663-0.559-1.023,0-.287.1-0.466,0.352-0.339l-0.823-.628c-0.049-.122-0.083-0.247-0.123-0.372a0.179,0.179,0,0,1,.234.082c-0.078-.118-0.224-0.369-0.372-0.63a2.933,2.933,0,0,1-.04-0.682,2.55,2.55,0,0,1-.248.171l-0.16-.289,0.057-.013c-0.037-.009-0.086-0.028-0.127-0.041,0.088-.306.13-0.605-0.42-0.367a0.942,0.942,0,0,1,.869-0.488,0.931,0.931,0,0,1-.328-0.469,0.313,0.313,0,0,0-.075-0.4,0.657,0.657,0,0,0-.685-0.68,0.749,0.749,0,0,1-.028-0.073,4.685,4.685,0,0,0,.717-0.189,0.99,0.99,0,0,1-.2-0.078,2.346,2.346,0,0,0,.221-0.284c0.1,0.022.208,0.079,0.325,0.109a0.763,0.763,0,0,0-.232-0.268c0.361-.68.014-1.186,0.3-2.122-0.287.3-1.031,2.436-1.832,1.636a1.127,1.127,0,0,0-.578-1.123c0.676-.215.387-0.691,0.186-1.342l0.923-.2c-0.431-.627-0.886-0.457-1.406-0.779-0.11-.824.564-1.134,1.159-1.441-0.024-1.3-1.036,1.115-1.425-.381,0.237-1.15-.361-1.813-0.992-3.1,0.294-.8.59,0.089,0.851-0.21l-0.794-.63c0.01-.17.248-0.128,0.367-0.108a0.57,0.57,0,0,0-.438-0.289,1.9,1.9,0,0,0,.633-0.452c0.128-.092.224,0.123,0.331,0.234,0.841-1.06-.951-0.078-1.2-0.85,0.5-.158,1.291.137,1.363-0.373,0.384-.228-1.564-1.449-0.7-2.153a0.425,0.425,0,0,0,.1.01c-0.262-.589-0.4-0.927-0.523-1.191a0.575,0.575,0,0,0-.219-0.979,0.536,0.536,0,0,1,.308-0.068c-0.166-.282-0.272-0.755-0.457-1.171L39.689,79a0.828,0.828,0,0,1-.378.184,1.211,1.211,0,0,0-.4-0.463,0.836,0.836,0,0,0,.952-0.454,0.28,0.28,0,0,0,.047-0.03c-0.014.005-.029,0-0.043,0a1.769,1.769,0,0,0-.092-0.835l0.775-.067-0.392-.167,1.093-1.652-0.324-.663a1.508,1.508,0,0,0-.518-1.469,0.376,0.376,0,0,1,.451.109,5.308,5.308,0,0,0,.439-0.614,1.663,1.663,0,0,1-.191.777c0.291-.514.655-0.248,0.75-0.064l-0.161-2.165c0.663,0.32.641-.19,1.15-0.523a0.712,0.712,0,0,1-.7-0.528A4.2,4.2,0,0,0,42.9,69.5a1.492,1.492,0,0,1-.062.145c0.648-.217.508-0.669,0.3-1.143,0-.024.005-0.045,0-0.07a0.546,0.546,0,0,1,.207.257c0-1.512,2.685-1.91,1.605-3.333,0.008-.014.016-0.026,0.023-0.039,0.281-.458.6-0.929,0.836-1.41a5.7,5.7,0,0,0,.448-1.14c0.158-.208.328-0.4,0.494-0.6a7.694,7.694,0,0,1,.512.669s-0.089-.3-0.182-0.73c-0.018-.079-0.039-0.184-0.058-0.272,0.18-.206.371-0.4,0.562-0.593,0.032,0.066.062,0.129,0.1,0.2l0.532,1.027a0.918,0.918,0,0,1,.469-1.279l-0.667-.349c0.165-.151.315-0.321,0.488-0.462l0.149-.132a1.124,1.124,0,0,1,.079.915A2.2,2.2,0,0,0,49.8,59.9a1.142,1.142,0,0,1-.588-0.156l0.554-.49c0.122-.1.236-0.208,0.358-0.31,0.182-.04.427-0.086,0.822-0.136a0.436,0.436,0,0,1-.4-0.232c0.155-.134.32-0.262,0.465-0.4l-0.739-.433,0.328-.28a2.491,2.491,0,0,1,.679,1s0.027-.291.062-0.658a1.208,1.208,0,0,0,.088-0.755c0.015-.1.031-0.187,0.046-0.272a0.923,0.923,0,0,1,.157-0.05,1.243,1.243,0,0,0,.286.294c0.006,0.3-.136.7,0.009,0.585,0,0,.271-0.36.278-0.352l-0.136-.008c0.005-.044,0-0.079.005-0.119a2.118,2.118,0,0,0,.675.285c-0.29-.115,1.048-0.8,1.286-1.173l-0.695.153a1.718,1.718,0,0,0,.7-0.857l0.01-.008-0.007,0a6.252,6.252,0,0,0,.25-1.128A5.869,5.869,0,0,0,55.5,53.7a0.8,0.8,0,0,0,1,.533c0.006-.24,0-0.718.041-1.264a1.033,1.033,0,0,1,.578-0.239,2.534,2.534,0,0,1,1.147-1.083c-0.353.865-.7,1.705-0.949,2.239,0.71-.055.364,0.3,1.2-0.19,0.451,0.143-.225.712-0.458,0.864l2.034-.874a0.985,0.985,0,0,1,.424-1.037,0.978,0.978,0,0,0,.538-0.879l-0.318.252a5.426,5.426,0,0,0-.67.6l-0.923.926c-0.311-.433.045-1.672,0.933-2.452a0.941,0.941,0,0,1,.7.1c-0.328-.153.122-0.4,0.495-0.65,0.353,0.226.069,1.237,0.184,1.428a2.613,2.613,0,0,1,1.466-.91l-0.518.607c0.894-.12,1.092-1.424,2.328-1.106,0.377-.065,1.27.468,1.24,0.084a3.162,3.162,0,0,1-.865-1.349,9.37,9.37,0,0,0,1.128-.332c0-.107-0.236-0.2-0.038-0.419l0.1-.029,0.855,0.268a0.992,0.992,0,0,1,.586-0.46c-0.128.464-.713,1.037-0.27,1.3a0.972,0.972,0,0,1,.429-0.518c0.418,0.065-.077.529,0.762,0.295,0.053-.615,1.753-0.275.333-0.571a6.144,6.144,0,0,1,1.909-.2c-0.227-.216.149-0.667,0.683-1.017l1.072-.145c0.036,0,.072,0,0.107-0.008,0.038,0.034.075,0.065,0.1,0.087,0.452-.011.851-0.009,1.222,0,0.37,0.033.712,0.091,1.049,0.135A21.475,21.475,0,0,0,77.3,47.9c0.147,0.114.934,0.291,0.573,0.466a2.242,2.242,0,0,1,.99-0.117c0.932,0.508-1.138-.088-0.446.472,0.092-.254,1.35-0.192,2.1-0.242-0.16-.4-1.674-0.315-2.412-0.241,0.051-.568,1.4-0.952,3.222-0.857,1.424,0.171.537,0.455,0.795,0.431a6.154,6.154,0,0,0,2.416.325,3.058,3.058,0,0,1,2.014.558c0.734,0.577-.137.511-0.018,0.765-1.1-.323-1.605-0.751-2.368-0.934L85.064,48.9a4.5,4.5,0,0,1-1.518-.309c0.652,0.362,4.264,1.3,6.01,2.374,0.356,0.082.952,0.283,0.724,0.075l-0.593-.252c-0.456-.432,1.2.31,0.5-0.13a8.337,8.337,0,0,1,2.8,1.282l0.084,0.314a2.8,2.8,0,0,0-.939-0.665c0.484,0.19,1.442,1.249,2.06,1.306l-0.65-.585a9.521,9.521,0,0,1,2.648,1.53c-0.284-.462-0.206-0.143-0.7-0.808,0.409,0.609-2.334-1.571-1.594-.7a16.039,16.039,0,0,0-1.871-1.644c-0.007.085,0.259,0.311-.539-0.166a1.221,1.221,0,0,1-.211-0.033l-0.053-.035,0.041,0.033c-0.041-.008-0.045-0.008.015,0.012a1.717,1.717,0,0,1,.361.331c-0.489-.052-1.785-0.731-2.267-0.863-0.468-.29.244,0.012,0.017-0.212a5.366,5.366,0,0,0-.734-0.165c0.012-.209-1.224-0.877.021-0.486L87.6,48.638a7.2,7.2,0,0,0-2.04-.941c-0.516-.221-1.414-0.165-0.9-0.2l-1.807-.4,0-.068a13.465,13.465,0,0,0-2.777-.5,15.635,15.635,0,0,1-2.968-.705,9.521,9.521,0,0,1-2.293-.141l-0.2-.309c-0.793.011-2.423-.349-2.758-0.052a3.437,3.437,0,0,0-2.515-.387,27.609,27.609,0,0,1-2.893.358l0.034,0.456a12.231,12.231,0,0,0-3.007.885l0.039,0.084c-0.087.019-.175,0.032-0.262,0.053a11.541,11.541,0,0,0-2.309.857,9.143,9.143,0,0,0-1.511.354,0.819,0.819,0,0,1,.781-0.277,3.187,3.187,0,0,0-1.576.15,6.5,6.5,0,0,0-1.331.813c-0.065.05-.128,0.1-0.193,0.144a0.224,0.224,0,0,1,.021-0.046c-0.083.072-.138,0.123-0.2,0.181A4.4,4.4,0,0,1,54.7,49.985a1.3,1.3,0,0,1-.955.523,0.253,0.253,0,0,0,.083-0.078,1.423,1.423,0,0,0-.164.084c-0.219.021-.453,0.032-0.693,0.069a2.314,2.314,0,0,0,.607-0.019,6.545,6.545,0,0,0-1.1.854l-0.5-.367-0.1.072c-0.567.074-.205,0.425,0.268,0.649a1.875,1.875,0,0,0-.369.655,0.593,0.593,0,0,0-.85.189,1.494,1.494,0,0,0-.533.235c0.1-.067.059-0.137,0.161-0.2a0.716,0.716,0,0,0-.511.377,0.936,0.936,0,0,1-.23-0.062,0.768,0.768,0,0,1-.178.4,0.667,0.667,0,0,1-.327.079,0.538,0.538,0,0,1-.007.34c-0.118.135-.242,0.275-0.364,0.421a2.837,2.837,0,0,0-.483.981,0.456,0.456,0,0,1-.4.281c-0.534-.716.891-1.031,0.994-1.963-0.509-.081-0.584,1.31-0.949.367,0.433,1.23-1.053.668-1.041,1.9l-0.338-.429a1.428,1.428,0,0,1-.253.67s-0.047-.2-0.095-0.408S46.3,55.2,46.3,55.2c-0.079.884-1.338,0.538-1.583,1.23,0.982-.977.713,0.249,1.417,0.127a0.819,0.819,0,0,1-.95.711c0-.039,0-0.07,0-0.113-0.012.043-.021,0.068-0.033,0.109a1.592,1.592,0,0,0-1.843.4c0.241-.2.825-0.3,0.752,0.093a2.513,2.513,0,0,1-1.2.38c-0.744,1.035.591,0.234,0.516,0.869-0.834-.126-0.177.65-0.338,1.2l-0.481-.365c-1.234.858,0.748,1.028-.375,1.769L41.8,60.68l-0.214.669-0.49-.516a1.476,1.476,0,0,1-.839,1.472,0.875,0.875,0,0,1,.663.873c-0.082.114-.165,0.236-0.247,0.358-0.381.01-.287-0.463-0.636,0.263-0.232-.373-0.552-0.84.177-0.846-0.15-.142-0.216-0.374-0.362-0.517a1.7,1.7,0,0,0-.91,1.222,0.641,0.641,0,0,1,.314-0.229l0.089,1.562a0.427,0.427,0,0,1-.484-0.407,4.333,4.333,0,0,1-.063.921,1.332,1.332,0,0,1-.823-1.172L37.829,65.7c-0.252-.038-0.863.294-0.965,0.057-0.617.507,0.151,2-.64,2.661a0.539,0.539,0,0,1,.109.418C35.9,69.59,34.968,70.1,35.3,71.32l-1.16.245c-0.04.663,0.859,0.072,1.226,0.455a1.678,1.678,0,0,0-.231,1.037,1.626,1.626,0,0,0-.894-0.125,9.076,9.076,0,0,1,.444.817,0.271,0.271,0,0,1-.155.286c-0.279.1-.267-0.326-0.367-0.633a2.023,2.023,0,0,0,.037,1.2l-0.508.359c-0.666-1.006-.174-1.527-1.127-1.089,1.827,0.552-.511,2.67,1.436,3.14l-0.5.361c0.044-.122-0.066-0.162-0.021-0.282-1.094.7,1.283,0.869,0.841,1.892-0.205.354-.53,0.585-0.727,0.3l0.383,0.9a0.176,0.176,0,1,1-.338-0.1s0,0.328.006,0.656S33.67,81.4,33.67,81.4l-0.058-.014a8.353,8.353,0,0,1,.95.865c-0.306.309-.2-0.174-0.458-0.1l0.447,0.73a0.693,0.693,0,0,1-.905-0.836c-2.043.587,0.455,0.612-.748,2.05l-0.24-.7C31.5,83.82,31.9,84.38,31.2,85.208c0.362-.224,1.8-1.617,2.3-0.817a0.652,0.652,0,0,0,.19.933c-0.715.023-.54,0.439-0.47,0.959l-0.955.014a2.452,2.452,0,0,0,1.237.786c-0.042.631-.769,0.832-1.377,1.046-0.049,1.045,1.107-.821,1.413.36-0.269.876,0.2,1.431,0.936,2.3-0.224.633-.6,0-0.829,0.26l0.848,0.368c0.007,0.127-.232.134-0.352,0.136,0.38,0.368.948-.151,1.339,0.448a0.327,0.327,0,0,1,.2.041,1.31,1.31,0,0,0,.046.294c-0.161.437-.749,1.191-0.358,1.638-0.095.127-.18,0.25-0.266,0.373a0.851,0.851,0,0,0-.345.065l0.189,0.164a1.573,1.573,0,0,0-.308.742c-0.085.195-.273-0.2-0.43-0.4-0.343,2.172.965,0.017,1.552,1.366-0.394.4-1.333,0.028-1.105,1.014-0.169.624,2.494,2.185,2.192,3.742,0.21-.419.432-0.818,0.982-0.34a0.51,0.51,0,0,1-.506.219l0.723,0.456,0.014,0.009c0.177,1.027.045,2.522,1.257,2.716a0.378,0.378,0,0,1-.153.3c0.524,0.4,1.3,1.309,1.975,1.733a5.515,5.515,0,0,0,.411.506c-0.287.615,0.142,1.175,0.724,1.684-0.043.021-.083,0.039-0.108,0.049l0.138-.024c0.186,0.16.383,0.317,0.578,0.467l0.066,0.052-0.8.34c0.874-.16.937,0.067,1,0.4l0.309-.34c0.139,0.11.268,0.217,0.379,0.321a1,1,0,0,1-.68.062,1.006,1.006,0,0,0,.8.89,1.124,1.124,0,0,1,.237-0.452,0.572,0.572,0,0,1-.251.63L45.69,112.4l-0.188.095a3.643,3.643,0,0,0,.948.824,0.624,0.624,0,0,0,.272.186l-0.009-.054a3.293,3.293,0,0,0,1.286.218c0.177,0.328-.136.294-0.227,0.349,0.1,0.124.18,0.219,0.269,0.326a0.738,0.738,0,0,0-.2,0,1.739,1.739,0,0,0,.208.006,6.371,6.371,0,0,0,.951.975l-0.033.008c0.144,0.555-.235.481,0.353,0.879-0.06.475-.71,0.254-0.9,0.144l1.177,1.217c0.484-.742,1.568.034,1.96-0.619,0,0-.512-0.042-1-0.136l-1-.171a2.284,2.284,0,0,1,.962-0.7c0.3,0.061.63,0.119,1.044,0.192l-0.188.595a1.28,1.28,0,0,1,.492.315,2.46,2.46,0,0,0-.386.368,1.334,1.334,0,0,1,.9.087c0.1,0.086.2,0.176,0.3,0.269l-0.665.12a0.955,0.955,0,0,0,1,.174c0.23,0.194.482,0.386,0.747,0.572,0.164,0.253.124,1.261,0.41,0.869A2.622,2.622,0,0,1,54.309,119a5.268,5.268,0,0,0,1.307.541,0.4,0.4,0,0,0,.132.193,0.473,0.473,0,0,1-.126.024c1.292,0.195,2.44,1.2,3.6,1.788s2.221,0.934,2.918.227a3.954,3.954,0,0,0,.641.011,0.626,0.626,0,0,0,.015.117,0.421,0.421,0,0,1,.123-0.12c0.438-.009.9-0.024,0.9-0.024a4.015,4.015,0,0,1-.49-0.179c0.32-.077.7-0.106,1-0.182-0.138.228,0.043,0.4,0.356,0.542-0.265.128-.831,0.237-0.127,0.376,0.075-.106.4-0.146,0.444-0.248,0.711,0.242,1.664.415,1.57,0.708a42.077,42.077,0,0,0,11.835.454s-0.482-.4-0.482-0.415c0,0.028,1.3-.2,1.3-0.2,0.354,0.047.509,0.274-.427,0.436a2.125,2.125,0,0,0,1.539-.616c1.845-.165-0.623.652-0.067,0.561l0.756-.186-0.181-.017a5.209,5.209,0,0,1,1.7-.745,1.241,1.241,0,0,1,.686.08,0.615,0.615,0,0,0,.419-0.114l1.607-.452-0.722-.1c0.666-.34,1.491-0.431.667-0.53a10.775,10.775,0,0,0,3.429-1.018c1.349-.619,2.582-1.348,2.92-1.436,0.855-.571,1.656-1.186,2.728-1.814-0.282.133-.553,0.042,0.366-0.5-0.056.274,0.41,0.089,0.936-.29a9.879,9.879,0,0,1,1.591-1.027c-0.358.171,0.235-.312,0.777-0.764s0.966-.956.463-0.615c0.666-.591.12,0.057,0.66-0.354a44.735,44.735,0,0,0,4.705-5.192C103.635,107.792,103.487,107.658,103.339,107.524ZM41.58,71.073a0.664,0.664,0,0,0-.3.537c-0.077-.191-0.17-0.4-0.29-0.675Zm-8.07,13.3c-0.149-.191-0.614-0.587-0.183-0.723C34.138,83.88,33.75,84.039,33.51,84.371Zm5.824-1.695a0.8,0.8,0,0,1,.776.088,1.084,1.084,0,0,1-.657.072A1.145,1.145,0,0,0,39.334,82.676Zm2.481,13.739c0.023-.122.066-0.262,0.09-0.418,0.1,0.085.263,0.195,0.394,0.316C42.142,96.34,41.982,96.373,41.815,96.416Zm22.656,25.055-0.114-.106c0-.385-0.347-0.452-0.75-0.413,0.136-.089.193-0.19-0.019-0.327C64.37,120.726,65.444,121.62,64.471,121.471Zm3.066-1.522,0.073-.424c-0.067-.026-0.1-0.03-0.164-0.051a0.806,0.806,0,0,1,.991.168c0.013,0.019.018,0.036,0.029,0.054A2.769,2.769,0,0,1,67.537,119.949Zm6.635,0.509c-0.093.028-.193,0.065-0.3,0.106a0.289,0.289,0,0,0,.075.179,3,3,0,0,1-.547-0.019l-0.334-.259c0.256-.123.537-0.3,0.831-0.441C74.38,120.149,74.184,120.3,74.172,120.458ZM86.72,48.415H86.688C86.119,48.075,86.319,48.2,86.72,48.415Zm-13.5,71.5a0.523,0.523,0,0,0,.049.1c-0.024-.042-0.047-0.068-0.071-0.1Zm-0.547.49v0.007l-0.01-.009A0.03,0.03,0,0,0,72.672,120.4ZM68.566,119l-0.021.02C68.212,118.751,68.327,118.86,68.566,119Zm-13.71-6.238-0.052.012,0.028,0.031a0.23,0.23,0,0,0,.039-0.025,0.512,0.512,0,0,1,.057.118c-0.03-.033-0.068-0.056-0.1-0.093a0.4,0.4,0,0,1-.142.007,1.265,1.265,0,0,0-.125-0.1A0.184,0.184,0,0,1,54.856,112.762ZM43.035,96.776l0.083,0.12A0.132,0.132,0,0,1,43.035,96.776Zm-0.35-.5c-0.036,0-.069,0-0.106,0,0.007-.044.009-0.081,0.018-0.128ZM41.662,71.04a0.21,0.21,0,0,1,.013-0.143c0.057,0.022.114,0.041,0.173,0.069A0.693,0.693,0,0,0,41.662,71.04Zm16.96-20.254-0.2.5A0.329,0.329,0,0,1,58.622,50.786Zm-24.3,24.441a0.584,0.584,0,0,1,0-.362,1.5,1.5,0,0,0,.174.214A1.243,1.243,0,0,1,34.319,75.227Zm21.448,44.5a0.807,0.807,0,0,1-.086-0.171c0.093,0.023.182,0.062,0.278,0.079A0.479,0.479,0,0,1,55.766,119.725Zm7.366,1.739c-0.2-.149-0.028-0.254.178-0.356C63.521,121.491,63.341,121.476,63.132,121.464Zm2.26-2.071c0.278,0.037.34,0.16,0.323,0.287a3.249,3.249,0,0,1-.508-0.206Zm15.493,1.231-0.019-.058a0.481,0.481,0,0,0,.342-0.083l0.169-.032A3.925,3.925,0,0,0,80.885,120.624Zm2.473,1.363-0.267.005C83.638,121.751,83.5,121.865,83.358,121.987ZM44.165,101.125a0.2,0.2,0,0,0,.059.073A0.3,0.3,0,0,0,44.165,101.125ZM68,49.757a1.12,1.12,0,0,1-.526-0.127C67.475,49.737,67.606,49.8,68,49.757ZM94.28,52.165l-0.735-.443a4.145,4.145,0,0,1,.613.478C94.163,52.157,94.057,52.017,94.28,52.165ZM99.512,57.4L99.8,57.643l0.009-.059C99.426,57.235,99.128,57.022,99.512,57.4Zm-4-3.691c0.241-.041-0.288-0.389-0.863-0.658a3.074,3.074,0,0,0,.945.722Zm0.193,0.145,0.434,0.332A0.88,0.88,0,0,0,95.709,53.853ZM89.89,49.627c0.378-.069-1.8-0.636-0.363-0.022A1.579,1.579,0,0,0,89.89,49.627Zm4.93,4.038L94.73,53.42l-0.352-.062Zm-3.129-1.959a0.338,0.338,0,0,1,.257.053,5.667,5.667,0,0,0-1.076-.513Zm0.257,0.053c0.265,0.143.5,0.3,0.664,0.361A5.646,5.646,0,0,0,91.948,51.758ZM93.7,53.045l-0.218-.173-0.559-.353ZM81.372,47.863l-1.031-.077c-0.121.09,0.144,0.2,0.528,0.213C81.124,47.965,81.508,47.986,81.372,47.863Zm2.435,1.172-0.118.321,0.5-.018A0.948,0.948,0,0,1,83.807,49.035Zm-2.5-.263c-0.121.085-1.5,0.119-.235,0.246C81.192,48.913,82.2,49,81.305,48.771Zm-25,6.4c0.078-.384-0.845.214-0.747-0.142-0.416.627-.8,0.68-0.107,1.17C56.525,55.822,55.278,55.431,56.308,55.171Zm-0.747-.142a2.783,2.783,0,0,0,.2-0.345A1.142,1.142,0,0,0,55.561,55.029ZM42.784,94.253l0.4-.666-0.233.013A0.587,0.587,0,0,0,42.784,94.253Zm3.287,8.094-0.063-.151-0.543.7ZM50.7,107.31c0.508,0.455.142,1.409,0.734,0.682A6.381,6.381,0,0,1,50.7,107.31ZM88.223,118.2l-0.082-.012-0.334.056C87.948,118.332,87.46,118.41,88.223,118.2Zm-0.082-.012c0.342-.072-0.254-0.046,0,0h0Zm-1.534.089c-0.448.127-.331,0.191-0.033,0.265L87,118.362C86.881,118.309,86.472,118.352,86.607,118.278Zm-0.394.575,0.221-.092C86.383,118.738,86.318,118.738,86.212,118.853Zm0.438-.17c-0.014.1,0.059-.008,0.251-0.109l-0.469.187C86.513,118.8,86.55,118.9,86.651,118.683Zm-2.939.081a1.252,1.252,0,0,0,.261.3l0.312-.138A0.975,0.975,0,0,1,83.712,118.764Zm0.261,0.3-0.466.213C83.957,119.232,84.023,119.153,83.973,119.067Zm-1.926-.374-0.44.362,0.2-.128Zm-2.464.3a1.376,1.376,0,0,1,.973.056c0.176-.2-0.337-0.32-0.137-0.445A1.844,1.844,0,0,0,79.583,118.991Zm2.617,0.134,0.247,0.235,0.2-.02A0.632,0.632,0,0,0,82.2,119.125Zm0.256,0.242-0.008-.007-0.427.034Zm2.42-.06c-0.262.173-.846,0.423-0.2,0.5C84.845,119.618,84.48,119.573,84.875,119.307Zm-1.871.31,0.545-.02c-0.025-.061-0.141-0.139-0.01-0.227Zm-0.244.116L83,119.617l-0.2.006Zm-2.643-.266a1.592,1.592,0,0,1-.739.208,4.135,4.135,0,0,0,.928.025C80.335,119.606,80.44,119.435,80.117,119.467Zm-3.516.279,0.049,0.062,0.006-.059Zm3.764,0a0.543,0.543,0,0,0,.479-0.14,3.778,3.778,0,0,1-.538.09C80.294,119.742,80.294,119.77,80.366,119.75Zm-1.945-.35a2.759,2.759,0,0,0,.413.157A0.489,0.489,0,0,0,78.421,119.4Zm2.7,0.011,0.032-.015C81.065,119.343,81.08,119.371,81.118,119.411Zm0,0a1.184,1.184,0,0,0-.273.2,1.953,1.953,0,0,0,.363-0.13A0.362,0.362,0,0,1,81.118,119.411Zm-3.471.416,0.212-.043a1.927,1.927,0,0,1-.777-0.4,0.547,0.547,0,0,0-.425.367l1.06,0.031Zm-1.067-.615-0.453.508,0.366-.147Zm-1.151.053-0.279.186,0.252,0.142ZM33.33,81.31l0.282,0.071C33.463,81.276,33.35,81.228,33.33,81.31Zm2.8-12.97-0.41-.541C35.483,68.274,35.87,68.185,36.127,68.34Zm28.466,49.516a1.869,1.869,0,0,0-.622-0.523C64.224,117.719,64.391,118.212,64.592,117.856ZM40.221,80.787a0.476,0.476,0,0,0-.366-0.244A0.386,0.386,0,0,0,40.221,80.787Zm22.947,36.247a1.848,1.848,0,0,0,.107.175,1.621,1.621,0,0,1,.7.125A0.567,0.567,0,0,0,63.168,117.033Zm7.9,2.006c0.227,0,.039-0.041,0,0h0Zm0.327,0.233a1.322,1.322,0,0,0-.281-0.161A1.328,1.328,0,0,0,71.394,119.272Zm-0.033-.2,0.195,0.066C71.589,119.074,71.566,119.028,71.361,119.072Zm-0.609-.056a1.474,1.474,0,0,1,.362.095c-0.042-.034-0.059-0.06-0.046-0.072A3.012,3.012,0,0,1,70.752,119.016ZM43.115,109.65a0.3,0.3,0,0,0,.042,0l-0.007-.043Zm0.1-51.873c0.031-.044.063-0.074,0.094-0.112A0.3,0.3,0,0,0,43.211,57.777ZM36.2,68.44l0.021-.025a0.431,0.431,0,0,0-.1-0.075Zm37.214,50.679-0.494.063a0.679,0.679,0,0,1,.442.187C73.356,119.266,73.263,119.113,73.418,119.118Zm-3.119.129c0.154,0.126.148-.486,0.225-0.312C70.753,118.461,69.386,119.37,70.3,119.247Zm-23.585-4.466c0.4,0.8.734-.5,1.012,0.3,0.364-.117-0.226-0.655.114-0.735C47.238,114.276,47.174,113.956,46.714,114.781Zm-14.9-28.809a0.456,0.456,0,0,0,.3-0.489l-0.533.457Zm0.959-7.5-0.038.124,0.884-.113Zm0.467-6.35c-0.11.24-.02,0.585-0.13,0.825C33.136,72.362,34.261,72.359,33.245,72.126Zm82.611,43.442c1.091,0.371,2.232,1.027,2.232,2.315a1.969,1.969,0,0,1-2.109,2.017,2.137,2.137,0,0,1-2.256-2.215,0.176,0.176,0,0,1,.173-0.174,0.17,0.17,0,0,1,.174.174c0.013,0.1.013,0.222,0.025,0.32a1.684,1.684,0,0,0,.794,1.251,1.932,1.932,0,0,0,1.078.3,1.633,1.633,0,0,0,1.773-1.67c0-1.115-1.078-1.684-2-1.98-0.98-.323-2.021-0.78-2.021-1.993a1.926,1.926,0,0,1,1.984-1.869,1.979,1.979,0,0,1,2.058,2.029,0.179,0.179,0,0,1-.186.173,0.184,0.184,0,0,1-.172-0.173,3.335,3.335,0,0,0-.064-0.482,1.506,1.506,0,0,0-1.575-1.188l-0.061-.012a1.58,1.58,0,0,0-1.637,1.522C114.07,114.949,115.026,115.3,115.856,115.568Zm5.735,0.086a0.179,0.179,0,0,1,.174.173,0.17,0.17,0,0,1-.174.174H120.66v3.639a0.174,0.174,0,1,1-.347,0V116h-0.892a0.17,0.17,0,0,1-.174-0.174,0.178,0.178,0,0,1,.174-0.173h0.892v-1.335a0.174,0.174,0,1,1,.347,0v1.335h0.931Zm4.722,0.2v3.786a0.178,0.178,0,0,1-.174.174,0.172,0.172,0,0,1-.174-0.174v-0.718a1.624,1.624,0,0,1-1.438.978,1.676,1.676,0,0,1-1.6-1.832v-2.214a0.174,0.174,0,1,1,.348,0v2.214a1.338,1.338,0,0,0,1.252,1.485c1.166,0,1.438-1.089,1.438-2.289v-1.41a0.178,0.178,0,0,1,.174-0.174A0.186,0.186,0,0,1,126.313,115.854Zm5.477-3.491V119.6a0.174,0.174,0,0,1-.348,0V118.81a1.982,1.982,0,0,1-1.737,1.077,2.16,2.16,0,0,1,0-4.307,1.993,1.993,0,0,1,1.737,1.09v-4.307A0.174,0.174,0,0,1,131.79,112.363Zm-0.436,5.371a1.655,1.655,0,1,0-1.649,1.806A1.731,1.731,0,0,0,131.354,117.734Zm2.178-2.995a0.279,0.279,0,1,1,0-.557A0.279,0.279,0,1,1,133.532,114.739Zm0.173,1.115v3.76a0.185,0.185,0,0,1-.173.173,0.176,0.176,0,0,1-.174-0.173v-3.76a0.177,0.177,0,0,1,.174-0.174A0.186,0.186,0,0,1,133.705,115.854Zm5.516,1.855a2.008,2.008,0,1,1-2.009-2.153A2.088,2.088,0,0,1,139.221,117.709Zm-0.36,0a1.656,1.656,0,1,0-1.649,1.807A1.727,1.727,0,0,0,138.861,117.709ZM92.154,60.97a0.576,0.576,0,0,1-.374.134c-0.02,0-.055,0-0.1-0.008s-0.165-.007-0.344-0.007a5.646,5.646,0,0,0-.727.06,4.985,4.985,0,0,0-.973.246,5.7,5.7,0,0,0-1.108.545,5.481,5.481,0,0,0-1.13.963A7.875,7.875,0,0,0,86.346,64.4a9.7,9.7,0,0,0-.838,2.144q-0.18.627-.412,1.8T84.6,70.98q-0.263,1.464-.524,3.122t-0.494,3.257q-0.233,1.6-.427,3.04t-0.3,2.473a0.667,0.667,0,0,1-.172.351,0.457,0.457,0,0,1-.352.157,0.647,0.647,0,0,1-.367-0.1,0.537,0.537,0,0,1-.217-0.314q-0.195-.717-0.614-1.987T80.17,78.114q-0.546-1.591-1.19-3.384T77.7,71.182q-0.636-1.755-1.228-3.362t-1.04-2.831q-0.075.837-.232,1.86t-0.419,2.2q-0.262,1.173-.651,2.48T73.2,74.237a15.728,15.728,0,0,1-1.969,3.675,14.119,14.119,0,0,1-2.373,2.54,11.819,11.819,0,0,1-2.523,1.606,14.974,14.974,0,0,1-2.4.889,12.3,12.3,0,0,1-2.021.381q-0.9.082-1.378,0.082a10.1,10.1,0,0,1-3.031-.433,7.354,7.354,0,0,1-2.4-1.232,5.678,5.678,0,0,1-1.572-1.913,5.383,5.383,0,0,1-.561-2.457,4.837,4.837,0,0,1,.546-2.263,5.973,5.973,0,0,1,1.467-1.83A7.157,7.157,0,0,1,57.1,72.056a6.972,6.972,0,0,1,2.478-.448,7.974,7.974,0,0,1,1.908.209,7.411,7.411,0,0,1,1.5.531,6.3,6.3,0,0,1,1.123.695,6.651,6.651,0,0,1,.779.71,4.88,4.88,0,0,1,.464.575l0.187,0.284a0.6,0.6,0,0,1,.06.269,0.578,0.578,0,0,1-.157.388,0.521,0.521,0,0,1-.412.179,0.531,0.531,0,0,1-.494-0.3,4.311,4.311,0,0,0-.292-0.426,4.365,4.365,0,0,0-.853-0.829,6.152,6.152,0,0,0-1.489-.814,5.961,5.961,0,0,0-2.216-.366,6.156,6.156,0,0,0-2.073.358,6.04,6.04,0,0,0-1.789.986,4.952,4.952,0,0,0-1.25,1.486A3.8,3.8,0,0,0,54.1,77.4a3.992,3.992,0,0,0,.509,1.995,4.864,4.864,0,0,0,1.385,1.546,6.679,6.679,0,0,0,2.036.993,8.508,8.508,0,0,0,2.478.351q0.509,0,1.348-.075a11.772,11.772,0,0,0,1.879-.343,12.444,12.444,0,0,0,2.193-.814A10.649,10.649,0,0,0,68.2,79.57a13.186,13.186,0,0,0,2.148-2.346,14.965,14.965,0,0,0,1.8-3.406A31.123,31.123,0,0,0,73.418,69.9q0.457-1.86.681-3.354T74.376,64q0.052-1.053.052-1.5V62.2a0.588,0.588,0,0,1,.157-0.411,0.564,0.564,0,0,1,.936.2q0.045,0.1.262,0.7t0.569,1.546q0.352,0.949.808,2.189t0.966,2.637q0.509,1.4,1.048,2.891t1.056,2.943q0.516,1.449.981,2.794t0.838,2.45q0.165-1.195.359-2.532t0.412-2.7q0.217-1.367.434-2.682t0.434-2.465q0.217-1.151.4-2.062t0.33-1.464a10.631,10.631,0,0,1,.943-2.457,8.1,8.1,0,0,1,1.49-1.995,6.577,6.577,0,0,1,2.006-1.337,6.292,6.292,0,0,1,2.508-.486,1.759,1.759,0,0,1,.756.12,0.472,0.472,0,0,1,.232.463v0.075A0.538,0.538,0,0,1,92.154,60.97Zm-1.564,8.223a1.6,1.6,0,1,1-3.2,0,1.581,1.581,0,0,1,.466-1.13A1.6,1.6,0,0,1,90.591,69.193ZM87.745,79.464a40.149,40.149,0,0,1,.316-5.03A0.745,0.745,0,0,1,88.281,74a0.653,0.653,0,0,1,.483-0.184,0.559,0.559,0,0,1,.439.2,0.688,0.688,0,0,1,.176.464q0,0.105-.044.631t-0.105,1.253q-0.062.728-.106,1.542t-0.044,1.5a5,5,0,0,0,.184,1.5,2.374,2.374,0,0,0,.475.885,1.453,1.453,0,0,0,.614.421,2.024,2.024,0,0,0,.623.105A1.842,1.842,0,0,0,92,81.97a5.608,5.608,0,0,0,1.08-.981,12.3,12.3,0,0,0,1.116-1.516A22.445,22.445,0,0,0,95.3,77.5a0.652,0.652,0,0,1,.246-0.272,0.661,0.661,0,0,1,.351-0.1,0.592,0.592,0,0,1,.465.21,0.677,0.677,0,0,1,.185.456,0.593,0.593,0,0,1-.07.3q-0.211.4-.527,0.981t-0.72,1.192q-0.4.614-.887,1.218a8.738,8.738,0,0,1-1.028,1.087,5.29,5.29,0,0,1-1.142.78,2.691,2.691,0,0,1-1.212.3,2.8,2.8,0,0,1-1.388-.333,3.137,3.137,0,0,1-1.01-.894,3.877,3.877,0,0,1-.614-1.323A6.356,6.356,0,0,1,87.745,79.464Zm1.862-10.271a0.63,0.63,0,0,0-.615-0.614,0.562,0.562,0,0,0-.421.184,0.6,0.6,0,0,0-.176.43,0.6,0.6,0,0,0,.6.6,0.6,0.6,0,0,0,.43-0.175A0.561,0.561,0,0,0,89.607,69.193Zm17.16,8.9q-0.106.193-.36,0.7a10.671,10.671,0,0,1-.686,1.148,13.346,13.346,0,0,1-1.027,1.323,8.533,8.533,0,0,1-1.37,1.253,7.349,7.349,0,0,1-1.73.938,5.756,5.756,0,0,1-2.081.368,4.172,4.172,0,0,1-1.774-.359,3.729,3.729,0,0,1-1.317-1.017A4.524,4.524,0,0,1,95.6,80.9a6.585,6.585,0,0,1-.281-1.98,6.355,6.355,0,0,1,.3-1.972,5.369,5.369,0,0,1,.817-1.6,4.025,4.025,0,0,1,1.2-1.078,2.874,2.874,0,0,1,1.458-.394,2.673,2.673,0,0,1,1.054.2,2.441,2.441,0,0,1,.8.535,2.592,2.592,0,0,1,.509.736,1.927,1.927,0,0,1,.185.806,2.6,2.6,0,0,1-.343,1.306,1.368,1.368,0,0,1-.342.4,0.641,0.641,0,0,1-.87-0.044,0.658,0.658,0,0,1-.184-0.473A0.479,0.479,0,0,1,99.96,77.1c0.041-.07.088-0.143,0.141-0.219a1.158,1.158,0,0,0,.2-0.71A0.871,0.871,0,0,0,99.96,75.5a1.276,1.276,0,0,0-.869-0.3,1.672,1.672,0,0,0-.94.3,2.82,2.82,0,0,0-.781.8,4.336,4.336,0,0,0-.536,1.174,4.96,4.96,0,0,0-.2,1.428,5.215,5.215,0,0,0,.175,1.367,3.617,3.617,0,0,0,.527,1.148,2.636,2.636,0,0,0,.887.8,2.578,2.578,0,0,0,1.273.3,4.461,4.461,0,0,0,1.756-.342,6.4,6.4,0,0,0,1.476-.868,7.563,7.563,0,0,0,1.177-1.148,13.693,13.693,0,0,0,.869-1.174,9.468,9.468,0,0,0,.562-0.964q0.2-.412.237-0.517a0.54,0.54,0,0,1,.237-0.272,0.708,0.708,0,0,1,.36-0.1,0.612,0.612,0,0,1,.483.21,0.7,0.7,0,0,1,.185.473A0.826,0.826,0,0,1,106.767,78.1Zm0.913,2.927a2.73,2.73,0,0,0,.948.815,3.3,3.3,0,0,0,2.986-.105,5.156,5.156,0,0,0,1.283-1.078,8.681,8.681,0,0,0,1.036-1.49q0.456-.824.825-1.647A0.641,0.641,0,0,1,115,77.229a0.666,0.666,0,0,1,.351-0.1,0.616,0.616,0,0,1,.484.21,0.683,0.683,0,0,1,.184.456,0.535,0.535,0,0,1-.018.149,0.818,0.818,0,0,1-.052.131,12.73,12.73,0,0,1-2.644,4.014,4.741,4.741,0,0,1-3.24,1.385,4.094,4.094,0,0,1-3.39-1.6,4.861,4.861,0,0,1-.808-1.6,6.284,6.284,0,0,1-.264-1.788,5.885,5.885,0,0,1,.22-1.648,4.157,4.157,0,0,1,.632-1.315,3.038,3.038,0,0,1,.984-0.876,2.551,2.551,0,0,1,1.256-.316,2.046,2.046,0,0,1,.8.166,2.309,2.309,0,0,1,.711.473,2.361,2.361,0,0,1,.51.745,2.467,2.467,0,0,1,.193,1,3.683,3.683,0,0,1-.246,1.35,4.559,4.559,0,0,1-.676,1.174,5.757,5.757,0,0,1-1.028,1A7.5,7.5,0,0,1,107.68,81.024Zm-0.527-1.139a4.283,4.283,0,0,0,.993-0.578,4.117,4.117,0,0,0,.763-0.771,3.561,3.561,0,0,0,.492-0.885,2.636,2.636,0,0,0,.176-0.938,1.1,1.1,0,0,0-.263-0.8,0.832,0.832,0,0,0-.615-0.272,1.265,1.265,0,0,0-.808.263,1.988,1.988,0,0,0-.545.683,3.536,3.536,0,0,0-.307.938,5.52,5.52,0,0,0-.1,1.025,3.856,3.856,0,0,0,.061.666C107.045,79.452,107.094,79.674,107.153,79.885Zm-20.54,3.668a0.842,0.842,0,0,1,.655.327,1.2,1.2,0,0,1,.281.81,2.737,2.737,0,0,1-.523,1.457,8.548,8.548,0,0,1-1.507,1.675q-0.172.873-.3,1.987a23.014,23.014,0,0,0-.125,2.532q0,2.182-.14,4.254a27.579,27.579,0,0,1-.531,3.9,15.7,15.7,0,0,1-1.1,3.35,8.621,8.621,0,0,1-1.858,2.626,8.066,8.066,0,0,1-2.788,1.714,11.047,11.047,0,0,1-3.888.616,11.77,11.77,0,0,1-3.342-.436,7.781,7.781,0,0,1-2.491-1.208,5.347,5.347,0,0,1-1.562-1.808,4.807,4.807,0,0,1-.539-2.252,5,5,0,0,1,.515-2.252,5.883,5.883,0,0,1,1.39-1.808A6.5,6.5,0,0,1,70.8,97.828a7,7,0,0,1,2.475-.436q0.2,0,.414.008a1.462,1.462,0,0,1,.382.062,0.639,0.639,0,0,1,.289.187,0.593,0.593,0,0,1-.062.779,0.6,0.6,0,0,1-.414.164c-0.1,0-.205,0-0.3-0.008s-0.2-.008-0.3-0.008a5.905,5.905,0,0,0-2.015.343,5.375,5.375,0,0,0-1.671.95,4.6,4.6,0,0,0-1.14,1.434,3.883,3.883,0,0,0-.422,1.792,3.577,3.577,0,0,0,.313,1.528,3.866,3.866,0,0,0,.843,1.176,5.23,5.23,0,0,0,1.226.865,7.937,7.937,0,0,0,1.461.577,10.544,10.544,0,0,0,1.554.319,11.755,11.755,0,0,0,1.507.1,9.394,9.394,0,0,0,3.42-.562,6.8,6.8,0,0,0,2.429-1.574,7.894,7.894,0,0,0,1.6-2.423,15.638,15.638,0,0,0,.953-3.117,26.61,26.61,0,0,0,.46-3.647q0.118-1.94.133-4.013,0.016-1,.078-1.956t0.172-1.738q-0.625.327-1.375,0.639t-1.507.647q-0.758.336-1.476,0.717a7.529,7.529,0,0,0-1.273.841,3.946,3.946,0,0,0-.89,1.029,2.45,2.45,0,0,0-.336,1.27,2.641,2.641,0,0,0,.218,1.114,2.73,2.73,0,0,0,.547.8,3.07,3.07,0,0,0,.718.537,5.01,5.01,0,0,0,.726.327,5.476,5.476,0,0,0,.578.171,2.7,2.7,0,0,0,.273.055,0.653,0.653,0,0,1,.359.21,0.536,0.536,0,0,1,.094.32,0.6,0.6,0,0,1-.156.428,0.518,0.518,0,0,1-.391.164c-0.021,0-.065,0-0.133-0.008a0.43,0.43,0,0,1-.132-0.023,7.158,7.158,0,0,1-1.187-.382,4.952,4.952,0,0,1-1.273-.764,4.2,4.2,0,0,1-1.015-1.239,3.716,3.716,0,0,1-.414-1.823,3.056,3.056,0,0,1,.468-1.683,5.111,5.111,0,0,1,1.226-1.309,9.975,9.975,0,0,1,1.687-1.028q0.929-.452,1.851-0.849t1.733-.772a5.8,5.8,0,0,0,1.327-.81,9.037,9.037,0,0,1,1.015-2.774A1.553,1.553,0,0,1,86.613,83.553Zm6.726,19.169q0.831,3.908,2.407,3.907a1.844,1.844,0,0,0,1.169-.448,5.87,5.87,0,0,0,1.043-1.1,9.817,9.817,0,0,0,.856-1.378q0.373-.727.61-1.269a0.629,0.629,0,0,1,1.051-.2,0.64,0.64,0,0,1,.186.44,0.523,0.523,0,0,1-.05.237q-0.118.288-.348,0.769T99.7,104.709q-0.33.55-.737,1.125a6.561,6.561,0,0,1-.9,1.032,5.006,5.006,0,0,1-1.043.753,2.422,2.422,0,0,1-1.161.3,2.7,2.7,0,0,1-1.949-.787,6.366,6.366,0,0,1-1.407-2.6,8.321,8.321,0,0,1-1.644,2.5,2.586,2.586,0,0,1-1.8.778,3.052,3.052,0,0,1-.984-0.16,2.041,2.041,0,0,1-.83-0.533,2.782,2.782,0,0,1-.577-0.956,4.063,4.063,0,0,1-.22-1.429,5.557,5.557,0,0,1,.407-2.149,5.662,5.662,0,0,1,1.051-1.683,4.887,4.887,0,0,1,1.433-1.091,3.52,3.52,0,0,1,1.568-.389,0.619,0.619,0,0,1,.441.177,0.6,0.6,0,0,1,.186.448,0.649,0.649,0,0,1-.152.423,0.612,0.612,0,0,1-.407.22,4.025,4.025,0,0,0-1.085.321,3.48,3.48,0,0,0-1.059.736,3.781,3.781,0,0,0-.8,1.227,4.556,4.556,0,0,0-.314,1.776,2.191,2.191,0,0,0,.347,1.319,1.173,1.173,0,0,0,1.009.474,1.355,1.355,0,0,0,.576-0.144,2.038,2.038,0,0,0,.653-0.567,7.5,7.5,0,0,0,.763-1.2A21.139,21.139,0,0,0,92,102.586q-0.288-1.488-.525-3.434a36.088,36.088,0,0,1-.237-4.347q0-1.049.068-2.191t0.22-2.233a18.442,18.442,0,0,1,.407-2.072,9.179,9.179,0,0,1,.619-1.725,3.7,3.7,0,0,1,.856-1.176,1.647,1.647,0,0,1,1.118-.431,1.5,1.5,0,0,1,.949.3,2.2,2.2,0,0,1,.636.846,5.046,5.046,0,0,1,.364,1.3,10.91,10.91,0,0,1,.119,1.675,23,23,0,0,1-.339,3.924,38.24,38.24,0,0,1-.839,3.755q-0.5,1.793-1.059,3.316T93.339,102.722Zm1.984-13.634q0-.423-0.026-0.913a5.766,5.766,0,0,0-.118-0.922,2.823,2.823,0,0,0-.246-0.719,0.457,0.457,0,0,0-.407-0.287,1.042,1.042,0,0,0-.788.744,9.022,9.022,0,0,0-.636,1.954,24.226,24.226,0,0,0-.433,2.74,29.429,29.429,0,0,0-.161,3.087q0,1.489.119,2.977T92.9,100.4q0.492-1.3.932-2.681T94.6,94.907q0.33-1.437.525-2.9A22.064,22.064,0,0,0,95.323,89.088Zm6.153,16.7a2.625,2.625,0,0,0,.915.786,3.186,3.186,0,0,0,2.882-.1,4.954,4.954,0,0,0,1.237-1.041,8.349,8.349,0,0,0,1-1.438q0.44-.793.8-1.59a0.619,0.619,0,0,1,.237-0.279,0.641,0.641,0,0,1,.34-0.093,0.593,0.593,0,0,1,.466.2,0.653,0.653,0,0,1,.178.44,0.536,0.536,0,0,1-.017.144,0.841,0.841,0,0,1-.051.127,12.279,12.279,0,0,1-2.551,3.873,4.58,4.58,0,0,1-3.128,1.337,3.958,3.958,0,0,1-3.271-1.548,4.691,4.691,0,0,1-.78-1.548,6.081,6.081,0,0,1-.254-1.725,5.663,5.663,0,0,1,.212-1.59,4,4,0,0,1,.61-1.269,2.92,2.92,0,0,1,.949-0.846,2.462,2.462,0,0,1,1.212-.3,1.969,1.969,0,0,1,.771.161,2.231,2.231,0,0,1,.687.457,2.283,2.283,0,0,1,.492.719,2.392,2.392,0,0,1,.186.964,3.56,3.56,0,0,1-.237,1.3,4.415,4.415,0,0,1-.653,1.133,5.544,5.544,0,0,1-.992.964A7.3,7.3,0,0,1,101.476,105.784Zm-0.509-1.1a4.137,4.137,0,0,0,.958-0.558,4.017,4.017,0,0,0,.737-0.744,3.44,3.44,0,0,0,.475-0.855,2.535,2.535,0,0,0,.169-0.905,1.063,1.063,0,0,0-.254-0.77,0.8,0.8,0,0,0-.593-0.262,1.222,1.222,0,0,0-.78.254,1.916,1.916,0,0,0-.526.66,3.411,3.411,0,0,0-.3.905,5.382,5.382,0,0,0-.094.989,3.683,3.683,0,0,0,.06.643A6.408,6.408,0,0,0,100.967,104.684Zm20.444-1.759q-0.069.135-.28,0.566t-0.542.99q-0.332.558-.771,1.167a7.891,7.891,0,0,1-.984,1.117,5.408,5.408,0,0,1-1.169.837,2.8,2.8,0,0,1-1.323.33,2.331,2.331,0,0,1-1.653-.626,3.632,3.632,0,0,1-.974-1.573,4.983,4.983,0,0,1-1.373,1.531,2.678,2.678,0,0,1-2.73.338,2.438,2.438,0,0,1-.864-0.643,2.983,2.983,0,0,1-.551-0.973,3.667,3.667,0,0,1-.2-1.217,5.665,5.665,0,0,1,.449-2.326,5.366,5.366,0,0,1,1.144-1.683,4.736,4.736,0,0,1,1.534-1.016,4.33,4.33,0,0,1,1.62-.338,3.114,3.114,0,0,1,.966.144,4.607,4.607,0,0,1,.754.313,2.871,2.871,0,0,1,.483.313c0.113,0.1.175,0.149,0.187,0.161a0.7,0.7,0,0,1,.186.456,0.63,0.63,0,0,1-.186.449,0.6,0.6,0,0,1-.441.194,0.623,0.623,0,0,1-.458-0.186c-0.023-.022-0.073-0.065-0.152-0.127a1.9,1.9,0,0,0-.322-0.194,2.638,2.638,0,0,0-.484-0.178,2.409,2.409,0,0,0-.635-0.076,3.022,3.022,0,0,0-1.119.237,3.164,3.164,0,0,0-1.085.736,4.108,4.108,0,0,0-.822,1.251,4.406,4.406,0,0,0-.33,1.785,3.241,3.241,0,0,0,.067.651,1.8,1.8,0,0,0,.237.6,1.324,1.324,0,0,0,.458.44,1.4,1.4,0,0,0,.712.169,1.6,1.6,0,0,0,.7-0.2,2.576,2.576,0,0,0,.763-0.626,4.5,4.5,0,0,0,.66-1.066,5.316,5.316,0,0,0,.416-1.522,0.626,0.626,0,0,1,.22-0.4,0.656,0.656,0,0,1,.441-0.16,0.558,0.558,0,0,1,.415.186,0.665,0.665,0,0,1,.195.423c0.011,0.214.034,0.515,0.068,0.905a5.509,5.509,0,0,0,.229,1.158,2.825,2.825,0,0,0,.534,1,1.215,1.215,0,0,0,.983.423,1.645,1.645,0,0,0,.8-0.22,3.77,3.77,0,0,0,.78-0.583,6.693,6.693,0,0,0,.729-0.829q0.347-.465.635-0.939t0.509-.913c0.147-.294.271-0.547,0.373-0.762a0.648,0.648,0,0,1,.246-0.287,0.637,0.637,0,0,1,.348-0.1,0.579,0.579,0,0,1,.465.212,0.684,0.684,0,0,1,.178.448A0.611,0.611,0,0,1,121.411,102.925Zm0.712-1.54c-0.067.181-.15,0.384-0.245,0.609s-0.207.463-.331,0.711a1.853,1.853,0,0,1-.314.448,0.563,0.563,0,0,1-.415.161,0.6,0.6,0,0,1-.458-0.178,0.605,0.605,0,0,1-.153-0.558,1.375,1.375,0,0,1,.086-0.2,10.482,10.482,0,0,0,.652-1.48,10.756,10.756,0,0,0,.348-1.328,6.141,6.141,0,0,1-.17-0.66,3,3,0,0,1-.051-0.558,1.566,1.566,0,0,1,.238-0.905,0.755,0.755,0,0,1,.66-0.347,0.711,0.711,0,0,1,.619.338,1.442,1.442,0,0,1,.229.829,2.917,2.917,0,0,1-.051.541q-0.051.271-.135,0.677,0.39,0.965.78,1.708t0.694,1.362a11.13,11.13,0,0,1,.5,1.159,3.2,3.2,0,0,1,.2,1.082,3.262,3.262,0,0,1-.289,1.354,2.549,2.549,0,0,1-.949,1.082,0.808,0.808,0,0,0,.169.017h0.17a3.674,3.674,0,0,0,1.78-.44,5.7,5.7,0,0,0,1.467-1.141,9.194,9.194,0,0,0,1.161-1.557,15.756,15.756,0,0,0,.881-1.7,0.53,0.53,0,0,1,.475-0.389,0.544,0.544,0,0,1,.449.2,0.7,0.7,0,0,1,.161.44,0.637,0.637,0,0,1-.051.254q-0.187.456-.483,1.04a11.452,11.452,0,0,1-.712,1.2,10.3,10.3,0,0,1-.958,1.21,7.256,7.256,0,0,1-1.212,1.057,6.09,6.09,0,0,1-1.466.744,5.254,5.254,0,0,1-1.746.279,5.539,5.539,0,0,1-2.111-.4,3.434,3.434,0,0,1-1.584-1.311,0.571,0.571,0,0,1-.1-0.322,0.647,0.647,0,0,1,1.1-.456,0.466,0.466,0,0,0,.119.11c0.068,0.05.15,0.107,0.246,0.169a1.569,1.569,0,0,0,.339.16,1.187,1.187,0,0,0,.4.068,1.3,1.3,0,0,0,.686-0.169,1.448,1.448,0,0,0,.449-0.415,1.707,1.707,0,0,0,.246-0.524,1.863,1.863,0,0,0,.076-0.482,2.769,2.769,0,0,0-.135-0.846,6.04,6.04,0,0,0-.348-0.846q-0.212-.421-0.458-0.871A9.567,9.567,0,0,1,122.123,101.385Z"/>
</svg>
