<svg id="LOGOS" xmlns="http://www.w3.org/2000/svg" width="170" height="170" viewBox="0 0 170 170">
  <title>4Mesa de trabajo 1</title>
  <g>
    <g>
      <g>
        <text transform="matrix(0.7572, -0.6531, 0.6531, 0.7572, 51.8355, 47.8389)" style="font-size: 8.21438980102539px;fill: #4c4c4c;font-family: ButlerStencil-Medium, Butler Stencil;font-weight: 500">B</text>
        <text transform="matrix(0.8737, -0.4865, 0.4865, 0.8737, 58.8082, 42.3624)" style="font-size: 8.21438980102539px;fill: #4c4c4c;font-family: ButlerStencil-Medium, Butler Stencil;font-weight: 500">E</text>
        <text transform="translate(66.8165 38.3003) rotate(-18.4386)" style="font-size: 8.21438980102539px;fill: #4c4c4c;font-family: ButlerStencil-Medium, Butler Stencil;font-weight: 500">A</text>
        <text transform="matrix(0.9886, -0.1505, 0.1505, 0.9886, 75.5933, 35.6783)" style="font-size: 8.21438980102539px;fill: #4c4c4c;font-family: ButlerStencil-Medium, Butler Stencil;font-weight: 500">U</text>
        <text transform="translate(85.4517 34.5337) rotate(0.907)" style="font-size: 8.21438980102539px;fill: #4c4c4c;font-family: ButlerStencil-Medium, Butler Stencil;font-weight: 500">T</text>
        <text transform="translate(94.8907 35.0469) rotate(9.0264)" style="font-size: 8.21438980102539px;fill: #4c4c4c;font-family: ButlerStencil-Medium, Butler Stencil;font-weight: 500">I</text>
        <text transform="translate(101.6402 36.3296) rotate(17.1168)" style="font-size: 8.21438980102539px;fill: #4c4c4c;font-family: ButlerStencil-Medium, Butler Stencil;font-weight: 500">F</text>
        <text transform="matrix(0.8863, 0.4631, -0.4631, 0.8863, 109.7442, 39.1158)" style="font-size: 8.21438980102539px;fill: #4c4c4c;font-family: ButlerStencil-Medium, Butler Stencil;font-weight: 500">U</text>
        <text transform="matrix(0.7683, 0.6401, -0.6401, 0.7683, 118.2808, 44.0547)" style="font-size: 8.21438980102539px;fill: #4c4c4c;font-family: ButlerStencil-Medium, Butler Stencil;font-weight: 500">L</text>
      </g>
      <g>
        <text transform="translate(45.8604 114.4888) rotate(56.8432)" style="font-size: 6.9506378173828125px;fill: #4c4c4c;font-family: ButlerStencil-Medium, Butler Stencil;font-weight: 500">F</text>
        <text transform="translate(50.7183 121.0342) rotate(43.4563)" style="font-size: 6.9506378173828125px;fill: #4c4c4c;font-family: ButlerStencil-Medium, Butler Stencil;font-weight: 500">L</text>
        <text transform="translate(57.2227 126.6187) rotate(31.3289)" style="font-size: 6.9506378173828125px;fill: #4c4c4c;font-family: ButlerStencil-Medium, Butler Stencil;font-weight: 500">O</text>
        <text transform="matrix(0.9358, 0.3526, -0.3526, 0.9358, 65.3814, 131.0962)" style="font-size: 6.9506378173828125px;fill: #4c4c4c;font-family: ButlerStencil-Medium, Butler Stencil;font-weight: 500">R</text>
        <text transform="translate(73.6695 133.8648) rotate(11.2498)" style="font-size: 6.9506378173828125px;fill: #4c4c4c;font-family: ButlerStencil-Medium, Butler Stencil;font-weight: 500">A</text>
        <text transform="translate(82.3321 135.2657) rotate(2.6306)" style="font-size: 6.9506378173828125px;fill: #4c4c4c;font-family: ButlerStencil-Medium, Butler Stencil;font-weight: 500">L</text>
        <text transform="translate(90.5811 135.3428) rotate(-4.1245)" style="font-size: 6.9506378173828125px;fill: #4c4c4c;font-family: ButlerStencil-Medium, Butler Stencil;font-weight: 500"> </text>
        <text transform="translate(96.1822 134.7862) rotate(-11.1247)" style="font-size: 6.9506378173828125px;fill: #4c4c4c;font-family: ButlerStencil-Medium, Butler Stencil;font-weight: 500">H</text>
        <text transform="translate(104.3511 132.8921) rotate(-20.5383)" style="font-size: 6.9506378173828125px;fill: #4c4c4c;font-family: ButlerStencil-Medium, Butler Stencil;font-weight: 500">O</text>
        <text transform="translate(112.9459 129.2681) rotate(-31.445)" style="font-size: 6.9506378173828125px;fill: #4c4c4c;font-family: ButlerStencil-Medium, Butler Stencil;font-weight: 500">U</text>
        <text transform="translate(120.5518 124.0909) rotate(-43.172)" style="font-size: 6.9506378173828125px;fill: #4c4c4c;font-family: ButlerStencil-Medium, Butler Stencil;font-weight: 500">S</text>
        <text transform="matrix(0.5517, -0.834, 0.834, 0.5517, 126.2598, 118.127)" style="font-size: 6.9506378173828125px;fill: #4c4c4c;font-family: ButlerStencil-Medium, Butler Stencil;font-weight: 500">E</text>
      </g>
      <rect x="35.4873" y="83.17" width="7.9103" height="0.5918" style="fill: #231f20"/>
      <rect x="126.6024" y="83.17" width="7.9103" height="0.5918" style="fill: #231f20"/>
    </g>
    <g>
      <path d="M85.9723,62.6306c.2187-.2159.4832-.0011.506.2475a.5133.5133,0,0,1,.0669.0311c.7884.4742.6919,2.4551.5,3.2a3.0351,3.0351,0,0,1-2.3722,2.2835,56.4611,56.4611,0,0,0-1.286,7.9774c.5281-.9848,1.3619-1.841,2.3958-1.3112a.3681.3681,0,0,1,.0772.0357l.0077.0035.0039.0035a.33.33,0,0,1,.0815.0732.269.269,0,0,1,.0236.03.2727.2727,0,0,1,.0311.0846l.0041.017a.3009.3009,0,0,1-.0221.1781c-.549,1.2195-1.2843,2.549-2.7447,2.69a56.03,56.03,0,0,0,.2136,8.8876q.3718-.8954.743-1.7851c.1585-.379.3252-.754.4859-1.132a.272.272,0,0,1,.0677-.27c.0319-.0355.0626-.0721.0945-.1076q2.0649-4.83,4.3331-9.5631c.0005-.0061-.002-.0107-.0012-.017l.4506-3.3573a2.6507,2.6507,0,0,1-2.9185-2.7447.2575.2575,0,0,1,.1434-.2453.3129.3129,0,0,1,.3421-.4272,3.9031,3.9031,0,0,1,2.65,1.8012l.8986-6.6959a.29.29,0,0,1-.1133-.0564,2.2,2.2,0,0,1-1.0971-.76,3.3726,3.3726,0,0,1-.7712-2.3856.35.35,0,0,1,.0986-.5541,1.6475,1.6475,0,0,1,1.984.5319,1.9494,1.9494,0,0,1,.38.8771,2.6447,2.6447,0,0,1,2.3757-.8077.307.307,0,0,1,.252.2023.2586.2586,0,0,1,.1022.29,3.8093,3.8093,0,0,1-1.2422,2.33,2.04,2.04,0,0,1-1.3038.4009q-.65,4.8479-1.301,9.6955c2.4544-5.0577,5.0254-10.06,7.6126-15.0538-.7841-2.6113.4215-4.6125,2.2006-6.491.2816-.2973.7792.0632.5538.3693a.3368.3368,0,0,1,.3449.1851,3.9708,3.9708,0,0,1,.21,3.2812,6.6651,6.6651,0,0,1-2.4771,2.6361.3252.3252,0,0,1-.0983.049c-4.2427,8.1885-8.4037,16.399-12.1315,24.8263a127.0684,127.0684,0,0,0,12.0681-16.41c-.5628-.051-1.0006-.7056-1.1457-1.2687A4.9016,4.9016,0,0,1,97.8976,61.1c-.086-.2571.2521-.5027.5069-.3588a.31.31,0,0,1,.2284.2478,3.7625,3.7625,0,0,1,.8044,1.9488,21.2177,21.2177,0,0,0,.3241-2.2861.3188.3188,0,0,1,.0295-.1c-1.42-1.3717.624-3.2,1.1162-4.535.1491-.4045.7687-.153.62.25l-.012.0273a.3261.3261,0,0,1,.03.0422c.69,1.5395.884,3.8181-1.0744,4.5008a.3112.3112,0,0,1-.0578.008,21.1772,21.1772,0,0,1-.3342,2.2906c.8977-1.2689,2.4095-2.8321,3.9219-2.3088a7.1391,7.1391,0,0,1-.0039.7851,5.2505,5.2505,0,0,1-2.24,2.833c-.5671.342-1.4454.6646-1.9258.1517Q97.67,68.199,95.284,71.645a4.98,4.98,0,0,1,3.87-1.1574.3189.3189,0,0,1,.196.1152.3539.3539,0,0,1,.1334.4958,5.5457,5.5457,0,0,1-3.1082,2.34,5.4159,5.4159,0,0,1-2.65.3984,127.2145,127.2145,0,0,1-8.28,10.2623c-.4254.9848-.85,1.97-1.2621,2.9614-2.9345,7.0605-5.9539,14.3828-10.8612,20.2349a40.6789,40.6789,0,0,0,8.4284-6.8473,2.6323,2.6323,0,0,1-.8288-2.2193,4.9915,4.9915,0,0,1,1.39-3.4864.3377.3377,0,0,1,.2674-.1069.2772.2772,0,0,1,.3276.1982,7.524,7.524,0,0,1,.2785,4.0019,41.7041,41.7041,0,0,0,3.2415-4.3807.2848.2848,0,0,1,.1533-.12,98.8959,98.8959,0,0,1,4.0485-9.9743c-1.7682-1.5793.0806-4.4645,1.211-5.9931a.3412.3412,0,0,1,.5972-.2763c.8691,1.0966.5868,2.72.006,4.1629a4.0226,4.0226,0,0,1,2.2832-.5714.3858.3858,0,0,1,.2763.0227l.0158.0013a.3334.3334,0,0,1,.0129.656,3.6362,3.6362,0,0,1-3.7675,2.4319.3192.3192,0,0,1-.0868-.0261,98.8961,98.8961,0,0,0-3.749,9.1829,12.9672,12.9672,0,0,0,4.7349-2.7933,2.7345,2.7345,0,0,1-.4519-1.69,3.5217,3.5217,0,0,1,.9282-2.3843.34.34,0,0,1,.0855-.0632l.0078-.0056a.3312.3312,0,0,1,.04-.0212.2811.2811,0,0,1,.3988.0907c.01.015.0181.0312.0278.0463l.0114.0191a3.8192,3.8192,0,0,1,.56,2.3574l1.2795-2.1408c-.858-2.2148,1.31-3.7,2.7562-5.0455a.281.281,0,0,1,.115-.0986.2765.2765,0,0,1,.4193.0774.3348.3348,0,0,1,.0893.16c.2762,1.2111.6566,2.7231-.1285,3.8334a3.3721,3.3721,0,0,1-2.6253,1.32l0,.0011-1.1366,1.9017A3.3649,3.3649,0,0,1,96.463,89.6a.2808.2808,0,0,1,.2072.2879.3359.3359,0,0,1-.0222.1472,3.076,3.076,0,0,1-4.0836,1.6587,13.2748,13.2748,0,0,1-5.55,3.0836c-.0085.0024-.0167.002-.0251.0038a.3371.3371,0,0,1-.0313.08,41.52,41.52,0,0,1-14.617,13.7825.267.267,0,0,1-.23.0252,31.4547,31.4547,0,0,1-4.24,3.8142.3345.3345,0,0,1-.4044-.5325,34.3953,34.3953,0,0,0,8.1991-8.9392.3273.3273,0,0,1-.0468-.1833q.1646-3.3594.5515-6.6907c-.93.6376-1.9829-.3207-2.5773-1.035A5.7739,5.7739,0,0,1,72.3039,91.16a.2837.2837,0,0,1,.3525-.2776.2638.2638,0,0,1,.2508-.05,4.2514,4.2514,0,0,1,2.0357,1.7561,9.5769,9.5769,0,0,1,1.3926,2.2094q.5742-4.4538,1.54-8.8539c-2.1514-1.29-1.7068-4.7229-1.088-6.7316a.317.317,0,0,1,.0552-.1006.3218.3218,0,0,1,.5523-.058,7.7713,7.7713,0,0,1,1.4659,4.7716,4.0192,4.0192,0,0,1,2.57-1.9215c.2921-.0626.4178.2353.3309.4548a.3069.3069,0,0,1-.0011.0945c-.3594,1.6383-1.4522,3.4933-3.258,3.7435A101.5192,101.5192,0,0,0,76.3392,101.95a96.5081,96.5081,0,0,0,6.6286-13.706.3047.3047,0,0,1-.0828-.1757,56.6838,56.6838,0,0,1-.077-12.7026c-1.4378.21-2.1982-1.4309-2.345-2.7024a.3045.3045,0,0,1,.1316-.2964.297.297,0,0,1,.2538-.4271c1.06-.0618,1.7453.8095,2.1665,1.7538.2472-1.8062.5738-3.6054.9971-5.393-.7743-.5266-.3178-1.7738-.0738-2.5077A7.9844,7.9844,0,0,1,85.9723,62.6306Z" style="fill: #fff"/>
      <path d="M83.9382,65.793c-.244.7339-.7,1.9811.0738,2.5077-.4233,1.7876-.75,3.5868-.9971,5.393-.4212-.9443-1.1063-1.8156-2.1665-1.7538a.297.297,0,0,0-.2538.4271.3045.3045,0,0,0-.1316.2964c.1468,1.2715.9072,2.9126,2.345,2.7024a56.6838,56.6838,0,0,0,.077,12.7026.3047.3047,0,0,0,.0828.1757,96.5081,96.5081,0,0,1-6.6286,13.706,101.5192,101.5192,0,0,1,2.1635-15.7527c1.8058-.25,2.8986-2.1052,3.258-3.7435a.3069.3069,0,0,0,.0011-.0945c.0869-.2195-.0388-.5174-.3309-.4548a4.0192,4.0192,0,0,0-2.57,1.9215,7.7713,7.7713,0,0,0-1.4659-4.7716.3218.3218,0,0,0-.5523.058.317.317,0,0,0-.0552.1006c-.6188,2.0087-1.0634,5.4417,1.088,6.7316q-.9684,4.3991-1.54,8.8539a9.5769,9.5769,0,0,0-1.3926-2.2094,4.2514,4.2514,0,0,0-2.0357-1.7561.2638.2638,0,0,0-.2508.05.2837.2837,0,0,0-.3525.2776,5.7739,5.7739,0,0,0,1.2889,3.9418c.5944.7143,1.6478,1.6726,2.5773,1.035q-.3846,3.3314-.5515,6.6907a.3273.3273,0,0,0,.0468.1833,34.3953,34.3953,0,0,1-8.1991,8.9392.3345.3345,0,0,0,.4044.5325,31.4547,31.4547,0,0,0,4.24-3.8142.267.267,0,0,0,.23-.0252,41.52,41.52,0,0,0,14.617-13.7825.3371.3371,0,0,0,.0313-.08c.0084-.0018.0166-.0014.0251-.0038a13.2748,13.2748,0,0,0,5.55-3.0836,3.076,3.076,0,0,0,4.0836-1.6587.3359.3359,0,0,0,.0222-.1472A.2808.2808,0,0,0,96.463,89.6a3.3649,3.3649,0,0,0-1.9246-.0833L95.675,87.615l0-.0011a3.3721,3.3721,0,0,0,2.6253-1.32c.7851-1.11.4047-2.6223.1285-3.8334a.3348.3348,0,0,0-.0893-.16.2765.2765,0,0,0-.4193-.0774.281.281,0,0,0-.115.0986c-1.4463,1.3451-3.6142,2.8307-2.7562,5.0455L93.77,89.508a3.8192,3.8192,0,0,0-.56-2.3574l-.0114-.0191c-.01-.0151-.0179-.0313-.0278-.0463a.2811.2811,0,0,0-.3988-.0907.3312.3312,0,0,0-.04.0212l-.0078.0056a.34.34,0,0,0-.0855.0632,3.5217,3.5217,0,0,0-.9282,2.3843,2.7345,2.7345,0,0,0,.4519,1.69,12.9672,12.9672,0,0,1-4.7349,2.7933,98.8961,98.8961,0,0,1,3.749-9.1829.3192.3192,0,0,0,.0868.0261,3.6362,3.6362,0,0,0,3.7675-2.4319.3334.3334,0,0,0-.0129-.656l-.0158-.0013a.3858.3858,0,0,0-.2763-.0227,4.0226,4.0226,0,0,0-2.2832.5714c.5808-1.4433.8631-3.0663-.006-4.1629a.3412.3412,0,0,0-.5972.2763c-1.13,1.5286-2.9792,4.4138-1.211,5.9931A98.8959,98.8959,0,0,0,86.58,94.3356a.2848.2848,0,0,0-.1533.12,41.7041,41.7041,0,0,1-3.2415,4.3807,7.524,7.524,0,0,0-.2785-4.0019.2772.2772,0,0,0-.3276-.1982.3377.3377,0,0,0-.2674.1069,4.9915,4.9915,0,0,0-1.39,3.4864,2.6323,2.6323,0,0,0,.8288,2.2193,40.6789,40.6789,0,0,1-8.4284,6.8473c4.9073-5.8521,7.9267-13.1744,10.8612-20.2349.4122-.9915.8367-1.9766,1.2621-2.9614a127.2145,127.2145,0,0,0,8.28-10.2623,5.4159,5.4159,0,0,0,2.65-.3984,5.5457,5.5457,0,0,0,3.1082-2.34.3539.3539,0,0,0-.1334-.4958.3189.3189,0,0,0-.196-.1152,4.98,4.98,0,0,0-3.87,1.1574q2.3874-3.4438,4.5466-7.0489c.48.5129,1.3587.19,1.9258-.1517a5.2505,5.2505,0,0,0,2.24-2.833,7.1391,7.1391,0,0,0,.0039-.7851c-1.5124-.5233-3.0242,1.04-3.9219,2.3088a21.1772,21.1772,0,0,0,.3342-2.2906.3112.3112,0,0,0,.0578-.008c1.9584-.6827,1.7646-2.9613,1.0744-4.5008a.3261.3261,0,0,0-.03-.0422l.012-.0273c.1487-.403-.4709-.6545-.62-.25-.4922,1.3347-2.5358,3.1633-1.1162,4.535a.3188.3188,0,0,0-.0295.1,21.2177,21.2177,0,0,1-.3241,2.2861,3.7625,3.7625,0,0,0-.8044-1.9488.31.31,0,0,0-.2284-.2478c-.2548-.1439-.5929.1017-.5069.3588a4.9016,4.9016,0,0,0-.6477,3.3055c.1451.5631.5829,1.2177,1.1457,1.2687a127.0684,127.0684,0,0,1-12.0681,16.41c3.7278-8.4273,7.8888-16.6378,12.1315-24.8263a.3252.3252,0,0,0,.0983-.049,6.6651,6.6651,0,0,0,2.4771-2.6361,3.9708,3.9708,0,0,0-.21-3.2812.3368.3368,0,0,0-.3449-.1851c.2254-.3061-.2722-.6666-.5538-.3693-1.7791,1.8785-2.9847,3.88-2.2006,6.491-2.5872,4.9938-5.1582,9.9961-7.6126,15.0538q.65-4.8479,1.301-9.6955a2.04,2.04,0,0,0,1.3038-.4009,3.8093,3.8093,0,0,0,1.2422-2.33.2586.2586,0,0,0-.1022-.29.307.307,0,0,0-.252-.2023,2.6447,2.6447,0,0,0-2.3757.8077,1.9494,1.9494,0,0,0-.38-.8771,1.6475,1.6475,0,0,0-1.984-.5319.35.35,0,0,0-.0986.5541,3.3726,3.3726,0,0,0,.7712,2.3856,2.2,2.2,0,0,0,1.0971.76.29.29,0,0,0,.1133.0564l-.8986,6.6959a3.9031,3.9031,0,0,0-2.65-1.8012.3129.3129,0,0,0-.3421.4272.2575.2575,0,0,0-.1434.2453A2.6507,2.6507,0,0,0,89.6326,70.83l-.4506,3.3573c-.0008.0063.0017.0109.0012.017Q86.922,78.9407,84.85,83.7672c-.0319.0355-.0626.0721-.0945.1076a.272.272,0,0,0-.0677.27c-.1607.378-.3274.753-.4859,1.132q-.3717.889-.743,1.7851a56.03,56.03,0,0,1-.2136-8.8876c1.46-.1406,2.1957-1.47,2.7447-2.69a.3009.3009,0,0,0,.0221-.1781l-.0041-.017a.2727.2727,0,0,0-.0311-.0846.269.269,0,0,0-.0236-.03.33.33,0,0,0-.0815-.0732l-.0039-.0035-.0077-.0035a.3681.3681,0,0,0-.0772-.0357c-1.0339-.53-1.8677.3264-2.3958,1.3112a56.4611,56.4611,0,0,1,1.286-7.9774A3.0351,3.0351,0,0,0,87.0455,66.11c.1916-.7452.2881-2.7261-.5-3.2a.5133.5133,0,0,0-.0669-.0311c-.0228-.2486-.2873-.4634-.506-.2475A7.9844,7.9844,0,0,0,83.9382,65.793Zm5.6159,4.3663a1.9569,1.9569,0,0,1-2.1765-1.9919c0-.0093-.0043-.0162-.0049-.0252A3.1756,3.1756,0,0,1,89.5541,70.1593Zm.9184-8.6423a.3364.3364,0,0,0,.0032.1875,4.6942,4.6942,0,0,1-.783-.98,2.7124,2.7124,0,0,1-.2551-1.4281,1.0448,1.0448,0,0,1,.978.5574A2.2038,2.2038,0,0,1,90.4725,61.517Zm1.0018.4145a.3176.3176,0,0,0-.271-.2255,1.952,1.952,0,0,1,2.0309-1.7027C92.9809,60.8758,92.402,62.0154,91.4743,61.9315Zm6.7711-5.3282c-.4487-2.0558.5691-3.6633,1.9319-5.1592a.3117.3117,0,0,0,.0284.1017C101.3807,53.8261,99.9114,55.2905,98.2454,56.6033Zm.1369,8.3554a.3365.3365,0,0,0-.0151.0432c-.2821-.103-.4816-.7749-.5073-.9228a2.8454,2.8454,0,0,1,.0021-.9236,5.4868,5.4868,0,0,1,.4749-1.4232A3.168,3.168,0,0,1,98.3823,64.9587Zm1.9746-4.8008c-.9449-.8075.0746-2.0984.7466-3.1261C101.5059,58.1635,101.6239,59.6117,100.3569,60.1579Zm-.0906,3.8982c.5608-.8987,1.8627-2.6836,3.1006-2.6693a4.758,4.758,0,0,1-.936,1.6436C102.22,63.2665,100.5959,64.7266,100.2663,64.0561Zm-5.07,8.9831c-.1139.02-.404.0922-.686.141,1.1439-1.1074,2.5425-2.1631,4.1529-2.0744a4.7857,4.7857,0,0,1-2.0542,1.5387A7.1264,7.1264,0,0,1,95.1963,73.0392ZM82.1305,99.8965c-.7319-.3856-.5676-2.0529-.4424-2.6313a4.2345,4.2345,0,0,1,.7542-1.6429A6.33,6.33,0,0,1,82.1305,99.8965ZM90.9525,83.74c-1.1169-1.2592.3025-3.4478,1.2336-4.7181C92.6781,80.413,91.6934,82.51,90.9525,83.74Zm.5992.4014A3.335,3.335,0,0,1,94.33,82.3537,2.9663,2.9663,0,0,1,91.5517,84.1413Zm1.0734,6.5761a2.9459,2.9459,0,0,1,.2325-2.8218A2.7976,2.7976,0,0,1,92.6251,90.7174Zm2.9914-3.77c-.4642-1.5782,1.1227-2.8026,2.2847-3.8174a4.4574,4.4574,0,0,1,.0928,2.2234A2.45,2.45,0,0,1,95.6165,86.9476Zm-2.4184,4.2762a2.9057,2.9057,0,0,1,2.6587-1.0951A2.4466,2.4466,0,0,1,93.1981,91.2238ZM74.7435,93.415a7.6784,7.6784,0,0,1,1.1508,2.1119.2987.2987,0,0,0-.0508.0256c-.8119.641-1.9843-1.122-2.2958-1.7058a5.0477,5.0477,0,0,1-.5723-2.29C73.6889,91.8469,74.2991,92.827,74.7435,93.415Zm3.2754-8.189c-1.3764-1.1042-1.19-3.492-.775-5.1681A7.0772,7.0772,0,0,1,78.0189,85.226Zm.7317.2329a4.7674,4.7674,0,0,1,2.2531-2.7276A3.8575,3.8575,0,0,1,78.7506,85.4589Zm4.9-8.0658c.2827-.7712.8756-1.9545,1.5757-1.8446A3.3184,3.3184,0,0,1,83.65,77.3931Zm-.9636-2.681c-1.0366.1354-1.4525-1.26-1.5563-2.1013C81.961,72.7309,82.4578,73.93,82.6868,74.7121Zm3.37-11.2086a.2709.2709,0,0,0,.2513.1278,4.43,4.43,0,0,1,.0928,2.2676,2.3459,2.3459,0,0,1-1.98,1.8658c-.4964-.4308.2688-2.1237.4776-2.5594A7.0991,7.0991,0,0,1,86.0572,63.5035Z" style="fill: #262930"/>
    </g>
  </g>
</svg>
