<svg id="LOGOS" xmlns="http://www.w3.org/2000/svg" width="170" height="170" viewBox="0 0 170 170">
  <title>1Mesa de trabajo 1</title>
  <g>
    <g>
      <text transform="matrix(0.6747, -0.7381, 0.7381, 0.6747, 41.9681, 47.1596)" style="font-size: 5.581725597381592px;fill: #4c4c4c;font-family: JosefinSans-Regular, Josefin Sans">P</text>
      <text transform="matrix(0.743, -0.6693, 0.6693, 0.743, 45.7279, 43.1884)" style="font-size: 5.581725597381592px;fill: #4c4c4c;font-family: JosefinSans-Regular, Josefin Sans">R</text>
      <text transform="matrix(0.8104, -0.5858, 0.5858, 0.8104, 50.014, 39.4325)" style="font-size: 5.581725597381592px;fill: #4c4c4c;font-family: JosefinSans-Regular, Josefin Sans">O</text>
      <text transform="translate(55.7088 35.5053) rotate(-29.7639)" style="font-size: 5.581725597381592px;fill: #4c4c4c;font-family: JosefinSans-Regular, Josefin Sans">F</text>
      <text transform="matrix(0.9121, -0.41, 0.41, 0.9121, 60.4661, 32.8939)" style="font-size: 5.581725597381592px;fill: #4c4c4c;font-family: JosefinSans-Regular, Josefin Sans">E</text>
      <text transform="translate(65.7821 30.6288) rotate(-18.6428)" style="font-size: 5.581725597381592px;fill: #4c4c4c;font-family: JosefinSans-Regular, Josefin Sans">S</text>
      <text transform="translate(70.9256 28.9999) rotate(-13.2624)" style="font-size: 5.581725597381592px;fill: #4c4c4c;font-family: JosefinSans-Regular, Josefin Sans">S</text>
      <text transform="matrix(0.9886, -0.1509, 0.1509, 0.9886, 76.1922, 27.8783)" style="font-size: 5.581725597381592px;fill: #4c4c4c;font-family: JosefinSans-Regular, Josefin Sans">I</text>
      <text transform="matrix(0.9983, -0.0587, 0.0587, 0.9983, 80.0076, 27.3256)" style="font-size: 5.581725597381592px;fill: #4c4c4c;font-family: JosefinSans-Regular, Josefin Sans">O</text>
      <text transform="translate(86.9012 27.0463) rotate(3.3013)" style="font-size: 5.581725597381592px;fill: #4c4c4c;font-family: JosefinSans-Regular, Josefin Sans">N</text>
      <text transform="translate(93.6737 27.5751) rotate(9.6291)" style="font-size: 5.581725597381592px;fill: #4c4c4c;font-family: JosefinSans-Regular, Josefin Sans">A</text>
      <text transform="translate(99.619 28.7045) rotate(15.4316)" style="font-size: 5.581725597381592px;fill: #4c4c4c;font-family: JosefinSans-Regular, Josefin Sans">L</text>
      <text transform="translate(104.9998 30.3192) rotate(20.182)" style="font-size: 5.581725597381592px;fill: #4c4c4c;font-family: JosefinSans-Regular, Josefin Sans"> </text>
      <text transform="translate(108.6444 31.7187) rotate(24.8069)" style="font-size: 5.581725597381592px;fill: #4c4c4c;font-family: JosefinSans-Regular, Josefin Sans">S</text>
      <text transform="matrix(0.8649, 0.5019, -0.5019, 0.8649, 113.4696, 34.0575)" style="font-size: 5.581725597381592px;fill: #4c4c4c;font-family: JosefinSans-Regular, Josefin Sans">T</text>
      <text transform="translate(118.0887 36.8388) rotate(35.8656)" style="font-size: 5.581725597381592px;fill: #4c4c4c;font-family: JosefinSans-Regular, Josefin Sans">U</text>
      <text transform="translate(123.0399 40.5541) rotate(42.0204)" style="font-size: 5.581725597381592px;fill: #4c4c4c;font-family: JosefinSans-Regular, Josefin Sans">D</text>
      <text transform="matrix(0.6817, 0.7317, -0.7317, 0.6817, 127.6492, 44.9062)" style="font-size: 5.581725597381592px;fill: #4c4c4c;font-family: JosefinSans-Regular, Josefin Sans">I</text>
      <text transform="translate(130.2557 47.7455) rotate(52.3308)" style="font-size: 5.581725597381592px;fill: #4c4c4c;font-family: JosefinSans-Regular, Josefin Sans">O</text>
      <text transform="translate(54.4954 133.8881) rotate(28.5554)" style="font-size: 8.372591018676758px;fill: #4c4c4c;font-family: JosefinSans-Regular, Josefin Sans">W</text>
      <text transform="translate(65.7039 139.3866) rotate(17.6105)" style="font-size: 8.372591018676758px;fill: #4c4c4c;font-family: JosefinSans-Regular, Josefin Sans">E</text>
      <text transform="translate(74.7586 141.9433) rotate(7.8309)" style="font-size: 8.372591018676758px;fill: #4c4c4c;font-family: JosefinSans-Regular, Josefin Sans">D</text>
      <text transform="translate(84.9822 142.994) rotate(-2.2231)" style="font-size: 8.372591018676758px;fill: #4c4c4c;font-family: JosefinSans-Regular, Josefin Sans">D</text>
      <text transform="matrix(0.9836, -0.1805, 0.1805, 0.9836, 95.1102, 142.1933)" style="font-size: 8.372591018676758px;fill: #4c4c4c;font-family: JosefinSans-Regular, Josefin Sans">I</text>
      <text transform="translate(101.4256 140.9076) rotate(-19.0274)" style="font-size: 8.372591018676758px;fill: #4c4c4c;font-family: JosefinSans-Regular, Josefin Sans">N</text>
      <text transform="translate(111.6951 136.9384) rotate(-29.6176)" style="font-size: 8.372591018676758px;fill: #4c4c4c;font-family: JosefinSans-Regular, Josefin Sans">G</text>
      <text transform="translate(78.9569 59.162)" style="font-size: 8.372591018676758px;fill: #4c4c4c;font-family: JosefinSans-Regular, Josefin Sans;letter-spacing: 0.39995179569027045em">20</text>
      <text transform="translate(80.2332 112.6728)" style="font-size: 8.372591018676758px;fill: #4c4c4c;font-family: JosefinSans-Regular, Josefin Sans;letter-spacing: 0.39995179569027045em">19</text>
    </g>
    <g>
      <g>
        <path d="M40.9664,120.2822a.1477.1477,0,0,1-.1269-.0717c-10.42-17.3244-6.783-20.67-6.6229-20.804a.1479.1479,0,1,1,.19.2269c-.0355.031-3.552,3.402,6.6865,20.4246a.1477.1477,0,0,1-.0505.203A.1458.1458,0,0,1,40.9664,120.2822Z" style="fill: #0f0f0f"/>
        <path d="M34.7105,117.14a5.6709,5.6709,0,0,1-1.86-.336,5.4043,5.4043,0,0,1-3.5548-5.1857.1479.1479,0,0,1,.2462-.1035,13.52,13.52,0,0,0,8.5624,3.52.1512.1512,0,0,1,.1314.0721.148.148,0,0,1,.0013.15A4.2071,4.2071,0,0,1,34.7105,117.14Zm-5.1153-5.1865a4.9456,4.9456,0,0,0,3.3521,4.5708,4.0485,4.0485,0,0,0,4.8863-1.1981A14.0387,14.0387,0,0,1,29.5952,111.9532Z" style="fill: #0f0f0f"/>
        <path d="M38.109,115.3307a.1478.1478,0,0,1-.1283-.0741c-.0325-.0563-3.3039-5.6039-8.4813-3.4947a.1479.1479,0,0,1-.1117-.274c5.4192-2.208,8.8158,3.5625,8.8494,3.6211a.1479.1479,0,0,1-.0544.2019A.1462.1462,0,0,1,38.109,115.3307Z" style="fill: #0f0f0f"/>
        <path d="M39.0428,116.9607a.1479.1479,0,0,1-.1109-.2458c3.6988-4.19.7818-10.0024.752-10.0605a.148.148,0,0,1,.2632-.1353c.0308.06,3.0375,6.0519-.7932,10.3916A.1478.1478,0,0,1,39.0428,116.9607Z" style="fill: #0f0f0f"/>
        <path d="M40.39,114.7844l-.0216-.0016a2.68,2.68,0,0,1-1.8554-1.4123c-.7763-1.4938-.3909-3.801,1.1456-6.8574a.1479.1479,0,0,1,.22-.0527c.1314.0965,3.2144,2.394,3.0766,4.99-.0678,1.2747-.9056,2.3894-2.49,3.3133A.1477.1477,0,0,1,40.39,114.7844Zm-.5474-7.9769c-1.7685,3.5849-1.5617,5.4691-1.07,6.421a2.4384,2.4384,0,0,0,1.5907,1.2519c1.4619-.8644,2.2343-1.8886,2.296-3.0447C42.7736,109.3015,40.4439,107.29,39.843,106.8075Z" style="fill: #0f0f0f"/>
        <path d="M34.8728,108.1a.1485.1485,0,0,1-.081-.0241,6.0615,6.0615,0,0,1-2.57-3.9422,5.901,5.901,0,0,1,1.9946-4.7214.1477.1477,0,0,1,.2253.0136c.1084.1449,2.6491,3.58,2.1263,6.3529a3.3659,3.3659,0,0,1-1.6168,2.2988A.1457.1457,0,0,1,34.8728,108.1Zm-.5658-8.3529A5.5238,5.5238,0,0,0,32.5154,104.1a5.7782,5.7782,0,0,0,2.361,3.6744,3.0626,3.0626,0,0,0,1.4-2.05C36.7176,103.3879,34.7814,100.4283,34.307,99.7471Z" style="fill: #0f0f0f"/>
      </g>
      <g>
        <path d="M32.8977,101.3222a.1479.1479,0,0,1-.1375-.0933c-7.4736-18.7845-3.3421-21.4962-3.1625-21.6024a.148.148,0,1,1,.1507.2547c-.04.0249-4.0566,2.7811,3.2867,21.2383a.1478.1478,0,0,1-.1374.2027Z" style="fill: #0f0f0f"/>
        <path d="M27.9283,97.2648a5.2217,5.2217,0,0,1-2.4991-.693,5.4038,5.4038,0,0,1-2.6668-5.6934.1479.1479,0,0,1,.26-.0622A13.5354,13.5354,0,0,0,30.9,95.6783a.1479.1479,0,0,1,.095.24A4.2081,4.2081,0,0,1,27.9283,97.2648Zm-4.9248-6.0069A4.9452,4.9452,0,0,0,25.57,96.3117a4.0973,4.0973,0,0,0,5.012-.391A14.0379,14.0379,0,0,1,23.0035,91.2579Z" style="fill: #0f0f0f"/>
        <path d="M30.8808,95.9729a.148.148,0,0,1-.1385-.096c-.0228-.0607-2.3508-6.0665-7.8024-4.8233a.148.148,0,1,1-.0657-.2886c5.706-1.3,8.1214,4.9447,8.1451,5.0079a.1481.1481,0,0,1-.1385.2Z" style="fill: #0f0f0f"/>
        <path d="M31.5384,97.7327a.148.148,0,0,1-.0937-.2626c4.329-3.5349,2.3929-9.743,2.3729-9.8055a.1479.1479,0,1,1,.2816-.09c.0208.0641,2.0162,6.464-2.4672,10.1253A.1486.1486,0,0,1,31.5384,97.7327Z" style="fill: #0f0f0f"/>
        <path d="M33.2208,95.8037a.1492.1492,0,0,1-.0449-.0069,2.68,2.68,0,0,1-1.602-1.6944c-.5239-1.6.23-3.8143,2.2421-6.5811a.148.148,0,0,1,.2254-.0164c.114.1166,2.7838,2.8834,2.2269,5.4233-.2735,1.2468-1.281,2.2111-2.9946,2.8657A.148.148,0,0,1,33.2208,95.8037Zm.729-7.962c-2.33,3.2556-2.4285,5.1493-2.0946,6.1686A2.4242,2.4242,0,0,0,33.22,95.4976c1.5832-.6161,2.5115-1.5017,2.7595-2.6328C36.4375,90.7755,34.4647,88.4141,33.95,87.8417Z" style="fill: #0f0f0f"/>
        <path d="M28.86,88.3133a.1476.1476,0,0,1-.1-.0387,6.0618,6.0618,0,0,1-1.8974-4.3071,5.9017,5.9017,0,0,1,2.7335-4.3356.1479.1479,0,0,1,.22.05c.0835.16,2.0336,3.9622,1.0682,6.6134a3.3655,3.3655,0,0,1-1.968,2.0067A.15.15,0,0,1,28.86,88.3133Zm.7718-8.3362A5.526,5.526,0,0,0,27.1582,83.98,5.7878,5.7878,0,0,0,28.8923,87.99a3.0625,3.0625,0,0,0,1.7138-1.7955C31.42,83.9607,29.9894,80.7261,29.6316,79.9771Z" style="fill: #0f0f0f"/>
      </g>
      <g>
        <path d="M29.8145,79.829a.1482.1482,0,0,1-.1474-.1368C28.14,59.5331,32.8926,58.1782,33.0956,58.13a.1481.1481,0,0,1,.0678.2883c-.0457.0117-4.7017,1.4435-3.2011,21.2514a.148.148,0,0,1-.1364.1587Z" style="fill: #0f0f0f"/>
        <path d="M27.468,74.655A4.6824,4.6824,0,0,1,24.06,73.06a5.404,5.404,0,0,1-.8462-6.23.1449.1449,0,0,1,.139-.0749.148.148,0,0,1,.1274.093A13.5175,13.5175,0,0,0,29.5485,73.84a.1478.1478,0,0,1,.019.2576A4.184,4.184,0,0,1,27.468,74.655Zm-4.1373-7.3912a4.945,4.945,0,0,0,.9414,5.5893,4.0963,4.0963,0,0,0,4.9,1.1226A14.0393,14.0393,0,0,1,23.3307,67.2638Z" style="fill: #0f0f0f"/>
        <path d="M29.4861,74.1215a.1481.1481,0,0,1-.1477-.14c-.0037-.0647-.433-6.4909-6.0073-6.9319a.148.148,0,1,1,.0233-.2951c5.8335.4618,6.2757,7.1431,6.28,7.21a.1481.1481,0,0,1-.1394.156Z" style="fill: #0f0f0f"/>
        <path d="M29.5886,75.9974a.1481.1481,0,0,1-.0552-.2854c5.1827-2.08,5.1914-8.585,5.191-8.6505a.148.148,0,0,1,.1467-.1492.1459.1459,0,0,1,.1492.1467c.0006.0676-.0048,6.7715-5.3767,8.9277A.1482.1482,0,0,1,29.5886,75.9974Z" style="fill: #0f0f0f"/>
        <path d="M31.77,74.6584a.1481.1481,0,0,1-.085-.0269,2.6787,2.6787,0,0,1-1.0233-2.0951c-.0225-1.6836,1.3583-3.5718,4.104-5.6121a.1479.1479,0,0,1,.22.0514c.074.1453,1.7964,3.583.5068,5.8408-.6331,1.1084-1.8824,1.7281-3.7134,1.8417ZM34.7979,67.27c-3.19,2.4085-3.8521,4.185-3.84,5.2563a2.44,2.44,0,0,0,.8589,1.8331c1.6946-.1158,2.8446-.6839,3.4189-1.689C36.2957,70.8147,35.1183,67.97,34.7979,67.27Z" style="fill: #0f0f0f"/>
        <path d="M29.8431,66.2077a.1479.1479,0,0,1-.1279-.0737,6.0611,6.0611,0,0,1-.5255-4.6769,5.9011,5.9011,0,0,1,3.9028-3.322.1493.1493,0,0,1,.1238.0115.1477.1477,0,0,1,.0713.1019c.0318.1782.7585,4.3887-.9541,6.631a3.3655,3.3655,0,0,1-2.4771,1.3276Zm3.18-7.7325a5.5256,5.5256,0,0,0-3.5552,3.0817,5.7882,5.7882,0,0,0,.4581,4.3456A3.0627,3.0627,0,0,0,32.098,64.7C33.5416,62.811,33.1413,59.2969,33.0234,58.4752Z" style="fill: #0f0f0f"/>
      </g>
    </g>
    <g>
      <g>
        <path d="M129.0337,120.2822a.1463.1463,0,0,1-.0761-.0212.1479.1479,0,0,1-.05-.203c10.2383-17.0226,6.7219-20.3936,6.6851-20.4256a.1488.1488,0,0,1-.0158-.2082.1471.1471,0,0,1,.2069-.0177c.16.1338,3.7973,3.48-6.6227,20.804A.148.148,0,0,1,129.0337,120.2822Z" style="fill: #0f0f0f"/>
        <path d="M135.29,117.14a4.2067,4.2067,0,0,1-3.5266-1.8831.148.148,0,0,1,.0014-.15.1436.1436,0,0,1,.1313-.0721,13.529,13.529,0,0,0,8.5624-3.52.1479.1479,0,0,1,.2462.1035,5.4045,5.4045,0,0,1-3.5548,5.1857A5.6757,5.6757,0,0,1,135.29,117.14Zm-3.123-1.8138a4.0474,4.0474,0,0,0,4.8862,1.1981,4.9459,4.9459,0,0,0,3.3521-4.5708A14.0388,14.0388,0,0,1,132.1666,115.3259Z" style="fill: #0f0f0f"/>
        <path d="M131.8911,115.3307a.1461.1461,0,0,1-.0736-.02.1479.1479,0,0,1-.0545-.2019c.0337-.0586,3.43-5.83,8.8494-3.6211a.148.148,0,0,1-.1118.274c-5.1784-2.1095-8.4486,3.4386-8.481,3.4947A.1483.1483,0,0,1,131.8911,115.3307Z" style="fill: #0f0f0f"/>
        <path d="M130.9571,116.9607a.1482.1482,0,0,1-.111-.05c-3.8306-4.34-.8239-10.3315-.793-10.3916a.1479.1479,0,1,1,.2631.1353c-.03.0581-2.9439,5.8736.7519,10.0605a.1479.1479,0,0,1-.111.2458Z" style="fill: #0f0f0f"/>
        <path d="M129.61,114.7844a.1477.1477,0,0,1-.0746-.02c-1.5847-.9239-2.4228-2.0386-2.49-3.3133-.1378-2.5964,2.9452-4.8939,3.0766-4.99a.1479.1479,0,0,1,.22.0527c1.5367,3.0564,1.9219,5.3636,1.1455,6.8574a2.68,2.68,0,0,1-1.8553,1.4123Zm.5475-7.9769c-.6009.482-2.9308,2.494-2.817,4.6282.0617,1.1561.834,2.18,2.296,3.0447a2.4391,2.4391,0,0,0,1.5908-1.2519C131.7187,112.2766,131.9256,110.3924,130.1571,106.8075Z" style="fill: #0f0f0f"/>
        <path d="M135.1272,108.1a.146.146,0,0,1-.078-.0224,3.3647,3.3647,0,0,1-1.6167-2.2988c-.5229-2.7727,2.0178-6.208,2.1263-6.3529a.1478.1478,0,0,1,.1094-.0591.1441.1441,0,0,1,.116.0455,5.9012,5.9012,0,0,1,1.9945,4.7214,6.0611,6.0611,0,0,1-2.5706,3.9422A.1482.1482,0,0,1,135.1272,108.1Zm.5658-8.3529c-.4745.6812-2.4106,3.6408-1.97,5.9775a3.0626,3.0626,0,0,0,1.4,2.05,5.7884,5.7884,0,0,0,2.3613-3.6765A5.525,5.525,0,0,0,135.693,99.7471Z" style="fill: #0f0f0f"/>
      </g>
      <g>
        <path d="M137.1025,101.3222a.1479.1479,0,0,1-.1376-.2027c7.3806-18.5509,3.3286-21.2137,3.2869-21.2383a.1479.1479,0,1,1,.1506-.2547c.1795.1062,4.3111,2.8179-3.1624,21.6024A.1481.1481,0,0,1,137.1025,101.3222Z" style="fill: #0f0f0f"/>
        <path d="M142.0719,97.2648a4.2081,4.2081,0,0,1-3.0672-1.3463.148.148,0,0,1,.095-.24,13.5357,13.5357,0,0,0,7.8784-4.8621.1479.1479,0,0,1,.26.0622,5.4043,5.4043,0,0,1-2.6668,5.6934A5.2245,5.2245,0,0,1,142.0719,97.2648Zm-2.6578-1.3434a4.0474,4.0474,0,0,0,5.0158.39,4.9455,4.9455,0,0,0,2.5669-5.0538A14.0368,14.0368,0,0,1,139.4141,95.9214Z" style="fill: #0f0f0f"/>
        <path d="M139.1194,95.9729a.1481.1481,0,0,1-.1386-.2c.0237-.0632,2.4388-6.3084,8.1453-5.0079a.148.148,0,0,1-.0659.2886c-5.4562-1.2432-7.78,4.7626-7.8023,4.8233A.1481.1481,0,0,1,139.1194,95.9729Z" style="fill: #0f0f0f"/>
        <path d="M138.4616,97.7327a.1486.1486,0,0,1-.0936-.0333c-4.4833-3.6613-2.4877-10.0612-2.467-10.1253a.1479.1479,0,1,1,.2816.09c-.02.0625-1.9529,6.2733,2.3726,9.8055a.1479.1479,0,0,1-.0936.2626Z" style="fill: #0f0f0f"/>
        <path d="M136.7792,95.8037a.1469.1469,0,0,1-.0527-.01c-1.7137-.6546-2.7213-1.6189-2.9946-2.8657-.557-2.54,2.1128-5.3067,2.2268-5.4233a.1528.1528,0,0,1,.1166-.0441.1475.1475,0,0,1,.1088.06c2.0117,2.7668,2.7661,4.9811,2.2421,6.5811a2.68,2.68,0,0,1-1.6019,1.6944A.15.15,0,0,1,136.7792,95.8037Zm-.729-7.962c-.5147.5729-2.4875,2.9361-2.0291,5.0237.2481,1.1307,1.1763,2.0161,2.7591,2.6322a2.4386,2.4386,0,0,0,1.3666-1.4931C138.478,92.9854,138.3765,91.0925,136.05,87.8417Z" style="fill: #0f0f0f"/>
        <path d="M141.14,88.3133a.146.146,0,0,1-.0566-.0114,3.3648,3.3648,0,0,1-1.9679-2.0062c-.9654-2.6513.9846-6.4532,1.0682-6.6137a.1478.1478,0,0,1,.22-.05,5.9017,5.9017,0,0,1,2.7337,4.3356,6.0631,6.0631,0,0,1-1.8974,4.3071A.1486.1486,0,0,1,141.14,88.3133Zm-.7717-8.3362c-.3577.749-1.7886,3.9836-.9747,6.2178a3.063,3.063,0,0,0,1.7139,1.7955,5.7865,5.7865,0,0,0,1.7342-4.0108A5.5257,5.5257,0,0,0,140.3685,79.9771Z" style="fill: #0f0f0f"/>
      </g>
      <g>
        <path d="M140.1856,79.829l-.0113,0a.148.148,0,0,1-.1364-.1587c1.508-19.9083-3.1541-21.24-3.2013-21.2514a.1483.1483,0,0,1-.11-.1781.15.15,0,0,1,.1779-.11c.2031.048,4.9555,1.4029,3.4287,21.562A.1483.1483,0,0,1,140.1856,79.829Z" style="fill: #0f0f0f"/>
        <path d="M142.5321,74.655a4.185,4.185,0,0,1-2.1-.5579.1478.1478,0,0,1,.019-.2576,13.5361,13.5361,0,0,0,6.0683-6.9917.148.148,0,0,1,.2664-.0181,5.4043,5.4043,0,0,1-.8463,6.23A4.6828,4.6828,0,0,1,142.5321,74.655Zm-1.708-.6772a4.0493,4.0493,0,0,0,4.9039-1.1247,4.9456,4.9456,0,0,0,.9415-5.5893A14.038,14.038,0,0,1,140.8241,73.9778Z" style="fill: #0f0f0f"/>
        <path d="M140.5141,74.1215l-.0084,0a.1481.1481,0,0,1-.14-.156c.0039-.0674.4461-6.7487,6.28-7.21a.148.148,0,0,1,.0235.2951c-5.579.4414-6.0037,6.867-6.0074,6.9319A.148.148,0,0,1,140.5141,74.1215Z" style="fill: #0f0f0f"/>
        <path d="M140.4116,75.9974a.1482.1482,0,0,1-.055-.0107c-5.3721-2.1562-5.3773-8.86-5.3767-8.9277a.1481.1481,0,0,1,.1479-.1467h.0012a.1482.1482,0,0,1,.1468.1492c-.0006.0655.0081,6.57,5.1909,8.6505a.148.148,0,0,1-.0551.2854Z" style="fill: #0f0f0f"/>
        <path d="M138.23,74.6584l-.0093,0c-1.8309-.1136-3.08-.7333-3.7133-1.8417-1.29-2.2578.4328-5.6955.5068-5.8406a.1475.1475,0,0,1,.0981-.077.15.15,0,0,1,.122.0254c2.7458,2.04,4.1265,3.9285,4.104,5.6121a2.6792,2.6792,0,0,1-1.0234,2.0951A.1473.1473,0,0,1,138.23,74.6584ZM135.2022,67.27c-.32.7-1.4979,3.5448-.4374,5.4.5744,1.0051,1.7243,1.5732,3.4188,1.689a2.4392,2.4392,0,0,0,.8589-1.8331C139.0544,71.4549,138.3927,69.6784,135.2022,67.27Z" style="fill: #0f0f0f"/>
        <path d="M140.1569,66.2077l-.0133-.0006a3.3651,3.3651,0,0,1-2.477-1.3276c-1.7127-2.2423-.986-6.4528-.9543-6.631a.1484.1484,0,0,1,.0714-.1019.15.15,0,0,1,.1238-.0115,5.9011,5.9011,0,0,1,3.9029,3.322,6.0615,6.0615,0,0,1-.5255,4.6769A.148.148,0,0,1,140.1569,66.2077Zm-3.18-7.7325c-.1179.8217-.5182,4.3358.9255,6.2252a3.0623,3.0623,0,0,0,2.1715,1.2021,5.788,5.788,0,0,0,.4581-4.3456A5.525,5.525,0,0,0,136.9767,58.4752Z" style="fill: #0f0f0f"/>
      </g>
    </g>
    <g>
      <g>
        <path d="M57.2362,73.8621c-.7942,5.417-2.5527,15.145-3.8006,17.1869a5.2369,5.2369,0,0,1-5.2467,3.3468c-1.8434,0-2.751-1.6168-2.751-3.2048,0-1.9855,1.1626-5.1616,3.46-5.1616a1.573,1.573,0,0,1,1.6452,1.6447,5.1763,5.1763,0,0,1-.9076,2.7511,9.003,9.003,0,0,1-.9076,1.1059c-.17,0-.255-.085-.2267-.2551a5.63,5.63,0,0,0,1.7014-3.6019,1.2321,1.2321,0,0,0-1.3047-1.3047c-2.07,0-3.1194,3.2616-3.1194,4.8216s.8793,2.8644,2.4106,2.8644c1.5881,0,2.354-1.9852,2.8927-3.4319,1.56-3.857,3.0065-12.9609,3.8007-18.378.1984-.8508.51-3.63-.9643-3.63-1.7584,0-2.9214,2.751-2.9214,5.3318-.0566.1419-.312.17-.34,0,0-2.7226,1.248-5.6722,3.2618-5.6722,2.354,0,3.3182,2.0137,3.4032,3.999A9.961,9.961,0,0,1,57.2362,73.8621Z" style="fill: #4c4c4c"/>
        <path d="M69.659,79.194a32.6141,32.6141,0,0,1-2.439,3.9423c-1.2479,1.73-3.2048,4.084-5.644,4.084a4.6312,4.6312,0,0,1-1.9569-.34,3.0553,3.0553,0,0,1-1.6734-2.2119c-.6522-3.0066,1.6167-7.1756,5.1336-7.1756.68,0,2.0135.2269,2.1269,1.1061,0,1.39-1.276,2.4958-2.5807,2.9779a7.8633,7.8633,0,0,1-1.9571.4256,5.5879,5.5879,0,0,0,.2837,2.8644c.1134.2267.6239,1.39,1.6168,1.39,1.2193,0,2.7793-1.248,4.5094-3.63a33.9893,33.9893,0,0,0,2.2689-3.602.4972.4972,0,0,1,.17.0284A.491.491,0,0,1,69.659,79.194Zm-4.7929-.4821c0-.4539-.6242-.7941-1.05-.7941-1.56,0-2.7227,2.4391-3.0628,3.7436a9.88,9.88,0,0,0,1.7584-.3969C63.4764,80.8674,64.8661,79.9882,64.8661,78.7119Z" style="fill: #4c4c4c"/>
        <path d="M96.8011,79.194a37.5494,37.5494,0,0,1-2.439,3.9423c-1.2763,1.73-3.2048,4.084-5.6441,4.084-1.7584,0-3.7436-.7941-3.7436-3.63a6.8168,6.8168,0,0,1,.6239-2.751,10.37,10.37,0,0,1-2.9778-1.5883l-.0567.17a25.6723,25.6723,0,0,1-3.29,5.2182c-.5955.6809-1.6731,1.8438-2.3823,1.8438a2.5426,2.5426,0,0,1-2.3256-2.6377,9.8184,9.8184,0,0,1,.4255-2.7795l-.5672.9928a27.81,27.81,0,0,1-1.73,2.666c-.3687.4821-.9358,1.3613-1.73,1.3613-1.6164,0-2.4389-1.6167-2.4389-3.1481,0-2.0422,1.39-5.9843,1.418-6.1545L70,76.67h.1417c.5675,0,2.2406.539,2.3543,1.3047V78.06a15.2806,15.2806,0,0,0-1.5884,5.7008s-.0284,1.6163.2554,1.6163c.17,0,1.7867-.9642,5.1049-7.3739l.1134.0283c.0283,0,.0566-.0283.085-.0283a2.4809,2.4809,0,0,1,1.9,1.6165l.0287.0568-.057.0567a9.31,9.31,0,0,0-1.276,4.3676c0,.7375.17,1.0213.5671,1.0213.5672,0,2.7511-1.8438,4.1974-4.9917l.51-1.1062a8.0884,8.0884,0,0,1-2.8644-6.4664c0-1.9,1.021-3.0629,2.5526-3.0629,1.4748,0,2.2406,1.6732,2.2406,2.836a16.3708,16.3708,0,0,1-1.39,6.3813,9.3587,9.3587,0,0,0,2.9214,1.73,5.1612,5.1612,0,0,1,4.4244-2.95c.8793,0,2.1269.34,2.1269,1.333,0,1.7868-2.2689,2.5241-3.8286,2.5241a3.62,3.62,0,0,1-.5388-.0283l-.17.6808a4.9146,4.9146,0,0,0-.085.9076,5.3118,5.3118,0,0,0,.3687,1.9568c.1134.2267.6238,1.39,1.6168,1.39,1.2193,0,2.7793-1.248,4.5091-3.63a33.874,33.874,0,0,0,2.2689-3.602.4994.4994,0,0,1,.17.0284A.4913.4913,0,0,1,96.8011,79.194Zm-14.2089-.7657a15.3577,15.3577,0,0,0,1.333-5.7573c0-.9359-.4821-2.8362-1.8435-2.8362-1.2763,0-1.7584,1.4181-1.7584,2.7227A7.7563,7.7563,0,0,0,82.5922,78.4283Zm5.53,2.5524c.1416,0,.312.0284.4821.0284,1.1629-.0284,3.3465-.4538,3.3465-2.127a.9.9,0,0,0-.9926-.9643C89.6539,77.9178,88.6047,79.6478,88.1226,80.9807Z" style="fill: #4c4c4c"/>
        <path d="M106.4165,79.194a43.7609,43.7609,0,0,1-2.694,4.5948c-2.1273,3.1478-3.9707,4.7645-5.4454,4.7645-3.3752,0-3.4886-5.4453-3.2618-7.6009.4537-4.4526,1.6734-8.5366,3.29-10.8907,1.1343-1.6449,2.6657-3.0913,4.6512-3.0913,1.333,0,1.6734,1.2195,1.6447,2.3539,0,2.6944-2.5239,5.6723-4.1407,7.4591C99.156,78.23,97.965,79.2791,97.738,79.5061c-.0567.51-.1134.9925-.1417,1.4746-.0567,1.3331-.3121,5.8709,2.0422,5.8709.9925,0,2.4389-1.3614,4.169-3.9137,1.333-1.9855,2.2972-3.8856,2.3256-3.914a.7917.7917,0,0,1,.17.0284A.3054.3054,0,0,1,106.4165,79.194ZM103.58,68.19c-.5388,0-1.9568.2835-3.4032,2.7227a21.7827,21.7827,0,0,0-2.3822,8.083,33.5816,33.5816,0,0,0,2.4389-2.4675c1.6447-1.8434,3.999-4.6513,3.999-7.1471C104.2612,68.7855,104.1193,68.19,103.58,68.19Z" style="fill: #4c4c4c"/>
        <path d="M116.485,79.194c-.0284,0-1.106,2.0988-2.5807,4.2261-2.0138,2.921-3.7152,4.3957-5.0766,4.3957-1.5317,0-2.1272-1.8435-2.1272-3.1765a12.2006,12.2006,0,0,1,1.106-4.4242c.3971-.9926.7942-1.8151.9645-2.1554a13.0081,13.0081,0,0,1-1.4183-.7659c-.51,1.0778-.9076,1.8718-.9643,1.957a.4992.4992,0,0,1-.17-.0283.2781.2781,0,0,1-.1417-.1419s.4821-.8508,1.0209-2.0137a4.3379,4.3379,0,0,1-1.6734-3.3466c0-1.333.7092-2.9211,2.1839-2.9211,1.1059,0,1.4747,1.0209,1.333,1.9568a16.9792,16.9792,0,0,1-1.4464,4.2259c.8223.624,3.3182,1.1628,3.5166,2.07v.0283l-.0284.0567a31.3136,31.3136,0,0,0-1.588,5.6158c-.0851.4821-.3971,2.0985.5388,2.0985.4537,0,1.5314-.5105,3.8572-3.9137,1.3331-1.9855,2.3823-3.8856,2.3823-3.914a.7463.7463,0,0,1,.1984.0284A.3054.3054,0,0,1,116.485,79.194Zm-7.8843-6.438c.1133-.7373-.0284-1.6166-1.021-1.6166-.9075,0-1.4747,1.05-1.4747,2.4958a3.9092,3.9092,0,0,0,1.1344,3.12A18.5367,18.5367,0,0,0,108.6007,72.756Z" style="fill: #4c4c4c"/>
        <path d="M127.7731,79.194a18.9508,18.9508,0,0,1-4.9632,5.8425c-.68,3.9139-1.8718,8.9622-3.6586,11.0324a5.0055,5.0055,0,0,1-4.6512,1.39c-.9642-.1417-1.3046-1.3327-1.3046-2.24,0-1.9288,1.3613-3.914,2.7793-5.332a24.5752,24.5752,0,0,1,3.7724-2.978l.5671-.4252c.3687-1.73.6522-3.4318.8509-4.8217a16.2575,16.2575,0,0,1-1.9572,2.8929,3.7851,3.7851,0,0,1-2.5806,1.5317c-1.5318,0-1.73-1.7584-1.5884-3.2048a30.4309,30.4309,0,0,1,1.5034-5.2186l.0282-.1419.1417.0567a4.0975,4.0975,0,0,1,.8509.2553c.6238.2553.9359.5389.9643.8792V78.74l-.0284.0285c0,.0567-1.3613,3.9138-1.3613,5.5872,0,.5955.2551.9926.4538.9926.4821,0,1.0209-.6522,1.3613-1.0209a27.375,27.375,0,0,0,2.3823-3.6871c.17-1.2763.2553-2.07.2553-2.0987l.0284-.17.17.0284a4.6061,4.6061,0,0,1,.8225.1985,1.4566,1.4566,0,0,1,.9926.9076v.0566c0,.0284-.2267,2.1839-.6805,4.9633a18.6128,18.6128,0,0,0,4.5378-5.5021.7463.7463,0,0,1,.1984.0284A.3048.3048,0,0,1,127.7731,79.194ZM113.5359,95.2183c0,.7939.2837,1.7868,1.0209,1.9,1.021.255,1.9285-.6525,2.5526-1.39,1.106-1.22,2.1556-4.2261,3.12-8.7355l-.2837.17C117.5916,88.8084,113.5359,91.8431,113.5359,95.2183Z" style="fill: #4c4c4c"/>
      </g>
      <text transform="translate(67.6419 96.3603)" style="font-size: 6.615607738494873px;fill: #4c4c4c;font-family: Cormorant-Regular, Cormorant;letter-spacing: 0.24998589080891614em">DESIGNS</text>
    </g>
  </g>
</svg>
