<svg xmlns="http://www.w3.org/2000/svg" width="170" height="170" viewBox="0 0 170 170">
  <defs>
    <style>
      .cls-1 {
        fill: #fff;
        fill-rule: evenodd;
      }
    </style>
  </defs>
  <path class="cls-1" d="M56.942,75.971a13.755,13.755,0,0,0,1.76-8.308c-0.3-4.388-1.5-7.412-3.649-9.074-2.447-1.917-6.225-2.045-9.788.17a3.167,3.167,0,0,0-.944.809A11.113,11.113,0,0,0,40.63,64.3a15.345,15.345,0,0,0-1.159,6.177,10.636,10.636,0,0,0,2.747,6.689,9.153,9.153,0,0,0,6.825,3.11A9.353,9.353,0,0,0,56.942,75.971Zm-8.757,3.238c-1.932-.17-3.649-2.088-4.636-4.473a11.027,11.027,0,0,1-.858-6.22,15.479,15.479,0,0,1,6.267-9.67,1.048,1.048,0,0,0,.816.128c0.129-.128,0-0.256-0.343-0.469a2.661,2.661,0,0,1,3,.6,7.388,7.388,0,0,1,2.275,3.408,16.437,16.437,0,0,1,.687,7.157,14.382,14.382,0,0,1-1.846,6.178C52.349,77.845,50.246,79.379,48.185,79.209Zm20.733-7.583a0.98,0.98,0,0,0-.816-0.512,10.138,10.138,0,0,0-4.894,1.321l0.128-1.96c0.043-.469-0.558-0.724-1.717-0.681-1.073.042-1.588,0.3-1.631,0.6a55.434,55.434,0,0,0,.6,11.119c0.172,1.065,3.091-.341,3.005-0.937-0.172-1.7-.343-3.323-0.386-4.9a0.611,0.611,0,0,0,.558-0.256c0.515-1.874,2.189-3.11,4.765-3.28Q69.3,72.072,68.918,71.626Zm38.59-10.14A8.868,8.868,0,0,0,107.723,64c0.129,0.98,2.962-.469,2.962-0.724a2.017,2.017,0,0,1,.086-1.321C110.986,60.975,107.551,61.359,107.508,61.486Zm22.967,13.8a3.731,3.731,0,0,0-2.791,1.023,10.368,10.368,0,0,1-4.335,2.727c-1.46.426-2.533,0.255-3.263-.469a2.369,2.369,0,0,1-.448-0.664,1.548,1.548,0,0,0,.1-0.231,0.521,0.521,0,0,0-.31-0.544,4.971,4.971,0,0,1,.353-2.225c0.343-.98,1.5-1.747,3.348-2.3a0.639,0.639,0,0,0,.3-0.043q0.708-.127.257-0.511a2.4,2.4,0,0,0-2.146-.469,9.181,9.181,0,0,0-3.649,1.491,3.137,3.137,0,0,0-1.588,2.641,3.416,3.416,0,0,0,.367,1.673,1.987,1.987,0,0,0-.411.415,15.315,15.315,0,0,1-1.759,2.215,1.822,1.822,0,0,1-.859.554c-0.859.213-1.717-.852-2.1-2.343a23.588,23.588,0,0,1-.3-7.8,1.168,1.168,0,0,0-.043-0.383c-0.214-.426-0.816-0.511-1.846-0.256-0.987.256-1.5,0.681-1.545,1.236a26.7,26.7,0,0,0,.123,4.321,1.411,1.411,0,0,0-.3.28,22.86,22.86,0,0,0-2.017,2.854c-0.043.128-.129,0.17-0.172,0.128l-0.429-1.576c0-.085-0.129-0.469-0.258-1.108-0.172-.681-0.257-1.108-0.344-1.32a12.836,12.836,0,0,0-.772-2.386c-0.429-.894-1.159-2.087-2.1-2.172a4.078,4.078,0,0,0-4.035,1.235l-0.129-1.832c-0.086-1.15-3.134.128-3.134,0.809,0.356,4.015.566,6.988,0.721,8.939a0.881,0.881,0,0,0-.12.136c-0.816,1.193-1.8,1.363-2.275.383A11.279,11.279,0,0,1,91.453,76.1a19,19,0,0,1,0-5.836c0.172-.553-0.687-0.852-1.717-0.809a1.079,1.079,0,0,0-.773-0.341A7.081,7.081,0,0,0,84.2,71.583a7.824,7.824,0,0,0-1.777,3.062,3.69,3.69,0,0,0-1.1.6,40.8,40.8,0,0,1-4.293,3.025l-0.944-3.153c-0.43-1.448-.687-2.513-0.816-3.152a0.519,0.519,0,0,0-.129-0.384q-0.451-.511-1.417.256a2.164,2.164,0,0,0-.944,2.471c0.472,1.491.773,2.642,0.988,3.451a1.379,1.379,0,0,0-.558.341c-0.987,1.065-1.932,1.022-2.1.128a8.076,8.076,0,0,1,0-3.365,4.316,4.316,0,0,1,3.52-3.579,2.166,2.166,0,0,0,.386.085c0.343,0.042.387-.128,0.172-0.469a1.42,1.42,0,0,0-1.416-.724,6.377,6.377,0,0,0-6.053,6.049,4.3,4.3,0,0,0,3.391,4,5.111,5.111,0,0,0,3.177-.255v0.042a26.2,26.2,0,0,0-3.22,2.471,9.365,9.365,0,0,0-2.19,2.684,1.537,1.537,0,0,0,.429,1.96,2.785,2.785,0,0,0,2.017.937c2.4-.042,4.121-0.554,5.151-1.619q1.8-1.789,1.159-5.367a0.538,0.538,0,0,0-.043-0.256L82.165,77.4a2.758,2.758,0,0,0,1.518,1.724,6.635,6.635,0,0,0,3.434.767,4.982,4.982,0,0,0,2.361-.767,5.109,5.109,0,0,0,3.176,2.514,4.728,4.728,0,0,0,3.681-.466c0.888-.188,1.925-0.756,1.9-1.153l-0.343-4.345a1.138,1.138,0,0,0,.258-0.426A9.082,9.082,0,0,1,99.7,71.668a0.623,0.623,0,0,1,.516-0.341c0.343,0.043.687,0.724,0.944,2.13l0.215,1.15,0.3,1.364a11.979,11.979,0,0,0,.344,1.193,4.229,4.229,0,0,0,2.017,2.769c1.375,0.6,2.917.117,4.644-1.49a5.483,5.483,0,0,0,1.581,2.257c1.781,1.466,5.166,1.071,8.091-1.443a6.379,6.379,0,0,0,2.77,1.231c2.876,0.554,6.611-.767,9.916-3.962a1.125,1.125,0,0,0,.429-0.639C131.505,75.5,131.2,75.332,130.475,75.289ZM73.725,86.025a2.586,2.586,0,0,1-2.017.937c-0.387,0-.472-0.085-0.3-0.3a30.517,30.517,0,0,1,3.133-3.238A3.75,3.75,0,0,1,73.725,86.025Zm13.092-7.583a1.64,1.64,0,0,1-1.116.341c-0.515-.042-0.6-1.533-0.3-2.727a9.1,9.1,0,0,1,2.619-4.9,16.714,16.714,0,0,0,.515,5.453A7.168,7.168,0,0,1,86.817,78.442ZM63.922,61.756v-0.41H61.181v3.767h0.43V63.48H63.67V63.064H61.612V61.756h2.31Zm3.091,3.357V62.268h-0.43v0.461a1.14,1.14,0,0,0-1-.506,1.336,1.336,0,0,0-1.038.427,1.621,1.621,0,0,0,0,2.083,1.3,1.3,0,0,0,1.009.427,1.163,1.163,0,0,0,1.026-.5v0.455h0.43Zm-0.665-.66a0.912,0.912,0,0,1-.734.319,0.956,0.956,0,0,1-.745-0.319,1.212,1.212,0,0,1,0-1.525,0.955,0.955,0,0,1,.745-0.319,0.911,0.911,0,0,1,.734.319A1.257,1.257,0,0,1,66.348,64.453Zm2.924-1.8V62.222H69.243a1.088,1.088,0,0,0-1.055.745v-0.7h-0.43v2.845h0.43V63.861a1.33,1.33,0,0,1,.275-0.842,0.921,0.921,0,0,1,.757-0.37h0.052ZM74,65.113V63.395a1.2,1.2,0,0,0-.321-0.854,1.043,1.043,0,0,0-.341-0.236,1.008,1.008,0,0,0-.4-0.083,1.058,1.058,0,0,0-.376.062,1.1,1.1,0,0,0-.608.512,1.03,1.03,0,0,0-.381-0.424,0.991,0.991,0,0,0-.531-0.15,0.948,0.948,0,0,0-.872.478V62.268h-0.43v2.845h0.43v-1.7a0.775,0.775,0,0,1,.23-0.592,0.754,0.754,0,0,1,.545-0.21,0.664,0.664,0,0,1,.51.216,0.845,0.845,0,0,1,.2.58v1.707h0.43v-1.7a0.775,0.775,0,0,1,.23-0.592,0.754,0.754,0,0,1,.545-0.21,0.665,0.665,0,0,1,.51.216,0.845,0.845,0,0,1,.2.58v1.707H74Zm2.8,0h0.476L77.74,64.02h1.88l0.465,1.093h0.476L78.95,61.346H78.411Zm2.655-1.485H77.906L78.68,61.79Zm4.026,1.485V63.457a1.225,1.225,0,0,0-.355-0.916,1,1,0,0,0-.361-0.239,1.374,1.374,0,0,0-.493-0.079,0.934,0.934,0,0,0-.51.142,1.441,1.441,0,0,0-.379.347V62.268h-0.43v2.845h0.43V63.474a0.834,0.834,0,0,1,.253-0.626,0.859,0.859,0,0,1,.613-0.239,0.766,0.766,0,0,1,.579.233,0.867,0.867,0,0,1,.224.626v1.644h0.43Zm3.383,0V61.13h-0.43v1.6a1.14,1.14,0,0,0-1-.506,1.336,1.336,0,0,0-1.038.427,1.621,1.621,0,0,0,0,2.083,1.3,1.3,0,0,0,1.009.427,1.164,1.164,0,0,0,1.027-.5v0.455h0.43Zm-0.665-.66a0.912,0.912,0,0,1-.734.319,0.956,0.956,0,0,1-.745-0.319,1.212,1.212,0,0,1,0-1.525,0.955,0.955,0,0,1,.745-0.319,0.911,0.911,0,0,1,.734.319A1.257,1.257,0,0,1,86.2,64.453Zm4.959-2.621a1.717,1.717,0,0,1,.677-0.116,1.257,1.257,0,0,1,.714.2,1.233,1.233,0,0,1,.456.552h0.453a1.688,1.688,0,0,0-.625-0.842,1.842,1.842,0,0,0-1.095-.33,1.742,1.742,0,0,0-1.348.563,2.157,2.157,0,0,0,0,2.732,1.744,1.744,0,0,0,1.348.563,1.842,1.842,0,0,0,1.095-.33,1.687,1.687,0,0,0,.625-0.842H93a1.235,1.235,0,0,1-.456.552,1.257,1.257,0,0,1-.714.2A1.432,1.432,0,0,1,90.7,64.3a1.737,1.737,0,0,1,0-2.151A1.28,1.28,0,0,1,91.157,61.832Zm5.516,3.281V62.268h-0.43v0.461a1.14,1.14,0,0,0-1-.506,1.336,1.336,0,0,0-1.038.427,1.621,1.621,0,0,0,0,2.083,1.3,1.3,0,0,0,1.009.427,1.164,1.164,0,0,0,1.027-.5v0.455h0.43Zm-0.665-.66a0.911,0.911,0,0,1-.734.319,0.956,0.956,0,0,1-.745-0.319,1.212,1.212,0,0,1,0-1.525,0.955,0.955,0,0,1,.745-0.319,0.911,0.911,0,0,1,.734.319A1.256,1.256,0,0,1,96.007,64.453Zm2.187-2.831a0.675,0.675,0,0,1,.456-0.134h0.057v-0.4H98.673a1.185,1.185,0,0,0-.779.233,0.856,0.856,0,0,0-.281.7v0.25H97.12v0.375h0.493v2.47h0.43v-2.47h0.665V62.268H98.043V62.052A0.546,0.546,0,0,1,98.194,61.622Zm3.593,2.069a1.471,1.471,0,0,0-.379-1.041,1.489,1.489,0,0,0-2.086,0,1.474,1.474,0,0,0-.379,1.041,1.45,1.45,0,0,0,.4,1.041,1.393,1.393,0,0,0,1.055.427,1.3,1.3,0,0,0,1.307-.865h-0.47a0.868,0.868,0,0,1-.831.478,0.975,0.975,0,0,1-.7-0.262,1.032,1.032,0,0,1-.316-0.649h2.4V63.69Zm-2.4-.228a1,1,0,0,1,.31-0.609,1.025,1.025,0,0,1,1.33,0,1,1,0,0,1,.31.609H99.391ZM62.1,84.033c2.018-.426,3.649,1.576,4.508,4.644,0.043,0.724.258,1.108,0.687,1.108a1.456,1.456,0,0,0,1.245-1.193,3.451,3.451,0,0,0-.816-3.877c-2.146-2.386-6.1-2.3-9.144-1.108a12.053,12.053,0,0,0-6.053,5.879,9.419,9.419,0,0,0-.129,8.307,10.276,10.276,0,0,0,6.74,4.644,23.275,23.275,0,0,0,12.578-.256,33.687,33.687,0,0,0,7.641-3.749c0.531-.319,1-0.6,1.42-0.846a2.583,2.583,0,0,0,1.584,2.252,6.631,6.631,0,0,0,3.434.766,4.979,4.979,0,0,0,2.361-.766,5.108,5.108,0,0,0,3.176,2.513,4.624,4.624,0,0,0,3.411-.331c0.159,0.493.283,0.921,0.367,1.268l0.086,0.341-0.772.426-0.773.512-1.588,1.022c-0.3.3-1.116,0.852-1.5,1.193-0.343.383-.945,0.937-1.331,1.405-1.632,1.875.257,5.241,2.532,5.326a4.422,4.422,0,0,0,2.662-.9,5.724,5.724,0,0,0,2.06-2.258,11.5,11.5,0,0,0,1.031-5.751,28.267,28.267,0,0,0,4.421-3.493,4.34,4.34,0,0,0,.357-0.518,7.679,7.679,0,0,0,3.163.731c4.164,0.127,7.384-.98,9.616-3.281a1.074,1.074,0,0,0,.3-0.511c0.043-.383-0.3-0.6-1.116-0.639a2.987,2.987,0,0,0-2.4.767,7.445,7.445,0,0,1-8.2,2.045,1.7,1.7,0,0,1-.859-1.364,6.466,6.466,0,0,1-.085-2.215,4.993,4.993,0,0,1,1.76-3.2,2.732,2.732,0,0,1,1.545-.809c0.387-.042.558,0.128,0.429,0.469a25.836,25.836,0,0,1-1.245,3.451,0.919,0.919,0,0,0-.257.6c0,0.469.386,0.724,1.2,0.809a2,2,0,0,0,2.146-.766,4.264,4.264,0,0,0,.558-3.664,2.622,2.622,0,0,0-2.275-2.173,7.017,7.017,0,0,0-6.1,2.556,4.9,4.9,0,0,0,.129,5.837,4.745,4.745,0,0,0,.54.573A6.773,6.773,0,0,0,97.69,101.8l-0.429.425c-0.3-1.32-.73-3.152-1.073-4.175l-0.73-2.258-0.644-2.045a9.781,9.781,0,0,1-.043-6.263c0.73-2.044,2.361-4.26,3.949-4.814v0.725a18.142,18.142,0,0,1-.773,4.6,15.446,15.446,0,0,1-1.975,3.579,0.928,0.928,0,0,0-.515.767q0,0.575,1.03.383c1.417-.213,2.791-1.193,4.121-3.025a7.081,7.081,0,0,0,1.46-4.686,4.1,4.1,0,0,0-5.452-3.281A9.178,9.178,0,0,0,92.2,86.29,9.909,9.909,0,0,0,91.38,92.3a35.858,35.858,0,0,0,1.889,5.751q0.368,0.9.664,1.683a0.971,0.971,0,0,0-.407.32c-0.816,1.192-1.8,1.363-2.275.383a11.278,11.278,0,0,1-1.116-3.621,19,19,0,0,1,0-5.836c0.172-.553-0.687-0.852-1.717-0.809a1.079,1.079,0,0,0-.773-0.341A7.081,7.081,0,0,0,82.88,92.3a7.838,7.838,0,0,0-1.75,2.986,7.67,7.67,0,0,0-2.112.848c-0.644.384-1.674,0.98-3.048,1.875-1.374.852-2.576,1.576-3.649,2.13a17.308,17.308,0,0,1-3.133,1.278A16.4,16.4,0,0,1,58.2,100.9a6.554,6.554,0,0,1-3.391-5.539,10.281,10.281,0,0,1,1.5-6.39C57.855,86.418,60,84.458,62.1,84.033Zm32.581,23.814a16.3,16.3,0,0,1-2.06,3.621,2.145,2.145,0,0,1-1.159.937c-0.343,0-.3-1.789.086-2.684,0.429-1.022,1.588-2.087,3.305-3.365L95.2,106.1A5.879,5.879,0,0,1,94.685,107.847ZM84.082,96.77a9.1,9.1,0,0,1,2.619-4.9,16.717,16.717,0,0,0,.515,5.453A7.171,7.171,0,0,1,85.5,99.156a1.64,1.64,0,0,1-1.116.341C83.867,99.454,83.782,97.963,84.082,96.77ZM126.4,83.987s-0.028.5-.081,1.444c-0.016.472-.075,1.05-0.153,1.728q-0.056.508-.121,1.09c-0.058.386-.121,0.8-0.186,1.23a38.571,38.571,0,0,1-1.474,6.133,42.858,42.858,0,0,1-3.274,7.465,42.025,42.025,0,0,1-5.657,7.775,39.787,39.787,0,0,1-3.8,3.62c-0.674.591-1.409,1.123-2.131,1.684-0.367.273-.751,0.526-1.128,0.793s-0.76.526-1.159,0.766a41.194,41.194,0,0,1-10.417,4.735,41.835,41.835,0,0,1-5.761,1.261,42.042,42.042,0,0,1-11.863,0,41.835,41.835,0,0,1-5.761-1.261,41.288,41.288,0,0,1-10.416-4.735c-0.4-.241-0.784-0.5-1.16-0.767s-0.761-.52-1.128-0.792c-0.722-.561-1.455-1.095-2.131-1.685a39.9,39.9,0,0,1-3.8-3.62,42.117,42.117,0,0,1-5.657-7.774,42.872,42.872,0,0,1-3.274-7.465,38.518,38.518,0,0,1-1.474-6.133L44.2,88.248l-0.121-1.091C44,86.479,43.945,85.9,43.929,85.43c-0.053-.941-0.082-1.444-0.082-1.444s0,0.5-.008,1.447c-0.014.473,0.009,1.054,0.045,1.739,0.018,0.342.027,0.711,0.056,1.1l0.13,1.246a38.987,38.987,0,0,0,1.2,6.265,39.607,39.607,0,0,0,3.026,7.736A41.081,41.081,0,0,0,57.707,115.5a38.575,38.575,0,0,0,4.514,3.432,41.212,41.212,0,0,0,10.751,5.043,43.517,43.517,0,0,0,5.986,1.34,41.184,41.184,0,0,0,12.336,0,43.514,43.514,0,0,0,5.986-1.34,41.308,41.308,0,0,0,10.75-5.043,38.43,38.43,0,0,0,4.514-3.433,41.228,41.228,0,0,0,3.835-3.826,40.764,40.764,0,0,0,5.573-8.146,39.688,39.688,0,0,0,3.026-7.735,38.959,38.959,0,0,0,1.2-6.265q0.069-.659.13-1.246c0.028-.392.038-0.762,0.056-1.1,0.036-.685.059-1.266,0.045-1.738C126.407,84.49,126.4,83.987,126.4,83.987ZM58.351,52.936l1.137-.839c0.854-.621,1.922-1.339,3.176-2.1,0.621-.391,1.318-0.749,2.032-1.156,0.743-.356,1.492-0.788,2.323-1.14a42.052,42.052,0,0,1,5.429-2.053,41.547,41.547,0,0,1,6.307-1.4,43.267,43.267,0,0,1,6.863-.413l1.8,0.073c0.3,0.017.608,0.013,0.9,0.048l0.876,0.1,1.755,0.2c0.585,0.09,1.171.215,1.757,0.32a42.031,42.031,0,0,1,6.852,1.873,44.617,44.617,0,0,1,6.226,2.936c0.483,0.282.968,0.552,1.438,0.838l1.356,0.908c0.917,0.57,1.73,1.241,2.549,1.862a44.616,44.616,0,0,1,4.288,3.892l0.47,0.474,0.428,0.492,0.83,0.95c0.562,0.6,1.018,1.232,1.465,1.812,0.923,1.142,1.589,2.235,2.189,3.106,0.576,0.885.963,1.62,1.26,2.1l0.44,0.752-0.359-.791-0.433-.953a13.531,13.531,0,0,0-.622-1.275,36.22,36.22,0,0,0-1.956-3.305c-0.412-.619-0.831-1.294-1.357-1.944l-0.787-1.018-0.409-.527-0.452-.51L115.185,55.2a14.237,14.237,0,0,0-1.006-1.062l-1.092-1.051-0.561-.537-0.6-.5c-0.816-.672-1.629-1.4-2.551-2.024L108,49.04c-0.478-.307-0.973-0.6-1.465-0.9a41.369,41.369,0,0,0-6.4-3.174,43.35,43.35,0,0,0-7.114-2c-0.612-.105-1.218-0.229-1.834-0.318l-1.864-.2a17.4,17.4,0,0,0-1.838-.138l-1.8-.059a40.582,40.582,0,0,0-7.149.571,37.759,37.759,0,0,0-6.464,1.663A37.054,37.054,0,0,0,66.6,46.856c-0.826.408-1.573,0.883-2.3,1.3-0.7.465-1.378,0.877-1.98,1.317a37.7,37.7,0,0,0-3.036,2.372l-1.062.947-0.746.735-0.621.613,0.68-.547Z"/>
</svg>
