<svg id="LOGOS" xmlns="http://www.w3.org/2000/svg" width="170" height="170" viewBox="0 0 170 170">
  <title>5Mesa de trabajo 1</title>
  <g>
    <text transform="translate(29.3009 126.0247)" style="font-size: 20.65621566772461px;fill: #4c4c4c;font-family: RozhaOne-Regular, Rozha One;letter-spacing: 0.30001940939662264em">NATURE</text>
    <text transform="translate(60.7248 135.5569)" style="font-size: 4.374256610870361px;fill: #4c4c4c;font-family: Butler;letter-spacing: 0.3000509839176644em">VIN<tspan x="12.2217" y="0" style="letter-spacing: 0.22593124681895563em">T</tspan><tspan x="16.062" y="0" style="letter-spacing: 0.26008883650601117em">A</tspan><tspan x="20.231" y="0" style="letter-spacing: 0.29993935780757597em">GE LOGO</tspan></text>
    <g>
      <g>
        <path d="M77.9655,67.0518C74.3,70.6351,75.5712,73.37,76.134,74.2243c-1.2876,2.1963-2.4968,6.9417-3.0111,9.1312-.0144-1.1739-.0215-2.3266-.0171-3.3886.0069-.0634.094-.8668.2341-2.0653a5.1221,5.1221,0,0,0,.435-3.5425c.2916-2.2549.6416-4.7122.9732-6.4059.0745.1023.121.1562.121.1562C77.49,61.058,89.2132,52.47,89.2132,52.47c-6.74.5785-9.5162,3.04-10.656,4.8415-6.6927,4.5913-4.8929,8.91-4.0249,10.319l-.0045.0107c-.3079,1.5068-.635,3.7216-.9193,5.8586a1.6038,1.6038,0,0,0-.8919-1.0889c-.5357-4.2269-1.4233-8.3566-1.589-9.1111.0424-.0622.0939-.141.1525-.236l.0109-.0177.0365-.0606.0192-.0321.0352-.06.024-.0417.0354-.0628.0256-.0462.0372-.0686.0249-.0469.04-.0756.0245-.0484c.0137-.027.0275-.054.0413-.0821l.0215-.0444c.0746-.1534.15-.3214.225-.5035l.0135-.0329c.0161-.04.0321-.0807.048-.1218l.017-.044c.0154-.04.0305-.0814.0456-.1228l.0182-.05q.0226-.0636.0449-.1291l.0153-.0456c.0155-.0466.0309-.0936.046-.1414l.0109-.0356c.0161-.0517.0319-.1038.0474-.157l.0049-.0175a8.6284,8.6284,0,0,0,.2551-1.2041l.0018-.0126q.0143-.1043.0261-.2109l.0016-.0153c.008-.0721.0149-.145.0211-.2186l.0006-.007c.2317-2.8071-.8546-6.7266-6.4649-10.7825C69.7647,42.06,76.6447,35.9506,76.6447,35.9506a24.1551,24.1551,0,0,0-11.5512,7.9065c-2.1769,2.7751-1.1107,4.1951-1.1107,4.1951-1.1019,2.9106-.1947,4.0637.1319,4.3633a.1358.1358,0,0,0-.0319.0745,28.2738,28.2738,0,0,0,.2665,6.844c-.0741.036-.1434.0724-.2089.1093A39.4612,39.4612,0,0,1,60.899,50.12a.1361.1361,0,0,0-.0585-.0822c.885-1.393.91-4.7492-.9193-12.2769-.9619-3.9576-2.1246-4.0946-3.0111-2.5254A6.6742,6.6742,0,0,0,53.9907,33.28c-1.05,2.2509.14,5.6747,1.5487,8.4785-.0049.2712-.004.5414.0032.8089A8.4972,8.4972,0,0,0,60.6384,50.1a.1353.1353,0,0,0-.0093.0834,39.75,39.75,0,0,0,3.2773,9.4061c-2.03,1.3975,1.3426,3.2973,2.4,3.8355a24.708,24.708,0,0,1,5.5749,8.77,7.2184,7.2184,0,0,0-2.4731.31c-.3455-.6041-.7231-1.2145-1.1221-1.82a83.0565,83.0565,0,0,0-5.7216-9.1034,16.0471,16.0471,0,0,0-2.339-5.0641c.0592.0547.1174.1093.1721.1643,0,0-3.4541-11.7653-21.294-6.9743,0,0,4.4655.7373,9.3883,2.0083,1.5628,1.0742,4.352,2.998,7.0736,4.9073a12.6914,12.6914,0,0,0-4.7411.3969c1.4753,1.0716,9.61,5.3877,11.35,6.3076a69.6409,69.6409,0,0,1,5.8707,7.4924c.3638.6467.6985,1.2505.9952,1.7908q-.2028.0611-.4043.1275c-1.3664-.9679-3.32-1.6269-4.0119,1.7571,4.5438-.3914,7.5649,2.8587,8.225,3.6449-.0006.0553,0,.1125-.0012.1672-.108,5.6.2654,15.7519.2692,15.854a.1384.1384,0,0,0,.1436.133l.0167-.0015a.1384.1384,0,0,0,.1163-.142c-.0026-.07-.1773-4.8247-.2534-9.6142.07-.3261,1.58-7.2378,3.1738-10.0653.0191.023.03.035.03.035a63.8291,63.8291,0,0,1,3.6555-5.24C81.7176,67.1359,87.216,64.09,87.216,64.09A9.9465,9.9465,0,0,0,77.9655,67.0518ZM62.4448,63.2141a11.0546,11.0546,0,0,0-.6909-2.14c.0931.071.1831.14.2674.2051a.1364.1364,0,0,0,.03.1082,57.476,57.476,0,0,1,4.5158,6.8569C64.8255,65.911,63.11,63.9557,62.4448,63.2141Zm2.1615-3.9962a29.0658,29.0658,0,0,1-.2473-6.7062.1366.1366,0,0,0-.0956-.14,17.2323,17.2323,0,0,1,.6964-1.7735,22.0318,22.0318,0,0,0,1.8052,8.0271A10.884,10.884,0,0,0,64.6063,59.2179Zm1.9242,4.0393a3.6018,3.6018,0,0,1,1.2147-2.8914,9.9112,9.9112,0,0,0,3.1166,3.015c.1731.79,1.0306,4.7917,1.5619,8.9192-.0748-.0222-.15-.0435-.23-.0594A25.1351,25.1351,0,0,0,66.5305,63.2572Z" style="fill: #ffbc7b"/>
        <path d="M68.7919,60.3841S73.61,66.5456,74.5446,69.82a79.4111,79.4111,0,0,1,1.6409,7.78s.0183-.0085.0514-.0256c.4514,4.0134-1.1777,12.6648-1.2555,13.0727-2.4147,5.45-4.9256,10.812-4.9624,10.89a.1721.1721,0,0,0,.0643.2191l.0184.01a.1722.1722,0,0,0,.229-.0826c.0541-.1151,5.4151-11.5629,8.0128-18.0308.0253-.063.0538-.1284.08-.1921,1.1382-.58,6.1784-2.8348,11.1934-.1785.8524-4.2124-1.7063-4.4071-3.742-3.9624q-.1986-.1742-.4011-.3425c.6024-.4747,1.2793-1.0038,2.01-1.5678A86.6847,86.6847,0,0,1,97.85,71.68c2.44-.2081,13.8559-1.2,16.0667-1.71a15.792,15.792,0,0,0-5.2382-2.7586c4.0455-.8647,8.1755-1.713,10.4878-2.1841,6.2569.9363,11.7308,2.2617,11.7308,2.2617C112.7888,53.1305,103.1146,64.93,103.1146,64.93c.0894-.0365.1826-.0709.277-.1046a19.97,19.97,0,0,0-5.14,4.6644A103.3369,103.3369,0,0,0,87.273,77.1377c-.7514.5-1.4806,1.0157-2.17,1.54a8.9818,8.9818,0,0,0-2.6825-1.5568,30.7462,30.7462,0,0,1,10.6481-7.3374c1.4724-.1028,6.2587-.64,4.6128-3.2277a49.4545,49.4545,0,0,0,8.3251-9.1824.1685.1685,0,0,0,.03-.1,10.5735,10.5735,0,0,0,9.4978-6.1522q.2073-.4545.3967-.9251c2.976-2.5275,6.003-5.8713,5.8944-8.96a8.3059,8.3059,0,0,0-4.2947.8215c-.2529-2.2284-1.6514-2.6364-4.6765,1.43-5.7542,7.7343-7.3561,11.5912-7.0191,13.6171a.1691.1691,0,0,0-.107.0657,49.1027,49.1027,0,0,1-8.2439,9.1052c-.0572-.074-.1189-.15-.1862-.2267a35.1832,35.1832,0,0,0,3.6311-7.7106.1685.1685,0,0,0,0-.1009c.52-.1845,2.1194-1.0645,2.2715-4.9343,0,0,1.9114-1.1085.7662-5.3454a30.0566,30.0566,0,0,0-9.39-14.6706s4.9127,10.3414,6.0451,19.56c-8.398,1.92-11.5471,5.882-12.6457,9.21l-.0027.0083q-.0432.1311-.0822.2607l-.0055.0185q-.0382.1278-.0726.2541l-.0041.0153a10.7163,10.7163,0,0,0-.2928,1.5034l-.0029.0225q-.0121.1025-.0221.2028l-.0047.046q-.009.0932-.0161.1844l-.0046.06q-.0063.0857-.0112.17l-.0036.0661c-.0029.0548-.0055.1092-.0075.1627l-.0018.0588c-.0017.0549-.0034.1094-.0042.1629l-.0005.0442c-.003.2448.0021.4741.013.6861l.0031.0613c.0022.039.0048.0765.0073.1141l.0047.0674.0085.1059.0058.0658.0093.0967.0069.0653.01.0892.0072.0594.011.0863.0063.0461.0124.0871.004.0256c.0209.1372.0417.2526.06.3444-.5565.7839-3.58,5.0833-6.2479,9.6652a1.9952,1.9952,0,0,0-1.5509.8139c.7128-2.5862,1.4144-5.2824,1.794-7.1581.0009-.0049-.0006-.01,0-.0145,1.6788-1.1917,5.84-5.2649.4037-13.7768-.43-2.618-2.4142-6.7864-9.8542-10.7245,0,0,9.2563,15.5352,8.8319,24.8865,0,0,.0794-.0392.2145-.12-.4433,2.1014-1.2365,5.0865-1.9982,7.8112-1.2855,2.1179-1.3494,3.5245-1.2232,4.27-.4219,1.4409-.7126,2.4036-.7355,2.48-.511,1.2187-1.0794,2.5359-1.6662,3.8736.4748-2.7582,1.3956-8.7817.9879-11.9234,1.06-.705,3.8453-3.22,1.3875-9.1066C74.9652,61.1258,68.7919,60.3841,68.7919,60.3841ZM90.4273,75.178a71.5419,71.5419,0,0,1,8.5054-5.66.17.17,0,0,0,.0868-.1094c.1283-.0338.2647-.069.406-.105a13.7633,13.7633,0,0,0-1.8313,2.1155C96.4718,71.9451,93.5563,73.3513,90.4273,75.178ZM94.875,64.0628a27.4124,27.4124,0,0,0,5.9687-8.3182,21.43,21.43,0,0,1-.064,2.37.17.17,0,0,0-.1774.1138A36.1721,36.1721,0,0,1,97.06,65.79,13.5315,13.5315,0,0,0,94.875,64.0628ZM82.0394,77.0214c-.0987-.02-.1955-.0328-.2919-.0436,2.6144-4.47,5.5415-8.6379,6.1236-9.4585A12.331,12.331,0,0,0,92.9064,65.58a4.482,4.482,0,0,1-.0136,3.9025A31.28,31.28,0,0,0,82.0394,77.0214Z" style="fill: #ffbc7b"/>
      </g>
      <path d="M74.5707,43.6067a28.8963,28.8963,0,0,1,5.3273-.4929,28.5991,28.5991,0,0,1,15.8425,4.7584" style="fill: none;stroke: #231f20;stroke-miterlimit: 10;stroke-width: 3px"/>
      <path d="M108.2854,76.3162A28.7368,28.7368,0,1,1,52.8629,62.0933" style="fill: none;stroke: #231f20;stroke-miterlimit: 10;stroke-width: 3px"/>
    </g>
  </g>
</svg>
