<?xml version="1.0" encoding="UTF-8"?><svg id="Layer_2" xmlns="http://www.w3.org/2000/svg" viewBox="0 0 496.26 147.8"><defs><style>.cls-1{fill:#f59a1a;}.cls-2{fill:#1d1d1b;}</style></defs><g id="_Слой_1"><g><path class="cls-2" d="M77.53,147.8l-10.24-40.13h-.14l-10.78,40.13H22.93L0,60.17H31.81l9.28,47.37c.55,2.37,.91,4.91,1.09,7.64h.14c.18-2.18,.59-4.69,1.23-7.51l10.92-47.5h26.07l10.65,47.37c.55,2.37,.91,4.91,1.09,7.64h.14c.18-2.18,.59-4.69,1.23-7.51l9.28-47.5h31.4l-23.89,87.64h-32.9Z"/><path class="cls-2" d="M267.21,118.32h-3v29.48h-29.89V60.17h41.63c10.19,0,18.68,2.59,25.46,7.78s10.17,11.97,10.17,20.34c0,5.64-1.73,10.58-5.19,14.81-3.46,4.23-7.69,7.21-12.7,8.94l22.52,35.76h-33.17l-15.83-29.48Zm4.23-16.79c3.09,0,5.66-.93,7.71-2.8s3.07-4.3,3.07-7.3-1.02-5.44-3.07-7.3c-2.05-1.87-4.57-2.8-7.58-2.8h-7.37v20.2h7.23Z"/><path class="cls-2" d="M346.24,109.58v38.22h-30.03V60.17h30.03v36.72l21.29-36.72h34.94l-27.85,41.77,29.48,45.86h-37.13l-20.75-38.22Z"/><path class="cls-2" d="M463.91,147.8h-29.89v-29.62l-31.53-58.01h34.13l11.74,27.3c.82,2.09,1.32,3.64,1.5,4.64,.18-1.37,.73-2.91,1.64-4.64l12.01-27.3h32.76l-32.35,57.19v30.44Z"/><path class="cls-2" d="M184,103.98c-24.2,0-43.82,19.62-43.82,43.82h87.64c0-24.2-19.62-43.82-43.82-43.82Z"/><path class="cls-1" d="M230.54,47.84c-.51-15.09-8.24-28.35-19.85-36.43l-12.07,15.16,9.51-20.45c-7.07-3.89-15.18-6.12-23.82-6.12s-16.76,2.22-23.82,6.12l9.51,20.45-12.07-15.16c-11.62,8.07-19.34,21.33-19.85,36.43h-3.77v12.33h99.99v-12.33h-3.77Z"/><path class="cls-2" d="M197.29,60.17h0c0,7.16-5.81,12.97-12.97,12.97s-12.97-5.81-12.97-12.97h0s-30.85,0-30.85,0h0c0,24.2,19.62,43.82,43.82,43.82s43.82-19.62,43.82-43.82h0s-30.85,0-30.85,0Z"/></g></g></svg>